<?xml version="1.0" encoding="utf-8" standalone="no"?>
<!DOCTYPE svg PUBLIC "-//W3C//DTD SVG 1.1//EN"
  "http://www.w3.org/Graphics/SVG/1.1/DTD/svg11.dtd">
<svg xmlns:xlink="http://www.w3.org/1999/xlink" width="1008pt" height="360pt" viewBox="0 0 1008 360" xmlns="http://www.w3.org/2000/svg" version="1.1">
 <metadata>
  <rdf:RDF xmlns:dc="http://purl.org/dc/elements/1.1/" xmlns:cc="http://creativecommons.org/ns#" xmlns:rdf="http://www.w3.org/1999/02/22-rdf-syntax-ns#">
   <cc:Work>
    <dc:type rdf:resource="http://purl.org/dc/dcmitype/StillImage"/>
    <dc:date>2024-07-23T12:42:57.247455</dc:date>
    <dc:format>image/svg+xml</dc:format>
    <dc:creator>
     <cc:Agent>
      <dc:title>Matplotlib v3.8.4, https://matplotlib.org/</dc:title>
     </cc:Agent>
    </dc:creator>
   </cc:Work>
  </rdf:RDF>
 </metadata>
 <defs>
  <style type="text/css">*{stroke-linejoin: round; stroke-linecap: butt}</style>
 </defs>
 <g id="figure_1">
  <g id="patch_1">
   <path d="M 0 360 
L 1008 360 
L 1008 0 
L 0 0 
z
" style="fill: #ffffff"/>
  </g>
  <g id="axes_1">
   <g id="patch_2">
    <path d="M 56.09 318.04 
L 503.37 318.04 
L 503.37 26.88 
L 56.09 26.88 
z
" style="fill: #ffffff"/>
   </g>
   <g id="matplotlib.axis_1">
    <g id="xtick_1">
     <g id="line2d_1">
      <defs>
       <path id="maebb9e96b4" d="M 0 0 
L 0 3.5 
" style="stroke: #000000; stroke-width: 0.8"/>
      </defs>
      <g>
       <use xlink:href="#maebb9e96b4" x="74.548178" y="318.04" style="stroke: #000000; stroke-width: 0.8"/>
      </g>
     </g>
     <g id="text_1">
      <text style="font: 10px 'DejaVu Sans', 'Bitstream Vera Sans', 'Computer Modern Sans Serif', 'Lucida Grande', 'Verdana', 'Geneva', 'Lucid', 'Arial', 'Helvetica', 'Avant Garde', sans-serif; text-anchor: middle" x="74.548178" y="332.638438" transform="rotate(-0 74.548178 332.638438)">−4</text>
     </g>
    </g>
    <g id="xtick_2">
     <g id="line2d_2">
      <g>
       <use xlink:href="#maebb9e96b4" x="125.788962" y="318.04" style="stroke: #000000; stroke-width: 0.8"/>
      </g>
     </g>
     <g id="text_2">
      <text style="font: 10px 'DejaVu Sans', 'Bitstream Vera Sans', 'Computer Modern Sans Serif', 'Lucida Grande', 'Verdana', 'Geneva', 'Lucid', 'Arial', 'Helvetica', 'Avant Garde', sans-serif; text-anchor: middle" x="125.788962" y="332.638438" transform="rotate(-0 125.788962 332.638438)">−3</text>
     </g>
    </g>
    <g id="xtick_3">
     <g id="line2d_3">
      <g>
       <use xlink:href="#maebb9e96b4" x="177.029747" y="318.04" style="stroke: #000000; stroke-width: 0.8"/>
      </g>
     </g>
     <g id="text_3">
      <text style="font: 10px 'DejaVu Sans', 'Bitstream Vera Sans', 'Computer Modern Sans Serif', 'Lucida Grande', 'Verdana', 'Geneva', 'Lucid', 'Arial', 'Helvetica', 'Avant Garde', sans-serif; text-anchor: middle" x="177.029747" y="332.638438" transform="rotate(-0 177.029747 332.638438)">−2</text>
     </g>
    </g>
    <g id="xtick_4">
     <g id="line2d_4">
      <g>
       <use xlink:href="#maebb9e96b4" x="228.270532" y="318.04" style="stroke: #000000; stroke-width: 0.8"/>
      </g>
     </g>
     <g id="text_4">
      <text style="font: 10px 'DejaVu Sans', 'Bitstream Vera Sans', 'Computer Modern Sans Serif', 'Lucida Grande', 'Verdana', 'Geneva', 'Lucid', 'Arial', 'Helvetica', 'Avant Garde', sans-serif; text-anchor: middle" x="228.270532" y="332.638438" transform="rotate(-0 228.270532 332.638438)">−1</text>
     </g>
    </g>
    <g id="xtick_5">
     <g id="line2d_5">
      <g>
       <use xlink:href="#maebb9e96b4" x="279.511317" y="318.04" style="stroke: #000000; stroke-width: 0.8"/>
      </g>
     </g>
     <g id="text_5">
      <text style="font: 10px 'DejaVu Sans', 'Bitstream Vera Sans', 'Computer Modern Sans Serif', 'Lucida Grande', 'Verdana', 'Geneva', 'Lucid', 'Arial', 'Helvetica', 'Avant Garde', sans-serif; text-anchor: middle" x="279.511317" y="332.638438" transform="rotate(-0 279.511317 332.638438)">0</text>
     </g>
    </g>
    <g id="xtick_6">
     <g id="line2d_6">
      <g>
       <use xlink:href="#maebb9e96b4" x="330.752102" y="318.04" style="stroke: #000000; stroke-width: 0.8"/>
      </g>
     </g>
     <g id="text_6">
      <text style="font: 10px 'DejaVu Sans', 'Bitstream Vera Sans', 'Computer Modern Sans Serif', 'Lucida Grande', 'Verdana', 'Geneva', 'Lucid', 'Arial', 'Helvetica', 'Avant Garde', sans-serif; text-anchor: middle" x="330.752102" y="332.638438" transform="rotate(-0 330.752102 332.638438)">1</text>
     </g>
    </g>
    <g id="xtick_7">
     <g id="line2d_7">
      <g>
       <use xlink:href="#maebb9e96b4" x="381.992887" y="318.04" style="stroke: #000000; stroke-width: 0.8"/>
      </g>
     </g>
     <g id="text_7">
      <text style="font: 10px 'DejaVu Sans', 'Bitstream Vera Sans', 'Computer Modern Sans Serif', 'Lucida Grande', 'Verdana', 'Geneva', 'Lucid', 'Arial', 'Helvetica', 'Avant Garde', sans-serif; text-anchor: middle" x="381.992887" y="332.638438" transform="rotate(-0 381.992887 332.638438)">2</text>
     </g>
    </g>
    <g id="xtick_8">
     <g id="line2d_8">
      <g>
       <use xlink:href="#maebb9e96b4" x="433.233672" y="318.04" style="stroke: #000000; stroke-width: 0.8"/>
      </g>
     </g>
     <g id="text_8">
      <text style="font: 10px 'DejaVu Sans', 'Bitstream Vera Sans', 'Computer Modern Sans Serif', 'Lucida Grande', 'Verdana', 'Geneva', 'Lucid', 'Arial', 'Helvetica', 'Avant Garde', sans-serif; text-anchor: middle" x="433.233672" y="332.638438" transform="rotate(-0 433.233672 332.638438)">3</text>
     </g>
    </g>
    <g id="xtick_9">
     <g id="line2d_9">
      <g>
       <use xlink:href="#maebb9e96b4" x="484.474456" y="318.04" style="stroke: #000000; stroke-width: 0.8"/>
      </g>
     </g>
     <g id="text_9">
      <text style="font: 10px 'DejaVu Sans', 'Bitstream Vera Sans', 'Computer Modern Sans Serif', 'Lucida Grande', 'Verdana', 'Geneva', 'Lucid', 'Arial', 'Helvetica', 'Avant Garde', sans-serif; text-anchor: middle" x="484.474456" y="332.638438" transform="rotate(-0 484.474456 332.638438)">4</text>
     </g>
    </g>
    <g id="text_10">
     <text style="font: 10px 'DejaVu Sans', 'Bitstream Vera Sans', 'Computer Modern Sans Serif', 'Lucida Grande', 'Verdana', 'Geneva', 'Lucid', 'Arial', 'Helvetica', 'Avant Garde', sans-serif; text-anchor: middle" x="279.73" y="346.316563" transform="rotate(-0 279.73 346.316563)">Motor Torque [Nm]</text>
    </g>
   </g>
   <g id="matplotlib.axis_2">
    <g id="ytick_1">
     <g id="line2d_10">
      <defs>
       <path id="mcf944cee54" d="M 0 0 
L -3.5 0 
" style="stroke: #000000; stroke-width: 0.8"/>
      </defs>
      <g>
       <use xlink:href="#mcf944cee54" x="56.09" y="293.084792" style="stroke: #000000; stroke-width: 0.8"/>
      </g>
     </g>
     <g id="text_11">
      <text style="font: 10px 'DejaVu Sans', 'Bitstream Vera Sans', 'Computer Modern Sans Serif', 'Lucida Grande', 'Verdana', 'Geneva', 'Lucid', 'Arial', 'Helvetica', 'Avant Garde', sans-serif; text-anchor: end" x="49.09" y="296.88401" transform="rotate(-0 49.09 296.88401)">−0.6</text>
     </g>
    </g>
    <g id="ytick_2">
     <g id="line2d_11">
      <g>
       <use xlink:href="#mcf944cee54" x="56.09" y="260.652496" style="stroke: #000000; stroke-width: 0.8"/>
      </g>
     </g>
     <g id="text_12">
      <text style="font: 10px 'DejaVu Sans', 'Bitstream Vera Sans', 'Computer Modern Sans Serif', 'Lucida Grande', 'Verdana', 'Geneva', 'Lucid', 'Arial', 'Helvetica', 'Avant Garde', sans-serif; text-anchor: end" x="49.09" y="264.451715" transform="rotate(-0 49.09 264.451715)">−0.4</text>
     </g>
    </g>
    <g id="ytick_3">
     <g id="line2d_12">
      <g>
       <use xlink:href="#mcf944cee54" x="56.09" y="228.220201" style="stroke: #000000; stroke-width: 0.8"/>
      </g>
     </g>
     <g id="text_13">
      <text style="font: 10px 'DejaVu Sans', 'Bitstream Vera Sans', 'Computer Modern Sans Serif', 'Lucida Grande', 'Verdana', 'Geneva', 'Lucid', 'Arial', 'Helvetica', 'Avant Garde', sans-serif; text-anchor: end" x="49.09" y="232.01942" transform="rotate(-0 49.09 232.01942)">−0.2</text>
     </g>
    </g>
    <g id="ytick_4">
     <g id="line2d_13">
      <g>
       <use xlink:href="#mcf944cee54" x="56.09" y="195.787906" style="stroke: #000000; stroke-width: 0.8"/>
      </g>
     </g>
     <g id="text_14">
      <text style="font: 10px 'DejaVu Sans', 'Bitstream Vera Sans', 'Computer Modern Sans Serif', 'Lucida Grande', 'Verdana', 'Geneva', 'Lucid', 'Arial', 'Helvetica', 'Avant Garde', sans-serif; text-anchor: end" x="49.09" y="199.587125" transform="rotate(-0 49.09 199.587125)">0.0</text>
     </g>
    </g>
    <g id="ytick_5">
     <g id="line2d_14">
      <g>
       <use xlink:href="#mcf944cee54" x="56.09" y="163.355611" style="stroke: #000000; stroke-width: 0.8"/>
      </g>
     </g>
     <g id="text_15">
      <text style="font: 10px 'DejaVu Sans', 'Bitstream Vera Sans', 'Computer Modern Sans Serif', 'Lucida Grande', 'Verdana', 'Geneva', 'Lucid', 'Arial', 'Helvetica', 'Avant Garde', sans-serif; text-anchor: end" x="49.09" y="167.15483" transform="rotate(-0 49.09 167.15483)">0.2</text>
     </g>
    </g>
    <g id="ytick_6">
     <g id="line2d_15">
      <g>
       <use xlink:href="#mcf944cee54" x="56.09" y="130.923316" style="stroke: #000000; stroke-width: 0.8"/>
      </g>
     </g>
     <g id="text_16">
      <text style="font: 10px 'DejaVu Sans', 'Bitstream Vera Sans', 'Computer Modern Sans Serif', 'Lucida Grande', 'Verdana', 'Geneva', 'Lucid', 'Arial', 'Helvetica', 'Avant Garde', sans-serif; text-anchor: end" x="49.09" y="134.722535" transform="rotate(-0 49.09 134.722535)">0.4</text>
     </g>
    </g>
    <g id="ytick_7">
     <g id="line2d_16">
      <g>
       <use xlink:href="#mcf944cee54" x="56.09" y="98.491021" style="stroke: #000000; stroke-width: 0.8"/>
      </g>
     </g>
     <g id="text_17">
      <text style="font: 10px 'DejaVu Sans', 'Bitstream Vera Sans', 'Computer Modern Sans Serif', 'Lucida Grande', 'Verdana', 'Geneva', 'Lucid', 'Arial', 'Helvetica', 'Avant Garde', sans-serif; text-anchor: end" x="49.09" y="102.29024" transform="rotate(-0 49.09 102.29024)">0.6</text>
     </g>
    </g>
    <g id="ytick_8">
     <g id="line2d_17">
      <g>
       <use xlink:href="#mcf944cee54" x="56.09" y="66.058726" style="stroke: #000000; stroke-width: 0.8"/>
      </g>
     </g>
     <g id="text_18">
      <text style="font: 10px 'DejaVu Sans', 'Bitstream Vera Sans', 'Computer Modern Sans Serif', 'Lucida Grande', 'Verdana', 'Geneva', 'Lucid', 'Arial', 'Helvetica', 'Avant Garde', sans-serif; text-anchor: end" x="49.09" y="69.857945" transform="rotate(-0 49.09 69.857945)">0.8</text>
     </g>
    </g>
    <g id="ytick_9">
     <g id="line2d_18">
      <g>
       <use xlink:href="#mcf944cee54" x="56.09" y="33.626431" style="stroke: #000000; stroke-width: 0.8"/>
      </g>
     </g>
     <g id="text_19">
      <text style="font: 10px 'DejaVu Sans', 'Bitstream Vera Sans', 'Computer Modern Sans Serif', 'Lucida Grande', 'Verdana', 'Geneva', 'Lucid', 'Arial', 'Helvetica', 'Avant Garde', sans-serif; text-anchor: end" x="49.09" y="37.425649" transform="rotate(-0 49.09 37.425649)">1.0</text>
     </g>
    </g>
    <g id="text_20">
     <text style="font: 10px 'DejaVu Sans', 'Bitstream Vera Sans', 'Computer Modern Sans Serif', 'Lucida Grande', 'Verdana', 'Geneva', 'Lucid', 'Arial', 'Helvetica', 'Avant Garde', sans-serif; text-anchor: middle" x="18.7275" y="172.46" transform="rotate(-90 18.7275 172.46)">Deflection [deg]</text>
    </g>
   </g>
   <g id="line2d_19">
    <path d="M 285.324132 292.698515 
L 291.721389 291.284155 
L 303.643065 289.504844 
L 308.090059 288.750232 
L 325.224837 285.126933 
L 333.336296 283.464688 
L 337.845009 282.066931 
L 339.193553 281.359749 
L 340.657452 280.639845 
L 342.308562 280.150411 
L 345.192952 279.560578 
L 350.725996 278.501744 
L 352.97339 277.888413 
L 355.180539 277.033313 
L 357.865612 275.904667 
L 359.998357 275.478562 
L 368.450939 274.23789 
L 375.177798 273.47869 
L 379.223984 272.675918 
L 379.551359 272.585318 
L 381.374447 272.398092 
L 389.604269 271.656351 
L 393.340803 271.288331 
L 408.007166 270.047087 
L 411.783253 269.47342 
L 413.734499 268.994125 
L 415.166109 268.438025 
L 416.376923 267.724113 
L 417.220087 267.016504 
L 418.049601 265.995798 
L 418.894682 264.596096 
L 421.341017 259.851911 
L 422.355624 257.507069 
L 423.17775 255.04276 
L 423.964402 251.953643 
L 424.83982 247.322139 
L 425.721777 241.538578 
L 426.124946 237.59002 
L 426.289646 233.793067 
L 426.244759 229.209909 
L 425.973519 219.52803 
L 426.11079 214.48053 
L 426.512549 208.440251 
L 427.048438 203.453785 
L 427.845407 198.220869 
L 428.906322 192.771782 
L 430.231184 187.106524 
L 432.945613 176.895016 
L 438.041378 156.865475 
L 439.574611 151.158753 
L 441.947082 143.488835 
L 444.851978 134.864829 
L 448.000518 126.250222 
L 450.445078 119.607786 
L 452.294543 114.037688 
L 453.883533 108.600182 
L 455.21205 103.295269 
L 456.280092 98.122948 
L 457.200191 92.311096 
L 458.171108 86.02738 
L 459.297143 80.139469 
L 460.578297 74.647363 
L 461.837738 70.210961 
L 463.472287 64.499086 
L 464.549548 59.944034 
L 465.19626 56.360681 
L 465.394326 53.992415 
L 465.613343 46.942433 
L 465.715699 45.219768 
L 466.18153 43.077615 
L 466.669106 41.834333 
L 467.287417 40.914385 
L 467.888518 40.338597 
L 468.187948 40.319192 
L 470.753986 40.549401 
L 473.923392 40.739797 
L 477.147618 40.674102 
L 483.033821 40.265627 
L 483.024951 40.235431 
L 482.947018 40.197372 
L 482.555548 40.124796 
L 477.917453 40.13267 
L 461.146881 40.513894 
L 452.591069 40.641878 
L 441.254964 40.851171 
L 426.514851 41.307753 
L 421.046762 41.540551 
L 419.548234 41.791618 
L 415.93252 42.857488 
L 412.758324 43.458958 
L 403.803629 45.068792 
L 399.246443 46.165063 
L 387.940551 49.236972 
L 379.65938 50.73576 
L 376.238886 51.452392 
L 373.240487 52.212788 
L 351.043414 56.626348 
L 346.04051 57.476407 
L 345.610187 57.520013 
L 339.792152 57.61262 
L 331.122881 57.852298 
L 327.477166 58.244543 
L 324.786448 58.779905 
L 309.942954 62.450947 
L 306.929992 63.418318 
L 302.466811 65.027751 
L 298.670482 65.929481 
L 295.240578 66.844872 
L 287.560138 69.428007 
L 286.085328 70.03578 
L 282.381036 71.41534 
L 281.37328 71.983354 
L 279.917339 72.483531 
L 273.793681 74.386475 
L 269.116862 75.97104 
L 259.085394 79.252472 
L 257.461643 80.139193 
L 256.269584 81.052426 
L 255.2806 82.070123 
L 254.498932 83.196481 
L 253.999677 84.343101 
L 253.708429 85.597312 
L 253.339604 87.5453 
L 252.823782 88.759189 
L 252.064557 89.961228 
L 250.899565 91.401538 
L 249.681601 92.539 
L 248.435357 93.417237 
L 247.15639 94.066728 
L 245.715822 94.562313 
L 243.97035 94.93048 
L 240.956557 95.294141 
L 238.089711 95.361633 
L 225.397275 95.818662 
L 218.740718 96.252697 
L 216.403636 96.647929 
L 214.310537 97.228068 
L 213.169207 97.757592 
L 212.545513 98.271723 
L 209.686411 101.569267 
L 207.687742 104.862808 
L 206.476594 107.287638 
L 205.057095 110.843256 
L 202.87242 116.42349 
L 201.460587 119.156917 
L 199.713549 122.077927 
L 197.851724 125.188603 
L 196.596405 127.705534 
L 195.543094 130.293333 
L 194.691792 132.951999 
L 193.600233 137.303362 
L 192.791947 141.409282 
L 192.11579 146.048429 
L 191.750647 149.986336 
L 191.687205 153.18606 
L 191.850594 156.507554 
L 192.240813 159.950817 
L 193.214158 167.279224 
L 193.378299 170.625248 
L 193.335568 174.093662 
L 193.085968 177.684467 
L 192.613914 181.410709 
L 191.591326 187.304141 
L 190.38836 192.806676 
L 188.901347 198.55488 
L 187.131438 204.54948 
L 185.065904 210.745664 
L 182.693112 217.107483 
L 180.01306 223.634935 
L 176.316564 231.959604 
L 155.602098 278.280538 
L 153.787909 282.940651 
L 152.598281 286.596989 
L 151.779921 289.860152 
L 151.237735 293.083195 
L 150.883034 296.34197 
L 150.850122 298.607792 
L 151.048283 300.091945 
L 151.368119 300.990715 
L 151.884039 301.827161 
L 152.424459 302.320438 
L 153.034375 302.581813 
L 153.840672 302.653422 
L 154.140688 302.600189 
L 154.09115 302.542436 
L 153.471088 302.295906 
L 152.267066 302.030349 
L 150.763129 301.950004 
L 148.309195 302.077557 
L 142.541792 302.305334 
L 131.02324 302.575191 
L 121.654912 303.241027 
L 88.599348 304.709388 
L 77.579508 304.763747 
L 76.420909 304.770446 
L 146.426784 304.418774 
L 154.223464 304.104076 
L 193.989409 302.547327 
L 204.835917 301.928353 
L 222.420233 300.569001 
L 237.695383 298.112026 
L 239.39285 297.792502 
L 248.257925 296.683991 
L 252.726833 296.031055 
L 259.120724 294.693104 
L 263.745669 294.017515 
L 271.792595 292.772359 
L 275.552755 292.027165 
L 275.552755 292.027165 
" clip-path="url(#pe18e5f8ed7)" style="fill: none; stroke: #1f77b4; stroke-opacity: 0.5; stroke-width: 1.5; stroke-linecap: square"/>
   </g>
   <g id="line2d_20">
    <path d="M 285.324132 292.698515 
L 291.721389 291.284155 
L 303.643065 289.504844 
L 308.090059 288.750232 
L 325.224837 285.126933 
L 333.336296 283.464688 
L 337.845009 282.066931 
L 339.193553 281.359749 
L 340.657452 280.639845 
L 342.308562 280.150411 
L 345.192952 279.560578 
L 350.725996 278.501744 
L 352.97339 277.888413 
L 355.180539 277.033313 
L 357.865612 275.904667 
L 359.998357 275.478562 
L 368.450939 274.23789 
L 375.177798 273.47869 
L 379.223984 272.675918 
L 379.551359 272.585318 
L 381.374447 272.398092 
L 389.604269 271.656351 
L 393.340803 271.288331 
L 408.007166 270.047087 
L 411.783253 269.47342 
L 413.734499 268.994125 
L 415.166109 268.438025 
L 416.376923 267.724113 
L 417.220087 267.016504 
L 418.049601 265.995798 
L 418.894682 264.596096 
L 421.341017 259.851911 
L 422.355624 257.507069 
L 423.17775 255.04276 
L 423.964402 251.953643 
L 424.83982 247.322139 
L 425.721777 241.538578 
L 426.124946 237.59002 
L 426.289646 233.793067 
L 426.244759 229.209909 
L 425.973519 219.52803 
L 426.11079 214.48053 
L 426.512549 208.440251 
L 427.048438 203.453785 
L 427.845407 198.220869 
L 428.906322 192.771782 
L 430.231184 187.106524 
L 432.945613 176.895016 
L 438.041378 156.865475 
L 439.574611 151.158753 
L 441.947082 143.488835 
L 444.851978 134.864829 
L 448.000518 126.250222 
L 450.445078 119.607786 
L 452.294543 114.037688 
L 453.883533 108.600182 
L 455.21205 103.295269 
L 456.280092 98.122948 
L 457.200191 92.311096 
L 458.171108 86.02738 
L 459.297143 80.139469 
L 460.578297 74.647363 
L 461.837738 70.210961 
L 463.472287 64.499086 
L 464.549548 59.944034 
L 465.19626 56.360681 
L 465.394326 53.992415 
L 465.613343 46.942433 
L 465.715699 45.219768 
L 466.18153 43.077615 
L 466.669106 41.834333 
L 467.287417 40.914385 
L 467.888518 40.338597 
L 468.187948 40.319192 
L 470.753986 40.549401 
L 473.923392 40.739797 
L 477.147618 40.674102 
L 483.033821 40.265627 
L 483.024951 40.235431 
L 482.954935 40.201148 
" clip-path="url(#pe18e5f8ed7)" style="fill: none; stroke: #ff0000; stroke-width: 1.5; stroke-linecap: square"/>
   </g>
   <g id="line2d_21">
    <path d="M 279.553342 72.589242 
L 274.172696 74.251432 
L 267.761051 76.385636 
L 260.761995 78.557615 
L 258.67649 79.450716 
L 257.245199 80.283714 
L 256.090999 81.214873 
L 255.135025 82.249777 
L 254.44495 83.296273 
L 253.964604 84.452674 
L 253.692266 85.716667 
L 253.377521 87.423397 
L 252.886545 88.638221 
L 252.148797 89.842862 
L 250.994587 91.298276 
L 249.788577 92.451381 
L 248.435357 93.417237 
L 247.15639 94.066728 
L 245.715822 94.562313 
L 243.97035 94.93048 
L 240.956557 95.294141 
L 238.089711 95.361633 
L 225.397275 95.818662 
L 218.740718 96.252697 
L 216.403636 96.647929 
L 214.310537 97.228068 
L 213.169207 97.757592 
L 212.545513 98.271723 
L 209.686411 101.569267 
L 207.687742 104.862808 
L 206.476594 107.287638 
L 205.057095 110.843256 
L 202.87242 116.42349 
L 201.460587 119.156917 
L 199.713549 122.077927 
L 197.851724 125.188603 
L 196.596405 127.705534 
L 195.543094 130.293333 
L 194.691792 132.951999 
L 193.600233 137.303362 
L 192.791947 141.409282 
L 192.11579 146.048429 
L 191.750647 149.986336 
L 191.687205 153.18606 
L 191.850594 156.507554 
L 192.240813 159.950817 
L 193.214158 167.279224 
L 193.378299 170.625248 
L 193.335568 174.093662 
L 193.085968 177.684467 
L 192.613914 181.410709 
L 191.591326 187.304141 
L 190.38836 192.806676 
L 188.901347 198.55488 
L 187.131438 204.54948 
L 185.065904 210.745664 
L 182.693112 217.107483 
L 180.01306 223.634935 
L 176.316564 231.959604 
L 155.602098 278.280538 
L 153.787909 282.940651 
L 152.598281 286.596989 
L 151.779921 289.860152 
L 151.237735 293.083195 
L 150.883034 296.34197 
L 150.850122 298.607792 
L 151.048283 300.091945 
L 151.368119 300.990715 
L 151.884039 301.827161 
L 152.424459 302.320438 
L 153.034375 302.581813 
L 153.840672 302.653422 
L 154.140688 302.600189 
L 154.09115 302.542436 
L 153.471088 302.295906 
L 152.267066 302.030349 
L 150.763129 301.950004 
L 148.309195 302.077557 
L 142.541792 302.305334 
L 131.02324 302.575191 
L 121.654912 303.241027 
L 88.599348 304.709388 
L 77.579508 304.763747 
L 76.420909 304.770446 
L 76.42332 304.770903 
" clip-path="url(#pe18e5f8ed7)" style="fill: none; stroke: #008000; stroke-width: 1.5; stroke-linecap: square"/>
   </g>
   <g id="line2d_22">
    <path d="M 279.511317 292.698515 
L 279.511317 72.589242 
" clip-path="url(#pe18e5f8ed7)" style="fill: none; stroke-dasharray: 5.55,2.4; stroke-dashoffset: 0; stroke: #000000; stroke-width: 1.5"/>
   </g>
   <g id="patch_3">
    <path d="M 56.09 318.04 
L 56.09 26.88 
" style="fill: none; stroke: #000000; stroke-width: 0.8; stroke-linejoin: miter; stroke-linecap: square"/>
   </g>
   <g id="patch_4">
    <path d="M 503.37 318.04 
L 503.37 26.88 
" style="fill: none; stroke: #000000; stroke-width: 0.8; stroke-linejoin: miter; stroke-linecap: square"/>
   </g>
   <g id="patch_5">
    <path d="M 56.09 318.04 
L 503.37 318.04 
" style="fill: none; stroke: #000000; stroke-width: 0.8; stroke-linejoin: miter; stroke-linecap: square"/>
   </g>
   <g id="patch_6">
    <path d="M 56.09 26.88 
L 503.37 26.88 
" style="fill: none; stroke: #000000; stroke-width: 0.8; stroke-linejoin: miter; stroke-linecap: square"/>
   </g>
   <g id="text_21">
    <text style="font: 10px 'DejaVu Sans', 'Bitstream Vera Sans', 'Computer Modern Sans Serif', 'Lucida Grande', 'Verdana', 'Geneva', 'Lucid', 'Arial', 'Helvetica', 'Avant Garde', sans-serif; text-anchor: start" x="279.511317" y="195.787906" transform="rotate(-0 279.511317 195.787906)">  1.36 deg</text>
   </g>
   <g id="text_22">
    <text style="font: 12px 'DejaVu Sans', 'Bitstream Vera Sans', 'Computer Modern Sans Serif', 'Lucida Grande', 'Verdana', 'Geneva', 'Lucid', 'Arial', 'Helvetica', 'Avant Garde', sans-serif; text-anchor: middle" x="279.73" y="20.88" transform="rotate(-0 279.73 20.88)">Play test</text>
   </g>
  </g>
  <g id="axes_2">
   <g id="patch_7">
    <path d="M 549.92 318.04 
L 997.2 318.04 
L 997.2 26.88 
L 549.92 26.88 
z
" style="fill: #ffffff"/>
   </g>
   <g id="matplotlib.axis_3">
    <g id="xtick_10">
     <g id="line2d_23">
      <g>
       <use xlink:href="#maebb9e96b4" x="613.640092" y="318.04" style="stroke: #000000; stroke-width: 0.8"/>
      </g>
     </g>
     <g id="text_23">
      <text style="font: 10px 'DejaVu Sans', 'Bitstream Vera Sans', 'Computer Modern Sans Serif', 'Lucida Grande', 'Verdana', 'Geneva', 'Lucid', 'Arial', 'Helvetica', 'Avant Garde', sans-serif; text-anchor: middle" x="613.640092" y="332.638438" transform="rotate(-0 613.640092 332.638438)">−20</text>
     </g>
    </g>
    <g id="xtick_11">
     <g id="line2d_24">
      <g>
       <use xlink:href="#maebb9e96b4" x="693.580916" y="318.04" style="stroke: #000000; stroke-width: 0.8"/>
      </g>
     </g>
     <g id="text_24">
      <text style="font: 10px 'DejaVu Sans', 'Bitstream Vera Sans', 'Computer Modern Sans Serif', 'Lucida Grande', 'Verdana', 'Geneva', 'Lucid', 'Arial', 'Helvetica', 'Avant Garde', sans-serif; text-anchor: middle" x="693.580916" y="332.638438" transform="rotate(-0 693.580916 332.638438)">−10</text>
     </g>
    </g>
    <g id="xtick_12">
     <g id="line2d_25">
      <g>
       <use xlink:href="#maebb9e96b4" x="773.521739" y="318.04" style="stroke: #000000; stroke-width: 0.8"/>
      </g>
     </g>
     <g id="text_25">
      <text style="font: 10px 'DejaVu Sans', 'Bitstream Vera Sans', 'Computer Modern Sans Serif', 'Lucida Grande', 'Verdana', 'Geneva', 'Lucid', 'Arial', 'Helvetica', 'Avant Garde', sans-serif; text-anchor: middle" x="773.521739" y="332.638438" transform="rotate(-0 773.521739 332.638438)">0</text>
     </g>
    </g>
    <g id="xtick_13">
     <g id="line2d_26">
      <g>
       <use xlink:href="#maebb9e96b4" x="853.462563" y="318.04" style="stroke: #000000; stroke-width: 0.8"/>
      </g>
     </g>
     <g id="text_26">
      <text style="font: 10px 'DejaVu Sans', 'Bitstream Vera Sans', 'Computer Modern Sans Serif', 'Lucida Grande', 'Verdana', 'Geneva', 'Lucid', 'Arial', 'Helvetica', 'Avant Garde', sans-serif; text-anchor: middle" x="853.462563" y="332.638438" transform="rotate(-0 853.462563 332.638438)">10</text>
     </g>
    </g>
    <g id="xtick_14">
     <g id="line2d_27">
      <g>
       <use xlink:href="#maebb9e96b4" x="933.403387" y="318.04" style="stroke: #000000; stroke-width: 0.8"/>
      </g>
     </g>
     <g id="text_27">
      <text style="font: 10px 'DejaVu Sans', 'Bitstream Vera Sans', 'Computer Modern Sans Serif', 'Lucida Grande', 'Verdana', 'Geneva', 'Lucid', 'Arial', 'Helvetica', 'Avant Garde', sans-serif; text-anchor: middle" x="933.403387" y="332.638438" transform="rotate(-0 933.403387 332.638438)">20</text>
     </g>
    </g>
    <g id="text_28">
     <text style="font: 10px 'DejaVu Sans', 'Bitstream Vera Sans', 'Computer Modern Sans Serif', 'Lucida Grande', 'Verdana', 'Geneva', 'Lucid', 'Arial', 'Helvetica', 'Avant Garde', sans-serif; text-anchor: middle" x="773.56" y="346.316563" transform="rotate(-0 773.56 346.316563)">Motor Torque [Nm]</text>
    </g>
   </g>
   <g id="matplotlib.axis_4">
    <g id="ytick_10">
     <g id="line2d_28">
      <g>
       <use xlink:href="#mcf944cee54" x="549.92" y="277.114453" style="stroke: #000000; stroke-width: 0.8"/>
      </g>
     </g>
     <g id="text_29">
      <text style="font: 10px 'DejaVu Sans', 'Bitstream Vera Sans', 'Computer Modern Sans Serif', 'Lucida Grande', 'Verdana', 'Geneva', 'Lucid', 'Arial', 'Helvetica', 'Avant Garde', sans-serif; text-anchor: end" x="542.92" y="280.913672" transform="rotate(-0 542.92 280.913672)">−4</text>
     </g>
    </g>
    <g id="ytick_11">
     <g id="line2d_29">
      <g>
       <use xlink:href="#mcf944cee54" x="549.92" y="224.610424" style="stroke: #000000; stroke-width: 0.8"/>
      </g>
     </g>
     <g id="text_30">
      <text style="font: 10px 'DejaVu Sans', 'Bitstream Vera Sans', 'Computer Modern Sans Serif', 'Lucida Grande', 'Verdana', 'Geneva', 'Lucid', 'Arial', 'Helvetica', 'Avant Garde', sans-serif; text-anchor: end" x="542.92" y="228.409642" transform="rotate(-0 542.92 228.409642)">−2</text>
     </g>
    </g>
    <g id="ytick_12">
     <g id="line2d_30">
      <g>
       <use xlink:href="#mcf944cee54" x="549.92" y="172.106394" style="stroke: #000000; stroke-width: 0.8"/>
      </g>
     </g>
     <g id="text_31">
      <text style="font: 10px 'DejaVu Sans', 'Bitstream Vera Sans', 'Computer Modern Sans Serif', 'Lucida Grande', 'Verdana', 'Geneva', 'Lucid', 'Arial', 'Helvetica', 'Avant Garde', sans-serif; text-anchor: end" x="542.92" y="175.905613" transform="rotate(-0 542.92 175.905613)">0</text>
     </g>
    </g>
    <g id="ytick_13">
     <g id="line2d_31">
      <g>
       <use xlink:href="#mcf944cee54" x="549.92" y="119.602364" style="stroke: #000000; stroke-width: 0.8"/>
      </g>
     </g>
     <g id="text_32">
      <text style="font: 10px 'DejaVu Sans', 'Bitstream Vera Sans', 'Computer Modern Sans Serif', 'Lucida Grande', 'Verdana', 'Geneva', 'Lucid', 'Arial', 'Helvetica', 'Avant Garde', sans-serif; text-anchor: end" x="542.92" y="123.401583" transform="rotate(-0 542.92 123.401583)">2</text>
     </g>
    </g>
    <g id="ytick_14">
     <g id="line2d_32">
      <g>
       <use xlink:href="#mcf944cee54" x="549.92" y="67.098335" style="stroke: #000000; stroke-width: 0.8"/>
      </g>
     </g>
     <g id="text_33">
      <text style="font: 10px 'DejaVu Sans', 'Bitstream Vera Sans', 'Computer Modern Sans Serif', 'Lucida Grande', 'Verdana', 'Geneva', 'Lucid', 'Arial', 'Helvetica', 'Avant Garde', sans-serif; text-anchor: end" x="542.92" y="70.897553" transform="rotate(-0 542.92 70.897553)">4</text>
     </g>
    </g>
    <g id="text_34">
     <text style="font: 10px 'DejaVu Sans', 'Bitstream Vera Sans', 'Computer Modern Sans Serif', 'Lucida Grande', 'Verdana', 'Geneva', 'Lucid', 'Arial', 'Helvetica', 'Avant Garde', sans-serif; text-anchor: middle" x="522.098125" y="172.46" transform="rotate(-90 522.098125 172.46)">Deflection [deg]</text>
    </g>
   </g>
   <g id="line2d_33">
    <path d="M 775.210192 226.761344 
L 776.583795 225.142876 
L 777.160109 223.963557 
L 778.063627 222.007031 
L 779.405144 219.568125 
L 782.348505 212.739594 
L 782.591136 211.248693 
L 783.21227 205.359063 
L 784.046035 201.255577 
L 784.869932 198.067424 
L 786.310578 193.532624 
L 787.386063 190.05658 
L 787.72426 188.081955 
L 788.139829 185.743194 
L 788.707769 183.92335 
L 789.559061 181.296166 
L 791.043068 176.367165 
L 792.374212 173.142444 
L 792.854042 171.630513 
L 793.415091 170.636269 
L 794.631659 169.117122 
L 796.201635 167.216933 
L 796.621997 166.364406 
L 796.729252 165.650693 
L 796.838759 164.49281 
L 797.269618 163.332511 
L 798.45987 160.795178 
L 799.73809 158.498187 
L 802.728335 153.300719 
L 805.641568 148.486048 
L 805.95153 148.33954 
L 808.898623 148.148421 
L 810.767237 147.6786 
L 813.156948 146.816482 
L 815.264275 146.055223 
L 816.238294 145.611623 
L 819.374778 144.264701 
L 820.728538 144.05066 
L 824.831758 143.520095 
L 826.501816 143.017323 
L 827.001253 142.648261 
L 827.881203 141.482628 
L 829.633345 139.319136 
L 831.768544 137.15953 
L 832.19656 136.333548 
L 832.388197 135.469569 
L 832.702501 133.976519 
L 833.307009 132.243278 
L 834.023465 130.933629 
L 835.002139 129.599993 
L 836.496809 127.993065 
L 837.656564 126.577601 
L 838.654898 124.970698 
L 839.619225 123.372109 
L 840.622553 122.815739 
L 843.729118 121.362929 
L 845.054787 121.28156 
L 847.442501 121.059059 
L 848.775795 120.750395 
L 850.085337 120.219161 
L 852.397973 119.626732 
L 859.033977 118.419472 
L 861.54358 118.018304 
L 862.95855 117.501671 
L 863.743858 117.018069 
L 865.255741 115.65159 
L 867.126217 113.572222 
L 867.9387 112.417962 
L 870.738769 107.783799 
L 871.36595 107.268749 
L 872.199257 106.901606 
L 873.25764 106.73941 
L 875.443411 106.513582 
L 880.891357 105.249489 
L 881.711199 104.846901 
L 882.621355 104.109301 
L 883.103203 103.414489 
L 884.426632 101.202965 
L 886.011419 99.244223 
L 889.886581 94.799127 
L 890.550381 94.731732 
L 892.853115 94.493522 
L 895.838494 94.009645 
L 896.898188 93.650907 
L 897.854714 92.993365 
L 902.269758 89.025735 
L 904.151631 87.731979 
L 905.37954 86.695837 
L 905.81258 86.208531 
L 906.844261 85.438095 
L 909.013313 84.128134 
L 910.775542 83.006104 
L 912.174156 82.122689 
L 914.167952 81.594917 
L 915.913807 80.98479 
L 917.667342 80.166541 
L 918.551461 79.46223 
L 920.822137 77.538056 
L 922.116265 77.020301 
L 923.467363 76.753211 
L 925.976538 76.328311 
L 927.139181 75.914587 
L 928.387981 75.18276 
L 929.299834 74.358693 
L 931.698718 72.213886 
L 932.96034 71.366864 
L 935.209348 70.108884 
L 936.110288 69.615592 
L 937.986053 68.230843 
L 939.105107 66.972253 
L 940.711367 65.317503 
L 941.962737 64.120289 
L 943.804897 62.747108 
L 945.439847 61.599402 
L 948.485908 60.081355 
L 949.758202 59.427434 
L 951.475979 58.216119 
L 956.791524 53.814324 
L 957.876082 53.128511 
L 958.881414 52.465006 
L 961.099477 50.678681 
L 961.99716 50.220117 
L 966.048698 48.681974 
L 967.312208 48.18945 
L 969.761019 47.676058 
L 971.499623 47.304115 
L 974.013444 46.452025 
L 975.087231 45.879043 
L 975.586487 45.368157 
L 976.349832 44.116384 
L 976.672747 43.381696 
L 976.725805 42.717097 
L 976.495359 40.769666 
L 976.439395 40.73485 
L 976.623505 40.707053 
L 976.619312 40.702191 
L 976.505602 40.610351 
L 976.302162 40.494961 
L 976.719864 40.599417 
L 976.367647 40.490771 
L 976.678973 40.449242 
L 975.971412 40.407861 
L 976.41033 40.377793 
L 975.821837 40.274998 
L 976.785145 40.28762 
L 976.411804 40.266943 
L 976.869091 40.184112 
L 975.786386 40.177088 
L 976.009318 40.161259 
L 976.805711 40.116944 
L 972.171806 40.118803 
L 955.065996 40.22975 
L 900.018633 40.690287 
L 892.98161 41.135774 
L 889.353128 41.290048 
L 884.534946 41.551617 
L 880.466562 41.948164 
L 877.513862 42.124018 
L 874.372828 42.368645 
L 872.585824 42.648128 
L 871.788065 42.985684 
L 869.778623 44.005832 
L 867.086927 45.480005 
L 863.419986 47.25803 
L 861.062201 48.304819 
L 857.228608 50.247143 
L 855.737907 50.682986 
L 852.22911 51.625175 
L 850.289702 52.52001 
L 849.097452 52.894679 
L 844.202623 54.034249 
L 842.687746 54.434613 
L 841.684432 54.918473 
L 839.55814 56.433648 
L 838.440135 57.204306 
L 836.791056 57.962228 
L 834.502609 59.014509 
L 832.533942 59.912512 
L 831.132191 60.343662 
L 829.879078 61.011739 
L 829.575556 61.460196 
L 829.090063 62.268274 
L 828.39357 63.026323 
L 824.545093 66.713816 
L 822.817034 67.995403 
L 820.056061 69.01071 
L 816.781639 69.932328 
L 815.312331 70.589612 
L 813.694921 71.754828 
L 813.021806 72.488677 
L 811.865567 74.283651 
L 810.819421 75.99385 
L 809.259324 78.790652 
L 807.143676 81.797043 
L 804.242368 85.944614 
L 803.924322 86.450399 
L 803.512433 86.620495 
L 802.318982 86.744812 
L 800.151098 87.101592 
L 797.39321 87.482609 
L 795.826186 87.743013 
L 794.832655 88.119104 
L 793.903005 88.722886 
L 793.120653 89.4747 
L 792.62792 90.263458 
L 791.576574 92.720954 
L 790.855004 94.471055 
L 790.624387 95.735606 
L 790.268375 98.312789 
L 789.604929 100.859156 
L 788.735941 104.510442 
L 788.135437 106.733864 
L 787.338168 108.692112 
L 785.571576 112.157572 
L 783.775368 116.057854 
L 781.05223 121.861431 
L 780.351411 123.57428 
L 779.731743 125.140555 
L 777.561218 125.185563 
L 774.591462 125.422482 
L 772.461989 125.822606 
L 770.362621 126.345557 
L 768.659357 126.922957 
L 766.411382 127.420906 
L 764.034728 127.724819 
L 761.506414 128.013727 
L 760.893382 128.286749 
L 760.423569 128.718416 
L 760.305469 129.156508 
L 760.382863 129.855406 
L 760.747191 132.45432 
L 760.670269 134.353622 
L 760.266306 137.861161 
L 759.549256 141.544783 
L 758.355721 146.667825 
L 756.894807 152.905355 
L 756.245994 156.954729 
L 755.332522 163.251123 
L 754.208535 169.463155 
L 753.24443 173.635335 
L 751.964483 178.13853 
L 747.932835 191.015572 
L 745.153669 199.035228 
L 744.921442 200.571072 
L 744.966757 201.696811 
L 745.269349 202.916176 
L 745.700942 203.881991 
L 746.189696 204.420077 
L 746.547588 204.502896 
L 746.751828 204.436777 
L 746.626649 204.381246 
L 745.877096 204.317018 
L 742.264036 204.434809 
L 737.195608 204.74541 
L 728.129509 205.703045 
L 725.119182 206.188397 
L 723.852112 206.773806 
L 722.098863 208.033915 
L 720.486259 209.877877 
L 719.012571 211.271733 
L 718.071587 212.174459 
L 717.116734 212.716396 
L 716.357468 213.234869 
L 715.997184 213.466745 
L 714.876836 213.63743 
L 713.932293 213.909458 
L 713.129419 214.353637 
L 712.601411 214.878967 
L 710.809064 216.95841 
L 707.572691 219.878529 
L 706.458869 220.872691 
L 705.67155 221.636844 
L 704.548494 221.902248 
L 693.295059 224.086505 
L 688.758311 225.198388 
L 688.205942 225.596714 
L 686.974315 226.825707 
L 686.686372 227.492125 
L 686.28388 228.606336 
L 685.431043 230.070318 
L 684.493747 231.932447 
L 683.59872 233.665883 
L 682.512296 235.19014 
L 681.335949 236.876857 
L 680.364887 238.718039 
L 679.453441 240.157076 
L 678.476129 241.647795 
L 677.89577 242.699631 
L 677.3642 242.971973 
L 676.699719 243.110923 
L 674.954343 243.345923 
L 673.893793 243.84087 
L 672.793632 244.506473 
L 672.30645 245.121165 
L 671.080569 246.9767 
L 670.536393 247.988901 
L 669.845852 248.62549 
L 665.491006 251.85181 
L 662.792782 252.085054 
L 658.580734 252.563286 
L 656.363008 253.005332 
L 653.112842 253.918419 
L 650.803375 254.636108 
L 648.239413 255.526783 
L 646.417911 255.726074 
L 643.410953 256.184631 
L 639.082535 257.139293 
L 636.515866 257.968874 
L 635.277622 258.506597 
L 633.253879 259.501188 
L 630.29351 261.098214 
L 628.943 261.695114 
L 626.453062 262.614389 
L 625.076111 262.854322 
L 622.055719 263.34598 
L 620.206436 263.866611 
L 618.726882 264.596559 
L 617.822493 265.238233 
L 616.96071 266.118179 
L 615.909798 267.514751 
L 613.690856 271.081604 
L 610.152981 275.398163 
L 607.64426 277.75073 
L 606.640496 277.957636 
L 603.203724 278.296184 
L 599.685748 278.831474 
L 599.032746 279.130505 
L 598.310042 279.573685 
L 596.925462 280.416693 
L 595.463671 281.620441 
L 594.709123 282.47635 
L 592.684466 285.336408 
L 590.577091 287.221075 
L 589.488595 287.995977 
L 587.611388 288.922654 
L 584.093397 289.894149 
L 580.47821 290.67346 
L 575.444809 292.080145 
L 572.225256 292.742874 
L 570.989433 293.215887 
L 570.283746 293.760539 
L 570.291282 293.93388 
L 570.655146 294.135711 
L 570.908332 294.384576 
L 570.889761 294.659867 
L 570.506695 296.177329 
L 570.591998 296.194572 
L 570.992224 296.281511 
L 570.771403 296.334348 
L 570.596459 296.415869 
L 570.616633 296.488136 
L 570.624798 296.510198 
L 570.714798 296.538287 
L 570.945078 296.671281 
L 570.926083 296.689004 
L 570.644772 296.849496 
L 570.691879 296.925674 
L 570.65822 297.144784 
L 570.60636 297.560306 
L 570.582195 298.132255 
L 570.57806 298.574035 
L 570.744968 299.518751 
L 570.668355 300.768813 
L 570.719626 300.987033 
L 570.940619 301.137657 
L 570.772826 301.21235 
L 570.332903 301.525203 
L 570.490978 301.556831 
L 570.453117 301.597841 
L 570.751938 301.745723 
L 570.693458 301.893405 
L 570.705293 302.120855 
L 570.664745 302.376551 
L 570.692746 302.487775 
L 570.717037 302.500674 
L 570.881669 302.665058 
L 570.845803 302.690591 
L 570.645276 302.897799 
L 570.650901 302.903221 
L 571.007033 303.111928 
L 570.841127 303.148225 
L 570.786885 303.176246 
L 570.898686 303.247631 
L 570.83923 303.375026 
L 570.721749 303.60694 
L 570.556958 303.803748 
L 570.560038 303.809187 
L 570.73623 304.09152 
L 570.616069 304.099167 
L 570.488596 304.178246 
L 570.751822 304.185193 
L 570.666968 304.208781 
L 570.458233 304.232233 
L 570.935388 304.25541 
L 570.718475 304.309656 
L 570.951259 304.38158 
L 570.520164 304.321585 
L 570.773867 304.420535 
L 570.313963 304.448249 
L 570.949186 304.4678 
L 570.649753 304.546563 
L 571.052051 304.58076 
L 570.489655 304.547768 
L 570.719994 304.658544 
L 570.429213 304.729332 
L 571.260009 304.733701 
L 570.602619 304.775693 
L 573.806048 304.79701 
L 583.475134 304.772921 
L 618.625774 304.57525 
L 627.614922 304.443461 
L 638.12027 304.155635 
L 642.085401 303.893048 
L 644.15275 303.660501 
L 648.62116 303.393068 
L 653.328905 303.020808 
L 656.325597 302.399994 
L 660.067052 301.405633 
L 662.398234 300.920983 
L 663.590583 300.431391 
L 666.026882 299.336855 
L 668.204306 298.74202 
L 669.553416 298.645136 
L 671.964473 298.431195 
L 674.83314 297.819518 
L 676.058359 297.228162 
L 676.951996 296.597758 
L 677.725008 295.741146 
L 678.624983 294.892624 
L 681.114313 293.052795 
L 684.630063 291.474396 
L 687.039887 290.810857 
L 688.466386 289.996294 
L 691.422033 288.180699 
L 693.100553 287.122367 
L 694.112745 286.913534 
L 696.880628 286.357545 
L 699.826445 285.349347 
L 705.340081 284.238534 
L 706.847757 283.696165 
L 710.971684 282.066784 
L 714.413445 281.130729 
L 717.87922 279.079213 
L 719.627899 278.748131 
L 721.489509 278.393488 
L 722.171716 278.069322 
L 724.068165 276.67925 
L 725.686837 275.1778 
L 728.249003 272.706013 
L 730.448485 269.722904 
L 731.216198 268.32922 
L 731.5706 267.417716 
L 732.069381 265.897387 
L 732.721161 264.805106 
L 734.056648 263.053062 
L 736.028841 260.3693 
L 738.26868 257.155827 
L 738.701848 256.021733 
L 739.095361 255.189735 
L 739.711125 254.413244 
L 740.618343 253.265533 
L 741.045767 252.734434 
L 741.629178 252.39439 
L 743.275333 251.79705 
L 745.583277 251.353277 
L 747.884864 250.598773 
L 749.176822 250.209771 
L 750.4169 250.063425 
L 756.13168 249.809722 
L 758.815146 249.349322 
L 767.443616 247.76805 
L 772.784535 247.1887 
L 772.784535 247.1887 
" clip-path="url(#p746afda5ff)" style="fill: none; stroke: #1f77b4; stroke-opacity: 0.5; stroke-width: 1.5; stroke-linecap: square"/>
   </g>
   <g id="line2d_34">
    <path d="M 803.419812 152.15025 
L 805.937665 148.340013 
L 808.997664 148.129098 
L 810.874316 147.644787 
L 813.361492 146.729567 
L 814.992646 146.139279 
L 815.967816 145.747376 
L 817.270197 145.184666 
L 818.426228 144.602244 
L 819.251546 144.295657 
L 820.573958 144.067511 
L 825.172682 143.438643 
L 826.558368 142.988297 
L 827.037924 142.605717 
L 828.866533 140.172193 
L 829.685133 139.270236 
L 831.693745 137.266651 
L 832.153412 136.44586 
L 832.372756 135.587224 
L 832.666828 134.106339 
L 833.240979 132.390716 
L 833.925108 131.091028 
L 834.873304 129.756484 
L 836.145667 128.361897 
L 837.4252 126.894808 
L 838.437692 125.361791 
L 838.989259 124.200722 
L 839.282148 123.661558 
L 839.803484 123.25202 
L 841.344482 122.441279 
L 843.495987 121.409653 
L 844.253347 121.319716 
L 847.484215 121.052854 
L 848.775795 120.750395 
L 850.085337 120.219161 
L 852.397973 119.626732 
L 859.033977 118.419472 
L 861.54358 118.018304 
L 862.95855 117.501671 
L 863.743858 117.018069 
L 865.255741 115.65159 
L 867.126217 113.572222 
L 867.9387 112.417962 
L 870.738769 107.783799 
L 871.36595 107.268749 
L 872.199257 106.901606 
L 873.25764 106.73941 
L 875.443411 106.513582 
L 880.891357 105.249489 
L 881.711199 104.846901 
L 882.621355 104.109301 
L 883.103203 103.414489 
L 884.426632 101.202965 
L 886.011419 99.244223 
L 889.886581 94.799127 
L 890.550381 94.731732 
L 892.853115 94.493522 
L 895.838494 94.009645 
L 896.898188 93.650907 
L 897.854714 92.993365 
L 902.269758 89.025735 
L 904.151631 87.731979 
L 905.37954 86.695837 
L 905.81258 86.208531 
L 906.844261 85.438095 
L 909.013313 84.128134 
L 910.775542 83.006104 
L 912.174156 82.122689 
L 914.167952 81.594917 
L 915.913807 80.98479 
L 917.667342 80.166541 
L 918.551461 79.46223 
L 920.822137 77.538056 
L 922.116265 77.020301 
L 923.467363 76.753211 
L 925.976538 76.328311 
L 927.139181 75.914587 
L 928.387981 75.18276 
L 929.299834 74.358693 
L 931.698718 72.213886 
L 932.96034 71.366864 
L 935.209348 70.108884 
L 936.110288 69.615592 
L 937.986053 68.230843 
L 939.105107 66.972253 
L 940.711367 65.317503 
L 941.962737 64.120289 
L 943.804897 62.747108 
L 945.439847 61.599402 
L 948.485908 60.081355 
L 949.758202 59.427434 
L 951.475979 58.216119 
L 956.791524 53.814324 
L 957.876082 53.128511 
L 958.881414 52.465006 
L 961.099477 50.678681 
L 961.99716 50.220117 
L 966.048698 48.681974 
L 967.312208 48.18945 
L 969.761019 47.676058 
L 971.499623 47.304115 
L 974.013444 46.452025 
L 975.087231 45.879043 
L 975.586487 45.368157 
L 976.349832 44.116384 
L 976.672747 43.381696 
L 976.725805 42.717097 
L 976.495359 40.769666 
L 976.439395 40.73485 
L 976.623505 40.707053 
L 976.619312 40.702191 
L 976.505602 40.610351 
L 976.302162 40.494961 
L 976.719864 40.599417 
L 976.367647 40.490771 
L 976.678973 40.449242 
L 975.971412 40.407861 
L 976.41033 40.377793 
L 975.864241 40.321997 
L 976.785145 40.28762 
L 976.388044 40.286406 
" clip-path="url(#p746afda5ff)" style="fill: none; stroke: #ff0000; stroke-width: 1.5; stroke-linecap: square"/>
   </g>
   <g id="line2d_35">
    <path d="M 749.001998 187.861407 
L 747.64273 191.821252 
L 745.153669 199.035228 
L 744.921442 200.571072 
L 744.966757 201.696811 
L 745.269349 202.916176 
L 745.700942 203.881991 
L 746.189696 204.420077 
L 746.547588 204.502896 
L 746.751828 204.436777 
L 746.626649 204.381246 
L 745.877096 204.317018 
L 742.264036 204.434809 
L 737.195608 204.74541 
L 728.129509 205.703045 
L 725.119182 206.188397 
L 723.852112 206.773806 
L 722.098863 208.033915 
L 720.486259 209.877877 
L 719.012571 211.271733 
L 718.071587 212.174459 
L 717.116734 212.716396 
L 716.357468 213.234869 
L 715.997184 213.466745 
L 714.876836 213.63743 
L 713.932293 213.909458 
L 713.129419 214.353637 
L 712.601411 214.878967 
L 710.809064 216.95841 
L 707.572691 219.878529 
L 706.458869 220.872691 
L 705.67155 221.636844 
L 704.548494 221.902248 
L 693.295059 224.086505 
L 688.758311 225.198388 
L 688.205942 225.596714 
L 686.974315 226.825707 
L 686.686372 227.492125 
L 686.28388 228.606336 
L 685.431043 230.070318 
L 684.493747 231.932447 
L 683.59872 233.665883 
L 682.512296 235.19014 
L 681.335949 236.876857 
L 680.364887 238.718039 
L 679.453441 240.157076 
L 678.476129 241.647795 
L 677.89577 242.699631 
L 677.3642 242.971973 
L 676.699719 243.110923 
L 674.954343 243.345923 
L 673.893793 243.84087 
L 672.793632 244.506473 
L 672.30645 245.121165 
L 671.080569 246.9767 
L 670.536393 247.988901 
L 669.845852 248.62549 
L 665.491006 251.85181 
L 662.792782 252.085054 
L 658.580734 252.563286 
L 656.363008 253.005332 
L 653.112842 253.918419 
L 650.803375 254.636108 
L 648.239413 255.526783 
L 646.417911 255.726074 
L 643.410953 256.184631 
L 639.082535 257.139293 
L 636.515866 257.968874 
L 635.277622 258.506597 
L 633.253879 259.501188 
L 630.29351 261.098214 
L 628.943 261.695114 
L 626.453062 262.614389 
L 625.076111 262.854322 
L 622.055719 263.34598 
L 620.206436 263.866611 
L 618.726882 264.596559 
L 617.822493 265.238233 
L 616.96071 266.118179 
L 615.909798 267.514751 
L 613.690856 271.081604 
L 610.152981 275.398163 
L 607.64426 277.75073 
L 606.640496 277.957636 
L 603.203724 278.296184 
L 599.685748 278.831474 
L 599.032746 279.130505 
L 598.310042 279.573685 
L 596.925462 280.416693 
L 595.463671 281.620441 
L 594.709123 282.47635 
L 592.684466 285.336408 
L 590.577091 287.221075 
L 589.488595 287.995977 
L 587.611388 288.922654 
L 584.093397 289.894149 
L 580.47821 290.67346 
L 575.444809 292.080145 
L 572.225256 292.742874 
L 570.989433 293.215887 
L 570.283746 293.760539 
L 570.291282 293.93388 
L 570.655146 294.135711 
L 570.908332 294.384576 
L 570.889761 294.659867 
L 570.506695 296.177329 
L 570.591998 296.194572 
L 570.992224 296.281511 
L 570.771403 296.334348 
L 570.596459 296.415869 
L 570.616633 296.488136 
L 570.624798 296.510198 
L 570.714798 296.538287 
L 570.945078 296.671281 
L 570.926083 296.689004 
L 570.644772 296.849496 
L 570.691879 296.925674 
L 570.65822 297.144784 
L 570.60636 297.560306 
L 570.582195 298.132255 
L 570.57806 298.574035 
L 570.744968 299.518751 
L 570.668355 300.768813 
L 570.719626 300.987033 
L 570.940619 301.137657 
L 570.772826 301.21235 
L 570.332903 301.525203 
L 570.490978 301.556831 
L 570.453117 301.597841 
L 570.751938 301.745723 
L 570.693458 301.893405 
L 570.705293 302.120855 
L 570.664745 302.376551 
L 570.692746 302.487775 
L 570.717037 302.500674 
L 570.881669 302.665058 
L 570.845803 302.690591 
L 570.645276 302.897799 
L 570.650901 302.903221 
L 571.007033 303.111928 
L 570.841127 303.148225 
L 570.786885 303.176246 
L 570.898686 303.247631 
L 570.83923 303.375026 
L 570.721749 303.60694 
L 570.556958 303.803748 
L 570.560038 303.809187 
L 570.73623 304.09152 
L 570.616069 304.099167 
L 570.488596 304.178246 
L 570.751822 304.185193 
L 570.666968 304.208781 
L 570.458233 304.232233 
L 570.935388 304.25541 
L 570.718475 304.309656 
L 570.951259 304.38158 
L 570.520164 304.321585 
L 570.897672 304.402538 
" clip-path="url(#p746afda5ff)" style="fill: none; stroke: #008000; stroke-width: 1.5; stroke-linecap: square"/>
   </g>
   <g id="line2d_36">
    <path d="M 803.419812 152.880899 
L 976.785145 40.87673 
L 976.388044 41.133281 
" clip-path="url(#p746afda5ff)" style="fill: none; stroke-dasharray: 5.55,2.4; stroke-dashoffset: 0; stroke: #ff0000; stroke-width: 1.5"/>
   </g>
   <g id="line2d_37">
    <path d="M 749.001998 195.684393 
L 570.250909 300.195086 
L 570.897672 299.816942 
" clip-path="url(#p746afda5ff)" style="fill: none; stroke-dasharray: 5.55,2.4; stroke-dashoffset: 0; stroke: #008000; stroke-width: 1.5"/>
   </g>
   <g id="patch_8">
    <path d="M 549.92 318.04 
L 549.92 26.88 
" style="fill: none; stroke: #000000; stroke-width: 0.8; stroke-linejoin: miter; stroke-linecap: square"/>
   </g>
   <g id="patch_9">
    <path d="M 997.2 318.04 
L 997.2 26.88 
" style="fill: none; stroke: #000000; stroke-width: 0.8; stroke-linejoin: miter; stroke-linecap: square"/>
   </g>
   <g id="patch_10">
    <path d="M 549.92 318.04 
L 997.2 318.04 
" style="fill: none; stroke: #000000; stroke-width: 0.8; stroke-linejoin: miter; stroke-linecap: square"/>
   </g>
   <g id="patch_11">
    <path d="M 549.92 26.88 
L 997.2 26.88 
" style="fill: none; stroke: #000000; stroke-width: 0.8; stroke-linejoin: miter; stroke-linecap: square"/>
   </g>
   <g id="text_35">
    <text style="font: 12px 'DejaVu Sans', 'Bitstream Vera Sans', 'Computer Modern Sans Serif', 'Lucida Grande', 'Verdana', 'Geneva', 'Lucid', 'Arial', 'Helvetica', 'Avant Garde', sans-serif; text-anchor: middle" x="773.56" y="20.88" transform="rotate(-0 773.56 20.88)">Stiffness test</text>
   </g>
   <g id="legend_1">
    <g id="patch_12">
     <path d="M 887.005 314.04 
L 991.6 314.04 
Q 993.2 314.04 993.2 312.44 
L 993.2 278.0125 
Q 993.2 276.4125 991.6 276.4125 
L 887.005 276.4125 
Q 885.405 276.4125 885.405 278.0125 
L 885.405 312.44 
Q 885.405 314.04 887.005 314.04 
z
" style="fill: #ffffff; opacity: 0.8; stroke: #cccccc; stroke-linejoin: miter"/>
    </g>
    <g id="line2d_38">
     <path d="M 888.605 282.89125 
L 896.605 282.89125 
L 904.605 282.89125 
" style="fill: none; stroke: #1f77b4; stroke-opacity: 0.5; stroke-width: 1.5; stroke-linecap: square"/>
    </g>
    <g id="text_36">
     <text style="font: 8px 'DejaVu Sans', 'Bitstream Vera Sans', 'Computer Modern Sans Serif', 'Lucida Grande', 'Verdana', 'Geneva', 'Lucid', 'Arial', 'Helvetica', 'Avant Garde', sans-serif; text-anchor: start" x="911.005" y="285.69125" transform="rotate(-0 911.005 285.69125)">\ld{stiffness test}</text>
    </g>
    <g id="line2d_39">
     <path d="M 888.605 294.63375 
L 896.605 294.63375 
L 904.605 294.63375 
" style="fill: none; stroke: #ff0000; stroke-width: 1.5; stroke-linecap: square"/>
    </g>
    <g id="text_37">
     <text style="font: 8px 'DejaVu Sans', 'Bitstream Vera Sans', 'Computer Modern Sans Serif', 'Lucida Grande', 'Verdana', 'Geneva', 'Lucid', 'Arial', 'Helvetica', 'Avant Garde', sans-serif; text-anchor: start" x="911.005" y="297.43375" transform="rotate(-0 911.005 297.43375)">\ld{positive slope}</text>
    </g>
    <g id="line2d_40">
     <path d="M 888.605 306.37625 
L 896.605 306.37625 
L 904.605 306.37625 
" style="fill: none; stroke: #008000; stroke-width: 1.5; stroke-linecap: square"/>
    </g>
    <g id="text_38">
     <text style="font: 8px 'DejaVu Sans', 'Bitstream Vera Sans', 'Computer Modern Sans Serif', 'Lucida Grande', 'Verdana', 'Geneva', 'Lucid', 'Arial', 'Helvetica', 'Avant Garde', sans-serif; text-anchor: start" x="911.005" y="309.17625" transform="rotate(-0 911.005 309.17625)">\ld{negative slope}</text>
    </g>
   </g>
  </g>
 </g>
 <defs>
  <clipPath id="pe18e5f8ed7">
   <rect x="56.09" y="26.88" width="447.28" height="291.16"/>
  </clipPath>
  <clipPath id="p746afda5ff">
   <rect x="549.92" y="26.88" width="447.28" height="291.16"/>
  </clipPath>
 </defs>
</svg>
