<?xml version="1.0" encoding="utf-8" standalone="no"?>
<!DOCTYPE svg PUBLIC "-//W3C//DTD SVG 1.1//EN"
  "http://www.w3.org/Graphics/SVG/1.1/DTD/svg11.dtd">
<svg xmlns:xlink="http://www.w3.org/1999/xlink" width="1008pt" height="360pt" viewBox="0 0 1008 360" xmlns="http://www.w3.org/2000/svg" version="1.1">
 <metadata>
  <rdf:RDF xmlns:dc="http://purl.org/dc/elements/1.1/" xmlns:cc="http://creativecommons.org/ns#" xmlns:rdf="http://www.w3.org/1999/02/22-rdf-syntax-ns#">
   <cc:Work>
    <dc:type rdf:resource="http://purl.org/dc/dcmitype/StillImage"/>
    <dc:date>2024-07-22T20:59:34.881086</dc:date>
    <dc:format>image/svg+xml</dc:format>
    <dc:creator>
     <cc:Agent>
      <dc:title>Matplotlib v3.9.0, https://matplotlib.org/</dc:title>
     </cc:Agent>
    </dc:creator>
   </cc:Work>
  </rdf:RDF>
 </metadata>
 <defs>
  <style type="text/css">*{stroke-linejoin: round; stroke-linecap: butt}</style>
 </defs>
 <g id="figure_1">
  <g id="patch_1">
   <path d="M 0 360 
L 1008 360 
L 1008 0 
L 0 0 
z
" style="fill: #ffffff"/>
  </g>
  <g id="axes_1">
   <g id="patch_2">
    <path d="M 62.3 318.04 
L 506.475 318.04 
L 506.475 50.64 
L 62.3 50.64 
z
" style="fill: #ffffff"/>
   </g>
   <g id="matplotlib.axis_1">
    <g id="xtick_1">
     <g id="line2d_1">
      <defs>
       <path id="m335c96fc80" d="M 0 0 
L 0 3.5 
" style="stroke: #000000; stroke-width: 0.8"/>
      </defs>
      <g>
       <use xlink:href="#m335c96fc80" x="82.862529" y="318.04" style="stroke: #000000; stroke-width: 0.8"/>
      </g>
     </g>
     <g id="text_1">
      <text style="font: 10px 'DejaVu Sans', 'Bitstream Vera Sans', 'Computer Modern Sans Serif', 'Lucida Grande', 'Verdana', 'Geneva', 'Lucid', 'Arial', 'Helvetica', 'Avant Garde', sans-serif; text-anchor: middle" x="82.862529" y="332.638438" transform="rotate(-0 82.862529 332.638438)">−4</text>
     </g>
    </g>
    <g id="xtick_2">
     <g id="line2d_2">
      <g>
       <use xlink:href="#m335c96fc80" x="133.370686" y="318.04" style="stroke: #000000; stroke-width: 0.8"/>
      </g>
     </g>
     <g id="text_2">
      <text style="font: 10px 'DejaVu Sans', 'Bitstream Vera Sans', 'Computer Modern Sans Serif', 'Lucida Grande', 'Verdana', 'Geneva', 'Lucid', 'Arial', 'Helvetica', 'Avant Garde', sans-serif; text-anchor: middle" x="133.370686" y="332.638438" transform="rotate(-0 133.370686 332.638438)">−3</text>
     </g>
    </g>
    <g id="xtick_3">
     <g id="line2d_3">
      <g>
       <use xlink:href="#m335c96fc80" x="183.878843" y="318.04" style="stroke: #000000; stroke-width: 0.8"/>
      </g>
     </g>
     <g id="text_3">
      <text style="font: 10px 'DejaVu Sans', 'Bitstream Vera Sans', 'Computer Modern Sans Serif', 'Lucida Grande', 'Verdana', 'Geneva', 'Lucid', 'Arial', 'Helvetica', 'Avant Garde', sans-serif; text-anchor: middle" x="183.878843" y="332.638438" transform="rotate(-0 183.878843 332.638438)">−2</text>
     </g>
    </g>
    <g id="xtick_4">
     <g id="line2d_4">
      <g>
       <use xlink:href="#m335c96fc80" x="234.387" y="318.04" style="stroke: #000000; stroke-width: 0.8"/>
      </g>
     </g>
     <g id="text_4">
      <text style="font: 10px 'DejaVu Sans', 'Bitstream Vera Sans', 'Computer Modern Sans Serif', 'Lucida Grande', 'Verdana', 'Geneva', 'Lucid', 'Arial', 'Helvetica', 'Avant Garde', sans-serif; text-anchor: middle" x="234.387" y="332.638438" transform="rotate(-0 234.387 332.638438)">−1</text>
     </g>
    </g>
    <g id="xtick_5">
     <g id="line2d_5">
      <g>
       <use xlink:href="#m335c96fc80" x="284.895158" y="318.04" style="stroke: #000000; stroke-width: 0.8"/>
      </g>
     </g>
     <g id="text_5">
      <text style="font: 10px 'DejaVu Sans', 'Bitstream Vera Sans', 'Computer Modern Sans Serif', 'Lucida Grande', 'Verdana', 'Geneva', 'Lucid', 'Arial', 'Helvetica', 'Avant Garde', sans-serif; text-anchor: middle" x="284.895158" y="332.638438" transform="rotate(-0 284.895158 332.638438)">0</text>
     </g>
    </g>
    <g id="xtick_6">
     <g id="line2d_6">
      <g>
       <use xlink:href="#m335c96fc80" x="335.403315" y="318.04" style="stroke: #000000; stroke-width: 0.8"/>
      </g>
     </g>
     <g id="text_6">
      <text style="font: 10px 'DejaVu Sans', 'Bitstream Vera Sans', 'Computer Modern Sans Serif', 'Lucida Grande', 'Verdana', 'Geneva', 'Lucid', 'Arial', 'Helvetica', 'Avant Garde', sans-serif; text-anchor: middle" x="335.403315" y="332.638438" transform="rotate(-0 335.403315 332.638438)">1</text>
     </g>
    </g>
    <g id="xtick_7">
     <g id="line2d_7">
      <g>
       <use xlink:href="#m335c96fc80" x="385.911472" y="318.04" style="stroke: #000000; stroke-width: 0.8"/>
      </g>
     </g>
     <g id="text_7">
      <text style="font: 10px 'DejaVu Sans', 'Bitstream Vera Sans', 'Computer Modern Sans Serif', 'Lucida Grande', 'Verdana', 'Geneva', 'Lucid', 'Arial', 'Helvetica', 'Avant Garde', sans-serif; text-anchor: middle" x="385.911472" y="332.638438" transform="rotate(-0 385.911472 332.638438)">2</text>
     </g>
    </g>
    <g id="xtick_8">
     <g id="line2d_8">
      <g>
       <use xlink:href="#m335c96fc80" x="436.419629" y="318.04" style="stroke: #000000; stroke-width: 0.8"/>
      </g>
     </g>
     <g id="text_8">
      <text style="font: 10px 'DejaVu Sans', 'Bitstream Vera Sans', 'Computer Modern Sans Serif', 'Lucida Grande', 'Verdana', 'Geneva', 'Lucid', 'Arial', 'Helvetica', 'Avant Garde', sans-serif; text-anchor: middle" x="436.419629" y="332.638438" transform="rotate(-0 436.419629 332.638438)">3</text>
     </g>
    </g>
    <g id="xtick_9">
     <g id="line2d_9">
      <g>
       <use xlink:href="#m335c96fc80" x="486.927786" y="318.04" style="stroke: #000000; stroke-width: 0.8"/>
      </g>
     </g>
     <g id="text_9">
      <text style="font: 10px 'DejaVu Sans', 'Bitstream Vera Sans', 'Computer Modern Sans Serif', 'Lucida Grande', 'Verdana', 'Geneva', 'Lucid', 'Arial', 'Helvetica', 'Avant Garde', sans-serif; text-anchor: middle" x="486.927786" y="332.638438" transform="rotate(-0 486.927786 332.638438)">4</text>
     </g>
    </g>
    <g id="text_10">
     <text style="font: 10px 'DejaVu Sans', 'Bitstream Vera Sans', 'Computer Modern Sans Serif', 'Lucida Grande', 'Verdana', 'Geneva', 'Lucid', 'Arial', 'Helvetica', 'Avant Garde', sans-serif; text-anchor: middle" x="284.3875" y="346.316563" transform="rotate(-0 284.3875 346.316563)">Motor Torque [Nm]</text>
    </g>
   </g>
   <g id="matplotlib.axis_2">
    <g id="ytick_1">
     <g id="line2d_10">
      <defs>
       <path id="ma0186b0bc8" d="M 0 0 
L -3.5 0 
" style="stroke: #000000; stroke-width: 0.8"/>
      </defs>
      <g>
       <use xlink:href="#ma0186b0bc8" x="62.3" y="287.020347" style="stroke: #000000; stroke-width: 0.8"/>
      </g>
     </g>
     <g id="text_11">
      <text style="font: 10px 'DejaVu Sans', 'Bitstream Vera Sans', 'Computer Modern Sans Serif', 'Lucida Grande', 'Verdana', 'Geneva', 'Lucid', 'Arial', 'Helvetica', 'Avant Garde', sans-serif; text-anchor: end" x="55.3" y="290.819566" transform="rotate(-0 55.3 290.819566)">−0.75</text>
     </g>
    </g>
    <g id="ytick_2">
     <g id="line2d_11">
      <g>
       <use xlink:href="#ma0186b0bc8" x="62.3" y="252.014497" style="stroke: #000000; stroke-width: 0.8"/>
      </g>
     </g>
     <g id="text_12">
      <text style="font: 10px 'DejaVu Sans', 'Bitstream Vera Sans', 'Computer Modern Sans Serif', 'Lucida Grande', 'Verdana', 'Geneva', 'Lucid', 'Arial', 'Helvetica', 'Avant Garde', sans-serif; text-anchor: end" x="55.3" y="255.813716" transform="rotate(-0 55.3 255.813716)">−0.50</text>
     </g>
    </g>
    <g id="ytick_3">
     <g id="line2d_12">
      <g>
       <use xlink:href="#ma0186b0bc8" x="62.3" y="217.008647" style="stroke: #000000; stroke-width: 0.8"/>
      </g>
     </g>
     <g id="text_13">
      <text style="font: 10px 'DejaVu Sans', 'Bitstream Vera Sans', 'Computer Modern Sans Serif', 'Lucida Grande', 'Verdana', 'Geneva', 'Lucid', 'Arial', 'Helvetica', 'Avant Garde', sans-serif; text-anchor: end" x="55.3" y="220.807866" transform="rotate(-0 55.3 220.807866)">−0.25</text>
     </g>
    </g>
    <g id="ytick_4">
     <g id="line2d_13">
      <g>
       <use xlink:href="#ma0186b0bc8" x="62.3" y="182.002797" style="stroke: #000000; stroke-width: 0.8"/>
      </g>
     </g>
     <g id="text_14">
      <text style="font: 10px 'DejaVu Sans', 'Bitstream Vera Sans', 'Computer Modern Sans Serif', 'Lucida Grande', 'Verdana', 'Geneva', 'Lucid', 'Arial', 'Helvetica', 'Avant Garde', sans-serif; text-anchor: end" x="55.3" y="185.802015" transform="rotate(-0 55.3 185.802015)">0.00</text>
     </g>
    </g>
    <g id="ytick_5">
     <g id="line2d_14">
      <g>
       <use xlink:href="#ma0186b0bc8" x="62.3" y="146.996946" style="stroke: #000000; stroke-width: 0.8"/>
      </g>
     </g>
     <g id="text_15">
      <text style="font: 10px 'DejaVu Sans', 'Bitstream Vera Sans', 'Computer Modern Sans Serif', 'Lucida Grande', 'Verdana', 'Geneva', 'Lucid', 'Arial', 'Helvetica', 'Avant Garde', sans-serif; text-anchor: end" x="55.3" y="150.796165" transform="rotate(-0 55.3 150.796165)">0.25</text>
     </g>
    </g>
    <g id="ytick_6">
     <g id="line2d_15">
      <g>
       <use xlink:href="#ma0186b0bc8" x="62.3" y="111.991096" style="stroke: #000000; stroke-width: 0.8"/>
      </g>
     </g>
     <g id="text_16">
      <text style="font: 10px 'DejaVu Sans', 'Bitstream Vera Sans', 'Computer Modern Sans Serif', 'Lucida Grande', 'Verdana', 'Geneva', 'Lucid', 'Arial', 'Helvetica', 'Avant Garde', sans-serif; text-anchor: end" x="55.3" y="115.790315" transform="rotate(-0 55.3 115.790315)">0.50</text>
     </g>
    </g>
    <g id="ytick_7">
     <g id="line2d_16">
      <g>
       <use xlink:href="#ma0186b0bc8" x="62.3" y="76.985246" style="stroke: #000000; stroke-width: 0.8"/>
      </g>
     </g>
     <g id="text_17">
      <text style="font: 10px 'DejaVu Sans', 'Bitstream Vera Sans', 'Computer Modern Sans Serif', 'Lucida Grande', 'Verdana', 'Geneva', 'Lucid', 'Arial', 'Helvetica', 'Avant Garde', sans-serif; text-anchor: end" x="55.3" y="80.784465" transform="rotate(-0 55.3 80.784465)">0.75</text>
     </g>
    </g>
    <g id="text_18">
     <text style="font: 10px 'DejaVu Sans', 'Bitstream Vera Sans', 'Computer Modern Sans Serif', 'Lucida Grande', 'Verdana', 'Geneva', 'Lucid', 'Arial', 'Helvetica', 'Avant Garde', sans-serif; text-anchor: middle" x="18.575" y="184.34" transform="rotate(-90 18.575 184.34)">Deflection [deg]</text>
    </g>
   </g>
   <g id="line2d_17">
    <path d="M 289.563319 236.28038 
L 295.986467 234.589268 
L 300.809562 233.167971 
L 306.493876 231.235696 
L 311.634714 229.07686 
L 314.396254 227.698502 
L 319.226052 224.988973 
L 327.513178 220.199107 
L 333.710291 216.734148 
L 335.755256 215.338083 
L 337.61617 213.766951 
L 340.138097 211.339923 
L 350.478007 200.696194 
L 354.342827 196.173282 
L 357.091415 192.607527 
L 362.346889 185.570559 
L 364.907909 182.743817 
L 366.866316 180.917548 
L 372.225078 176.141423 
L 375.241988 172.993432 
L 377.913896 169.884831 
L 383.199995 163.611691 
L 385.543118 161.27625 
L 388.155478 158.980477 
L 391.620426 156.266487 
L 394.761512 154.053956 
L 396.241947 153.25091 
L 397.903258 152.622112 
L 400.463678 151.937037 
L 405.089287 150.703794 
L 406.970953 149.963328 
L 408.355886 149.181096 
L 409.573546 148.213689 
L 421.43575 137.352179 
L 424.27743 134.196677 
L 426.1637 132.31008 
L 428.104951 130.690657 
L 430.225509 129.219222 
L 432.395022 127.972675 
L 434.357513 127.112695 
L 436.561794 126.406523 
L 439.640628 125.668284 
L 444.185521 124.83608 
L 448.607113 123.913045 
L 453.735098 122.656009 
L 458.034866 121.666155 
L 460.95143 121.158838 
L 465.066787 120.724636 
L 473.1855 120.138923 
L 479.328889 119.57552 
L 483.382457 118.984951 
L 484.98181 118.554964 
L 485.32865 118.282512 
L 485.236898 118.149514 
L 484.785084 117.985978 
L 483.521717 117.795606 
L 480.801137 117.636926 
L 475.037775 117.560326 
L 461.217215 117.632617 
L 362.954426 119.357661 
L 342.470367 120.165622 
L 332.965268 120.829955 
L 325.126577 121.545472 
L 317.847237 122.458324 
L 309.118951 123.555051 
L 294.26241 125.261495 
L 289.503091 126.170462 
L 286.944352 126.872462 
L 284.311744 127.842219 
L 282.189918 128.524039 
L 277.38557 129.749004 
L 272.456775 131.098135 
L 270.055164 131.9663 
L 268.291225 132.826888 
L 266.752385 133.83056 
L 265.269716 135.076982 
L 263.899077 136.517928 
L 262.579202 138.246501 
L 259.775195 142.054859 
L 257.831398 144.234308 
L 255.192056 146.824514 
L 252.306976 149.344572 
L 248.706327 152.161946 
L 245.265254 154.594847 
L 243.103349 155.862703 
L 240.834698 156.922677 
L 237.246132 158.304535 
L 233.801346 159.713915 
L 230.575506 161.301013 
L 226.536117 163.551831 
L 218.111239 168.349887 
L 215.361363 169.638057 
L 212.62431 170.663646 
L 209.325922 171.649942 
L 202.128404 173.699059 
L 200.314582 174.519888 
L 198.910691 175.395609 
L 197.776927 176.352847 
L 196.64259 177.606244 
L 195.017012 179.780342 
L 188.526735 188.76535 
L 181.715447 197.632287 
L 174.501759 207.08937 
L 170.939936 212.170642 
L 165.108227 220.653297 
L 164.178261 221.375232 
L 162.982345 222.008818 
L 161.365513 222.612882 
L 159.02303 223.228686 
L 153.844706 224.300199 
L 149.049095 225.069719 
L 139.230023 226.421347 
L 126.239389 228.38594 
L 110.919495 230.933438 
L 107.138704 231.784417 
L 104.654313 232.565595 
L 102.454842 233.492033 
L 100.103116 234.733842 
L 96.382708 236.989903 
L 89.108663 241.699682 
L 86.288277 243.770488 
L 85.153543 244.846401 
L 84.716213 245.52712 
L 84.605858 246.080478 
L 84.732818 246.568043 
L 85.075335 246.998619 
L 85.697079 247.402716 
L 86.790471 247.813987 
L 88.511391 248.199061 
L 90.819404 248.47246 
L 94.124553 248.614651 
L 99.695564 248.600777 
L 116.62791 248.251407 
L 135.104916 248.009972 
L 151.220814 247.735047 
L 185.944293 246.838161 
L 202.449283 245.823404 
L 245.558821 243.119655 
L 251.133051 242.527239 
L 257.356173 241.629878 
L 262.03441 240.757747 
L 273.206493 238.4649 
L 279.930735 237.270303 
L 280.714908 237.101402 
L 280.714908 237.101402 
" clip-path="url(#pec415064f2)" style="fill: none; stroke: #440154; stroke-width: 1.5; stroke-linecap: square"/>
   </g>
   <g id="line2d_18">
    <path d="M 289.870696 283.057907 
L 295.378033 281.61232 
L 298.612433 280.540921 
L 301.072792 279.497165 
L 304.5263 277.733571 
L 310.152677 274.60657 
L 315.192829 271.624267 
L 319.094707 269.033118 
L 322.41932 266.579683 
L 326.674711 263.097621 
L 333.889675 257.189387 
L 339.193284 252.851146 
L 342.094828 250.158857 
L 353.725542 239.081125 
L 359.637023 233.988119 
L 361.863209 232.325335 
L 364.714166 230.502112 
L 367.37515 229.03517 
L 370.113885 227.811841 
L 375.701304 225.366242 
L 377.167175 224.410061 
L 378.630954 223.18531 
L 379.896668 221.849922 
L 381.071517 220.290736 
L 382.220622 218.385786 
L 383.433996 215.919633 
L 384.835005 212.550224 
L 386.564055 207.767435 
L 391.551815 193.588761 
L 394.177758 187.104294 
L 405.385457 160.118842 
L 407.009781 155.377032 
L 408.360938 150.732618 
L 409.78617 144.975641 
L 412.146619 135.324358 
L 413.31254 131.576413 
L 414.593186 128.18298 
L 416.171681 124.648029 
L 418.180811 120.711726 
L 420.633447 116.397805 
L 423.96746 111.001912 
L 432.982567 96.673006 
L 434.588815 93.534833 
L 436.709283 89.239786 
L 437.63449 88.142468 
L 438.981912 86.900818 
L 441.137681 85.24748 
L 451.788456 77.445332 
L 458.3673 72.420922 
L 461.200152 70.684806 
L 464.136153 69.152049 
L 467.053916 67.88405 
L 469.902094 66.887203 
L 472.427977 66.235931 
L 475.186463 65.776164 
L 483.063129 64.602876 
L 484.665768 64.135376 
L 485.122742 63.806103 
L 485.098255 63.611368 
L 484.792539 63.419652 
L 483.970845 63.206019 
L 482.057738 62.97843 
L 478.699718 62.824883 
L 472.455972 62.80541 
L 456.438597 63.024092 
L 423.468821 63.81218 
L 399.666043 64.841891 
L 393.754759 65.356644 
L 372.956538 67.409116 
L 358.851123 68.386516 
L 336.468879 70.250125 
L 318.425376 71.417523 
L 308.934414 72.20878 
L 300.047973 73.203261 
L 294.250532 74.050737 
L 290.10235 74.879503 
L 286.832977 75.732764 
L 284.17492 76.648842 
L 271.76793 81.861875 
L 269.042133 83.372384 
L 266.670547 84.92543 
L 264.908873 86.340375 
L 263.30271 87.91662 
L 261.27504 90.250667 
L 258.755569 93.472472 
L 256.955104 96.130075 
L 255.223266 99.103623 
L 253.102509 103.207775 
L 251.389568 106.972595 
L 249.772156 111.097636 
L 243.640098 127.298234 
L 241.651743 131.8819 
L 239.650664 135.939332 
L 237.269151 140.251467 
L 235.150486 143.644323 
L 233.262779 146.265111 
L 231.087571 148.908075 
L 228.856305 151.277607 
L 226.974622 152.955814 
L 225.258321 154.185435 
L 223.499158 155.157777 
L 221.652522 155.912785 
L 219.035731 156.696005 
L 214.985244 157.921381 
L 212.401896 158.967027 
L 209.828741 160.24923 
L 206.945124 161.933081 
L 204.135098 163.834179 
L 200.937806 166.26817 
L 194.915016 170.983126 
L 192.034022 172.761887 
L 189.312704 174.184968 
L 186.270635 175.52322 
L 183.611512 176.467927 
L 181.104031 177.118936 
L 178.375905 177.590913 
L 175.085926 177.917178 
L 163.20915 178.895642 
L 160.043562 179.418172 
L 157.794182 180.012425 
L 155.858844 180.746729 
L 154.425243 181.5122 
L 153.249012 182.381709 
L 152.147249 183.473711 
L 151.086975 184.846624 
L 149.972805 186.685367 
L 148.40799 189.777739 
L 141.542905 203.724919 
L 138.012903 210.024955 
L 128.921258 225.669114 
L 125.592966 231.480024 
L 124.148373 234.419094 
L 123.074472 237.068163 
L 122.266679 239.633972 
L 121.707811 242.109923 
L 121.375683 244.57102 
L 120.758122 250.456336 
L 120.197388 252.576055 
L 119.350896 254.887375 
L 118.197168 257.406279 
L 116.45773 260.632846 
L 114.196933 264.340242 
L 111.248025 268.733142 
L 106.245706 275.706961 
L 100.015894 284.476435 
L 95.563338 290.83778 
L 94.72347 291.431782 
L 93.052515 292.268461 
L 90.081574 293.802784 
L 87.719655 295.284064 
L 86.348146 296.379154 
L 85.472552 297.334324 
L 84.86166 298.32505 
L 84.545244 299.249823 
L 84.477498 300.087499 
L 84.639481 300.897106 
L 85.003698 301.593747 
L 85.63875 302.303226 
L 86.636886 303.054312 
L 88.004834 303.789879 
L 89.639399 304.417655 
L 91.634829 304.945373 
L 94.317886 305.40911 
L 97.334178 305.709274 
L 101.396048 305.863081 
L 108.117775 305.86525 
L 125.049541 305.607266 
L 139.543166 305.13314 
L 145.976436 304.728319 
L 156.218369 303.949624 
L 183.631119 302.261216 
L 206.074073 301.223443 
L 216.69882 300.388272 
L 230.087749 298.960728 
L 244.603701 297.225044 
L 250.328796 296.321597 
L 255.256159 295.33708 
L 259.275992 294.326782 
L 262.307876 293.330267 
L 271.434731 290.151227 
L 275.459327 288.747702 
L 278.404123 287.475499 
L 280.234311 286.541613 
L 280.234311 286.541613 
" clip-path="url(#pec415064f2)" style="fill: none; stroke: #443983; stroke-width: 1.5; stroke-linecap: square"/>
   </g>
   <g id="line2d_19">
    <path d="M 290.072037 242.740108 
L 294.519291 241.771991 
L 299.067783 240.549703 
L 303.206612 239.233476 
L 306.929681 237.829254 
L 309.407812 236.651911 
L 312.340059 235.006582 
L 314.911962 233.289427 
L 319.165329 230.148079 
L 324.475431 225.831142 
L 326.499945 223.997114 
L 328.766343 221.577548 
L 331.401346 218.511156 
L 332.776391 216.532302 
L 334.812468 213.567624 
L 341.1067 205.550497 
L 348.880733 196.96902 
L 353.646686 192.450828 
L 359.108933 188.012569 
L 363.340117 184.8765 
L 369.931631 180.253613 
L 374.607891 177.235078 
L 377.592047 175.556054 
L 379.975105 174.462288 
L 381.974378 173.781184 
L 383.940005 173.344483 
L 386.695945 172.98896 
L 399.451819 171.592858 
L 405.209306 170.601594 
L 407.932558 169.914612 
L 409.748956 169.24127 
L 411.240348 168.457432 
L 412.73088 167.41675 
L 414.497763 165.896874 
L 416.903569 163.512146 
L 420.267352 159.82688 
L 424.554892 154.79988 
L 432.287704 145.289893 
L 438.531854 137.634813 
L 441.578265 134.367022 
L 443.508443 132.587193 
L 445.231008 131.310261 
L 447.372126 130.014951 
L 449.416512 129.028984 
L 451.744767 128.172881 
L 455.392131 127.092693 
L 467.966464 123.635551 
L 470.554535 122.544885 
L 472.836275 121.351767 
L 475.543164 119.666507 
L 478.717511 117.437762 
L 481.465599 115.243505 
L 483.979565 112.978724 
L 484.858038 111.923752 
L 485.161887 111.251771 
L 485.181112 110.728708 
L 484.971653 110.293809 
L 484.549614 109.943694 
L 483.784762 109.627761 
L 482.468561 109.361792 
L 480.220735 109.157698 
L 476.375747 109.049494 
L 468.401198 109.104608 
L 435.780269 109.630536 
L 420.201709 110.088022 
L 405.89556 110.427411 
L 382.258671 110.934044 
L 368.905851 111.456083 
L 359.964334 111.958629 
L 310.478787 115.772737 
L 299.545644 117.014197 
L 296.450498 117.587206 
L 294.021304 118.261824 
L 291.946618 119.061092 
L 289.091808 120.446106 
L 284.353583 122.989009 
L 281.070624 124.999331 
L 277.015333 127.513801 
L 273.95866 129.038538 
L 268.883081 131.554074 
L 266.694393 132.905922 
L 264.410435 134.616725 
L 258.291978 139.288313 
L 255.281578 141.226752 
L 249.676768 144.514082 
L 245.892426 146.391185 
L 239.153879 149.634679 
L 237.074462 151.020047 
L 235.164134 152.54709 
L 233.495254 154.156697 
L 231.887072 156.03673 
L 229.060013 159.777184 
L 219.149389 173.265682 
L 216.633473 177.193853 
L 214.657626 180.682487 
L 210.388337 188.616017 
L 208.942166 190.52905 
L 207.352021 192.269081 
L 205.559463 193.893349 
L 203.722732 195.244376 
L 201.906189 196.3022 
L 200.075977 197.105528 
L 198.27169 197.648863 
L 196.401218 197.972707 
L 193.911533 198.151954 
L 184.569703 198.638319 
L 173.805429 199.54992 
L 168.172902 199.923667 
L 145.195092 201.062708 
L 135.823984 201.930701 
L 129.671081 202.716739 
L 124.978345 203.539069 
L 121.718064 204.31029 
L 118.536603 205.319688 
L 115.126115 206.606192 
L 112.098424 207.995865 
L 109.951535 209.188788 
L 108.497809 210.239629 
L 107.058087 211.569018 
L 105.703807 213.132446 
L 104.309603 215.114164 
L 98.07782 224.526007 
L 94.33467 229.612924 
L 86.690871 239.847315 
L 85.091348 242.516529 
L 83.840331 245.043276 
L 83.075769 247.040095 
L 82.646484 248.72439 
L 82.492807 250.126914 
L 82.569416 251.416736 
L 82.866761 252.589695 
L 83.409612 253.755547 
L 84.194226 254.872049 
L 85.205543 255.897353 
L 86.267461 256.66973 
L 87.585087 257.33874 
L 89.171494 257.881382 
L 91.107463 258.309548 
L 93.550693 258.614758 
L 96.557409 258.75444 
L 101.984808 258.732854 
L 120.831503 258.389905 
L 142.049911 257.617462 
L 160.397131 256.581544 
L 167.144344 256.188023 
L 178.812345 255.483607 
L 187.992004 254.653203 
L 205.54527 253.008397 
L 227.858042 251.30363 
L 255.431589 249.330609 
L 262.577131 248.680832 
L 274.79087 247.270507 
L 278.950672 246.513188 
L 280.812138 246.117211 
L 280.812138 246.117211 
" clip-path="url(#pec415064f2)" style="fill: none; stroke: #31688e; stroke-width: 1.5; stroke-linecap: square"/>
   </g>
   <g id="line2d_20">
    <path d="M 290.276796 227.982405 
L 293.542738 227.344854 
L 296.837796 226.498129 
L 306.13859 223.835031 
L 310.700668 222.890953 
L 317.118679 221.82008 
L 323.321723 220.760244 
L 327.838515 219.767874 
L 331.552872 218.717845 
L 336.069321 217.212937 
L 342.300332 214.793935 
L 345.222664 213.415146 
L 347.686432 212.015626 
L 349.825446 210.528738 
L 352.326806 208.503067 
L 354.813234 206.192965 
L 360.044632 200.935415 
L 361.74084 198.86317 
L 366.135991 192.93723 
L 371.663052 185.581817 
L 374.75688 182.095842 
L 379.084578 177.539228 
L 382.254204 174.49696 
L 383.593895 173.533791 
L 385.439414 172.509403 
L 388.160469 171.252091 
L 393.097133 169.076349 
L 399.829632 165.610575 
L 410.426145 161.134584 
L 413.063883 159.634355 
L 415.754276 157.847577 
L 419.312476 155.17911 
L 421.768917 153.440797 
L 423.447266 152.533341 
L 424.975625 151.948649 
L 426.645726 151.562705 
L 429.213679 151.243605 
L 432.785406 150.781394 
L 434.992272 150.252643 
L 436.823605 149.587018 
L 440.674906 147.859577 
L 442.946848 146.638011 
L 444.762342 145.413889 
L 451.237615 140.507149 
L 454.054698 138.521396 
L 456.704261 136.96608 
L 460.956576 134.745004 
L 464.626285 133.090776 
L 471.203953 130.413134 
L 482.56793 125.748887 
L 484.05039 124.936142 
L 484.607469 124.403342 
L 484.718579 124.024457 
L 484.57935 123.694019 
L 484.13151 123.325296 
L 483.230917 122.903945 
L 481.548928 122.382663 
L 478.588418 121.719843 
L 474.757229 121.088747 
L 471.108969 120.711603 
L 466.743642 120.502905 
L 461.019317 120.470709 
L 432.353357 120.774599 
L 406.485637 121.187343 
L 381.940292 121.74773 
L 368.164718 122.312474 
L 332.042204 124.486278 
L 300.471908 127.251275 
L 294.627591 128.017987 
L 290.730591 128.727339 
L 287.52682 129.551808 
L 284.90055 130.449564 
L 282.203129 131.618782 
L 279.634031 132.943189 
L 274.411602 135.678453 
L 269.744956 138.212509 
L 266.629404 140.150464 
L 263.880074 142.134011 
L 259.749994 145.443311 
L 252.574711 151.201999 
L 248.961507 153.525397 
L 245.918444 155.201752 
L 241.873437 157.4887 
L 234.807216 161.785071 
L 227.48765 166.370619 
L 224.819114 167.812208 
L 220.96326 169.586822 
L 215.320335 172.190896 
L 213.4182 173.368618 
L 211.650807 174.727391 
L 210.010509 176.272179 
L 200.279024 186.11981 
L 196.870597 189.048718 
L 193.261836 191.865977 
L 191.168498 193.253203 
L 189.575262 194.056545 
L 188.122797 194.544103 
L 186.329133 194.895199 
L 182.973436 195.283715 
L 167.584523 196.935438 
L 162.914551 197.650986 
L 160.058208 198.287676 
L 158.169116 198.921809 
L 156.489093 199.71176 
L 154.914677 200.696475 
L 153.229661 202.040936 
L 147.426034 206.872722 
L 141.166441 211.65461 
L 134.800583 216.26778 
L 133.706287 216.773205 
L 132.428508 217.108602 
L 130.200176 217.416908 
L 124.064191 217.953107 
L 118.211571 218.567016 
L 113.366436 219.302926 
L 108.915543 220.255032 
L 105.625643 221.179978 
L 96.437112 223.837921 
L 92.003532 225.136921 
L 89.147887 226.206073 
L 87.346072 227.099569 
L 86.210717 227.886254 
L 85.484501 228.638387 
L 85.063075 229.390796 
L 84.93691 230.079232 
L 85.057551 230.700759 
L 85.410197 231.305713 
L 86.119603 232.043609 
L 87.445089 233.06209 
L 89.501426 234.338313 
L 93.545044 236.517296 
L 98.132318 238.802692 
L 100.60535 239.830058 
L 102.800126 240.494847 
L 104.951786 240.917218 
L 107.560564 241.194602 
L 111.267165 241.341988 
L 116.959814 241.313854 
L 137.70648 241.152451 
L 166.824575 240.863371 
L 189.418234 240.605469 
L 203.477496 240.284953 
L 217.731349 239.831879 
L 240.260773 238.678207 
L 255.653535 237.204897 
L 278.989337 234.434335 
L 280.427372 234.20585 
L 280.427372 234.20585 
" clip-path="url(#pec415064f2)" style="fill: none; stroke: #21918c; stroke-width: 1.5; stroke-linecap: square"/>
   </g>
   <g id="line2d_21">
    <path d="M 290.118859 219.276853 
L 309.070857 216.60113 
L 320.499502 214.510412 
L 324.20128 213.532301 
L 340.599079 208.83773 
L 346.167837 206.755152 
L 349.354154 205.344513 
L 351.907536 203.97252 
L 353.846853 202.686556 
L 355.535127 201.288713 
L 357.714377 199.147073 
L 367.132845 189.295742 
L 369.540714 186.430654 
L 371.214158 184.099773 
L 373.860129 180.254023 
L 375.401781 178.605771 
L 377.329052 176.868412 
L 379.771629 174.980598 
L 385.35012 170.788525 
L 388.01761 168.403362 
L 391.747699 164.753076 
L 396.846196 159.682948 
L 399.423604 157.641479 
L 403.159425 154.967746 
L 406.707588 152.751763 
L 409.878359 150.66662 
L 413.911225 147.981457 
L 415.348793 147.656781 
L 418.081339 147.29037 
L 422.746023 146.921697 
L 429.469871 146.340218 
L 440.428554 145.206368 
L 445.526102 144.495686 
L 460.517547 141.805767 
L 464.09051 140.804606 
L 467.803345 139.489524 
L 471.794537 137.876326 
L 476.713447 135.598151 
L 482.211442 132.759484 
L 484.484078 131.368649 
L 485.642825 130.42673 
L 486.161849 129.762422 
L 486.28514 129.297529 
L 486.159008 128.925925 
L 485.77133 128.575965 
L 485.077971 128.266571 
L 483.871033 127.981658 
L 481.857279 127.748931 
L 478.585946 127.618651 
L 471.37105 127.619861 
L 452.956329 127.817005 
L 397.08896 128.81013 
L 378.441236 129.755974 
L 366.628515 130.614453 
L 347.573145 131.831288 
L 341.788812 132.534511 
L 334.732002 133.354211 
L 325.837214 134.393915 
L 320.558863 135.252652 
L 305.331166 137.84222 
L 296.299422 139.076827 
L 293.585029 139.739377 
L 290.838104 140.663638 
L 274.982749 146.349232 
L 271.93892 147.805762 
L 269.066715 149.424085 
L 266.475199 151.127896 
L 264.152308 152.918595 
L 260.110444 156.429713 
L 256.829366 159.166485 
L 254.931856 160.416678 
L 252.368068 161.82214 
L 248.870823 163.477545 
L 243.880921 165.561472 
L 240.177322 167.208016 
L 237.16399 168.831566 
L 233.489333 170.732239 
L 231.063456 171.726283 
L 226.995166 173.349949 
L 225.043639 174.396266 
L 222.993447 175.756012 
L 220.674538 177.580195 
L 215.897158 181.712026 
L 204.651827 191.349027 
L 200.559565 194.36838 
L 195.458014 197.832258 
L 191.329267 200.40438 
L 188.553875 201.874713 
L 186.110555 202.923514 
L 183.700554 203.708492 
L 181.087555 204.310399 
L 178.221804 204.740732 
L 174.001544 205.103928 
L 168.597639 205.646781 
L 165.642551 206.142752 
L 163.707823 206.688048 
L 162.0797 207.378788 
L 160.755874 208.166518 
L 159.576688 209.129111 
L 155.591398 212.674516 
L 153.017441 214.566429 
L 150.770397 215.963131 
L 148.369998 217.188699 
L 145.740104 218.274593 
L 143.189404 219.085677 
L 140.837156 219.600818 
L 137.999071 219.97486 
L 132.752053 220.378615 
L 125.335206 221.018884 
L 116.419802 221.953552 
L 102.775549 223.509627 
L 93.985108 224.801088 
L 90.364466 225.550894 
L 87.781456 226.289349 
L 86.497063 226.858722 
L 85.990483 227.301114 
L 85.898439 227.634162 
L 86.04664 227.928706 
L 86.46953 228.223712 
L 87.341553 228.542084 
L 88.981152 228.877734 
L 91.681537 229.182811 
L 95.540376 229.384961 
L 102.257166 229.480234 
L 115.799875 229.416371 
L 144.075148 229.111934 
L 180.271593 228.573732 
L 195.231097 228.242199 
L 205.474941 227.827867 
L 217.153841 227.085235 
L 255.731714 224.064504 
L 276.279871 222.342422 
L 280.082634 222.039552 
L 280.082634 222.039552 
" clip-path="url(#pec415064f2)" style="fill: none; stroke: #35b779; stroke-width: 1.5; stroke-linecap: square"/>
   </g>
   <g id="line2d_22">
    <path d="M 290.525502 213.837444 
L 295.689986 212.792966 
L 300.569701 211.610985 
L 306.778383 209.869874 
L 311.930895 208.462115 
L 316.448843 207.495476 
L 322.689183 206.164601 
L 325.202604 205.408631 
L 327.086998 204.616942 
L 328.52564 203.776862 
L 329.886789 202.723686 
L 331.293178 201.334713 
L 333.036917 199.258309 
L 336.347894 195.341863 
L 346.102294 184.143283 
L 348.691391 181.483418 
L 354.09932 176.323315 
L 356.787043 174.051112 
L 359.548373 172.024442 
L 362.120959 170.39633 
L 364.470718 169.156402 
L 366.932669 168.113883 
L 370.492515 166.877957 
L 375.233652 165.219735 
L 377.671246 164.10214 
L 380.668214 162.455572 
L 385.847358 159.31127 
L 388.680546 157.760007 
L 392.083181 156.182145 
L 395.475376 154.825858 
L 398.383039 153.912674 
L 401.07628 153.286216 
L 403.391333 152.985402 
L 406.759264 152.80171 
L 418.895151 152.305038 
L 425.472426 151.826261 
L 429.347087 151.329814 
L 433.112489 150.621233 
L 437.045355 149.614185 
L 443.842034 147.911384 
L 447.384226 147.313165 
L 451.610298 146.823722 
L 458.615234 146.052836 
L 461.766198 145.451845 
L 464.648016 144.66835 
L 468.193774 143.468741 
L 471.387539 142.166703 
L 483.899756 136.686899 
L 485.09886 136.079677 
L 485.135018 135.896849 
L 484.866724 135.766357 
L 483.923992 135.623293 
L 481.378033 135.504149 
L 475.72639 135.489353 
L 447.533124 135.849035 
L 421.153922 136.540328 
L 396.919761 137.304204 
L 383.97119 137.907989 
L 360.273079 139.531235 
L 331.680347 141.550115 
L 319.106789 142.189762 
L 306.456457 142.846038 
L 297.421565 143.483379 
L 293.47495 143.985481 
L 290.557997 144.566928 
L 288.072605 145.290977 
L 286.200876 146.046884 
L 283.936036 147.250327 
L 280.273291 149.160616 
L 270.074436 154.138922 
L 263.570849 157.786266 
L 258.249491 160.77136 
L 253.836489 162.876989 
L 243.134025 167.650266 
L 238.165433 170.463708 
L 232.532465 173.666914 
L 228.485496 175.702224 
L 225.894411 176.751053 
L 222.842411 177.737694 
L 214.989731 180.065852 
L 212.953268 181.036432 
L 211.194654 182.137536 
L 208.812231 183.938936 
L 205.447703 186.770192 
L 194.527633 196.477695 
L 187.126318 203.486385 
L 184.007233 205.990277 
L 180.646742 208.462113 
L 178.670434 209.614857 
L 176.449284 210.638173 
L 174.052722 211.509145 
L 171.524831 212.178779 
L 167.77815 212.900025 
L 164.813315 213.309431 
L 159.592559 213.687799 
L 153.511204 214.212208 
L 148.401004 214.879822 
L 132.631681 217.119597 
L 123.079102 218.489301 
L 111.722362 220.263129 
L 86.834352 223.729545 
L 84.743511 224.218816 
L 83.994071 224.583462 
L 83.926362 224.788845 
L 84.132274 224.953428 
L 84.843569 225.161198 
L 86.580267 225.392616 
L 90.004726 225.596494 
L 95.770188 225.691399 
L 112.517004 225.608291 
L 148.557323 225.233311 
L 180.932082 224.770324 
L 201.263842 224.392408 
L 211.529039 224.139741 
L 227.85569 223.740877 
L 248.477938 222.823617 
L 254.656404 222.341324 
L 266.794491 221.105768 
L 275.69672 219.944507 
L 281.451896 219.064355 
L 281.451896 219.064355 
" clip-path="url(#pec415064f2)" style="fill: none; stroke: #90d743; stroke-width: 1.5; stroke-linecap: square"/>
   </g>
   <g id="line2d_23">
    <path d="M 289.632953 214.26857 
L 294.852822 213.329005 
L 299.327174 212.314045 
L 303.055091 211.244374 
L 308.379396 209.474137 
L 314.430114 207.137451 
L 318.377909 205.166173 
L 323.934227 202.341758 
L 327.317102 200.996556 
L 331.813505 199.466644 
L 343.594806 195.56223 
L 346.53399 194.21421 
L 351.519238 191.600009 
L 360.380985 186.99715 
L 363.040984 185.966929 
L 365.123473 185.391745 
L 367.704583 184.9326 
L 377.16094 183.417297 
L 379.828785 182.731434 
L 381.861221 181.993892 
L 383.467996 181.175849 
L 384.898142 180.201337 
L 386.788183 178.609205 
L 392.491301 173.681841 
L 396.736528 170.338919 
L 399.662004 168.316194 
L 402.082757 166.904604 
L 404.555936 165.732491 
L 408.016907 164.3784 
L 410.209624 163.388273 
L 419.448036 158.438247 
L 424.13944 155.735103 
L 426.470862 154.122169 
L 428.905967 152.13911 
L 432.932375 148.838638 
L 434.658622 147.725324 
L 436.349487 146.899123 
L 438.688692 146.02459 
L 442.825469 144.742168 
L 446.63799 143.486876 
L 451.862809 141.431585 
L 458.696876 138.841519 
L 461.407437 138.095054 
L 464.098198 137.580993 
L 467.032381 137.267709 
L 484.157824 135.783747 
L 485.377305 135.44901 
L 485.467901 135.304645 
L 485.450258 135.284607 
L 485.162609 135.168966 
L 484.007282 134.991562 
L 481.081066 134.795139 
L 475.72911 134.685863 
L 465.300878 134.746181 
L 434.446739 135.152357 
L 421.307702 135.284291 
L 409.408837 135.501841 
L 387.131052 136.01741 
L 377.882787 136.394928 
L 353.858084 137.786705 
L 319.149462 140.0829 
L 311.43339 140.811572 
L 306.448794 141.499497 
L 300.102008 142.607968 
L 293.441053 143.866601 
L 290.181474 144.688718 
L 288.130734 145.433634 
L 285.769586 146.571724 
L 281.043894 148.879893 
L 269.464967 154.110609 
L 265.251688 156.230539 
L 261.130748 158.501604 
L 257.820897 160.626298 
L 253.476503 163.676781 
L 249.20157 166.718574 
L 246.381245 168.411535 
L 243.686685 169.78011 
L 241.232899 170.78247 
L 238.426824 171.675186 
L 235.019002 172.509323 
L 221.180066 175.613929 
L 218.092836 176.65485 
L 214.447187 178.166137 
L 209.225057 180.548293 
L 206.056269 182.222536 
L 202.989867 184.128301 
L 189.902468 192.525359 
L 186.82651 194.21481 
L 184.600655 195.203234 
L 182.493718 195.892986 
L 179.860899 196.504831 
L 176.315379 197.086444 
L 169.689591 198.111487 
L 167.52982 198.736369 
L 166.022332 199.392312 
L 164.715133 200.203124 
L 163.103289 201.489992 
L 160.738409 203.68762 
L 156.466278 207.695501 
L 153.637793 210.009983 
L 150.579507 212.223629 
L 147.461216 214.22393 
L 144.581399 215.812427 
L 142.339107 216.812485 
L 140.501056 217.393195 
L 138.838345 217.686247 
L 136.323218 217.858394 
L 130.490412 218.220378 
L 127.802709 218.614172 
L 125.532061 219.17687 
L 118.805798 221.252022 
L 114.507746 222.434235 
L 110.869109 223.201873 
L 107.22801 223.744509 
L 102.096093 224.256836 
L 90.022534 225.182082 
L 85.516575 225.643167 
L 85.247808 225.750546 
L 85.316524 225.795104 
L 85.95218 225.880271 
L 88.568274 225.963849 
L 96.345089 225.948818 
L 154.235356 225.354182 
L 178.350493 224.924229 
L 217.610513 223.954219 
L 238.033928 223.155943 
L 245.301443 222.66147 
L 249.38413 222.147575 
L 259.893063 220.647681 
L 275.965232 218.808741 
L 277.66339 218.534241 
L 277.66339 218.534241 
" clip-path="url(#pec415064f2)" style="fill: none; stroke: #fde725; stroke-width: 1.5; stroke-linecap: square"/>
   </g>
   <g id="patch_3">
    <path d="M 62.3 318.04 
L 62.3 50.64 
" style="fill: none; stroke: #000000; stroke-width: 0.8; stroke-linejoin: miter; stroke-linecap: square"/>
   </g>
   <g id="patch_4">
    <path d="M 506.475 318.04 
L 506.475 50.64 
" style="fill: none; stroke: #000000; stroke-width: 0.8; stroke-linejoin: miter; stroke-linecap: square"/>
   </g>
   <g id="patch_5">
    <path d="M 62.3 318.04 
L 506.475 318.04 
" style="fill: none; stroke: #000000; stroke-width: 0.8; stroke-linejoin: miter; stroke-linecap: square"/>
   </g>
   <g id="patch_6">
    <path d="M 62.3 50.64 
L 506.475 50.64 
" style="fill: none; stroke: #000000; stroke-width: 0.8; stroke-linejoin: miter; stroke-linecap: square"/>
   </g>
   <g id="text_19">
    <text style="font: 12px 'DejaVu Sans', 'Bitstream Vera Sans', 'Computer Modern Sans Serif', 'Lucida Grande', 'Verdana', 'Geneva', 'Lucid', 'Arial', 'Helvetica', 'Avant Garde', sans-serif; text-anchor: middle" x="284.3875" y="44.64" transform="rotate(-0 284.3875 44.64)">Play tests</text>
   </g>
  </g>
  <g id="axes_2">
   <g id="patch_7">
    <path d="M 553.025 318.04 
L 997.2 318.04 
L 997.2 50.64 
L 553.025 50.64 
z
" style="fill: #ffffff"/>
   </g>
   <g id="matplotlib.axis_3">
    <g id="xtick_10">
     <g id="line2d_24">
      <g>
       <use xlink:href="#m335c96fc80" x="572.772496" y="318.04" style="stroke: #000000; stroke-width: 0.8"/>
      </g>
     </g>
     <g id="text_20">
      <text style="font: 10px 'DejaVu Sans', 'Bitstream Vera Sans', 'Computer Modern Sans Serif', 'Lucida Grande', 'Verdana', 'Geneva', 'Lucid', 'Arial', 'Helvetica', 'Avant Garde', sans-serif; text-anchor: middle" x="572.772496" y="332.638438" transform="rotate(-0 572.772496 332.638438)">−40</text>
     </g>
    </g>
    <g id="xtick_11">
     <g id="line2d_25">
      <g>
       <use xlink:href="#m335c96fc80" x="623.354132" y="318.04" style="stroke: #000000; stroke-width: 0.8"/>
      </g>
     </g>
     <g id="text_21">
      <text style="font: 10px 'DejaVu Sans', 'Bitstream Vera Sans', 'Computer Modern Sans Serif', 'Lucida Grande', 'Verdana', 'Geneva', 'Lucid', 'Arial', 'Helvetica', 'Avant Garde', sans-serif; text-anchor: middle" x="623.354132" y="332.638438" transform="rotate(-0 623.354132 332.638438)">−30</text>
     </g>
    </g>
    <g id="xtick_12">
     <g id="line2d_26">
      <g>
       <use xlink:href="#m335c96fc80" x="673.935768" y="318.04" style="stroke: #000000; stroke-width: 0.8"/>
      </g>
     </g>
     <g id="text_22">
      <text style="font: 10px 'DejaVu Sans', 'Bitstream Vera Sans', 'Computer Modern Sans Serif', 'Lucida Grande', 'Verdana', 'Geneva', 'Lucid', 'Arial', 'Helvetica', 'Avant Garde', sans-serif; text-anchor: middle" x="673.935768" y="332.638438" transform="rotate(-0 673.935768 332.638438)">−20</text>
     </g>
    </g>
    <g id="xtick_13">
     <g id="line2d_27">
      <g>
       <use xlink:href="#m335c96fc80" x="724.517403" y="318.04" style="stroke: #000000; stroke-width: 0.8"/>
      </g>
     </g>
     <g id="text_23">
      <text style="font: 10px 'DejaVu Sans', 'Bitstream Vera Sans', 'Computer Modern Sans Serif', 'Lucida Grande', 'Verdana', 'Geneva', 'Lucid', 'Arial', 'Helvetica', 'Avant Garde', sans-serif; text-anchor: middle" x="724.517403" y="332.638438" transform="rotate(-0 724.517403 332.638438)">−10</text>
     </g>
    </g>
    <g id="xtick_14">
     <g id="line2d_28">
      <g>
       <use xlink:href="#m335c96fc80" x="775.099039" y="318.04" style="stroke: #000000; stroke-width: 0.8"/>
      </g>
     </g>
     <g id="text_24">
      <text style="font: 10px 'DejaVu Sans', 'Bitstream Vera Sans', 'Computer Modern Sans Serif', 'Lucida Grande', 'Verdana', 'Geneva', 'Lucid', 'Arial', 'Helvetica', 'Avant Garde', sans-serif; text-anchor: middle" x="775.099039" y="332.638438" transform="rotate(-0 775.099039 332.638438)">0</text>
     </g>
    </g>
    <g id="xtick_15">
     <g id="line2d_29">
      <g>
       <use xlink:href="#m335c96fc80" x="825.680675" y="318.04" style="stroke: #000000; stroke-width: 0.8"/>
      </g>
     </g>
     <g id="text_25">
      <text style="font: 10px 'DejaVu Sans', 'Bitstream Vera Sans', 'Computer Modern Sans Serif', 'Lucida Grande', 'Verdana', 'Geneva', 'Lucid', 'Arial', 'Helvetica', 'Avant Garde', sans-serif; text-anchor: middle" x="825.680675" y="332.638438" transform="rotate(-0 825.680675 332.638438)">10</text>
     </g>
    </g>
    <g id="xtick_16">
     <g id="line2d_30">
      <g>
       <use xlink:href="#m335c96fc80" x="876.262311" y="318.04" style="stroke: #000000; stroke-width: 0.8"/>
      </g>
     </g>
     <g id="text_26">
      <text style="font: 10px 'DejaVu Sans', 'Bitstream Vera Sans', 'Computer Modern Sans Serif', 'Lucida Grande', 'Verdana', 'Geneva', 'Lucid', 'Arial', 'Helvetica', 'Avant Garde', sans-serif; text-anchor: middle" x="876.262311" y="332.638438" transform="rotate(-0 876.262311 332.638438)">20</text>
     </g>
    </g>
    <g id="xtick_17">
     <g id="line2d_31">
      <g>
       <use xlink:href="#m335c96fc80" x="926.843947" y="318.04" style="stroke: #000000; stroke-width: 0.8"/>
      </g>
     </g>
     <g id="text_27">
      <text style="font: 10px 'DejaVu Sans', 'Bitstream Vera Sans', 'Computer Modern Sans Serif', 'Lucida Grande', 'Verdana', 'Geneva', 'Lucid', 'Arial', 'Helvetica', 'Avant Garde', sans-serif; text-anchor: middle" x="926.843947" y="332.638438" transform="rotate(-0 926.843947 332.638438)">30</text>
     </g>
    </g>
    <g id="xtick_18">
     <g id="line2d_32">
      <g>
       <use xlink:href="#m335c96fc80" x="977.425582" y="318.04" style="stroke: #000000; stroke-width: 0.8"/>
      </g>
     </g>
     <g id="text_28">
      <text style="font: 10px 'DejaVu Sans', 'Bitstream Vera Sans', 'Computer Modern Sans Serif', 'Lucida Grande', 'Verdana', 'Geneva', 'Lucid', 'Arial', 'Helvetica', 'Avant Garde', sans-serif; text-anchor: middle" x="977.425582" y="332.638438" transform="rotate(-0 977.425582 332.638438)">40</text>
     </g>
    </g>
    <g id="text_29">
     <text style="font: 10px 'DejaVu Sans', 'Bitstream Vera Sans', 'Computer Modern Sans Serif', 'Lucida Grande', 'Verdana', 'Geneva', 'Lucid', 'Arial', 'Helvetica', 'Avant Garde', sans-serif; text-anchor: middle" x="775.1125" y="346.316563" transform="rotate(-0 775.1125 346.316563)">Motor Torque [Nm]</text>
    </g>
   </g>
   <g id="matplotlib.axis_4">
    <g id="ytick_8">
     <g id="line2d_33">
      <g>
       <use xlink:href="#ma0186b0bc8" x="553.025" y="290.643652" style="stroke: #000000; stroke-width: 0.8"/>
      </g>
     </g>
     <g id="text_30">
      <text style="font: 10px 'DejaVu Sans', 'Bitstream Vera Sans', 'Computer Modern Sans Serif', 'Lucida Grande', 'Verdana', 'Geneva', 'Lucid', 'Arial', 'Helvetica', 'Avant Garde', sans-serif; text-anchor: end" x="546.025" y="294.442871" transform="rotate(-0 546.025 294.442871)">−4</text>
     </g>
    </g>
    <g id="ytick_9">
     <g id="line2d_34">
      <g>
       <use xlink:href="#ma0186b0bc8" x="553.025" y="236.961369" style="stroke: #000000; stroke-width: 0.8"/>
      </g>
     </g>
     <g id="text_31">
      <text style="font: 10px 'DejaVu Sans', 'Bitstream Vera Sans', 'Computer Modern Sans Serif', 'Lucida Grande', 'Verdana', 'Geneva', 'Lucid', 'Arial', 'Helvetica', 'Avant Garde', sans-serif; text-anchor: end" x="546.025" y="240.760588" transform="rotate(-0 546.025 240.760588)">−2</text>
     </g>
    </g>
    <g id="ytick_10">
     <g id="line2d_35">
      <g>
       <use xlink:href="#ma0186b0bc8" x="553.025" y="183.279086" style="stroke: #000000; stroke-width: 0.8"/>
      </g>
     </g>
     <g id="text_32">
      <text style="font: 10px 'DejaVu Sans', 'Bitstream Vera Sans', 'Computer Modern Sans Serif', 'Lucida Grande', 'Verdana', 'Geneva', 'Lucid', 'Arial', 'Helvetica', 'Avant Garde', sans-serif; text-anchor: end" x="546.025" y="187.078305" transform="rotate(-0 546.025 187.078305)">0</text>
     </g>
    </g>
    <g id="ytick_11">
     <g id="line2d_36">
      <g>
       <use xlink:href="#ma0186b0bc8" x="553.025" y="129.596803" style="stroke: #000000; stroke-width: 0.8"/>
      </g>
     </g>
     <g id="text_33">
      <text style="font: 10px 'DejaVu Sans', 'Bitstream Vera Sans', 'Computer Modern Sans Serif', 'Lucida Grande', 'Verdana', 'Geneva', 'Lucid', 'Arial', 'Helvetica', 'Avant Garde', sans-serif; text-anchor: end" x="546.025" y="133.396021" transform="rotate(-0 546.025 133.396021)">2</text>
     </g>
    </g>
    <g id="ytick_12">
     <g id="line2d_37">
      <g>
       <use xlink:href="#ma0186b0bc8" x="553.025" y="75.914519" style="stroke: #000000; stroke-width: 0.8"/>
      </g>
     </g>
     <g id="text_34">
      <text style="font: 10px 'DejaVu Sans', 'Bitstream Vera Sans', 'Computer Modern Sans Serif', 'Lucida Grande', 'Verdana', 'Geneva', 'Lucid', 'Arial', 'Helvetica', 'Avant Garde', sans-serif; text-anchor: end" x="546.025" y="79.713738" transform="rotate(-0 546.025 79.713738)">4</text>
     </g>
    </g>
    <g id="text_35">
     <text style="font: 10px 'DejaVu Sans', 'Bitstream Vera Sans', 'Computer Modern Sans Serif', 'Lucida Grande', 'Verdana', 'Geneva', 'Lucid', 'Arial', 'Helvetica', 'Avant Garde', sans-serif; text-anchor: middle" x="525.203125" y="184.34" transform="rotate(-90 525.203125 184.34)">Deflection [deg]</text>
    </g>
   </g>
   <g id="line2d_38">
    <path d="M 776.109971 216.050477 
L 777.191953 214.74853 
L 778.065585 213.324024 
L 780.892007 208.390785 
L 783.086061 205.151488 
L 784.3214 203.779674 
L 785.734421 202.146158 
L 786.432978 200.917593 
L 786.955374 199.582049 
L 787.447084 197.634049 
L 788.008744 194.441746 
L 788.966614 188.982104 
L 790.122689 183.858897 
L 791.89147 177.169579 
L 794.390566 168.541109 
L 794.647525 168.250818 
L 795.135348 168.176337 
L 796.914525 167.930158 
L 798.377318 167.510445 
L 799.590364 166.925661 
L 800.95764 166.011529 
L 802.218775 164.876768 
L 805.254042 162.028225 
L 809.228819 158.458609 
L 810.638671 156.693402 
L 812.069375 155.077249 
L 813.601371 153.663955 
L 814.741001 152.935992 
L 817.071908 151.463787 
L 818.658979 150.211247 
L 820.908422 148.19371 
L 822.761772 146.520117 
L 824.15879 145.630015 
L 827.085291 143.84761 
L 828.553676 142.55922 
L 832.120007 139.347701 
L 834.44288 137.86614 
L 838.381814 135.383847 
L 841.445353 133.101906 
L 843.438296 132.014702 
L 845.880504 130.580392 
L 849.058032 128.448459 
L 850.826609 127.346212 
L 859.787836 122.367022 
L 861.802673 121.257277 
L 863.269105 120.705139 
L 866.164997 119.673194 
L 869.807901 118.021126 
L 871.324714 116.995194 
L 873.113181 115.845334 
L 874.352235 115.325448 
L 877.212748 114.168428 
L 878.88373 113.204028 
L 880.412581 112.044457 
L 882.112132 110.854849 
L 883.849445 109.956306 
L 885.467153 109.074192 
L 889.300705 106.703263 
L 902.582731 100.644861 
L 906.544598 99.004412 
L 910.572432 96.792438 
L 913.355166 95.144824 
L 916.910382 92.764304 
L 919.310077 91.089467 
L 922.002698 89.160802 
L 923.424542 88.449247 
L 925.011282 87.944977 
L 928.674884 86.821934 
L 932.958546 85.354074 
L 934.568007 84.617171 
L 938.504967 82.626487 
L 941.682649 81.23026 
L 944.339887 80.043789 
L 945.747735 79.266346 
L 948.984748 77.078769 
L 953.34471 74.208813 
L 954.934905 73.502132 
L 956.897034 72.627143 
L 959.715725 71.217656 
L 968.414368 67.457671 
L 972.172216 65.870145 
L 974.053308 65.006977 
L 975.298616 64.202311 
L 975.827867 63.641105 
L 975.844762 63.365053 
L 975.628188 63.194375 
L 975.046642 63.064143 
L 973.425224 62.983893 
L 967.619054 62.973225 
L 942.643578 63.215055 
L 930.70273 63.598459 
L 924.678828 63.996399 
L 921.162588 64.417964 
L 915.251384 65.327694 
L 911.775526 65.855665 
L 909.477237 66.278412 
L 906.791047 66.849208 
L 901.879247 67.795457 
L 899.562561 68.473353 
L 897.782375 68.837342 
L 895.387014 69.392602 
L 889.624657 70.847379 
L 886.826348 71.75473 
L 875.567458 74.018854 
L 870.643416 75.221819 
L 868.487438 75.802123 
L 867.380745 76.32285 
L 865.09415 77.499543 
L 863.681969 77.847745 
L 859.719689 78.780622 
L 857.150286 79.658898 
L 854.773854 80.34468 
L 848.69234 82.051802 
L 843.815429 83.618434 
L 838.332724 85.595621 
L 833.157075 87.78385 
L 826.304338 91.708073 
L 824.113277 93.164993 
L 822.711056 94.100759 
L 821.752432 95.086645 
L 819.474693 97.472795 
L 817.964265 98.722477 
L 816.365211 99.722804 
L 813.208155 101.597277 
L 812.116681 102.523318 
L 811.07339 103.737879 
L 807.799963 107.763638 
L 806.744211 108.690888 
L 805.098146 109.794699 
L 801.922907 111.772585 
L 801.075391 112.777744 
L 799.820418 114.674343 
L 797.319357 118.617001 
L 796.521117 119.361964 
L 795.697102 119.826069 
L 793.147973 121.048518 
L 791.968986 121.992279 
L 790.602815 123.36526 
L 786.388752 127.852582 
L 784.998276 128.872056 
L 783.745041 129.481452 
L 781.753731 130.447233 
L 780.83062 131.151121 
L 780.120573 131.986966 
L 778.365285 134.166383 
L 777.313728 135.028471 
L 776.115942 136.011826 
L 775.59417 136.7728 
L 775.028908 138.050538 
L 774.238479 140.423406 
L 773.209174 144.504463 
L 771.28477 153.625704 
L 769.605035 161.427101 
L 767.725132 170.164517 
L 766.72743 176.344997 
L 765.962257 180.328559 
L 765.208039 182.988835 
L 764.093151 186.106858 
L 761.764635 191.683348 
L 760.753471 193.047161 
L 758.632176 195.482017 
L 755.851175 198.284169 
L 754.371972 199.570873 
L 753.293684 200.182263 
L 751.20535 201.367054 
L 749.956934 202.339025 
L 746.611048 205.198109 
L 745.431218 206.224045 
L 742.755199 208.971358 
L 740.36663 211.39125 
L 738.23107 213.264527 
L 736.740807 214.188213 
L 735.358668 215.15962 
L 731.162114 218.45036 
L 729.275601 219.565579 
L 726.312742 221.191479 
L 723.767123 222.789936 
L 721.704185 223.964904 
L 720.092338 225.250039 
L 717.922502 226.925077 
L 716.218638 227.956733 
L 714.237013 228.885616 
L 709.909735 230.775756 
L 708.590905 231.68615 
L 703.546298 235.610375 
L 701.133033 237.11353 
L 693.164654 241.444793 
L 691.135104 242.44916 
L 687.158972 244.950701 
L 680.706296 249.366302 
L 678.881881 250.301046 
L 675.243176 252.105527 
L 672.443191 253.322603 
L 670.510855 254.230071 
L 663.405977 258.112495 
L 661.945167 258.697561 
L 659.270736 259.72916 
L 656.287239 261.134141 
L 654.841336 262.087967 
L 652.430319 263.767968 
L 647.099357 266.928888 
L 642.602972 269.229759 
L 640.486218 270.337534 
L 636.790539 271.851653 
L 634.366258 272.804493 
L 630.759589 274.564352 
L 628.391752 276.053244 
L 625.512435 277.798038 
L 622.420433 279.516293 
L 620.4461 280.685621 
L 618.325021 281.968918 
L 613.790585 284.360434 
L 611.562073 285.551121 
L 607.215644 287.586002 
L 603.510926 289.005904 
L 599.730167 290.266011 
L 597.963821 291.049572 
L 596.522777 291.962211 
L 594.729465 293.070544 
L 588.564628 296.387436 
L 586.88581 297.230361 
L 581.988592 299.488527 
L 579.813576 300.588324 
L 578.120597 301.184112 
L 573.828271 302.576084 
L 573.44927 302.887075 
L 573.509514 303.07581 
L 573.858511 303.284533 
L 574.838902 303.567773 
L 576.416161 303.807923 
L 578.421933 303.852321 
L 596.118233 303.729454 
L 611.346574 303.376449 
L 620.12222 302.887407 
L 630.078831 301.941188 
L 634.011795 301.426375 
L 637.022737 300.81445 
L 642.991807 299.498005 
L 654.910689 296.496363 
L 658.145297 295.482454 
L 661.417832 294.740559 
L 664.188821 293.739034 
L 667.033644 292.851531 
L 669.625864 292.197845 
L 684.727066 288.844765 
L 686.346513 288.219106 
L 689.825082 286.944313 
L 696.312377 284.775094 
L 700.214629 283.52147 
L 703.655908 282.257738 
L 712.058833 278.628909 
L 717.592533 275.090254 
L 720.102696 273.301127 
L 721.983333 271.881825 
L 723.74408 270.922766 
L 726.023215 269.59816 
L 731.142416 266.216212 
L 732.631254 264.739843 
L 735.76554 261.592054 
L 737.474852 260.355945 
L 739.295648 259.336658 
L 740.613804 258.477195 
L 742.164919 257.129481 
L 747.021957 252.88176 
L 748.27749 252.172414 
L 750.559421 250.910095 
L 751.513187 250.104217 
L 752.454613 248.993625 
L 754.202196 246.842542 
L 755.147256 246.089382 
L 759.388238 243.129852 
L 760.531507 241.897348 
L 763.066421 239.157178 
L 764.075242 238.633854 
L 765.810166 237.747733 
L 767.334345 236.601931 
L 771.028694 233.684583 
L 772.114718 232.387039 
L 773.205774 230.697587 
L 774.06531 229.139948 
L 774.06531 229.139948 
" clip-path="url(#p67c46b9f2e)" style="fill: none; stroke: #440154; stroke-width: 1.5; stroke-linecap: square"/>
   </g>
   <g id="line2d_39">
    <path d="M 775.893843 220.990602 
L 777.208987 219.25938 
L 778.311286 217.453384 
L 779.358833 215.309022 
L 780.528921 212.365303 
L 782.176087 208.219268 
L 783.061659 206.67988 
L 783.921968 205.627091 
L 785.965842 203.338702 
L 786.914451 201.605692 
L 788.163113 198.919772 
L 788.776269 197.073295 
L 789.394161 194.413303 
L 791.980107 181.77387 
L 794.962397 168.774071 
L 796.195812 163.345487 
L 796.859327 161.521598 
L 797.563254 160.197608 
L 798.301541 159.262651 
L 798.855616 158.87961 
L 799.467159 158.742237 
L 801.546248 158.428171 
L 802.926103 157.954172 
L 804.695032 157.066001 
L 806.709686 156.180281 
L 809.295621 154.97903 
L 810.409234 154.206593 
L 811.48951 153.150651 
L 813.562243 151.068513 
L 816.1847 148.835527 
L 818.690524 146.824131 
L 823.892567 142.186408 
L 825.308936 141.149022 
L 831.640672 136.921151 
L 842.393492 128.831395 
L 848.226646 125.130526 
L 849.703031 124.588369 
L 852.219568 123.671904 
L 855.654555 122.107723 
L 861.460459 119.269344 
L 863.413172 118.222885 
L 866.1443 116.779997 
L 869.82445 114.959182 
L 871.263027 114.034803 
L 877.262203 109.804619 
L 878.947525 108.92695 
L 882.24479 107.357513 
L 886.080586 105.483528 
L 894.46236 101.941309 
L 896.354123 100.671254 
L 898.350171 99.406934 
L 902.914124 96.939501 
L 905.653825 95.639187 
L 907.231261 94.562687 
L 911.819215 91.340756 
L 913.459554 90.813321 
L 915.315927 90.102706 
L 924.584676 86.391238 
L 927.811525 85.273533 
L 930.056328 84.185089 
L 933.659254 82.398075 
L 938.837236 80.20281 
L 945.491292 77.082722 
L 947.686803 75.802955 
L 952.029408 73.869345 
L 953.92078 72.992471 
L 954.856162 72.316181 
L 955.677516 71.424664 
L 956.911772 70.120213 
L 957.79929 69.530426 
L 959.082096 68.986012 
L 961.065465 68.144727 
L 968.247193 64.441421 
L 970.206425 63.845417 
L 971.910724 63.225307 
L 972.007045 63.024433 
L 971.788155 62.911671 
L 971.020481 62.818807 
L 968.330577 62.796213 
L 942.850378 63.015628 
L 932.937726 63.295302 
L 923.971066 63.865969 
L 914.779423 64.86218 
L 907.541441 66.041206 
L 904.523322 66.625678 
L 895.408455 68.29643 
L 892.298179 68.942283 
L 889.315936 69.564943 
L 887.99575 70.066781 
L 886.327594 70.698675 
L 884.169107 71.148641 
L 879.544149 72.227214 
L 873.275015 73.810846 
L 869.821458 74.634145 
L 868.402076 75.26353 
L 866.918323 75.860658 
L 864.554831 76.481171 
L 856.903902 78.645468 
L 847.484771 80.925103 
L 839.046842 83.235967 
L 835.203547 84.60281 
L 830.533738 86.088048 
L 828.462847 87.184579 
L 826.77358 87.898889 
L 823.44547 89.19687 
L 821.175329 90.453558 
L 817.054324 92.879483 
L 815.901683 94.052048 
L 811.125356 99.310531 
L 808.420658 101.681296 
L 805.815813 104.219347 
L 803.421088 106.214566 
L 801.057982 108.32849 
L 796.459903 112.8125 
L 794.93139 113.979358 
L 792.723178 115.975405 
L 791.770299 116.814159 
L 790.664013 117.316244 
L 789.629801 117.914873 
L 788.626822 118.794229 
L 786.737683 120.461092 
L 784.198649 122.501914 
L 779.97357 126.393572 
L 779.135605 127.723521 
L 778.375181 129.359157 
L 777.174503 132.563913 
L 775.633337 137.344646 
L 774.057252 142.410898 
L 773.082266 144.581053 
L 770.987872 149.166115 
L 766.24254 161.2008 
L 765.145128 164.670665 
L 764.45922 167.696085 
L 763.450966 173.554964 
L 762.217414 180.272232 
L 760.552686 187.926116 
L 758.675472 196.709876 
L 757.166099 203.606175 
L 756.358598 206.151547 
L 755.678294 207.665307 
L 755.21878 208.2092 
L 754.746206 208.427196 
L 749.350422 209.982956 
L 747.590254 210.629924 
L 746.031365 211.435401 
L 742.730919 213.291308 
L 737.470794 215.757158 
L 735.454687 217.148211 
L 732.775853 219.168707 
L 729.645135 221.644768 
L 726.903097 223.455095 
L 725.208142 224.323033 
L 722.835689 225.542937 
L 720.785738 226.860924 
L 719.229139 228.133372 
L 717.040408 229.896066 
L 715.771063 230.652377 
L 711.420554 232.954481 
L 708.985163 234.469619 
L 704.273253 237.700969 
L 701.599065 239.469268 
L 698.229371 241.746697 
L 696.591113 242.541681 
L 692.684564 244.300057 
L 691.188614 245.271527 
L 689.551648 246.613559 
L 687.442099 248.352995 
L 685.855721 249.30058 
L 683.966417 250.197714 
L 681.174639 251.490163 
L 671.583351 256.334336 
L 668.545917 257.823504 
L 664.349399 259.921961 
L 660.22144 261.6743 
L 658.937294 262.527558 
L 654.109328 266.040305 
L 652.482591 266.913149 
L 649.894711 267.952982 
L 647.737599 268.959181 
L 645.597995 270.172896 
L 643.390347 271.416683 
L 639.243794 273.414006 
L 634.431579 275.533715 
L 631.361654 277.160559 
L 628.962536 278.347968 
L 627.079247 279.298858 
L 623.634741 280.858569 
L 618.6582 283.579233 
L 617.042015 284.528009 
L 613.178244 286.924208 
L 604.999224 291.090713 
L 602.815939 292.307541 
L 593.79503 296.23477 
L 587.143628 298.835401 
L 582.347141 301.027883 
L 580.115751 301.836994 
L 577.893832 302.742614 
L 576.158444 303.721344 
L 573.372165 305.513107 
L 573.412709 305.682672 
L 573.74463 305.79921 
L 574.781618 305.874929 
L 579.991177 305.87736 
L 598.091872 305.678073 
L 609.064765 305.323379 
L 617.070756 304.771274 
L 621.139165 304.310343 
L 623.010898 303.8888 
L 626.379997 303.061588 
L 646.085438 299.706853 
L 650.775131 298.624607 
L 657.710079 296.8664 
L 661.093071 295.814659 
L 666.388191 294.718532 
L 670.430388 293.505411 
L 675.526622 292.524343 
L 691.741362 287.977105 
L 695.712135 286.856147 
L 698.501652 285.745763 
L 702.79302 284.013521 
L 705.045097 283.296421 
L 709.797199 281.779667 
L 711.668867 280.902425 
L 715.60623 278.848331 
L 720.680605 275.932382 
L 725.608185 273.564234 
L 728.123853 271.736605 
L 732.559299 268.680662 
L 735.570441 267.278724 
L 736.519395 266.482584 
L 737.972318 264.869671 
L 741.132661 261.293051 
L 742.862249 259.783646 
L 744.302131 258.832318 
L 745.868596 257.767588 
L 746.777265 256.850664 
L 750.21804 253.047245 
L 751.649122 251.807814 
L 752.734518 251.194227 
L 760.57428 247.513408 
L 761.876627 246.593152 
L 765.765051 243.23565 
L 767.287169 241.857296 
L 770.174003 239.440379 
L 771.015081 238.157216 
L 773.883968 233.230074 
L 773.883968 233.230074 
" clip-path="url(#p67c46b9f2e)" style="fill: none; stroke: #443983; stroke-width: 1.5; stroke-linecap: square"/>
   </g>
   <g id="line2d_40">
    <path d="M 776.090653 215.044297 
L 777.903163 212.253528 
L 779.045033 210.891357 
L 781.165191 208.541474 
L 781.97178 207.136816 
L 785.465422 200.620424 
L 787.157734 197.456991 
L 788.832833 193.835002 
L 790.184433 190.514446 
L 791.021927 187.866808 
L 793.352414 178.953441 
L 794.764196 173.794925 
L 796.095785 169.949384 
L 798.112803 164.817724 
L 798.416227 164.630927 
L 799.354144 164.48823 
L 800.907767 164.141494 
L 802.685396 163.474968 
L 804.120036 162.74052 
L 805.260965 161.882347 
L 809.72255 157.923124 
L 811.719544 156.091281 
L 813.420661 154.777621 
L 815.168946 153.499608 
L 816.865219 151.869364 
L 818.335481 150.582632 
L 819.40561 149.9542 
L 822.588565 148.264632 
L 824.249676 147.180698 
L 826.401693 145.454854 
L 828.336377 144.020503 
L 830.462718 142.36961 
L 834.079136 139.642213 
L 835.424366 138.905054 
L 837.118604 138.259518 
L 838.721411 137.550176 
L 841.382845 135.994953 
L 843.109149 134.840418 
L 846.252221 132.705591 
L 854.39744 128.599751 
L 857.980835 126.41602 
L 860.017905 125.325101 
L 864.322054 122.719396 
L 868.216728 120.828978 
L 869.951472 119.683253 
L 871.472266 118.418083 
L 873.278351 116.949269 
L 875.449126 115.577125 
L 876.948473 114.856569 
L 880.058334 113.496838 
L 886.917181 109.914628 
L 889.206709 108.758548 
L 891.82224 107.144091 
L 893.996865 105.809722 
L 895.704459 105.029623 
L 899.523593 103.459111 
L 901.609458 102.200975 
L 908.739371 97.971742 
L 910.577033 97.230078 
L 912.85449 96.287519 
L 917.32737 93.915236 
L 919.328653 92.996752 
L 926.429052 90.056912 
L 928.707821 88.988479 
L 932.849573 86.837736 
L 934.338943 86.043279 
L 938.392242 83.813599 
L 941.883531 82.359348 
L 943.936484 81.296698 
L 946.539475 79.980938 
L 951.582116 77.863199 
L 955.795671 75.543095 
L 964.880831 71.29053 
L 969.188898 69.055055 
L 972.838629 67.250489 
L 976.806048 64.953911 
L 976.775915 64.732792 
L 976.472713 64.506697 
L 975.806774 64.30554 
L 974.553096 64.189732 
L 970.426638 64.18472 
L 946.274635 64.455031 
L 936.27924 64.792359 
L 926.559635 65.451726 
L 921.19379 66.117252 
L 917.802627 66.820033 
L 912.973586 67.957466 
L 904.95828 69.175273 
L 903.153806 69.7156 
L 900.436362 70.631119 
L 896.749185 71.504939 
L 894.109134 72.231784 
L 887.753369 73.786286 
L 885.118495 74.454105 
L 882.685367 74.98833 
L 877.200107 76.090977 
L 873.04979 77.412128 
L 870.316749 78.20725 
L 857.099854 81.452429 
L 853.962515 82.402654 
L 848.696674 83.904041 
L 844.583038 85.268636 
L 840.378424 86.583955 
L 834.899872 88.830669 
L 831.484626 89.95785 
L 830.350168 90.572482 
L 827.928678 92.041842 
L 826.496471 92.524417 
L 823.975717 93.391533 
L 820.262488 94.980522 
L 818.336347 96.053304 
L 816.749137 97.22707 
L 814.84897 98.591784 
L 812.51205 99.900528 
L 808.329147 102.226001 
L 807.091481 103.177544 
L 805.666904 104.601166 
L 804.165083 106.408425 
L 802.378298 108.520128 
L 801.075046 109.699101 
L 799.578644 110.7056 
L 798.517112 111.533297 
L 797.636923 112.526397 
L 796.468982 114.227086 
L 795.215354 115.920546 
L 794.403477 116.669879 
L 793.477819 117.190045 
L 791.88982 117.765693 
L 790.217817 118.161401 
L 788.515235 118.593625 
L 787.611833 119.075361 
L 786.310592 120.059315 
L 781.577858 124.091705 
L 780.397345 125.666952 
L 779.446034 127.273504 
L 778.318018 129.74064 
L 775.809674 135.877278 
L 774.669907 138.675797 
L 773.848222 139.947655 
L 771.127129 144.02986 
L 770.473562 145.406091 
L 769.899446 147.161809 
L 767.976137 153.571204 
L 766.489278 158.465221 
L 764.351171 166.160764 
L 763.688392 168.730001 
L 760.477773 183.204694 
L 757.30538 195.72274 
L 756.351778 198.258975 
L 755.64597 199.569855 
L 755.110546 200.12371 
L 754.4983 200.427584 
L 753.656487 200.565607 
L 752.134306 200.836617 
L 750.670064 201.34498 
L 749.262901 202.067233 
L 747.376775 203.298736 
L 744.802317 205.070772 
L 741.20425 207.05614 
L 740.317554 207.91454 
L 736.554409 211.890942 
L 735.744865 212.347257 
L 733.75277 213.338408 
L 732.693985 214.215183 
L 729.654485 216.92046 
L 727.482607 218.199347 
L 724.613098 219.95221 
L 722.314584 221.357559 
L 719.139674 223.135247 
L 717.79688 224.185934 
L 714.5813 226.858407 
L 712.006355 228.418694 
L 710.260525 229.268746 
L 708.541402 230.172958 
L 705.918491 231.867242 
L 700.089111 236.169071 
L 698.56971 237.266727 
L 697.311612 237.864482 
L 692.288088 240.037591 
L 690.534152 241.158027 
L 688.780069 242.537534 
L 685.785213 244.951648 
L 684.471465 245.718033 
L 678.495034 248.764001 
L 675.173394 250.679997 
L 671.994659 252.41548 
L 668.066425 254.804413 
L 665.51437 256.066191 
L 663.034756 257.344777 
L 658.346838 259.71855 
L 656.318587 260.939912 
L 653.443049 262.782269 
L 645.147422 267.071724 
L 642.581544 268.887739 
L 640.89948 269.777284 
L 629.62129 275.002963 
L 626.938087 276.10659 
L 621.906213 278.677214 
L 620.048502 279.924991 
L 616.147435 282.675711 
L 613.048035 284.327826 
L 607.04178 287.884034 
L 599.468151 290.90037 
L 595.348376 292.273759 
L 590.908884 293.877539 
L 589.2254 294.534114 
L 584.91056 296.550965 
L 582.780748 297.516477 
L 581.266265 298.444314 
L 574.58728 303.398176 
L 574.724613 303.601328 
L 575.161664 303.782461 
L 576.141497 303.911841 
L 578.836562 303.955146 
L 593.979397 303.820683 
L 606.283367 303.560736 
L 614.632061 303.093703 
L 620.56752 302.554405 
L 626.66031 301.636829 
L 628.759016 301.043239 
L 631.249176 300.278262 
L 648.769944 296.615273 
L 653.127706 295.739119 
L 655.99478 294.99916 
L 658.158154 294.211399 
L 663.394812 292.285317 
L 670.217853 290.991479 
L 678.587411 289.270234 
L 696.296929 284.568213 
L 700.535749 283.341923 
L 702.962539 282.411776 
L 705.332983 281.299196 
L 706.814229 280.644844 
L 711.950666 278.712481 
L 714.421994 277.830554 
L 716.71941 276.950357 
L 718.237848 276.102484 
L 720.278507 274.632878 
L 722.736661 273.010991 
L 726.907101 270.378811 
L 732.393865 266.76063 
L 735.309833 265.101497 
L 738.355546 262.77421 
L 742.730855 259.485473 
L 744.725792 258.171251 
L 745.800887 257.129698 
L 750.837273 251.898571 
L 752.357114 250.586044 
L 754.558522 248.714325 
L 756.721067 246.798801 
L 758.347255 245.766937 
L 759.436889 244.885436 
L 762.228808 242.399543 
L 763.249281 241.921176 
L 765.686904 240.904969 
L 767.883513 239.430313 
L 769.104843 238.357647 
L 770.772327 236.523236 
L 773.467605 233.408898 
L 773.723913 233.02294 
L 773.723913 233.02294 
" clip-path="url(#p67c46b9f2e)" style="fill: none; stroke: #31688e; stroke-width: 1.5; stroke-linecap: square"/>
   </g>
   <g id="line2d_41">
    <path d="M 776.118764 218.49461 
L 776.992885 217.003818 
L 777.926242 214.907935 
L 779.76972 210.531304 
L 780.737618 208.927576 
L 784.778823 203.183713 
L 786.765581 201.057934 
L 788.192457 199.42568 
L 789.120522 198.015584 
L 790.885518 194.784562 
L 794.642904 187.578578 
L 795.326353 185.591167 
L 797.748434 177.858099 
L 799.368938 174.054572 
L 800.626521 171.5381 
L 801.081062 171.069229 
L 803.002236 169.54853 
L 803.873244 168.422068 
L 805.174296 166.340198 
L 806.629047 163.642623 
L 808.406736 160.231628 
L 809.660621 158.447722 
L 810.673811 157.346138 
L 811.401978 156.850595 
L 814.11374 155.659314 
L 816.864131 154.278032 
L 818.707301 152.988 
L 824.129171 149.004448 
L 832.459051 143.64796 
L 834.372058 142.503418 
L 837.23409 140.468034 
L 841.476127 137.434327 
L 843.142201 136.288047 
L 845.026184 134.975549 
L 846.505145 134.25574 
L 849.080323 133.016683 
L 851.336335 131.622359 
L 854.246038 129.783335 
L 856.04994 128.932267 
L 863.158718 125.820031 
L 869.363647 122.7605 
L 872.390268 121.366567 
L 875.852904 119.412089 
L 880.176664 117.475634 
L 882.180979 116.286358 
L 885.305346 114.473874 
L 892.351287 110.697529 
L 896.14356 109.081776 
L 899.290524 107.746182 
L 902.30153 106.383178 
L 903.808335 105.704926 
L 907.474679 103.727346 
L 910.54733 102.534115 
L 914.487655 100.814328 
L 917.158223 99.624379 
L 919.396097 98.738766 
L 921.11135 97.999343 
L 923.505244 96.621603 
L 925.78482 95.365013 
L 933.721144 92.147822 
L 936.668008 91.150279 
L 940.290056 89.600378 
L 943.865575 87.625412 
L 945.882381 86.667295 
L 947.451695 86.204619 
L 950.00191 85.419695 
L 951.645708 84.64146 
L 954.001843 83.512172 
L 961.49727 80.55981 
L 963.039981 79.922353 
L 964.540609 79.044169 
L 967.545718 77.246164 
L 970.641553 75.791789 
L 974.718644 73.476371 
L 976.890827 72.330862 
L 976.974806 72.098132 
L 976.776646 71.968183 
L 976.11905 71.854051 
L 974.31378 71.807876 
L 955.933719 71.898708 
L 939.828372 72.124112 
L 928.15463 72.538609 
L 923.15546 72.842687 
L 919.147429 73.304855 
L 906.37668 75.200172 
L 902.530943 75.73394 
L 900.014828 76.159252 
L 897.823806 76.499247 
L 894.133538 77.067089 
L 891.442938 77.597485 
L 889.473855 78.260688 
L 886.134972 79.376616 
L 879.324393 80.811359 
L 875.775829 81.517333 
L 873.691006 82.220162 
L 871.839884 82.746031 
L 868.236395 83.418175 
L 866.669325 83.849102 
L 861.918617 85.440386 
L 858.303172 86.373787 
L 855.322664 87.431394 
L 850.181424 88.504502 
L 845.372268 89.673705 
L 843.4473 90.380148 
L 840.951262 91.283746 
L 835.299664 93.06385 
L 831.299794 94.088063 
L 827.681035 95.214784 
L 824.148702 96.661314 
L 820.697449 98.446577 
L 818.64759 99.767992 
L 816.239969 101.248015 
L 814.944905 101.754261 
L 812.903324 102.565705 
L 810.672562 103.720296 
L 809.177011 104.770723 
L 803.8398 108.86838 
L 799.811412 112.906145 
L 797.159608 115.761008 
L 795.454771 117.453539 
L 794.220697 118.338794 
L 789.893307 121.097059 
L 787.816733 122.312956 
L 785.984465 123.766623 
L 785.08235 124.766562 
L 783.55924 126.924083 
L 781.896008 129.13568 
L 780.929938 130.047639 
L 779.148339 131.655722 
L 777.864844 133.301019 
L 776.656168 134.706696 
L 775.656098 135.516731 
L 774.427224 136.473914 
L 773.702503 137.36678 
L 772.920913 138.701881 
L 772.242176 140.329564 
L 770.033287 146.01447 
L 768.041175 150.056725 
L 766.814309 152.074128 
L 764.194429 156.034121 
L 762.799231 159.12218 
L 761.490566 162.466321 
L 759.574259 168.068967 
L 758.092519 172.902324 
L 756.672948 177.218086 
L 754.847379 181.826511 
L 752.462414 187.490922 
L 750.249451 192.418686 
L 748.198041 197.431179 
L 746.702502 200.710341 
L 745.023214 203.898783 
L 744.246234 204.936746 
L 743.574037 205.465507 
L 742.833785 205.738341 
L 741.241953 206.332506 
L 739.004842 207.468958 
L 736.448481 208.938144 
L 734.30586 210.150039 
L 731.709928 211.57792 
L 727.212251 214.345566 
L 722.953732 217.791486 
L 721.611773 218.582691 
L 719.976971 219.192231 
L 718.602263 219.813408 
L 717.113659 220.763977 
L 714.938807 222.41436 
L 711.400334 225.12465 
L 709.732439 226.102057 
L 701.304074 230.702919 
L 697.201041 233.370521 
L 695.02278 234.233151 
L 691.426037 235.680306 
L 690.249635 236.446055 
L 686.925841 238.998773 
L 685.401246 240.054789 
L 683.675037 240.94136 
L 680.510557 242.511531 
L 676.271271 244.987469 
L 673.531212 246.585914 
L 669.664727 248.518392 
L 665.677872 250.841996 
L 658.255541 254.93858 
L 656.18479 256.429378 
L 654.733951 257.358859 
L 652.946193 258.205326 
L 649.407686 259.915659 
L 645.384741 262.065595 
L 641.77886 263.790832 
L 637.387053 265.944664 
L 633.269778 267.928884 
L 630.196115 269.465882 
L 627.388412 270.533534 
L 625.847981 271.235345 
L 623.100085 272.882854 
L 620.104771 274.742923 
L 618.412718 275.591992 
L 613.559993 277.775452 
L 610.279929 279.368612 
L 607.607966 280.782209 
L 605.608459 281.823539 
L 601.986129 283.359039 
L 595.823421 285.70978 
L 590.976711 287.318488 
L 588.382754 288.480972 
L 586.991666 289.404687 
L 581.373997 293.232139 
L 576.500199 296.290677 
L 574.72709 297.333298 
L 573.772325 297.977824 
L 573.742062 298.211136 
L 573.972407 298.362717 
L 574.640889 298.496733 
L 576.352627 298.568001 
L 583.378819 298.559126 
L 601.582988 298.313595 
L 609.947945 297.966444 
L 619.666247 297.194605 
L 625.356156 296.483911 
L 627.988503 295.928699 
L 634.260489 294.369594 
L 638.376928 293.664679 
L 647.232212 291.735165 
L 650.439579 290.930347 
L 655.062375 289.517729 
L 658.459183 288.370708 
L 662.118197 287.43158 
L 668.095039 286.217402 
L 676.609215 284.548725 
L 690.368504 280.988634 
L 694.810302 279.780564 
L 700.143725 278.498871 
L 702.207047 277.888008 
L 705.730848 276.773438 
L 709.430827 275.608086 
L 711.554928 274.709852 
L 713.532728 273.935826 
L 718.927982 272.128427 
L 720.794614 271.141251 
L 722.728674 269.793368 
L 725.605194 267.901886 
L 728.173727 266.532677 
L 731.777553 264.61672 
L 733.799846 263.156598 
L 736.12139 261.522886 
L 739.016311 259.780134 
L 742.565001 258.022734 
L 744.72416 256.526949 
L 746.088703 255.392924 
L 750.451167 251.391239 
L 752.877031 249.932647 
L 754.956035 248.557341 
L 755.904368 247.646027 
L 756.785278 246.490825 
L 757.763396 244.809287 
L 759.491486 241.622075 
L 760.201512 240.91637 
L 761.06504 240.382268 
L 762.207478 239.975595 
L 766.722576 238.603412 
L 768.201411 237.836763 
L 769.539093 236.863827 
L 771.646537 235.397925 
L 773.09917 234.288214 
L 774.141111 233.341502 
L 774.141111 233.341502 
" clip-path="url(#p67c46b9f2e)" style="fill: none; stroke: #21918c; stroke-width: 1.5; stroke-linecap: square"/>
   </g>
   <g id="line2d_42">
    <path d="M 776.005846 219.998513 
L 777.786182 218.247979 
L 779.092021 217.072104 
L 783.341127 213.729353 
L 784.167893 212.630602 
L 785.756454 210.068544 
L 786.916171 207.894906 
L 789.163172 203.558341 
L 790.585469 201.340926 
L 791.351023 200.515838 
L 792.266461 199.881528 
L 793.412616 199.361231 
L 795.138376 198.565971 
L 796.26045 197.746458 
L 797.226199 196.792619 
L 797.966186 195.722962 
L 798.863153 193.979714 
L 801.449074 188.866979 
L 803.686829 185.003746 
L 805.637211 181.852358 
L 806.550327 179.803198 
L 807.348441 177.515617 
L 810.383779 167.819796 
L 812.309309 163.08938 
L 812.914686 162.022127 
L 813.429163 161.604934 
L 814.317558 161.225133 
L 819.895403 158.851298 
L 821.340149 157.808154 
L 824.535147 155.445623 
L 830.490754 151.387291 
L 832.608207 150.088499 
L 836.342669 147.330852 
L 840.519114 144.331242 
L 853.240272 136.396892 
L 858.059396 134.268424 
L 868.333745 128.82032 
L 870.010379 127.913128 
L 872.422847 126.621941 
L 875.398044 124.892991 
L 880.862621 122.063977 
L 883.108574 120.981766 
L 884.656371 120.137832 
L 887.247372 118.677622 
L 890.082587 117.313889 
L 893.730309 115.307967 
L 898.577531 112.977178 
L 906.155099 110.117308 
L 907.452654 109.443541 
L 908.711752 108.494168 
L 910.323494 107.356804 
L 911.491589 106.811109 
L 913.729305 105.854687 
L 915.398399 104.814805 
L 918.034093 103.236004 
L 919.906762 102.316149 
L 925.594389 100.078993 
L 929.673607 98.201047 
L 931.385163 97.555917 
L 932.838171 96.695611 
L 934.842407 95.577952 
L 936.181266 95.133181 
L 938.965141 94.186144 
L 941.883471 93.012234 
L 946.97504 90.683648 
L 950.899156 89.201611 
L 956.727643 86.599844 
L 958.729954 85.305045 
L 960.730947 83.999126 
L 961.970646 83.458278 
L 964.48466 82.493771 
L 966.291502 81.357483 
L 968.304462 80.212887 
L 969.764004 79.627145 
L 974.807602 77.906319 
L 976.832713 77.115105 
L 976.71981 77.057501 
L 975.959038 76.992254 
L 971.847041 76.98422 
L 947.935995 77.164116 
L 935.936702 77.407079 
L 925.808089 77.901344 
L 918.551062 78.535331 
L 913.997105 79.155006 
L 910.514161 79.581579 
L 907.94053 80.043744 
L 903.383879 80.901374 
L 900.948349 81.30043 
L 898.289223 81.745926 
L 892.66859 82.566358 
L 886.188652 83.79113 
L 878.5511 86.009355 
L 875.506307 86.661679 
L 872.939577 87.376784 
L 871.07839 87.813571 
L 865.976606 88.864861 
L 860.612426 90.414533 
L 857.281553 91.453532 
L 846.806418 94.035333 
L 843.911626 95.074651 
L 837.415611 96.827093 
L 833.478358 97.984605 
L 827.551499 99.552792 
L 820.646722 101.835542 
L 818.648209 102.714025 
L 814.138481 104.967266 
L 812.117597 105.880766 
L 806.237873 109.205647 
L 802.24203 112.376422 
L 800.394381 113.199143 
L 798.712462 114.063905 
L 797.126622 115.13436 
L 794.626328 116.837406 
L 792.748298 117.843305 
L 791.519582 118.60909 
L 790.721951 119.41208 
L 788.719533 121.504264 
L 787.231936 122.636118 
L 784.223809 124.656934 
L 783.532651 125.621544 
L 782.631119 127.324815 
L 779.749675 133.006927 
L 778.711902 134.613981 
L 778.115595 135.149612 
L 777.445843 135.432534 
L 775.590225 136.088781 
L 774.683173 136.743081 
L 770.845623 139.915897 
L 769.415253 141.638832 
L 768.409795 143.211538 
L 766.323542 147.136469 
L 764.231762 151.260924 
L 762.512544 155.160079 
L 759.729397 161.67178 
L 758.50757 164.038211 
L 757.766636 165.022236 
L 757.044646 165.608536 
L 754.702766 167.191299 
L 753.63237 168.43929 
L 750.641985 172.426125 
L 749.462781 174.44769 
L 748.452379 176.616805 
L 747.805696 178.549879 
L 747.106786 181.435109 
L 745.917114 186.322395 
L 744.669308 190.435826 
L 741.056783 201.079675 
L 740.18349 202.172889 
L 739.309932 203.375348 
L 734.59614 210.753506 
L 733.649819 211.620214 
L 732.145841 212.702766 
L 731.286073 213.076344 
L 728.376081 214.025517 
L 726.140621 215.220134 
L 722.772705 217.009881 
L 718.489493 218.982432 
L 714.856347 220.565236 
L 712.546456 221.702672 
L 704.657713 226.075522 
L 702.616914 227.048979 
L 700.453064 228.175533 
L 695.381002 231.000115 
L 690.996309 233.972576 
L 688.930014 234.72319 
L 687.409081 235.409358 
L 681.243531 238.802548 
L 678.450228 240.372736 
L 675.917072 241.502968 
L 671.145054 243.353779 
L 669.260366 244.343365 
L 664.84734 246.970902 
L 661.730884 248.520202 
L 658.6435 249.807493 
L 656.726321 251.024255 
L 654.916245 252.03325 
L 648.271541 255.217754 
L 645.688925 256.450487 
L 643.010191 257.804626 
L 637.218998 260.272958 
L 635.354664 261.050979 
L 633.598407 262.013771 
L 627.576866 265.827682 
L 617.128501 270.490244 
L 615.611319 271.10821 
L 613.725946 271.920857 
L 610.816182 273.236817 
L 608.76951 274.167119 
L 606.895454 275.318527 
L 605.276637 276.23303 
L 603.664467 276.834308 
L 600.649117 277.975823 
L 598.222911 279.246255 
L 596.547636 280.01947 
L 594.591658 280.892178 
L 592.444816 282.184664 
L 590.265871 283.407544 
L 587.782752 284.56518 
L 585.787601 285.169357 
L 583.825662 285.887588 
L 575.155166 289.466856 
L 573.421885 290.458974 
L 573.415423 290.650948 
L 573.678406 290.768778 
L 574.547334 290.855698 
L 578.011567 290.869214 
L 597.382884 290.695353 
L 607.055561 290.497922 
L 615.013793 290.111663 
L 622.765425 289.51219 
L 625.435781 289.095061 
L 635.469199 287.064637 
L 648.166392 284.880764 
L 650.905176 284.265358 
L 663.597784 281.362549 
L 676.240315 278.950425 
L 684.886497 276.579113 
L 687.935179 275.621827 
L 692.165286 274.644876 
L 699.353289 272.950553 
L 709.467796 269.992369 
L 722.424445 265.139692 
L 724.686197 264.243367 
L 732.297585 261.401707 
L 734.219076 260.356692 
L 745.214295 253.900519 
L 747.673356 252.789517 
L 749.252683 251.679075 
L 750.535813 250.550991 
L 753.316292 248.004532 
L 754.399471 247.37744 
L 762.762751 243.110155 
L 766.097916 240.763388 
L 767.311064 239.508205 
L 768.836648 237.988855 
L 769.940395 237.233405 
L 773.76087 234.858457 
L 774.196782 234.504415 
L 774.196782 234.504415 
" clip-path="url(#p67c46b9f2e)" style="fill: none; stroke: #35b779; stroke-width: 1.5; stroke-linecap: square"/>
   </g>
   <g id="line2d_43">
    <path d="M 776.201181 213.835006 
L 778.152025 211.894788 
L 784.454685 205.730665 
L 786.983587 203.959344 
L 787.982248 202.831303 
L 789.534154 200.637482 
L 791.965776 197.292001 
L 792.993257 196.310747 
L 794.440322 195.294104 
L 795.808498 194.236748 
L 796.875674 193.13444 
L 798.23518 191.378241 
L 801.541278 186.8855 
L 802.536161 186.066135 
L 803.584952 185.497443 
L 804.824647 184.814695 
L 805.64263 184.076102 
L 806.848483 182.635322 
L 808.322798 180.521454 
L 810.607222 177.23254 
L 812.279052 174.880532 
L 813.688457 172.560037 
L 814.514018 170.755194 
L 817.45649 163.75339 
L 820.017576 158.467071 
L 820.821785 157.609449 
L 822.126881 156.576827 
L 824.558454 154.965057 
L 827.359809 153.224868 
L 828.762085 152.616727 
L 832.264685 151.300606 
L 834.219984 150.251975 
L 837.600516 148.393924 
L 840.60454 146.924067 
L 848.419055 142.970918 
L 852.823638 140.424245 
L 854.497196 139.515208 
L 856.981444 138.174899 
L 860.592237 136.244709 
L 868.555435 132.57788 
L 880.495555 127.293419 
L 885.216675 124.906502 
L 888.632013 123.352252 
L 890.220467 122.306325 
L 892.030564 121.19145 
L 893.842979 120.378085 
L 897.304392 119.057865 
L 899.179416 118.2922 
L 901.955634 116.797462 
L 905.459865 114.827161 
L 907.693799 114.011158 
L 916.170755 110.903109 
L 922.194546 108.110712 
L 928.694532 105.71875 
L 935.574748 102.085318 
L 940.638436 99.770287 
L 943.074933 98.573246 
L 945.243526 97.816887 
L 950.894636 96.019298 
L 952.363863 95.342702 
L 954.554931 94.338352 
L 958.114609 92.925282 
L 960.01575 92.122408 
L 963.660456 90.753741 
L 966.637136 89.331648 
L 967.802987 88.461889 
L 970.801748 86.024405 
L 971.966772 85.443963 
L 975.175748 84.301016 
L 976.866824 83.59868 
L 977.005924 83.351856 
L 976.846632 83.183907 
L 976.281902 82.983593 
L 974.955818 82.772976 
L 973.155797 82.699679 
L 958.934213 82.785674 
L 940.785774 83.033863 
L 932.964232 83.337127 
L 922.231459 83.952588 
L 919.860879 84.354698 
L 917.540147 84.631064 
L 914.851516 85.017312 
L 906.899026 86.468162 
L 905.307066 86.848203 
L 902.279816 87.210495 
L 898.438662 87.788321 
L 895.346772 88.230069 
L 892.959164 88.701639 
L 888.330924 89.78474 
L 882.074696 91.548915 
L 872.789562 93.546126 
L 868.772047 94.624557 
L 863.627173 95.669296 
L 855.603874 97.62853 
L 850.823099 98.825367 
L 845.488524 100.003489 
L 842.656251 100.899182 
L 838.597614 102.225102 
L 836.180119 103.061083 
L 832.997689 104.070442 
L 828.752401 105.740566 
L 826.812733 106.325785 
L 823.657605 107.18773 
L 814.440233 110.492414 
L 810.03708 112.029162 
L 802.406697 115.044972 
L 799.703948 116.118117 
L 796.713558 117.620162 
L 795.346651 118.655549 
L 793.301461 120.088382 
L 791.303255 121.271409 
L 789.648599 121.875176 
L 788.112754 122.508938 
L 786.689767 123.383793 
L 783.416624 125.770794 
L 782.203398 126.820772 
L 781.063775 128.163289 
L 779.502816 130.393213 
L 778.55983 131.55599 
L 776.706026 133.746603 
L 772.537729 139.418737 
L 768.4861 144.447997 
L 762.732479 150.394943 
L 761.767095 152.041782 
L 757.797552 159.360014 
L 757.055872 160.220019 
L 756.475613 160.574217 
L 754.873062 161.399048 
L 754.087409 162.112544 
L 753.065868 163.384818 
L 751.628354 165.558753 
L 750.301849 167.967013 
L 746.256255 175.7573 
L 744.986807 177.546686 
L 743.026073 179.911674 
L 740.434937 182.602998 
L 738.640452 184.553854 
L 737.804337 185.818682 
L 737.23578 187.10823 
L 736.715534 188.87783 
L 736.03661 192.174513 
L 735.028309 196.625979 
L 733.922526 200.517573 
L 732.073616 206.086922 
L 730.106921 211.557433 
L 729.623928 211.789388 
L 726.830636 212.819794 
L 722.257918 214.770938 
L 719.20439 216.133077 
L 707.920725 222.152824 
L 703.269664 224.506361 
L 700.784156 225.649093 
L 697.700801 227.092006 
L 696.071323 228.147173 
L 694.129434 229.386376 
L 692.661885 230.010207 
L 688.158894 231.753002 
L 685.978 232.993027 
L 684.205091 234.284287 
L 681.919478 235.867446 
L 680.400395 236.664311 
L 674.425932 239.603087 
L 671.134981 241.320636 
L 666.199207 243.530874 
L 663.715054 244.951067 
L 661.163089 246.411276 
L 658.129405 247.751459 
L 651.762604 250.207634 
L 647.541684 252.352818 
L 644.813439 253.831429 
L 641.420323 255.339485 
L 639.083686 256.409331 
L 636.93458 257.344046 
L 628.691031 260.566232 
L 626.225017 261.708283 
L 621.904366 263.933557 
L 619.066886 265.029993 
L 614.653401 266.63989 
L 612.54214 267.717144 
L 609.517476 269.233167 
L 607.179647 270.197687 
L 603.765919 271.423565 
L 600.522906 272.761569 
L 598.590623 273.759068 
L 596.053348 275.290962 
L 594.346354 276.299208 
L 592.882842 276.836811 
L 589.549072 278.089013 
L 586.825689 279.239156 
L 584.204206 280.615268 
L 581.008356 282.32075 
L 577.553403 283.884351 
L 574.359133 285.224035 
L 573.222941 285.83051 
L 573.287443 285.960762 
L 573.703729 286.068187 
L 575.098384 286.142385 
L 581.856212 286.137067 
L 599.489978 285.937367 
L 611.089247 285.528332 
L 620.362144 284.788143 
L 624.039104 284.324908 
L 635.710398 282.167751 
L 639.589157 281.313966 
L 643.393082 280.478916 
L 649.60449 279.056583 
L 652.496197 278.223402 
L 658.537077 276.84924 
L 663.70202 275.829364 
L 667.856742 274.959134 
L 684.914999 270.694403 
L 688.229633 269.852528 
L 695.298382 268.042639 
L 698.92405 267.075654 
L 709.713598 264.689623 
L 714.858149 263.113147 
L 719.261194 261.327277 
L 722.546432 259.924883 
L 725.031442 259.067868 
L 733.499574 256.475455 
L 735.178271 255.642573 
L 740.439649 252.885162 
L 742.86626 251.760949 
L 745.662901 250.406188 
L 749.404143 248.587896 
L 753.790396 246.133996 
L 757.604 243.876915 
L 760.862181 242.167183 
L 762.236717 241.246912 
L 763.580728 240.01555 
L 765.012357 238.783509 
L 765.960078 238.248513 
L 767.117967 237.878708 
L 769.051809 237.25551 
L 770.67986 236.495497 
L 772.77444 235.19567 
L 773.693131 234.435694 
L 774.059354 234.044528 
L 774.059354 234.044528 
" clip-path="url(#p67c46b9f2e)" style="fill: none; stroke: #90d743; stroke-width: 1.5; stroke-linecap: square"/>
   </g>
   <g id="line2d_44">
    <path d="M 776.043534 216.020161 
L 777.508244 215.199884 
L 778.825804 214.240277 
L 779.782841 213.27221 
L 782.503267 210.413525 
L 783.984636 208.767036 
L 786.476782 205.911595 
L 790.923883 200.746909 
L 791.986997 199.962046 
L 793.347637 199.284653 
L 795.23212 198.239775 
L 796.442723 197.324435 
L 797.511473 196.198125 
L 799.279344 193.937189 
L 801.725151 190.89888 
L 802.908048 189.816663 
L 805.566443 187.785327 
L 808.89255 185.435392 
L 810.482134 183.623333 
L 812.478201 181.524455 
L 821.482116 172.94932 
L 823.691201 170.866563 
L 824.786697 169.516696 
L 826.182192 167.421363 
L 827.329575 165.345955 
L 831.442785 157.376955 
L 832.291393 156.177706 
L 832.978948 155.598982 
L 834.01918 155.050892 
L 837.131046 153.53374 
L 841.572689 150.974239 
L 844.496377 149.633096 
L 848.773976 147.220434 
L 853.885152 144.172811 
L 856.12281 142.904279 
L 860.545464 140.677202 
L 875.910106 133.471323 
L 878.439475 132.114306 
L 884.847102 128.997083 
L 886.594367 127.830029 
L 889.282027 126.080454 
L 891.384701 124.980504 
L 894.855641 123.36506 
L 902.023398 120.67375 
L 906.31668 119.048317 
L 911.542418 117.01432 
L 914.294996 115.721867 
L 918.605183 113.651548 
L 923.865042 111.542048 
L 925.324905 110.57539 
L 927.880661 108.883174 
L 929.727306 107.961479 
L 933.014567 106.650475 
L 940.33238 103.874371 
L 943.594427 102.371037 
L 945.943293 101.625598 
L 949.989074 100.214722 
L 952.023964 99.358972 
L 956.30596 97.286598 
L 958.879695 96.113408 
L 960.996981 95.173334 
L 966.536532 91.959832 
L 969.161106 90.357345 
L 971.042024 89.537683 
L 974.359381 88.366832 
L 976.769526 87.547384 
L 976.80768 87.436732 
L 976.764641 87.405992 
L 976.3482 87.321998 
L 974.689955 87.272847 
L 963.940669 87.32076 
L 930.765563 87.931743 
L 922.20386 88.546376 
L 911.146047 89.709908 
L 907.713659 90.285303 
L 898.876838 91.932288 
L 890.384928 93.979634 
L 886.039117 94.749061 
L 880.934175 95.574992 
L 878.669687 96.192209 
L 875.02601 97.357811 
L 872.952462 98.070932 
L 869.906786 98.81184 
L 864.838124 99.859224 
L 852.142703 102.554417 
L 845.789669 104.27911 
L 843.515495 104.798442 
L 839.630678 105.69731 
L 829.431259 108.482443 
L 823.829247 110.511866 
L 820.310648 111.576688 
L 818.813719 112.154196 
L 816.449169 113.111634 
L 813.06495 114.24848 
L 805.992332 116.964591 
L 794.903354 122.197467 
L 790.585086 124.351416 
L 788.957202 124.929527 
L 785.310645 126.044737 
L 784.36736 126.695912 
L 780.828721 129.435944 
L 778.870901 130.865751 
L 777.279967 131.914695 
L 774.822358 133.403593 
L 774.243189 134.104117 
L 771.935115 137.673278 
L 770.098562 140.366928 
L 768.948998 141.573277 
L 764.636094 145.627713 
L 763.437343 146.797634 
L 760.439786 150.028066 
L 757.305716 152.861119 
L 755.952419 154.709757 
L 750.969021 161.896346 
L 749.712085 163.198729 
L 746.549594 166.219203 
L 744.115508 168.721135 
L 741.027348 171.867353 
L 739.710815 173.694993 
L 736.330292 178.543878 
L 733.716006 181.809186 
L 729.619041 187.301904 
L 727.256487 191.556309 
L 726.576619 193.28856 
L 725.727397 196.285186 
L 724.634296 199.784378 
L 721.440065 208.530481 
L 720.736849 210.040958 
L 720.045595 210.992988 
L 719.392092 211.536274 
L 718.525641 211.933351 
L 715.948132 213.000837 
L 713.902137 214.08567 
L 711.285108 215.525897 
L 708.521539 216.699328 
L 705.995729 217.862806 
L 700.982102 220.548833 
L 697.501589 222.90452 
L 695.399807 224.26227 
L 693.480224 225.209443 
L 688.68733 227.416917 
L 683.500141 230.313115 
L 681.135828 231.697824 
L 679.229637 232.586357 
L 671.646301 235.872258 
L 669.339181 236.930938 
L 666.449605 238.240086 
L 662.808939 240.114492 
L 659.97445 241.620566 
L 657.668837 242.689414 
L 652.168588 245.062837 
L 648.868525 246.814629 
L 644.46765 249.375204 
L 641.848529 250.602801 
L 639.140734 251.853336 
L 634.35113 254.237483 
L 628.892422 256.684748 
L 627.213564 257.507079 
L 625.034856 258.518704 
L 622.274443 259.922799 
L 617.435655 261.981977 
L 614.46058 263.352905 
L 611.772577 264.842686 
L 607.911166 266.936633 
L 605.017101 268.376121 
L 593.862011 272.936924 
L 589.538693 274.47931 
L 587.00809 275.412048 
L 583.830255 276.622941 
L 579.23979 278.305545 
L 575.331512 279.759761 
L 573.83281 280.4052 
L 573.342046 280.833792 
L 573.282005 281.138104 
L 573.474268 281.366908 
L 573.968361 281.570448 
L 574.945365 281.701806 
L 578.08525 281.792969 
L 589.882715 281.776364 
L 601.919923 281.645067 
L 610.027605 281.460355 
L 616.627304 281.097748 
L 625.091241 280.116274 
L 628.233105 279.503066 
L 635.510585 277.877224 
L 638.676603 277.25948 
L 650.615598 275.162906 
L 655.668132 274.228825 
L 672.738667 270.649543 
L 678.828323 269.410311 
L 691.413679 266.395066 
L 699.196899 264.395364 
L 702.200814 263.615822 
L 715.527298 259.688432 
L 723.709429 257.535271 
L 728.04126 256.141912 
L 734.220871 254.001045 
L 737.342027 252.873139 
L 739.657151 252.014552 
L 745.127579 249.563287 
L 747.330791 248.676746 
L 749.936943 247.583694 
L 752.462995 246.197174 
L 754.7629 244.58827 
L 756.52711 243.493972 
L 758.282559 242.692635 
L 760.509369 241.944442 
L 763.78504 241.084802 
L 766.19033 240.348841 
L 769.131276 239.180998 
L 770.452649 238.446346 
L 771.655799 237.512348 
L 772.899729 236.275864 
L 774.073539 235.03375 
L 774.073539 235.03375 
" clip-path="url(#p67c46b9f2e)" style="fill: none; stroke: #fde725; stroke-width: 1.5; stroke-linecap: square"/>
   </g>
   <g id="patch_8">
    <path d="M 553.025 318.04 
L 553.025 50.64 
" style="fill: none; stroke: #000000; stroke-width: 0.8; stroke-linejoin: miter; stroke-linecap: square"/>
   </g>
   <g id="patch_9">
    <path d="M 997.2 318.04 
L 997.2 50.64 
" style="fill: none; stroke: #000000; stroke-width: 0.8; stroke-linejoin: miter; stroke-linecap: square"/>
   </g>
   <g id="patch_10">
    <path d="M 553.025 318.04 
L 997.2 318.04 
" style="fill: none; stroke: #000000; stroke-width: 0.8; stroke-linejoin: miter; stroke-linecap: square"/>
   </g>
   <g id="patch_11">
    <path d="M 553.025 50.64 
L 997.2 50.64 
" style="fill: none; stroke: #000000; stroke-width: 0.8; stroke-linejoin: miter; stroke-linecap: square"/>
   </g>
   <g id="text_36">
    <text style="font: 12px 'DejaVu Sans', 'Bitstream Vera Sans', 'Computer Modern Sans Serif', 'Lucida Grande', 'Verdana', 'Geneva', 'Lucid', 'Arial', 'Helvetica', 'Avant Garde', sans-serif; text-anchor: middle" x="775.1125" y="44.64" transform="rotate(-0 775.1125 44.64)">Stiffness tests</text>
   </g>
   <g id="legend_1">
    <g id="patch_12">
     <path d="M 558.625 139.2375 
L 658.32375 139.2375 
Q 659.92375 139.2375 659.92375 137.6375 
L 659.92375 56.24 
Q 659.92375 54.64 658.32375 54.64 
L 558.625 54.64 
Q 557.025 54.64 557.025 56.24 
L 557.025 137.6375 
Q 557.025 139.2375 558.625 139.2375 
z
" style="fill: #ffffff; opacity: 0.8; stroke: #cccccc; stroke-linejoin: miter"/>
    </g>
    <g id="line2d_45">
     <path d="M 560.225 61.11875 
L 568.225 61.11875 
L 576.225 61.11875 
" style="fill: none; stroke: #440154; stroke-width: 1.5; stroke-linecap: square"/>
    </g>
    <g id="text_37">
     <text style="font: 8px 'DejaVu Sans', 'Bitstream Vera Sans', 'Computer Modern Sans Serif', 'Lucida Grande', 'Verdana', 'Geneva', 'Lucid', 'Arial', 'Helvetica', 'Avant Garde', sans-serif; text-anchor: start" x="582.625" y="63.91875" transform="rotate(-0 582.625 63.91875)">initial</text>
    </g>
    <g id="line2d_46">
     <path d="M 560.225 72.86125 
L 568.225 72.86125 
L 576.225 72.86125 
" style="fill: none; stroke: #443983; stroke-width: 1.5; stroke-linecap: square"/>
    </g>
    <g id="text_38">
     <text style="font: 8px 'DejaVu Sans', 'Bitstream Vera Sans', 'Computer Modern Sans Serif', 'Lucida Grande', 'Verdana', 'Geneva', 'Lucid', 'Arial', 'Helvetica', 'Avant Garde', sans-serif; text-anchor: start" x="582.625" y="75.66125" transform="rotate(-0 582.625 75.66125)">after run-in</text>
    </g>
    <g id="line2d_47">
     <path d="M 560.225 84.60375 
L 568.225 84.60375 
L 576.225 84.60375 
" style="fill: none; stroke: #31688e; stroke-width: 1.5; stroke-linecap: square"/>
    </g>
    <g id="text_39">
     <text style="font: 8px 'DejaVu Sans', 'Bitstream Vera Sans', 'Computer Modern Sans Serif', 'Lucida Grande', 'Verdana', 'Geneva', 'Lucid', 'Arial', 'Helvetica', 'Avant Garde', sans-serif; text-anchor: start" x="582.625" y="87.40375" transform="rotate(-0 582.625 87.40375)">preload increase 1</text>
    </g>
    <g id="line2d_48">
     <path d="M 560.225 96.34625 
L 568.225 96.34625 
L 576.225 96.34625 
" style="fill: none; stroke: #21918c; stroke-width: 1.5; stroke-linecap: square"/>
    </g>
    <g id="text_40">
     <text style="font: 8px 'DejaVu Sans', 'Bitstream Vera Sans', 'Computer Modern Sans Serif', 'Lucida Grande', 'Verdana', 'Geneva', 'Lucid', 'Arial', 'Helvetica', 'Avant Garde', sans-serif; text-anchor: start" x="582.625" y="99.14625" transform="rotate(-0 582.625 99.14625)">preload increase 2</text>
    </g>
    <g id="line2d_49">
     <path d="M 560.225 108.08875 
L 568.225 108.08875 
L 576.225 108.08875 
" style="fill: none; stroke: #35b779; stroke-width: 1.5; stroke-linecap: square"/>
    </g>
    <g id="text_41">
     <text style="font: 8px 'DejaVu Sans', 'Bitstream Vera Sans', 'Computer Modern Sans Serif', 'Lucida Grande', 'Verdana', 'Geneva', 'Lucid', 'Arial', 'Helvetica', 'Avant Garde', sans-serif; text-anchor: start" x="582.625" y="110.88875" transform="rotate(-0 582.625 110.88875)">preload increase 3</text>
    </g>
    <g id="line2d_50">
     <path d="M 560.225 119.83125 
L 568.225 119.83125 
L 576.225 119.83125 
" style="fill: none; stroke: #90d743; stroke-width: 1.5; stroke-linecap: square"/>
    </g>
    <g id="text_42">
     <text style="font: 8px 'DejaVu Sans', 'Bitstream Vera Sans', 'Computer Modern Sans Serif', 'Lucida Grande', 'Verdana', 'Geneva', 'Lucid', 'Arial', 'Helvetica', 'Avant Garde', sans-serif; text-anchor: start" x="582.625" y="122.63125" transform="rotate(-0 582.625 122.63125)">preload increase 4</text>
    </g>
    <g id="line2d_51">
     <path d="M 560.225 131.57375 
L 568.225 131.57375 
L 576.225 131.57375 
" style="fill: none; stroke: #fde725; stroke-width: 1.5; stroke-linecap: square"/>
    </g>
    <g id="text_43">
     <text style="font: 8px 'DejaVu Sans', 'Bitstream Vera Sans', 'Computer Modern Sans Serif', 'Lucida Grande', 'Verdana', 'Geneva', 'Lucid', 'Arial', 'Helvetica', 'Avant Garde', sans-serif; text-anchor: start" x="582.625" y="134.37375" transform="rotate(-0 582.625 134.37375)">preload increase 5</text>
    </g>
   </g>
  </g>
  <g id="text_44">
   <text style="font: 12px 'DejaVu Sans', 'Bitstream Vera Sans', 'Computer Modern Sans Serif', 'Lucida Grande', 'Verdana', 'Geneva', 'Lucid', 'Arial', 'Helvetica', 'Avant Garde', sans-serif; text-anchor: middle" x="504" y="16.318125" transform="rotate(-0 504 16.318125)">Conic Disk (PC-CF)</text>
  </g>
 </g>
 <defs>
  <clipPath id="pec415064f2">
   <rect x="62.3" y="50.64" width="444.175" height="267.4"/>
  </clipPath>
  <clipPath id="p67c46b9f2e">
   <rect x="553.025" y="50.64" width="444.175" height="267.4"/>
  </clipPath>
 </defs>
</svg>
