<?xml version="1.0" encoding="utf-8" standalone="no"?>
<!DOCTYPE svg PUBLIC "-//W3C//DTD SVG 1.1//EN"
  "http://www.w3.org/Graphics/SVG/1.1/DTD/svg11.dtd">
<svg xmlns:xlink="http://www.w3.org/1999/xlink" width="1008pt" height="360pt" viewBox="0 0 1008 360" xmlns="http://www.w3.org/2000/svg" version="1.1">
 <metadata>
  <rdf:RDF xmlns:dc="http://purl.org/dc/elements/1.1/" xmlns:cc="http://creativecommons.org/ns#" xmlns:rdf="http://www.w3.org/1999/02/22-rdf-syntax-ns#">
   <cc:Work>
    <dc:type rdf:resource="http://purl.org/dc/dcmitype/StillImage"/>
    <dc:date>2024-07-22T20:59:36.207665</dc:date>
    <dc:format>image/svg+xml</dc:format>
    <dc:creator>
     <cc:Agent>
      <dc:title>Matplotlib v3.9.0, https://matplotlib.org/</dc:title>
     </cc:Agent>
    </dc:creator>
   </cc:Work>
  </rdf:RDF>
 </metadata>
 <defs>
  <style type="text/css">*{stroke-linejoin: round; stroke-linecap: butt}</style>
 </defs>
 <g id="figure_1">
  <g id="patch_1">
   <path d="M 0 360 
L 1008 360 
L 1008 0 
L 0 0 
z
" style="fill: #ffffff"/>
  </g>
  <g id="axes_1">
   <g id="patch_2">
    <path d="M 56.09 318.04 
L 498.645 318.04 
L 498.645 50.64 
L 56.09 50.64 
z
" style="fill: #ffffff"/>
   </g>
   <g id="matplotlib.axis_1">
    <g id="xtick_1">
     <g id="line2d_1">
      <defs>
       <path id="m04bc24a931" d="M 0 0 
L 0 3.5 
" style="stroke: #000000; stroke-width: 0.8"/>
      </defs>
      <g>
       <use xlink:href="#m04bc24a931" x="78.817355" y="318.04" style="stroke: #000000; stroke-width: 0.8"/>
      </g>
     </g>
     <g id="text_1">
      <text style="font: 10px 'DejaVu Sans', 'Bitstream Vera Sans', 'Computer Modern Sans Serif', 'Lucida Grande', 'Verdana', 'Geneva', 'Lucid', 'Arial', 'Helvetica', 'Avant Garde', sans-serif; text-anchor: middle" x="78.817355" y="332.638438" transform="rotate(-0 78.817355 332.638438)">−4</text>
     </g>
    </g>
    <g id="xtick_2">
     <g id="line2d_2">
      <g>
       <use xlink:href="#m04bc24a931" x="128.937578" y="318.04" style="stroke: #000000; stroke-width: 0.8"/>
      </g>
     </g>
     <g id="text_2">
      <text style="font: 10px 'DejaVu Sans', 'Bitstream Vera Sans', 'Computer Modern Sans Serif', 'Lucida Grande', 'Verdana', 'Geneva', 'Lucid', 'Arial', 'Helvetica', 'Avant Garde', sans-serif; text-anchor: middle" x="128.937578" y="332.638438" transform="rotate(-0 128.937578 332.638438)">−3</text>
     </g>
    </g>
    <g id="xtick_3">
     <g id="line2d_3">
      <g>
       <use xlink:href="#m04bc24a931" x="179.057801" y="318.04" style="stroke: #000000; stroke-width: 0.8"/>
      </g>
     </g>
     <g id="text_3">
      <text style="font: 10px 'DejaVu Sans', 'Bitstream Vera Sans', 'Computer Modern Sans Serif', 'Lucida Grande', 'Verdana', 'Geneva', 'Lucid', 'Arial', 'Helvetica', 'Avant Garde', sans-serif; text-anchor: middle" x="179.057801" y="332.638438" transform="rotate(-0 179.057801 332.638438)">−2</text>
     </g>
    </g>
    <g id="xtick_4">
     <g id="line2d_4">
      <g>
       <use xlink:href="#m04bc24a931" x="229.178024" y="318.04" style="stroke: #000000; stroke-width: 0.8"/>
      </g>
     </g>
     <g id="text_4">
      <text style="font: 10px 'DejaVu Sans', 'Bitstream Vera Sans', 'Computer Modern Sans Serif', 'Lucida Grande', 'Verdana', 'Geneva', 'Lucid', 'Arial', 'Helvetica', 'Avant Garde', sans-serif; text-anchor: middle" x="229.178024" y="332.638438" transform="rotate(-0 229.178024 332.638438)">−1</text>
     </g>
    </g>
    <g id="xtick_5">
     <g id="line2d_5">
      <g>
       <use xlink:href="#m04bc24a931" x="279.298247" y="318.04" style="stroke: #000000; stroke-width: 0.8"/>
      </g>
     </g>
     <g id="text_5">
      <text style="font: 10px 'DejaVu Sans', 'Bitstream Vera Sans', 'Computer Modern Sans Serif', 'Lucida Grande', 'Verdana', 'Geneva', 'Lucid', 'Arial', 'Helvetica', 'Avant Garde', sans-serif; text-anchor: middle" x="279.298247" y="332.638438" transform="rotate(-0 279.298247 332.638438)">0</text>
     </g>
    </g>
    <g id="xtick_6">
     <g id="line2d_6">
      <g>
       <use xlink:href="#m04bc24a931" x="329.41847" y="318.04" style="stroke: #000000; stroke-width: 0.8"/>
      </g>
     </g>
     <g id="text_6">
      <text style="font: 10px 'DejaVu Sans', 'Bitstream Vera Sans', 'Computer Modern Sans Serif', 'Lucida Grande', 'Verdana', 'Geneva', 'Lucid', 'Arial', 'Helvetica', 'Avant Garde', sans-serif; text-anchor: middle" x="329.41847" y="332.638438" transform="rotate(-0 329.41847 332.638438)">1</text>
     </g>
    </g>
    <g id="xtick_7">
     <g id="line2d_7">
      <g>
       <use xlink:href="#m04bc24a931" x="379.538694" y="318.04" style="stroke: #000000; stroke-width: 0.8"/>
      </g>
     </g>
     <g id="text_7">
      <text style="font: 10px 'DejaVu Sans', 'Bitstream Vera Sans', 'Computer Modern Sans Serif', 'Lucida Grande', 'Verdana', 'Geneva', 'Lucid', 'Arial', 'Helvetica', 'Avant Garde', sans-serif; text-anchor: middle" x="379.538694" y="332.638438" transform="rotate(-0 379.538694 332.638438)">2</text>
     </g>
    </g>
    <g id="xtick_8">
     <g id="line2d_8">
      <g>
       <use xlink:href="#m04bc24a931" x="429.658917" y="318.04" style="stroke: #000000; stroke-width: 0.8"/>
      </g>
     </g>
     <g id="text_8">
      <text style="font: 10px 'DejaVu Sans', 'Bitstream Vera Sans', 'Computer Modern Sans Serif', 'Lucida Grande', 'Verdana', 'Geneva', 'Lucid', 'Arial', 'Helvetica', 'Avant Garde', sans-serif; text-anchor: middle" x="429.658917" y="332.638438" transform="rotate(-0 429.658917 332.638438)">3</text>
     </g>
    </g>
    <g id="xtick_9">
     <g id="line2d_9">
      <g>
       <use xlink:href="#m04bc24a931" x="479.77914" y="318.04" style="stroke: #000000; stroke-width: 0.8"/>
      </g>
     </g>
     <g id="text_9">
      <text style="font: 10px 'DejaVu Sans', 'Bitstream Vera Sans', 'Computer Modern Sans Serif', 'Lucida Grande', 'Verdana', 'Geneva', 'Lucid', 'Arial', 'Helvetica', 'Avant Garde', sans-serif; text-anchor: middle" x="479.77914" y="332.638438" transform="rotate(-0 479.77914 332.638438)">4</text>
     </g>
    </g>
    <g id="text_10">
     <text style="font: 10px 'DejaVu Sans', 'Bitstream Vera Sans', 'Computer Modern Sans Serif', 'Lucida Grande', 'Verdana', 'Geneva', 'Lucid', 'Arial', 'Helvetica', 'Avant Garde', sans-serif; text-anchor: middle" x="277.3675" y="346.316563" transform="rotate(-0 277.3675 346.316563)">Motor Torque [Nm]</text>
    </g>
   </g>
   <g id="matplotlib.axis_2">
    <g id="ytick_1">
     <g id="line2d_10">
      <defs>
       <path id="mf65d269675" d="M 0 0 
L -3.5 0 
" style="stroke: #000000; stroke-width: 0.8"/>
      </defs>
      <g>
       <use xlink:href="#mf65d269675" x="56.09" y="312.929133" style="stroke: #000000; stroke-width: 0.8"/>
      </g>
     </g>
     <g id="text_11">
      <text style="font: 10px 'DejaVu Sans', 'Bitstream Vera Sans', 'Computer Modern Sans Serif', 'Lucida Grande', 'Verdana', 'Geneva', 'Lucid', 'Arial', 'Helvetica', 'Avant Garde', sans-serif; text-anchor: end" x="49.09" y="316.728352" transform="rotate(-0 49.09 316.728352)">−2.0</text>
     </g>
    </g>
    <g id="ytick_2">
     <g id="line2d_11">
      <g>
       <use xlink:href="#mf65d269675" x="56.09" y="276.083606" style="stroke: #000000; stroke-width: 0.8"/>
      </g>
     </g>
     <g id="text_12">
      <text style="font: 10px 'DejaVu Sans', 'Bitstream Vera Sans', 'Computer Modern Sans Serif', 'Lucida Grande', 'Verdana', 'Geneva', 'Lucid', 'Arial', 'Helvetica', 'Avant Garde', sans-serif; text-anchor: end" x="49.09" y="279.882825" transform="rotate(-0 49.09 279.882825)">−1.5</text>
     </g>
    </g>
    <g id="ytick_3">
     <g id="line2d_12">
      <g>
       <use xlink:href="#mf65d269675" x="56.09" y="239.238078" style="stroke: #000000; stroke-width: 0.8"/>
      </g>
     </g>
     <g id="text_13">
      <text style="font: 10px 'DejaVu Sans', 'Bitstream Vera Sans', 'Computer Modern Sans Serif', 'Lucida Grande', 'Verdana', 'Geneva', 'Lucid', 'Arial', 'Helvetica', 'Avant Garde', sans-serif; text-anchor: end" x="49.09" y="243.037297" transform="rotate(-0 49.09 243.037297)">−1.0</text>
     </g>
    </g>
    <g id="ytick_4">
     <g id="line2d_13">
      <g>
       <use xlink:href="#mf65d269675" x="56.09" y="202.392551" style="stroke: #000000; stroke-width: 0.8"/>
      </g>
     </g>
     <g id="text_14">
      <text style="font: 10px 'DejaVu Sans', 'Bitstream Vera Sans', 'Computer Modern Sans Serif', 'Lucida Grande', 'Verdana', 'Geneva', 'Lucid', 'Arial', 'Helvetica', 'Avant Garde', sans-serif; text-anchor: end" x="49.09" y="206.19177" transform="rotate(-0 49.09 206.19177)">−0.5</text>
     </g>
    </g>
    <g id="ytick_5">
     <g id="line2d_14">
      <g>
       <use xlink:href="#mf65d269675" x="56.09" y="165.547024" style="stroke: #000000; stroke-width: 0.8"/>
      </g>
     </g>
     <g id="text_15">
      <text style="font: 10px 'DejaVu Sans', 'Bitstream Vera Sans', 'Computer Modern Sans Serif', 'Lucida Grande', 'Verdana', 'Geneva', 'Lucid', 'Arial', 'Helvetica', 'Avant Garde', sans-serif; text-anchor: end" x="49.09" y="169.346242" transform="rotate(-0 49.09 169.346242)">0.0</text>
     </g>
    </g>
    <g id="ytick_6">
     <g id="line2d_15">
      <g>
       <use xlink:href="#mf65d269675" x="56.09" y="128.701496" style="stroke: #000000; stroke-width: 0.8"/>
      </g>
     </g>
     <g id="text_16">
      <text style="font: 10px 'DejaVu Sans', 'Bitstream Vera Sans', 'Computer Modern Sans Serif', 'Lucida Grande', 'Verdana', 'Geneva', 'Lucid', 'Arial', 'Helvetica', 'Avant Garde', sans-serif; text-anchor: end" x="49.09" y="132.500715" transform="rotate(-0 49.09 132.500715)">0.5</text>
     </g>
    </g>
    <g id="ytick_7">
     <g id="line2d_16">
      <g>
       <use xlink:href="#mf65d269675" x="56.09" y="91.855969" style="stroke: #000000; stroke-width: 0.8"/>
      </g>
     </g>
     <g id="text_17">
      <text style="font: 10px 'DejaVu Sans', 'Bitstream Vera Sans', 'Computer Modern Sans Serif', 'Lucida Grande', 'Verdana', 'Geneva', 'Lucid', 'Arial', 'Helvetica', 'Avant Garde', sans-serif; text-anchor: end" x="49.09" y="95.655187" transform="rotate(-0 49.09 95.655187)">1.0</text>
     </g>
    </g>
    <g id="ytick_8">
     <g id="line2d_17">
      <g>
       <use xlink:href="#mf65d269675" x="56.09" y="55.010441" style="stroke: #000000; stroke-width: 0.8"/>
      </g>
     </g>
     <g id="text_18">
      <text style="font: 10px 'DejaVu Sans', 'Bitstream Vera Sans', 'Computer Modern Sans Serif', 'Lucida Grande', 'Verdana', 'Geneva', 'Lucid', 'Arial', 'Helvetica', 'Avant Garde', sans-serif; text-anchor: end" x="49.09" y="58.80966" transform="rotate(-0 49.09 58.80966)">1.5</text>
     </g>
    </g>
    <g id="text_19">
     <text style="font: 10px 'DejaVu Sans', 'Bitstream Vera Sans', 'Computer Modern Sans Serif', 'Lucida Grande', 'Verdana', 'Geneva', 'Lucid', 'Arial', 'Helvetica', 'Avant Garde', sans-serif; text-anchor: middle" x="18.7275" y="184.34" transform="rotate(-90 18.7275 184.34)">Deflection [deg]</text>
    </g>
   </g>
   <g id="line2d_18">
    <path d="M 286.25674 219.032141 
L 292.016336 218.33568 
L 295.827647 217.686257 
L 312.988962 214.07828 
L 316.344888 213.046967 
L 324.966552 210.212394 
L 329.581855 208.704243 
L 333.078955 207.224123 
L 335.26657 206.101644 
L 339.957804 203.499648 
L 344.042461 201.63059 
L 349.354529 199.464151 
L 350.920857 198.404321 
L 352.480148 197.073951 
L 360.005285 190.246986 
L 365.187456 185.593039 
L 368.799376 182.068602 
L 370.998375 179.624675 
L 372.536895 177.563038 
L 374.824066 174.455956 
L 376.578779 172.501019 
L 378.915451 170.247931 
L 381.896616 167.702349 
L 387.42482 163.057345 
L 395.003475 156.468367 
L 396.993913 155.095483 
L 402.153575 151.934696 
L 420.297023 141.246311 
L 423.342584 139.100131 
L 425.455322 137.258459 
L 431.451742 132.056974 
L 438.117591 126.694457 
L 440.883312 124.081605 
L 451.449426 113.318418 
L 456.436726 108.904141 
L 460.847798 105.287691 
L 466.779847 100.750731 
L 468.311868 99.888709 
L 469.748826 99.325027 
L 471.282373 98.964872 
L 473.171688 98.766874 
L 478.099363 98.568511 
L 475.543349 98.518705 
L 456.551353 98.553502 
L 406.177468 98.936007 
L 383.856525 99.429894 
L 376.278449 99.937108 
L 366.263352 100.526348 
L 359.921171 100.95777 
L 356.074941 101.439372 
L 349.983033 102.465637 
L 340.37097 104.151271 
L 335.627402 104.704997 
L 326.357472 105.751122 
L 321.386479 106.688467 
L 312.755806 108.41757 
L 305.848621 109.624726 
L 297.919492 111.040953 
L 294.382615 111.920326 
L 290.315078 113.190298 
L 286.519373 114.5906 
L 283.960612 115.771138 
L 282.192055 116.820147 
L 280.759397 117.934564 
L 278.820458 119.818772 
L 277.274132 121.133276 
L 275.747971 122.148216 
L 274.039987 123.015068 
L 271.960501 123.806751 
L 269.235129 124.593409 
L 265.530945 125.418304 
L 255.85129 127.443635 
L 252.332606 128.490682 
L 249.126111 129.679958 
L 246.421922 130.911254 
L 244.188923 132.167988 
L 242.154467 133.57345 
L 239.362731 135.843109 
L 236.806763 137.808747 
L 234.250904 139.480299 
L 231.465363 141.035979 
L 228.398373 142.483782 
L 224.321492 144.152648 
L 221.900241 144.911757 
L 218.742029 145.642017 
L 212.859503 146.719816 
L 203.849499 148.227589 
L 199.825923 148.623005 
L 192.662759 149.016578 
L 181.390127 149.713778 
L 173.252746 150.400918 
L 157.490518 151.903959 
L 151.39446 152.554324 
L 146.293906 153.352575 
L 135.709422 155.006748 
L 130.876363 155.456546 
L 121.109526 156.266717 
L 118.569931 156.755323 
L 116.814153 157.303658 
L 115.501374 157.933206 
L 114.40602 158.705051 
L 113.418999 159.692693 
L 112.504464 160.931142 
L 111.49703 162.686318 
L 106.929731 171.286404 
L 96.561154 188.634712 
L 94.956097 191.979887 
L 93.060298 196.530707 
L 88.032456 208.787665 
L 84.911814 215.687469 
L 80.273295 225.789553 
L 78.937197 229.31231 
L 78.094484 232.163492 
L 77.652881 234.407312 
L 77.479702 236.478418 
L 77.545395 238.204904 
L 77.816635 239.780196 
L 78.288181 241.202165 
L 78.94722 242.47411 
L 79.777171 243.600674 
L 80.864778 244.677816 
L 82.106178 245.592791 
L 83.594947 246.412175 
L 85.311768 247.102102 
L 87.251013 247.641876 
L 89.563679 248.037256 
L 92.356781 248.272134 
L 95.930801 248.333491 
L 156.409834 247.766514 
L 169.953827 247.433227 
L 176.757492 247.052783 
L 181.992405 246.547796 
L 187.049557 245.846582 
L 193.222592 244.748275 
L 197.290811 243.8157 
L 200.309386 242.90064 
L 204.446867 241.366195 
L 213.63333 237.751224 
L 217.098201 236.05704 
L 221.62964 233.544705 
L 232.170762 227.727198 
L 236.533149 225.560314 
L 238.724805 224.717233 
L 240.972384 224.097321 
L 243.497193 223.6322 
L 246.495198 223.319751 
L 251.77978 223.037597 
L 257.049492 222.675393 
L 261.072813 222.188538 
L 265.924811 221.33511 
L 275.117085 219.583633 
L 275.117085 219.583633 
" clip-path="url(#p6544e2bb22)" style="fill: none; stroke: #440154; stroke-width: 1.5; stroke-linecap: square"/>
   </g>
   <g id="line2d_19">
    <path d="M 283.168136 246.562661 
L 293.809586 243.985801 
L 297.533361 242.736634 
L 303.215124 240.542789 
L 308.237876 238.426363 
L 310.820093 237.091549 
L 320.452378 231.479433 
L 321.949761 230.270486 
L 323.481459 228.720447 
L 325.371396 226.45659 
L 328.946056 221.718987 
L 332.151831 217.640737 
L 335.238439 214.082728 
L 339.865108 209.123381 
L 349.370871 199.061608 
L 350.940338 197.044635 
L 352.011122 195.306104 
L 352.698668 193.761092 
L 353.555487 191.719656 
L 354.133039 191.09193 
L 355.158774 190.357181 
L 358.784001 187.919499 
L 361.247981 185.891531 
L 363.411678 183.846733 
L 365.290856 181.772901 
L 367.254786 179.269651 
L 369.422541 176.145224 
L 371.775742 172.338917 
L 379.4516 159.588689 
L 383.036272 154.343366 
L 387.421202 148.328916 
L 393.445822 140.086003 
L 400.474847 130.174205 
L 403.186883 126.70616 
L 405.370664 124.270807 
L 408.929848 120.693221 
L 411.483864 118.371546 
L 413.592265 116.761701 
L 414.994758 115.932125 
L 416.841832 115.144648 
L 419.682959 113.901624 
L 421.480382 112.873915 
L 423.0804 111.703094 
L 424.982981 110.001927 
L 428.954113 106.43359 
L 434.716902 101.224656 
L 437.716915 98.22633 
L 440.110086 95.496986 
L 445.519757 89.196936 
L 448.049636 86.724655 
L 450.846743 84.315745 
L 454.017504 81.903377 
L 457.431744 79.58609 
L 460.026524 78.054875 
L 461.088235 77.656602 
L 462.093261 77.522865 
L 469.499271 77.074951 
L 473.756131 76.418285 
L 476.269899 75.838951 
L 477.161724 75.442603 
L 477.34012 75.176592 
L 477.207219 74.987959 
L 476.714501 74.773041 
L 475.48685 74.523478 
L 473.046605 74.280768 
L 469.153869 74.142158 
L 461.208805 74.122338 
L 425.651796 74.321536 
L 386.731434 75.173301 
L 375.73846 75.58513 
L 369.263229 76.057727 
L 363.765435 76.700904 
L 351.307129 78.179533 
L 328.27439 80.267618 
L 321.38199 81.271117 
L 309.164101 83.074817 
L 295.932703 84.612405 
L 290.666575 85.643407 
L 274.761465 89.091335 
L 266.9719 91.245979 
L 263.580729 92.414022 
L 261.169572 93.470518 
L 258.645539 94.831971 
L 256.240164 96.367458 
L 253.766078 97.920506 
L 251.092442 99.276687 
L 247.689418 100.76574 
L 240.385334 103.565575 
L 237.721457 104.436277 
L 235.081614 105.050596 
L 232.380511 105.44191 
L 228.096213 105.785397 
L 217.441356 106.592627 
L 213.64849 107.114916 
L 210.888712 107.708976 
L 209.103872 108.304824 
L 207.67856 109.013651 
L 206.350369 109.931172 
L 205.119957 111.046587 
L 203.80881 112.546231 
L 190.738749 129.073027 
L 187.769314 133.316466 
L 185.870706 136.405344 
L 184.209488 139.565114 
L 180.801533 146.748297 
L 173.731858 161.39517 
L 171.451618 165.302629 
L 168.617797 169.693404 
L 166.20605 173.05331 
L 163.967021 175.799865 
L 161.729039 178.195515 
L 159.120728 180.653647 
L 157.313694 182.078708 
L 155.462038 183.218929 
L 151.4127 185.627499 
L 150.22945 186.777878 
L 148.753474 188.521886 
L 147.57209 190.263595 
L 146.006057 193.069583 
L 142.361768 199.600371 
L 138.616137 205.87011 
L 126.29137 225.412703 
L 122.854675 230.557016 
L 119.975591 234.486309 
L 117.170534 237.905735 
L 113.658934 241.818184 
L 111.62932 243.835864 
L 111.019521 244.114895 
L 110.170753 244.223031 
L 107.344834 244.24225 
L 102.714822 244.380856 
L 98.781754 244.711891 
L 95.845751 245.173373 
L 93.661994 245.726583 
L 91.960841 246.368619 
L 90.556363 247.123482 
L 89.354388 248.01865 
L 88.158871 249.190407 
L 86.773425 250.879651 
L 84.004362 254.713971 
L 80.556296 259.767771 
L 79.53628 261.670156 
L 79.064849 262.986915 
L 78.925486 263.983257 
L 79.019188 264.78836 
L 79.333697 265.498763 
L 79.806664 266.044833 
L 80.551007 266.560318 
L 81.619818 267.01329 
L 83.054503 267.37125 
L 85.031246 267.620551 
L 87.730956 267.713371 
L 91.201367 267.591283 
L 95.596042 267.202634 
L 104.268002 266.36652 
L 109.762737 266.253067 
L 149.211691 265.645286 
L 181.904197 265.008768 
L 193.822315 264.278723 
L 203.93179 263.46964 
L 208.354145 262.912752 
L 211.607509 262.276223 
L 215.200895 261.330977 
L 219.386199 260.002011 
L 223.427513 258.734458 
L 226.353388 258.070224 
L 229.183163 257.658981 
L 235.236068 257.079782 
L 247.596127 255.881613 
L 252.343389 255.21407 
L 262.350569 253.636762 
L 268.905702 252.62023 
L 272.249084 251.882092 
L 275.005336 251.110766 
L 275.005336 251.110766 
" clip-path="url(#p6544e2bb22)" style="fill: none; stroke: #31688e; stroke-width: 1.5; stroke-linecap: square"/>
   </g>
   <g id="line2d_20">
    <path d="M 285.343707 245.091969 
L 292.252362 240.033851 
L 294.682809 238.078639 
L 296.909939 235.943543 
L 299.022123 234.052654 
L 302.958945 230.848154 
L 310.737883 225.243791 
L 315.887638 221.64872 
L 319.28566 218.894459 
L 320.434671 217.578075 
L 322.500834 215.227263 
L 325.681005 211.905022 
L 328.705029 209.187905 
L 332.22308 205.921832 
L 351.531556 187.606476 
L 354.806275 184.907023 
L 359.741025 181.148141 
L 362.749478 178.926139 
L 364.207343 177.582661 
L 365.142552 176.393221 
L 366.43621 174.308533 
L 368.515373 170.563302 
L 373.366368 161.481092 
L 375.856645 156.771106 
L 378.137102 151.892757 
L 382.669828 142.163525 
L 388.642751 129.876895 
L 390.968477 125.755596 
L 393.756448 121.316732 
L 398.428357 114.38349 
L 409.015765 98.726742 
L 410.237956 96.295958 
L 412.733804 91.051528 
L 413.34492 90.442607 
L 413.969849 90.134823 
L 414.819238 89.973568 
L 415.943077 89.990983 
L 417.538219 90.271154 
L 419.299074 90.509274 
L 421.352691 90.529603 
L 424.35939 90.31381 
L 428.118398 89.819726 
L 431.387891 89.172972 
L 435.225068 88.168111 
L 439.160074 86.919067 
L 442.328509 85.699247 
L 444.774453 84.528392 
L 446.579867 83.425886 
L 452.181844 79.697765 
L 455.613976 77.901433 
L 461.622103 74.868315 
L 465.278768 72.601506 
L 467.929159 70.713047 
L 470.971974 68.595984 
L 475.137918 66.01558 
L 478.224581 64.083324 
L 478.518249 63.664928 
L 478.474367 63.414491 
L 478.204963 63.225006 
L 477.519957 63.056459 
L 475.775229 62.91087 
L 471.262968 62.808559 
L 460.655024 62.822892 
L 430.901841 63.051481 
L 418.979961 63.371778 
L 406.163094 63.547577 
L 388.051808 63.881643 
L 381.6959 64.218477 
L 376.529269 64.735011 
L 372.116418 65.407008 
L 366.079597 66.564822 
L 359.572959 67.808211 
L 355.336645 68.390436 
L 351.084057 68.727235 
L 343.380535 69.066124 
L 336.268852 69.492616 
L 329.402185 70.140668 
L 322.985222 71.017493 
L 316.798345 72.083214 
L 312.676728 72.995187 
L 307.749832 74.347695 
L 298.56498 77.059889 
L 295.158083 78.284736 
L 289.070678 80.545016 
L 284.225174 81.957645 
L 278.163952 83.529252 
L 275.731169 83.832022 
L 260.533166 85.347895 
L 248.164544 87.03589 
L 241.162523 88.201528 
L 236.729374 89.16158 
L 233.040589 90.175978 
L 229.568899 91.361025 
L 227.451692 92.289903 
L 225.92182 93.20459 
L 224.595973 94.261009 
L 223.204892 95.673045 
L 220.525862 98.493589 
L 218.636614 100.084871 
L 216.271001 101.77394 
L 213.310309 103.606642 
L 209.674339 105.600594 
L 203.992682 108.422382 
L 197.464407 111.451859 
L 195.939022 111.943285 
L 194.904689 112.028204 
L 184.898765 112.092107 
L 181.347133 112.472133 
L 178.50401 112.986788 
L 176.046862 113.651216 
L 174.163129 114.371631 
L 172.733558 115.144389 
L 171.571522 116.032622 
L 170.448341 117.185839 
L 169.114706 118.877048 
L 167.751499 120.972449 
L 165.82384 124.442417 
L 162.455827 130.872969 
L 160.976261 134.247486 
L 159.460139 138.276578 
L 156.038071 148.326611 
L 152.506616 158.360863 
L 150.149609 164.341574 
L 147.623918 170.129478 
L 144.444209 176.783515 
L 138.343323 189.458412 
L 133.669589 199.781739 
L 127.63545 213.755518 
L 123.929649 222.12971 
L 118.647655 233.62697 
L 117.633568 235.170023 
L 116.517916 236.459717 
L 115.07866 237.780838 
L 113.126479 239.255251 
L 107.569676 243.230477 
L 106.406216 244.493658 
L 103.356204 248.080028 
L 101.332835 250.316933 
L 99.247263 253.078554 
L 95.454975 258.395007 
L 93.953329 260.936817 
L 88.961954 269.850249 
L 86.199423 274.662701 
L 80.452013 285.51641 
L 78.576222 289.361021 
L 77.464771 292.139909 
L 76.738849 294.543332 
L 76.336607 296.58035 
L 76.206136 298.27548 
L 76.30112 299.65977 
L 76.608149 300.901615 
L 77.12509 301.998342 
L 77.84596 302.947661 
L 78.76138 303.749345 
L 79.847486 304.408997 
L 81.216733 304.982804 
L 82.868184 305.431811 
L 84.947675 305.74868 
L 87.452874 305.882466 
L 90.647811 305.806054 
L 95.196114 305.446604 
L 102.891638 304.819557 
L 108.006861 304.703929 
L 140.567708 304.2913 
L 176.44347 302.899929 
L 183.098277 302.387594 
L 188.807126 301.727586 
L 196.225578 300.664896 
L 201.358742 299.720333 
L 205.666263 298.647386 
L 209.427413 297.473667 
L 212.999186 296.216542 
L 219.435851 293.559034 
L 224.9539 290.885286 
L 228.50778 288.930132 
L 235.644616 284.829943 
L 240.505573 281.662953 
L 243.420065 279.486863 
L 246.617428 277.145313 
L 250.682587 274.521753 
L 253.64785 272.845066 
L 257.392309 270.675619 
L 261.31034 268.49151 
L 266.090438 266.227785 
L 274.213731 262.287797 
L 274.446322 262.168262 
L 274.446322 262.168262 
" clip-path="url(#p6544e2bb22)" style="fill: none; stroke: #35b779; stroke-width: 1.5; stroke-linecap: square"/>
   </g>
   <g id="line2d_21">
    <path d="M 285.634741 236.697615 
L 288.650501 234.554465 
L 290.640516 233.297817 
L 293.220732 231.976981 
L 300.84698 228.221014 
L 302.362816 227.199424 
L 303.538378 226.129448 
L 306.691709 222.719337 
L 308.188646 220.839386 
L 314.580354 211.740651 
L 316.723694 208.324687 
L 321.813969 200.045314 
L 325.851693 193.3894 
L 329.180779 187.969817 
L 331.38724 184.823982 
L 334.448886 180.879519 
L 338.547074 175.625107 
L 339.704146 173.760074 
L 340.189301 172.585037 
L 340.310022 171.722104 
L 340.213836 170.743785 
L 340.079577 169.356847 
L 340.238869 168.610617 
L 340.698826 167.677466 
L 341.607376 166.390038 
L 343.655115 163.955575 
L 347.486095 159.808381 
L 352.749679 154.111752 
L 355.710746 150.53989 
L 359.267922 145.875478 
L 365.044707 137.925218 
L 369.307877 131.571375 
L 372.604154 126.882519 
L 375.191622 123.522239 
L 376.859355 121.7066 
L 378.543893 120.193105 
L 380.369112 118.845667 
L 382.161303 117.797329 
L 383.817082 117.093096 
L 385.417008 116.65685 
L 386.860538 116.490661 
L 388.718668 116.533338 
L 392.67063 116.633245 
L 395.836977 116.467582 
L 399.117359 116.083194 
L 401.625063 115.578097 
L 404.088508 114.85573 
L 406.700694 113.855326 
L 411.428964 111.708773 
L 416.902164 109.096735 
L 422.907232 106.180081 
L 424.110218 105.881707 
L 425.805448 105.713789 
L 429.478591 105.637861 
L 439.657473 105.427827 
L 460.080503 104.621419 
L 466.473992 104.066872 
L 475.549919 103.04357 
L 478.064744 102.569794 
L 478.498598 102.322907 
L 478.421743 102.197524 
L 477.988154 102.044673 
L 476.66315 101.853133 
L 473.67103 101.670469 
L 468.111949 101.571391 
L 455.189694 101.623028 
L 419.656428 102.023005 
L 396.840266 102.563722 
L 385.009901 103.036149 
L 372.582192 103.741771 
L 338.34742 106.153666 
L 299.336604 107.853907 
L 288.540339 108.714816 
L 281.568511 109.476307 
L 273.37486 110.471987 
L 262.833584 111.1093 
L 254.035094 111.409159 
L 244.47889 111.787555 
L 237.612688 112.22029 
L 233.914296 112.684223 
L 231.298778 113.226533 
L 229.037801 113.916783 
L 226.97891 114.768855 
L 225.150544 115.760831 
L 223.373977 116.98411 
L 215.261117 123.001211 
L 211.767297 125.158087 
L 206.65627 128.019078 
L 203.803504 129.423326 
L 201.347191 130.370789 
L 197.995051 131.399065 
L 190.937795 133.49978 
L 188.805288 134.41368 
L 186.913865 135.46627 
L 185.277263 136.623461 
L 183.89768 137.867194 
L 182.812124 139.149306 
L 181.893873 140.589676 
L 180.940095 142.537452 
L 179.433335 146.240097 
L 177.419959 151.024003 
L 175.665135 154.617221 
L 173.565118 158.393117 
L 170.554742 163.322326 
L 166.80244 169.525439 
L 164.56533 173.680425 
L 162.516945 177.943636 
L 160.685296 182.274385 
L 159.075021 186.632844 
L 157.577745 191.296347 
L 155.284484 198.660517 
L 154.079724 201.672389 
L 152.648732 204.636325 
L 150.99828 207.543931 
L 148.967771 210.664627 
L 145.471647 215.551385 
L 138.6623 225.074232 
L 136.911682 227.845959 
L 135.817968 229.95668 
L 135.170511 231.666689 
L 134.603886 233.88988 
L 134.111824 235.533833 
L 133.512258 236.716919 
L 132.764262 237.693726 
L 132.051761 238.294254 
L 131.209699 238.706234 
L 130.026229 239.016854 
L 127.736567 239.344283 
L 119.734607 240.358729 
L 113.914545 241.387362 
L 107.725366 242.37532 
L 103.81291 242.800501 
L 99.36887 243.043527 
L 89.815755 243.280603 
L 81.138689 243.420557 
L 86.848381 243.440648 
L 137.518676 243.24841 
L 167.42102 242.90146 
L 186.206639 242.42031 
L 199.900803 241.864041 
L 207.885498 241.313797 
L 234.120009 239.041447 
L 239.172576 238.32678 
L 243.060894 237.567303 
L 247.860539 236.38543 
L 263.330716 232.317434 
L 268.468447 231.094886 
L 272.991982 229.792629 
L 274.211983 229.397925 
L 274.211983 229.397925 
" clip-path="url(#p6544e2bb22)" style="fill: none; stroke: #fde725; stroke-width: 1.5; stroke-linecap: square"/>
   </g>
   <g id="patch_3">
    <path d="M 56.09 318.04 
L 56.09 50.64 
" style="fill: none; stroke: #000000; stroke-width: 0.8; stroke-linejoin: miter; stroke-linecap: square"/>
   </g>
   <g id="patch_4">
    <path d="M 498.645 318.04 
L 498.645 50.64 
" style="fill: none; stroke: #000000; stroke-width: 0.8; stroke-linejoin: miter; stroke-linecap: square"/>
   </g>
   <g id="patch_5">
    <path d="M 56.09 318.04 
L 498.645 318.04 
" style="fill: none; stroke: #000000; stroke-width: 0.8; stroke-linejoin: miter; stroke-linecap: square"/>
   </g>
   <g id="patch_6">
    <path d="M 56.09 50.64 
L 498.645 50.64 
" style="fill: none; stroke: #000000; stroke-width: 0.8; stroke-linejoin: miter; stroke-linecap: square"/>
   </g>
   <g id="text_20">
    <text style="font: 12px 'DejaVu Sans', 'Bitstream Vera Sans', 'Computer Modern Sans Serif', 'Lucida Grande', 'Verdana', 'Geneva', 'Lucid', 'Arial', 'Helvetica', 'Avant Garde', sans-serif; text-anchor: middle" x="277.3675" y="44.64" transform="rotate(-0 277.3675 44.64)">Play tests</text>
   </g>
  </g>
  <g id="axes_2">
   <g id="patch_7">
    <path d="M 554.645 318.04 
L 997.2 318.04 
L 997.2 50.64 
L 554.645 50.64 
z
" style="fill: #ffffff"/>
   </g>
   <g id="matplotlib.axis_3">
    <g id="xtick_10">
     <g id="line2d_22">
      <g>
       <use xlink:href="#m04bc24a931" x="614.726413" y="318.04" style="stroke: #000000; stroke-width: 0.8"/>
      </g>
     </g>
     <g id="text_21">
      <text style="font: 10px 'DejaVu Sans', 'Bitstream Vera Sans', 'Computer Modern Sans Serif', 'Lucida Grande', 'Verdana', 'Geneva', 'Lucid', 'Arial', 'Helvetica', 'Avant Garde', sans-serif; text-anchor: middle" x="614.726413" y="332.638438" transform="rotate(-0 614.726413 332.638438)">−20</text>
     </g>
    </g>
    <g id="xtick_11">
     <g id="line2d_23">
      <g>
       <use xlink:href="#m04bc24a931" x="695.318309" y="318.04" style="stroke: #000000; stroke-width: 0.8"/>
      </g>
     </g>
     <g id="text_22">
      <text style="font: 10px 'DejaVu Sans', 'Bitstream Vera Sans', 'Computer Modern Sans Serif', 'Lucida Grande', 'Verdana', 'Geneva', 'Lucid', 'Arial', 'Helvetica', 'Avant Garde', sans-serif; text-anchor: middle" x="695.318309" y="332.638438" transform="rotate(-0 695.318309 332.638438)">−10</text>
     </g>
    </g>
    <g id="xtick_12">
     <g id="line2d_24">
      <g>
       <use xlink:href="#m04bc24a931" x="775.910205" y="318.04" style="stroke: #000000; stroke-width: 0.8"/>
      </g>
     </g>
     <g id="text_23">
      <text style="font: 10px 'DejaVu Sans', 'Bitstream Vera Sans', 'Computer Modern Sans Serif', 'Lucida Grande', 'Verdana', 'Geneva', 'Lucid', 'Arial', 'Helvetica', 'Avant Garde', sans-serif; text-anchor: middle" x="775.910205" y="332.638438" transform="rotate(-0 775.910205 332.638438)">0</text>
     </g>
    </g>
    <g id="xtick_13">
     <g id="line2d_25">
      <g>
       <use xlink:href="#m04bc24a931" x="856.502102" y="318.04" style="stroke: #000000; stroke-width: 0.8"/>
      </g>
     </g>
     <g id="text_24">
      <text style="font: 10px 'DejaVu Sans', 'Bitstream Vera Sans', 'Computer Modern Sans Serif', 'Lucida Grande', 'Verdana', 'Geneva', 'Lucid', 'Arial', 'Helvetica', 'Avant Garde', sans-serif; text-anchor: middle" x="856.502102" y="332.638438" transform="rotate(-0 856.502102 332.638438)">10</text>
     </g>
    </g>
    <g id="xtick_14">
     <g id="line2d_26">
      <g>
       <use xlink:href="#m04bc24a931" x="937.093998" y="318.04" style="stroke: #000000; stroke-width: 0.8"/>
      </g>
     </g>
     <g id="text_25">
      <text style="font: 10px 'DejaVu Sans', 'Bitstream Vera Sans', 'Computer Modern Sans Serif', 'Lucida Grande', 'Verdana', 'Geneva', 'Lucid', 'Arial', 'Helvetica', 'Avant Garde', sans-serif; text-anchor: middle" x="937.093998" y="332.638438" transform="rotate(-0 937.093998 332.638438)">20</text>
     </g>
    </g>
    <g id="text_26">
     <text style="font: 10px 'DejaVu Sans', 'Bitstream Vera Sans', 'Computer Modern Sans Serif', 'Lucida Grande', 'Verdana', 'Geneva', 'Lucid', 'Arial', 'Helvetica', 'Avant Garde', sans-serif; text-anchor: middle" x="775.9225" y="346.316563" transform="rotate(-0 775.9225 346.316563)">Motor Torque [Nm]</text>
    </g>
   </g>
   <g id="matplotlib.axis_4">
    <g id="ytick_9">
     <g id="line2d_27">
      <g>
       <use xlink:href="#mf65d269675" x="554.645" y="291.246806" style="stroke: #000000; stroke-width: 0.8"/>
      </g>
     </g>
     <g id="text_27">
      <text style="font: 10px 'DejaVu Sans', 'Bitstream Vera Sans', 'Computer Modern Sans Serif', 'Lucida Grande', 'Verdana', 'Geneva', 'Lucid', 'Arial', 'Helvetica', 'Avant Garde', sans-serif; text-anchor: end" x="547.645" y="295.046025" transform="rotate(-0 547.645 295.046025)">−7.5</text>
     </g>
    </g>
    <g id="ytick_10">
     <g id="line2d_28">
      <g>
       <use xlink:href="#mf65d269675" x="554.645" y="255.347272" style="stroke: #000000; stroke-width: 0.8"/>
      </g>
     </g>
     <g id="text_28">
      <text style="font: 10px 'DejaVu Sans', 'Bitstream Vera Sans', 'Computer Modern Sans Serif', 'Lucida Grande', 'Verdana', 'Geneva', 'Lucid', 'Arial', 'Helvetica', 'Avant Garde', sans-serif; text-anchor: end" x="547.645" y="259.14649" transform="rotate(-0 547.645 259.14649)">−5.0</text>
     </g>
    </g>
    <g id="ytick_11">
     <g id="line2d_29">
      <g>
       <use xlink:href="#mf65d269675" x="554.645" y="219.447737" style="stroke: #000000; stroke-width: 0.8"/>
      </g>
     </g>
     <g id="text_29">
      <text style="font: 10px 'DejaVu Sans', 'Bitstream Vera Sans', 'Computer Modern Sans Serif', 'Lucida Grande', 'Verdana', 'Geneva', 'Lucid', 'Arial', 'Helvetica', 'Avant Garde', sans-serif; text-anchor: end" x="547.645" y="223.246956" transform="rotate(-0 547.645 223.246956)">−2.5</text>
     </g>
    </g>
    <g id="ytick_12">
     <g id="line2d_30">
      <g>
       <use xlink:href="#mf65d269675" x="554.645" y="183.548203" style="stroke: #000000; stroke-width: 0.8"/>
      </g>
     </g>
     <g id="text_30">
      <text style="font: 10px 'DejaVu Sans', 'Bitstream Vera Sans', 'Computer Modern Sans Serif', 'Lucida Grande', 'Verdana', 'Geneva', 'Lucid', 'Arial', 'Helvetica', 'Avant Garde', sans-serif; text-anchor: end" x="547.645" y="187.347421" transform="rotate(-0 547.645 187.347421)">0.0</text>
     </g>
    </g>
    <g id="ytick_13">
     <g id="line2d_31">
      <g>
       <use xlink:href="#mf65d269675" x="554.645" y="147.648668" style="stroke: #000000; stroke-width: 0.8"/>
      </g>
     </g>
     <g id="text_31">
      <text style="font: 10px 'DejaVu Sans', 'Bitstream Vera Sans', 'Computer Modern Sans Serif', 'Lucida Grande', 'Verdana', 'Geneva', 'Lucid', 'Arial', 'Helvetica', 'Avant Garde', sans-serif; text-anchor: end" x="547.645" y="151.447887" transform="rotate(-0 547.645 151.447887)">2.5</text>
     </g>
    </g>
    <g id="ytick_14">
     <g id="line2d_32">
      <g>
       <use xlink:href="#mf65d269675" x="554.645" y="111.749134" style="stroke: #000000; stroke-width: 0.8"/>
      </g>
     </g>
     <g id="text_32">
      <text style="font: 10px 'DejaVu Sans', 'Bitstream Vera Sans', 'Computer Modern Sans Serif', 'Lucida Grande', 'Verdana', 'Geneva', 'Lucid', 'Arial', 'Helvetica', 'Avant Garde', sans-serif; text-anchor: end" x="547.645" y="115.548352" transform="rotate(-0 547.645 115.548352)">5.0</text>
     </g>
    </g>
    <g id="ytick_15">
     <g id="line2d_33">
      <g>
       <use xlink:href="#mf65d269675" x="554.645" y="75.849599" style="stroke: #000000; stroke-width: 0.8"/>
      </g>
     </g>
     <g id="text_33">
      <text style="font: 10px 'DejaVu Sans', 'Bitstream Vera Sans', 'Computer Modern Sans Serif', 'Lucida Grande', 'Verdana', 'Geneva', 'Lucid', 'Arial', 'Helvetica', 'Avant Garde', sans-serif; text-anchor: end" x="547.645" y="79.648818" transform="rotate(-0 547.645 79.648818)">7.5</text>
     </g>
    </g>
    <g id="text_34">
     <text style="font: 10px 'DejaVu Sans', 'Bitstream Vera Sans', 'Computer Modern Sans Serif', 'Lucida Grande', 'Verdana', 'Geneva', 'Lucid', 'Arial', 'Helvetica', 'Avant Garde', sans-serif; text-anchor: middle" x="517.2825" y="184.34" transform="rotate(-90 517.2825 184.34)">Deflection [deg]</text>
    </g>
   </g>
   <g id="line2d_34">
    <path d="M 778.271637 197.562909 
L 779.437373 196.629233 
L 781.96584 194.606485 
L 782.498218 193.730998 
L 783.552139 192.072661 
L 786.638531 187.777074 
L 788.308277 184.99191 
L 790.736846 181.024464 
L 796.003478 172.67396 
L 797.041183 171.626149 
L 798.0231 170.919576 
L 799.168452 170.38746 
L 800.455004 170.045813 
L 802.526853 169.493982 
L 805.350966 168.342847 
L 807.578442 167.590475 
L 809.02078 167.335848 
L 812.967571 166.852187 
L 814.66061 166.346386 
L 817.03961 165.360458 
L 820.337562 163.99557 
L 824.189414 162.636693 
L 826.516277 161.804905 
L 828.315985 161.423258 
L 832.633312 160.845556 
L 836.02893 160.253179 
L 846.956475 157.909957 
L 849.390661 157.058978 
L 851.628971 156.01414 
L 856.141209 153.91216 
L 860.122194 152.184881 
L 864.50895 149.784849 
L 868.223621 148.036394 
L 870.562487 147.291049 
L 873.963475 146.46172 
L 877.207327 145.977869 
L 885.264592 144.751474 
L 888.603638 144.219219 
L 893.883542 143.53185 
L 912.479226 140.215468 
L 919.014229 138.997157 
L 925.627101 137.308247 
L 930.623075 135.912463 
L 935.329458 134.389864 
L 938.608441 133.812955 
L 941.662268 133.163581 
L 951.886396 130.813441 
L 956.911041 130.083474 
L 962.708892 129.010074 
L 967.317261 127.810851 
L 973.193725 126.400851 
L 976.537671 125.671833 
L 976.760536 125.473235 
L 976.748609 125.454224 
L 976.720979 125.263012 
L 976.735061 125.253331 
L 976.795277 125.188706 
L 976.715735 125.135354 
L 976.61925 124.963787 
L 976.624971 124.955252 
L 976.671194 124.863059 
L 976.588258 124.823147 
L 976.583033 124.809257 
L 976.698801 124.769753 
L 976.847566 124.665439 
L 976.794558 124.627907 
L 976.656786 124.414786 
L 976.579411 124.366471 
L 976.741392 124.338071 
L 976.893163 124.311521 
L 976.489369 124.258113 
L 976.484105 124.248511 
L 976.633804 124.210232 
L 976.952503 124.063988 
L 976.879584 124.048528 
L 976.630866 123.978656 
L 976.65317 123.9145 
L 976.566192 123.813927 
L 976.736919 123.874455 
L 976.655697 123.796287 
L 976.869436 123.762064 
L 976.614913 123.71538 
L 976.618219 123.688806 
L 976.576284 123.685447 
L 976.879415 123.631641 
L 976.737548 123.582208 
L 976.600195 123.432334 
L 976.802163 123.552767 
L 976.647067 123.423566 
L 976.777902 123.326138 
L 976.621988 123.315561 
L 969.130415 123.315841 
L 914.879842 123.606356 
L 901.014545 124.269146 
L 897.118283 124.455574 
L 892.611401 124.643393 
L 879.044988 125.518861 
L 873.924703 125.903711 
L 863.234045 127.29728 
L 860.288599 127.766127 
L 857.395082 127.945557 
L 852.030572 128.279124 
L 843.341589 129.103717 
L 840.411576 129.565452 
L 835.10646 130.469717 
L 831.097021 131.016594 
L 828.418409 131.620654 
L 826.106233 132.391509 
L 820.768364 134.323398 
L 817.688276 135.905607 
L 813.777802 138.26892 
L 810.98618 139.530892 
L 809.149905 140.104323 
L 806.473506 140.68998 
L 801.347295 141.580012 
L 793.605907 142.803263 
L 789.372842 143.386137 
L 785.273177 144.235414 
L 783.781923 144.775287 
L 782.280641 145.571797 
L 781.021788 146.4791 
L 779.730321 147.704738 
L 778.47567 149.267842 
L 777.310876 150.99384 
L 775.189681 154.743637 
L 773.40064 158.602209 
L 771.992771 161.693366 
L 770.405851 164.551537 
L 767.480387 169.179528 
L 762.232322 176.816148 
L 759.354032 180.148785 
L 757.977243 181.445962 
L 756.185424 182.712622 
L 752.156845 185.182044 
L 744.786188 188.625051 
L 739.767185 191.636585 
L 735.618873 194.085321 
L 733.310681 195.674823 
L 731.026937 197.232643 
L 728.256044 198.876463 
L 726.649629 199.613002 
L 724.135802 200.48135 
L 722.17799 200.9164 
L 718.358009 201.597166 
L 716.80297 202.339108 
L 712.682514 204.612082 
L 710.851577 205.600157 
L 709.42226 206.043944 
L 706.461977 206.906146 
L 703.932736 207.944935 
L 702.373205 208.813355 
L 699.289823 210.6094 
L 696.214676 211.831187 
L 691.733064 213.497659 
L 688.712077 214.271687 
L 684.12754 215.351802 
L 678.512151 216.842908 
L 669.121089 218.76778 
L 665.940604 219.341973 
L 661.642287 220.465761 
L 658.943396 221.044091 
L 652.327596 222.324218 
L 650.630577 222.870873 
L 646.976215 224.386573 
L 643.265482 225.805854 
L 635.389572 228.496362 
L 629.261374 231.029129 
L 627.236218 231.577219 
L 621.882439 232.733571 
L 618.464306 233.514667 
L 609.892169 235.156017 
L 603.315254 236.541175 
L 597.86124 237.512941 
L 594.615699 238.519631 
L 591.684496 239.338959 
L 584.964357 240.855333 
L 576.105124 242.833213 
L 575.202182 243.34225 
L 575.051421 243.617464 
L 575.054867 244.325841 
L 575.066542 244.477419 
L 575.077598 244.484822 
L 575.255229 244.695006 
L 575.235217 244.717434 
L 575.196427 244.801104 
L 575.27256 244.830833 
L 575.305355 244.851575 
L 575.14541 244.906978 
L 575.002187 245.020938 
L 575.042534 245.055799 
L 575.299601 245.124408 
L 575.094634 245.195895 
L 574.897916 245.254381 
L 575.077212 245.311196 
L 575.2212 245.371167 
L 575.121291 245.434964 
L 575.063416 245.483809 
L 575.164451 245.536992 
L 575.251008 245.610476 
L 575.068607 245.564219 
L 575.114785 245.643466 
L 575.059845 245.66695 
L 575.314524 245.708334 
L 575.330033 245.716138 
L 575.159485 245.771387 
L 575.219833 245.800033 
L 575.047275 245.87674 
L 575.140691 245.921025 
L 575.201714 245.942447 
L 575.103248 245.975081 
L 575.113874 246.036882 
L 575.060209 246.056186 
L 575.222422 246.096345 
L 575.312676 246.109986 
L 575.076022 246.154907 
L 575.174624 246.202873 
L 575.182248 246.209078 
L 575.00296 246.249577 
L 574.951885 246.258236 
L 575.220267 246.340552 
L 575.384849 246.420757 
L 574.92003 246.433293 
L 574.843212 246.438658 
L 575.125451 246.486591 
L 575.117459 246.537275 
L 574.998907 246.594513 
L 574.866039 246.648359 
L 575.079156 246.685105 
L 575.179165 246.739862 
L 574.961619 246.784237 
L 574.936654 246.793048 
L 575.203612 246.83704 
L 575.179377 246.853406 
L 575.19605 246.880389 
L 575.067433 246.921181 
L 575.044268 246.939123 
L 575.267214 246.96343 
L 581.622971 246.959462 
L 607.430172 246.794856 
L 619.739846 246.453535 
L 627.889379 245.930114 
L 651.06528 244.28868 
L 657.907822 243.548237 
L 662.093218 243.228924 
L 669.925225 242.842597 
L 674.636127 242.272617 
L 681.511991 241.453247 
L 686.023356 240.71448 
L 693.207129 239.355837 
L 698.774258 238.05507 
L 706.683441 236.725007 
L 711.24904 235.539565 
L 714.811266 234.625515 
L 724.070958 232.402143 
L 727.262332 231.308881 
L 730.128975 230.101885 
L 736.573068 227.32432 
L 745.128449 224.416349 
L 748.394274 222.854445 
L 750.903516 221.405632 
L 752.76891 220.493906 
L 755.909624 219.065271 
L 758.200818 217.648373 
L 762.892 214.685898 
L 764.765347 213.806886 
L 768.706824 212.067607 
L 770.359365 210.947609 
L 771.907184 209.655124 
L 773.447361 208.109715 
L 773.664953 207.877644 
L 773.664953 207.877644 
" clip-path="url(#p3aa923cd5c)" style="fill: none; stroke: #440154; stroke-width: 1.5; stroke-linecap: square"/>
   </g>
   <g id="line2d_35">
    <path d="M 777.692765 243.823819 
L 779.218938 243.173593 
L 784.188038 241.256441 
L 785.166395 240.510857 
L 786.045543 239.555869 
L 786.97159 238.195967 
L 788.256717 235.888367 
L 791.008268 230.429904 
L 792.092992 227.76922 
L 792.744178 225.552009 
L 794.810217 217.69048 
L 796.157106 213.936367 
L 798.269506 208.148816 
L 799.983292 202.355977 
L 802.436129 193.098901 
L 803.906088 187.723193 
L 805.200545 183.930067 
L 806.395284 181.119196 
L 810.283831 172.381948 
L 812.379073 167.5525 
L 815.967803 160.517742 
L 818.128513 156.71679 
L 821.695532 150.576095 
L 822.537815 148.571211 
L 823.305955 146.127119 
L 824.173531 143.535276 
L 825.953906 139.058613 
L 827.625663 135.427056 
L 829.363138 132.27358 
L 831.698563 128.510449 
L 832.983459 126.233889 
L 833.612701 124.704921 
L 833.777472 123.775424 
L 833.920134 123.186661 
L 834.25043 122.942429 
L 835.081648 122.661073 
L 838.281036 121.934568 
L 841.036195 121.528997 
L 843.161073 121.137955 
L 844.480933 120.659877 
L 848.612005 118.958371 
L 851.332562 118.101199 
L 855.205035 117.048374 
L 858.787702 115.686023 
L 862.27654 114.361722 
L 863.911498 114.07354 
L 869.044623 113.375743 
L 871.531772 112.645103 
L 873.171707 111.957699 
L 874.858924 110.975836 
L 876.442229 110.11912 
L 877.963948 109.57746 
L 880.789329 108.607124 
L 883.077177 107.568435 
L 887.246565 105.311789 
L 891.604843 102.887373 
L 896.0754 101.641127 
L 897.874241 101.106441 
L 900.158331 100.711879 
L 902.573329 100.225502 
L 904.273954 99.641371 
L 909.275223 97.718408 
L 911.017008 97.062366 
L 912.223517 96.394165 
L 912.967645 95.748056 
L 913.49265 94.952501 
L 913.955531 94.434108 
L 914.693092 94.006777 
L 916.329374 93.361662 
L 918.730063 92.439994 
L 919.475322 91.811096 
L 921.01361 90.130186 
L 921.615447 89.49607 
L 922.82386 88.413387 
L 923.352325 87.798539 
L 924.042299 87.365223 
L 925.50803 86.753899 
L 927.424705 85.915561 
L 928.672284 85.464116 
L 930.435194 84.834786 
L 931.946141 84.307202 
L 932.982785 83.836321 
L 934.175901 83.213108 
L 936.478618 82.37989 
L 938.079026 81.806125 
L 940.113064 81.049958 
L 940.623911 80.513469 
L 941.265947 80.032614 
L 943.117158 78.789313 
L 943.375135 78.153444 
L 943.29162 77.559856 
L 943.198956 76.877104 
L 943.40554 75.832952 
L 943.669418 75.617365 
L 944.446745 75.323126 
L 946.513859 74.542896 
L 948.189089 73.744911 
L 948.59748 73.25466 
L 949.439515 72.22874 
L 950.015153 71.961564 
L 952.766608 71.04398 
L 956.066349 70.032141 
L 956.3644 69.670166 
L 956.753943 69.242052 
L 957.394655 68.655564 
L 957.715304 68.119259 
L 959.952999 66.739229 
L 960.200032 66.282885 
L 960.463889 65.778171 
L 960.684634 65.518078 
L 961.29549 65.155665 
L 964.115876 63.959121 
L 964.318615 63.612605 
L 964.196792 63.413828 
L 963.774581 63.217552 
L 962.831506 63.056293 
L 960.526295 62.94372 
L 952.615743 62.817835 
L 936.031596 62.808097 
L 903.824174 62.942403 
L 887.845957 63.143819 
L 873.187429 63.586725 
L 866.37367 63.939697 
L 860.858507 64.441288 
L 855.887405 65.294814 
L 853.122973 65.477709 
L 850.88244 65.740972 
L 849.787133 66.0537 
L 848.491089 66.546639 
L 843.402827 67.67166 
L 839.512014 68.33525 
L 838.437523 68.710147 
L 836.007766 69.624505 
L 834.275923 69.872965 
L 831.891162 70.340005 
L 828.47097 71.044387 
L 825.382229 71.410762 
L 821.87133 71.841169 
L 820.124643 72.389797 
L 816.871797 73.251093 
L 814.711632 73.855116 
L 813.510539 74.459581 
L 811.431344 75.577708 
L 809.384213 76.644926 
L 807.549712 78.027203 
L 805.903803 78.913128 
L 804.58928 79.251176 
L 801.621001 79.755822 
L 798.814678 80.265584 
L 797.531164 80.714207 
L 794.215898 82.324433 
L 792.007227 83.950373 
L 789.066076 85.980624 
L 788.073813 86.865424 
L 786.590176 88.370371 
L 784.467464 89.958354 
L 782.216443 91.785062 
L 780.516886 93.036811 
L 772.638152 98.487597 
L 770.944419 99.641688 
L 769.494844 100.84143 
L 768.229431 102.162469 
L 767.094571 103.727316 
L 766.158799 105.372682 
L 764.938525 108.00893 
L 763.814421 111.173872 
L 762.405274 115.591489 
L 760.440469 122.364321 
L 756.334579 138.079796 
L 754.870069 143.739892 
L 753.973765 148.121713 
L 752.624188 155.009247 
L 751.342581 160.02375 
L 748.505005 170.592907 
L 746.673218 178.857513 
L 745.698693 182.272963 
L 743.903142 188.350778 
L 742.934426 192.711557 
L 741.512763 199.240339 
L 740.329959 202.80179 
L 736.645615 213.092657 
L 735.532365 215.35231 
L 733.811294 218.330328 
L 730.36697 223.657889 
L 729.501585 224.584643 
L 728.750356 225.080881 
L 727.696009 225.45859 
L 724.872013 226.403633 
L 721.771253 227.740287 
L 719.949206 228.743357 
L 716.763758 230.519224 
L 714.019116 231.767626 
L 707.908729 234.161245 
L 706.133123 234.58696 
L 701.614391 235.495201 
L 700.51754 236.021271 
L 699.43738 236.786535 
L 691.552885 242.978804 
L 688.774538 245.132002 
L 685.966245 247.392792 
L 683.655249 249.199505 
L 681.812198 250.381798 
L 680.024361 251.192175 
L 677.604031 252.06168 
L 674.921497 253.051776 
L 673.313573 253.840999 
L 671.087602 255.308913 
L 668.259694 257.231976 
L 664.955572 259.813936 
L 663.216044 260.787329 
L 661.137518 261.538074 
L 659.022425 262.465789 
L 657.808424 263.194622 
L 655.603387 264.791867 
L 651.281632 266.718888 
L 648.113467 267.79338 
L 645.244763 268.786702 
L 643.896013 269.594275 
L 642.148222 270.574101 
L 640.708768 271.0276 
L 639.192551 271.59062 
L 638.533742 272.100936 
L 637.057998 273.657578 
L 635.020081 276.062822 
L 633.989143 276.585654 
L 631.672729 277.709029 
L 628.636752 280.582852 
L 626.616835 281.900847 
L 624.891719 282.755265 
L 623.512911 283.555073 
L 621.484851 284.52339 
L 620.885438 284.978739 
L 618.799873 287.090979 
L 616.434932 288.226961 
L 615.605994 288.912014 
L 614.557998 289.47088 
L 613.671956 289.990559 
L 612.83293 290.84944 
L 611.820494 292.282733 
L 611.885689 294.077772 
L 611.896896 294.568463 
L 611.56279 295.285752 
L 611.263021 295.555284 
L 609.668273 296.644827 
L 608.065817 297.759796 
L 607.408612 298.223749 
L 607.187402 298.6084 
L 606.972658 298.907769 
L 606.502768 299.159893 
L 602.162726 301.070037 
L 601.920468 301.338181 
L 601.523331 301.712304 
L 601.38611 302.248348 
L 600.142863 303.171687 
L 598.755034 303.936027 
L 598.294503 304.382191 
L 597.23705 305.067549 
L 597.276217 305.106704 
L 597.659487 305.228931 
L 598.829615 305.367719 
L 603.204591 305.524549 
L 607.592444 305.726177 
L 609.787097 305.85055 
L 619.75997 305.885409 
L 670.305677 305.744112 
L 690.555645 305.44888 
L 698.774673 305.116271 
L 701.973785 304.815497 
L 708.479114 303.997726 
L 713.153808 303.605875 
L 714.686081 303.276552 
L 715.941282 303.074016 
L 718.885007 302.729581 
L 722.385976 301.988349 
L 723.989568 301.558174 
L 727.579996 300.37222 
L 728.754788 300.204503 
L 731.548183 299.881174 
L 734.111991 299.148974 
L 736.107683 298.335395 
L 737.162281 297.668036 
L 738.567143 296.763082 
L 739.550288 296.475556 
L 741.649988 296.139477 
L 746.89167 295.255853 
L 747.84397 294.766456 
L 751.479808 292.718024 
L 752.858488 292.117848 
L 755.544427 291.272489 
L 757.163766 290.481459 
L 758.107409 289.800234 
L 760.804651 287.314621 
L 765.270402 283.04126 
L 767.248134 281.414409 
L 771.099846 277.507981 
L 772.845552 275.381111 
L 773.945145 274.46346 
L 774.689805 273.907332 
L 774.689805 273.907332 
" clip-path="url(#p3aa923cd5c)" style="fill: none; stroke: #31688e; stroke-width: 1.5; stroke-linecap: square"/>
   </g>
   <g id="line2d_36">
    <path d="M 777.490123 209.794059 
L 781.709546 207.243747 
L 782.540241 206.479133 
L 783.507334 205.229574 
L 785.590007 201.97794 
L 788.05832 197.827674 
L 789.15881 195.559084 
L 790.098396 193.100909 
L 793.453952 183.626031 
L 794.871689 180.788785 
L 799.017893 172.82432 
L 799.920319 170.844333 
L 800.610977 169.847351 
L 802.148713 168.081623 
L 804.06736 166.25347 
L 807.154909 163.284404 
L 808.922804 161.550028 
L 809.838562 160.959138 
L 810.780048 160.622916 
L 811.779871 160.502071 
L 817.298213 160.257369 
L 820.053311 159.815587 
L 822.52439 159.195191 
L 825.216577 158.297536 
L 827.632464 157.259638 
L 832.028057 155.286892 
L 833.547277 154.986581 
L 835.770896 154.511333 
L 838.366866 153.678468 
L 840.734243 152.692862 
L 843.094451 151.757001 
L 851.252893 148.818952 
L 853.905649 147.220552 
L 860.623788 143.382411 
L 862.756574 142.241217 
L 865.216726 140.911846 
L 869.515977 138.810057 
L 881.558124 134.250768 
L 883.633667 133.700118 
L 887.279739 132.9426 
L 890.632675 132.19915 
L 894.773419 131.067672 
L 898.046622 129.887374 
L 901.224054 128.558353 
L 907.333932 125.93808 
L 909.922705 125.07133 
L 912.982132 124.025611 
L 914.637034 123.198708 
L 920.904965 120.208875 
L 922.90906 119.404648 
L 924.705645 118.928145 
L 927.615969 118.397735 
L 930.455316 118.137967 
L 934.23172 117.699428 
L 938.268452 116.958285 
L 940.821505 116.627492 
L 944.369301 116.102685 
L 951.350643 114.980536 
L 954.422044 114.432806 
L 958.053864 113.590842 
L 960.872547 113.009279 
L 963.685447 112.372091 
L 965.667377 111.687618 
L 967.005426 110.996321 
L 970.272313 109.204864 
L 972.937205 107.911062 
L 976.271232 107.100828 
L 976.501149 106.849466 
L 976.741924 106.577754 
L 976.830493 106.442939 
L 976.790824 106.404715 
L 976.539538 106.251659 
L 976.716558 106.187462 
L 976.766679 106.147438 
L 976.66175 106.089917 
L 976.483899 106.026348 
L 976.612671 105.963851 
L 976.8558 105.812651 
L 976.825541 105.759194 
L 976.701334 105.38684 
L 976.686558 105.037925 
L 976.786972 104.975887 
L 976.823638 104.934047 
L 976.722476 104.886152 
L 976.667909 104.857641 
L 976.843799 104.807794 
L 976.865878 104.797408 
L 976.727936 104.722414 
L 976.648022 104.617664 
L 976.736079 104.593251 
L 976.806013 104.568896 
L 976.620909 104.507108 
L 976.612186 104.488561 
L 976.70235 104.428864 
L 976.658497 104.367895 
L 976.920715 104.258364 
L 976.9078 104.238952 
L 976.818627 104.215189 
L 976.667403 104.142504 
L 976.774666 104.094675 
L 976.783429 104.087674 
L 976.620815 104.048849 
L 976.621116 104.038466 
L 976.763492 104.015914 
L 976.932488 103.949291 
L 976.735115 103.980541 
L 976.794026 103.902181 
L 976.546669 103.850851 
L 976.65578 103.775465 
L 976.62205 103.765876 
L 976.772117 103.744182 
L 976.823982 103.729351 
L 976.453558 103.664228 
L 971.870857 103.637736 
L 936.396017 103.758318 
L 922.336429 104.068477 
L 909.106668 104.554433 
L 886.924244 106.194696 
L 876.71614 107.289722 
L 874.83431 107.696957 
L 871.164195 108.634369 
L 866.668194 109.495616 
L 862.743122 110.250328 
L 860.831751 110.923965 
L 855.568052 112.869062 
L 852.991493 113.485721 
L 850.070408 113.915626 
L 835.158247 115.823163 
L 832.751098 116.332559 
L 829.265441 117.087603 
L 826.67029 117.654329 
L 824.063553 118.568821 
L 817.0572 121.20066 
L 815.052361 121.94039 
L 814.130542 122.559296 
L 810.168584 125.626872 
L 808.229098 127.207813 
L 806.205605 128.938263 
L 804.809842 129.6706 
L 801.776965 130.936684 
L 800.336285 131.349315 
L 798.1193 131.629297 
L 796.376938 131.95588 
L 795.01958 132.455254 
L 793.649033 133.219461 
L 792.183655 134.266072 
L 790.696 135.659128 
L 789.461058 137.166971 
L 787.200696 139.818089 
L 784.317928 143.101364 
L 783.177048 144.812199 
L 781.463739 147.40441 
L 779.688719 149.527292 
L 778.117171 151.574889 
L 776.898456 153.508807 
L 775.660517 156.050062 
L 773.371609 161.084462 
L 771.9599 163.200691 
L 769.047866 167.437637 
L 767.405321 170.597327 
L 766.449961 172.21356 
L 764.650806 174.670809 
L 760.081897 180.365826 
L 756.129378 184.419716 
L 749.727925 191.212245 
L 747.908096 193.605904 
L 745.230961 197.314083 
L 739.834388 204.636902 
L 737.749545 207.21604 
L 736.068496 209.460995 
L 734.852885 210.907326 
L 733.20604 212.457972 
L 729.087184 215.88855 
L 728.010685 216.489758 
L 726.547513 216.988092 
L 724.369659 217.761898 
L 720.121339 219.291848 
L 718.687582 219.593515 
L 716.645629 219.713881 
L 713.923467 219.964065 
L 711.649704 220.391787 
L 707.633388 221.443943 
L 705.263141 222.237133 
L 699.777603 224.132978 
L 694.031383 225.606602 
L 685.275974 229.28447 
L 677.355239 232.841887 
L 674.967766 233.6242 
L 672.490124 234.233195 
L 661.692132 236.274135 
L 650.320984 239.42618 
L 647.690246 240.530942 
L 641.289494 243.355407 
L 639.032518 243.980077 
L 635.757803 244.891451 
L 633.342543 245.834196 
L 629.29374 247.456297 
L 621.097479 249.913475 
L 614.091107 251.301042 
L 609.946696 251.981898 
L 593.736811 254.514704 
L 589.287964 255.529847 
L 584.384869 256.697574 
L 580.174869 257.692671 
L 575.814035 258.83866 
L 575.601875 259.093554 
L 575.297409 259.80942 
L 574.993248 260.33528 
L 575.113462 260.656406 
L 575.212434 260.79855 
L 575.114802 260.830397 
L 574.962802 260.886948 
L 575.030412 260.959185 
L 575.182342 261.249181 
L 575.23925 261.424442 
L 575.267245 261.629913 
L 575.259726 261.635373 
L 575.028305 261.797911 
L 575.192588 261.817063 
L 575.221965 261.89854 
L 575.095893 261.845617 
L 575.110357 261.916729 
L 574.975387 261.931402 
L 575.182388 261.96927 
L 575.069168 262.030894 
L 575.008443 262.06124 
L 575.203531 262.09257 
L 575.298468 262.109569 
L 574.985409 262.148518 
L 575.126099 262.196028 
L 575.110745 262.37138 
L 575.126565 262.442075 
L 575.186865 262.46351 
L 575.289372 262.519784 
L 575.169276 262.574305 
L 574.798135 262.778552 
L 575.01194 262.825385 
L 575.19057 262.871347 
L 575.104477 262.94958 
L 575.045283 263.033467 
L 575.167231 263.055025 
L 575.214762 263.075439 
L 575.102917 263.122507 
L 575.136855 263.162576 
L 575.016201 263.188422 
L 575.17928 263.201433 
L 575.203625 263.251787 
L 575.322145 263.390904 
L 575.254916 263.41034 
L 575.028688 263.510519 
L 575.195208 263.535701 
L 575.246985 263.582304 
L 575.013961 263.618646 
L 574.977595 263.644308 
L 575.475969 263.673872 
L 580.070895 263.69471 
L 609.923352 263.498652 
L 622.794916 263.193202 
L 632.146703 262.736392 
L 638.061771 262.195604 
L 641.065898 261.687664 
L 644.839688 261.129987 
L 649.685909 260.426387 
L 654.675857 259.226501 
L 661.71289 257.693191 
L 666.543304 257.152633 
L 673.03892 256.490136 
L 675.93124 255.954981 
L 688.083267 253.404194 
L 698.820157 251.607628 
L 709.217459 249.817671 
L 718.509824 247.78397 
L 720.3736 247.100545 
L 722.730682 245.961149 
L 724.31797 244.986858 
L 725.97006 243.712716 
L 729.214613 241.296696 
L 737.217645 235.486376 
L 739.545114 234.310904 
L 742.932061 232.867894 
L 745.931675 231.850816 
L 748.094996 231.301239 
L 750.433089 230.960511 
L 752.977418 230.543859 
L 754.559217 230.0325 
L 756.254298 229.229113 
L 758.724934 227.84036 
L 761.131443 226.243718 
L 763.161718 224.690433 
L 765.801282 222.253937 
L 768.270797 219.918741 
L 769.988933 218.120015 
L 771.806684 216.279959 
L 773.198689 215.147806 
L 774.543983 214.209418 
L 774.543983 214.209418 
" clip-path="url(#p3aa923cd5c)" style="fill: none; stroke: #35b779; stroke-width: 1.5; stroke-linecap: square"/>
   </g>
   <g id="line2d_37">
    <path d="M 776.698544 200.657011 
L 777.981759 198.791828 
L 779.178008 196.719361 
L 780.168123 194.510015 
L 781.462929 191.047056 
L 784.424444 181.869188 
L 785.710496 178.21172 
L 788.195941 172.112486 
L 789.730533 168.850045 
L 794.792762 158.940926 
L 795.18655 158.865938 
L 798.867474 158.775827 
L 804.379519 157.832002 
L 814.960283 156.781876 
L 817.438011 156.297144 
L 821.891126 155.060929 
L 825.036425 154.052118 
L 829.444103 152.628753 
L 836.279635 151.009102 
L 841.508809 149.351756 
L 843.432586 149.162584 
L 848.96977 148.659955 
L 851.71555 148.17297 
L 853.595737 147.628844 
L 856.236133 146.600322 
L 860.284412 145.00938 
L 864.94207 143.680684 
L 871.78941 141.88194 
L 874.418161 141.234347 
L 879.194588 140.25234 
L 881.076641 139.527088 
L 883.883677 138.449139 
L 886.002964 137.912021 
L 888.162713 137.613655 
L 891.897814 137.123004 
L 896.723878 136.357168 
L 899.114784 135.875907 
L 906.122019 134.226831 
L 914.344991 133.112105 
L 921.038153 132.029502 
L 924.149952 131.493255 
L 926.239576 130.888659 
L 932.479611 128.890098 
L 934.788936 128.410976 
L 945.726614 126.273872 
L 948.07593 125.323116 
L 951.655212 123.657282 
L 954.085528 122.635985 
L 956.120773 122.000734 
L 958.747028 121.434711 
L 963.689176 120.418121 
L 966.787557 119.494207 
L 969.78122 118.656654 
L 972.066301 118.281119 
L 976.666088 117.570836 
L 976.890982 117.391038 
L 976.885189 117.378901 
L 976.840856 117.20267 
L 976.890048 117.177939 
L 977.051971 117.081924 
L 976.939568 117.035374 
L 976.683353 116.93962 
L 976.790169 116.88447 
L 976.845537 116.832248 
L 976.803274 116.755163 
L 976.702569 116.69924 
L 976.636644 116.677114 
L 976.927638 116.636616 
L 976.996578 116.62306 
L 976.775354 116.588307 
L 976.773142 116.543411 
L 976.633001 116.473392 
L 977.007045 116.530232 
L 976.940164 116.452138 
L 976.968628 116.451532 
L 976.704829 116.43254 
L 976.762559 116.342798 
L 976.988085 116.161731 
L 976.909707 116.155652 
L 976.583485 116.133851 
L 976.833344 116.04016 
L 976.774511 115.976993 
L 976.929627 115.969623 
L 977.083864 115.962852 
L 976.746741 115.892495 
L 976.951398 115.857661 
L 976.649402 115.802973 
L 976.72566 115.736973 
L 976.930294 115.659328 
L 976.716112 115.618827 
L 976.911558 115.613474 
L 972.429135 115.466475 
L 958.77387 115.47981 
L 936.969822 115.646304 
L 912.861278 116.062538 
L 893.024929 116.71436 
L 885.999375 117.190871 
L 867.170805 119.272267 
L 864.087124 119.995754 
L 861.178322 120.627577 
L 857.768401 121.067311 
L 850.943694 121.908973 
L 847.272937 122.786322 
L 843.701475 123.513576 
L 840.415554 124.155814 
L 834.447729 125.774386 
L 832.34895 126.538272 
L 829.903926 127.684977 
L 827.074032 129.036145 
L 825.214512 129.563733 
L 823.813696 130.060196 
L 819.621102 131.809474 
L 817.088743 132.542345 
L 815.730856 132.722279 
L 812.386667 133.120124 
L 808.960371 133.901635 
L 804.499519 134.792276 
L 801.757255 135.427893 
L 799.160685 136.257359 
L 797.959263 136.853553 
L 796.726102 137.750205 
L 793.395137 140.245397 
L 790.309172 142.693113 
L 789.09094 143.555542 
L 787.784052 144.19362 
L 785.987391 144.723312 
L 782.081968 145.587306 
L 776.620696 146.648758 
L 775.260021 147.184826 
L 773.11869 148.335235 
L 770.489344 149.908767 
L 768.209462 151.524107 
L 764.258196 154.571809 
L 762.88083 156.063812 
L 761.446237 157.931035 
L 759.904833 160.228598 
L 757.723129 164.211064 
L 756.226201 167.37116 
L 755.209353 170.154733 
L 753.721053 174.155544 
L 752.291102 177.249308 
L 750.252362 181.715803 
L 748.891282 185.303862 
L 747.326505 189.319124 
L 744.322404 196.587037 
L 743.198984 199.338946 
L 742.194953 201.272745 
L 740.87128 203.256509 
L 738.252214 206.835298 
L 737.341402 207.676777 
L 736.395941 208.251906 
L 735.463367 208.571976 
L 734.09068 208.75189 
L 730.838117 209.201591 
L 726.918192 209.979897 
L 724.118963 210.777987 
L 720.467779 211.772601 
L 717.30469 212.683378 
L 712.785826 214.040925 
L 710.33887 214.5804 
L 703.117964 215.976089 
L 700.69985 216.771257 
L 699.466558 217.38078 
L 695.206939 220.063742 
L 691.785411 222.120259 
L 687.739834 224.040993 
L 685.298657 224.761354 
L 682.388823 225.399421 
L 678.473947 226.001595 
L 666.704689 227.672731 
L 663.11148 228.731555 
L 661.110414 229.530624 
L 657.654132 230.981979 
L 650.759209 232.729033 
L 647.296861 233.483422 
L 644.729111 234.357315 
L 642.05505 235.085542 
L 639.397729 235.635433 
L 633.985129 236.612609 
L 630.385941 237.712392 
L 628.73174 238.44534 
L 627.012221 239.133809 
L 624.889699 239.726524 
L 602.925166 244.78619 
L 600.465298 245.701184 
L 596.345964 247.50854 
L 590.504408 249.949165 
L 587.648264 250.686868 
L 585.870305 251.309325 
L 585.100731 251.776998 
L 584.533912 252.137432 
L 579.489432 253.014977 
L 576.74726 253.433201 
L 576.214601 253.792816 
L 575.877209 253.962482 
L 574.821168 254.520094 
L 574.966027 254.593532 
L 575.120709 254.656921 
L 574.971891 254.709365 
L 574.949269 254.795608 
L 575.083467 254.761551 
L 574.983928 254.819973 
L 575.031395 254.854127 
L 574.839936 254.883476 
L 574.761157 254.910879 
L 574.973856 254.97904 
L 575.059877 255.030586 
L 574.962211 255.091009 
L 574.924103 255.121202 
L 575.088976 255.154688 
L 575.215383 255.228914 
L 574.999551 255.254437 
L 574.896915 255.278295 
L 575.113448 255.3218 
L 574.978496 255.368841 
L 575.105523 255.503135 
L 575.220848 255.514516 
L 574.930538 255.575877 
L 575.005872 255.604893 
L 574.931688 255.710271 
L 575.116244 255.64813 
L 575.007092 255.732571 
L 575.077302 255.778997 
L 574.920223 255.828925 
L 575.029752 255.850844 
L 574.781426 255.875769 
L 576.41222 256.00388 
L 585.908522 256.25446 
L 588.160334 256.281728 
L 603.547607 256.100656 
L 617.535043 255.65148 
L 626.983355 255.154071 
L 638.629841 254.136602 
L 645.445778 253.321499 
L 652.723193 252.33413 
L 658.44212 251.938577 
L 666.206838 251.292801 
L 669.141928 250.782619 
L 672.888005 250.139706 
L 682.002408 248.970382 
L 686.704025 248.055834 
L 694.92066 247.034888 
L 699.396895 246.522119 
L 701.222065 246.047236 
L 702.955087 245.373342 
L 704.666082 244.508613 
L 707.649967 242.64844 
L 710.31301 241.124457 
L 712.024689 240.461155 
L 713.838635 239.998232 
L 715.786986 239.756297 
L 719.051137 239.348348 
L 721.000468 238.873273 
L 722.716118 238.215567 
L 726.796341 236.317023 
L 733.516289 232.901179 
L 737.636844 231.370317 
L 739.453207 230.890776 
L 746.463384 229.312091 
L 748.343021 228.602973 
L 750.638034 227.46358 
L 756.82334 224.11021 
L 759.22916 222.660329 
L 762.476145 220.673829 
L 766.676863 218.372088 
L 769.507523 216.455074 
L 773.646593 213.507559 
L 773.646593 213.507559 
" clip-path="url(#p3aa923cd5c)" style="fill: none; stroke: #fde725; stroke-width: 1.5; stroke-linecap: square"/>
   </g>
   <g id="patch_8">
    <path d="M 554.645 318.04 
L 554.645 50.64 
" style="fill: none; stroke: #000000; stroke-width: 0.8; stroke-linejoin: miter; stroke-linecap: square"/>
   </g>
   <g id="patch_9">
    <path d="M 997.2 318.04 
L 997.2 50.64 
" style="fill: none; stroke: #000000; stroke-width: 0.8; stroke-linejoin: miter; stroke-linecap: square"/>
   </g>
   <g id="patch_10">
    <path d="M 554.645 318.04 
L 997.2 318.04 
" style="fill: none; stroke: #000000; stroke-width: 0.8; stroke-linejoin: miter; stroke-linecap: square"/>
   </g>
   <g id="patch_11">
    <path d="M 554.645 50.64 
L 997.2 50.64 
" style="fill: none; stroke: #000000; stroke-width: 0.8; stroke-linejoin: miter; stroke-linecap: square"/>
   </g>
   <g id="text_35">
    <text style="font: 12px 'DejaVu Sans', 'Bitstream Vera Sans', 'Computer Modern Sans Serif', 'Lucida Grande', 'Verdana', 'Geneva', 'Lucid', 'Arial', 'Helvetica', 'Avant Garde', sans-serif; text-anchor: middle" x="775.9225" y="44.64" transform="rotate(-0 775.9225 44.64)">Stiffness tests</text>
   </g>
   <g id="legend_1">
    <g id="patch_12">
     <path d="M 560.245 104.01 
L 693.16 104.01 
Q 694.76 104.01 694.76 102.41 
L 694.76 56.24 
Q 694.76 54.64 693.16 54.64 
L 560.245 54.64 
Q 558.645 54.64 558.645 56.24 
L 558.645 102.41 
Q 558.645 104.01 560.245 104.01 
z
" style="fill: #ffffff; opacity: 0.8; stroke: #cccccc; stroke-linejoin: miter"/>
    </g>
    <g id="line2d_38">
     <path d="M 561.845 61.11875 
L 569.845 61.11875 
L 577.845 61.11875 
" style="fill: none; stroke: #440154; stroke-width: 1.5; stroke-linecap: square"/>
    </g>
    <g id="text_36">
     <text style="font: 8px 'DejaVu Sans', 'Bitstream Vera Sans', 'Computer Modern Sans Serif', 'Lucida Grande', 'Verdana', 'Geneva', 'Lucid', 'Arial', 'Helvetica', 'Avant Garde', sans-serif; text-anchor: start" x="584.245" y="63.91875" transform="rotate(-0 584.245 63.91875)">initial - unreamed</text>
    </g>
    <g id="line2d_39">
     <path d="M 561.845 72.86125 
L 569.845 72.86125 
L 577.845 72.86125 
" style="fill: none; stroke: #31688e; stroke-width: 1.5; stroke-linecap: square"/>
    </g>
    <g id="text_37">
     <text style="font: 8px 'DejaVu Sans', 'Bitstream Vera Sans', 'Computer Modern Sans Serif', 'Lucida Grande', 'Verdana', 'Geneva', 'Lucid', 'Arial', 'Helvetica', 'Avant Garde', sans-serif; text-anchor: start" x="584.245" y="75.66125" transform="rotate(-0 584.245 75.66125)">after run-in warm</text>
    </g>
    <g id="line2d_40">
     <path d="M 561.845 84.60375 
L 569.845 84.60375 
L 577.845 84.60375 
" style="fill: none; stroke: #35b779; stroke-width: 1.5; stroke-linecap: square"/>
    </g>
    <g id="text_38">
     <text style="font: 8px 'DejaVu Sans', 'Bitstream Vera Sans', 'Computer Modern Sans Serif', 'Lucida Grande', 'Verdana', 'Geneva', 'Lucid', 'Arial', 'Helvetica', 'Avant Garde', sans-serif; text-anchor: start" x="584.245" y="87.40375" transform="rotate(-0 584.245 87.40375)">after run-in cold</text>
    </g>
    <g id="line2d_41">
     <path d="M 561.845 96.34625 
L 569.845 96.34625 
L 577.845 96.34625 
" style="fill: none; stroke: #fde725; stroke-width: 1.5; stroke-linecap: square"/>
    </g>
    <g id="text_39">
     <text style="font: 8px 'DejaVu Sans', 'Bitstream Vera Sans', 'Computer Modern Sans Serif', 'Lucida Grande', 'Verdana', 'Geneva', 'Lucid', 'Arial', 'Helvetica', 'Avant Garde', sans-serif; text-anchor: start" x="584.245" y="99.14625" transform="rotate(-0 584.245 99.14625)">after reaming output holes</text>
    </g>
   </g>
  </g>
  <g id="text_40">
   <text style="font: 12px 'DejaVu Sans', 'Bitstream Vera Sans', 'Computer Modern Sans Serif', 'Lucida Grande', 'Verdana', 'Geneva', 'Lucid', 'Arial', 'Helvetica', 'Avant Garde', sans-serif; text-anchor: middle" x="504" y="16.318125" transform="rotate(-0 504 16.318125)">Baseline (Alloy 910)</text>
  </g>
 </g>
 <defs>
  <clipPath id="p6544e2bb22">
   <rect x="56.09" y="50.64" width="442.555" height="267.4"/>
  </clipPath>
  <clipPath id="p3aa923cd5c">
   <rect x="554.645" y="50.64" width="442.555" height="267.4"/>
  </clipPath>
 </defs>
</svg>
