<?xml version="1.0" encoding="utf-8" standalone="no"?>
<!DOCTYPE svg PUBLIC "-//W3C//DTD SVG 1.1//EN"
  "http://www.w3.org/Graphics/SVG/1.1/DTD/svg11.dtd">
<svg xmlns:xlink="http://www.w3.org/1999/xlink" width="936pt" height="432pt" viewBox="0 0 936 432" xmlns="http://www.w3.org/2000/svg" version="1.1">
 <metadata>
  <rdf:RDF xmlns:dc="http://purl.org/dc/elements/1.1/" xmlns:cc="http://creativecommons.org/ns#" xmlns:rdf="http://www.w3.org/1999/02/22-rdf-syntax-ns#">
   <cc:Work>
    <dc:type rdf:resource="http://purl.org/dc/dcmitype/StillImage"/>
    <dc:date>2024-07-22T20:59:43.410193</dc:date>
    <dc:format>image/svg+xml</dc:format>
    <dc:creator>
     <cc:Agent>
      <dc:title>Matplotlib v3.9.0, https://matplotlib.org/</dc:title>
     </cc:Agent>
    </dc:creator>
   </cc:Work>
  </rdf:RDF>
 </metadata>
 <defs>
  <style type="text/css">*{stroke-linejoin: round; stroke-linecap: butt}</style>
 </defs>
 <g id="figure_1">
  <g id="patch_1">
   <path d="M 0 432 
L 936 432 
L 936 0 
L 0 0 
z
" style="fill: #ffffff"/>
  </g>
  <g id="axes_1">
   <g id="patch_2">
    <path d="M 56.09 390.04 
L 467.37 390.04 
L 467.37 26.88 
L 56.09 26.88 
z
" style="fill: #ffffff"/>
   </g>
   <g id="matplotlib.axis_1">
    <g id="xtick_1">
     <g id="line2d_1">
      <defs>
       <path id="m79fbc962e0" d="M 0 0 
L 0 3.5 
" style="stroke: #000000; stroke-width: 0.8"/>
      </defs>
      <g>
       <use xlink:href="#m79fbc962e0" x="73.062544" y="390.04" style="stroke: #000000; stroke-width: 0.8"/>
      </g>
     </g>
     <g id="text_1">
      <text style="font: 10px 'DejaVu Sans', 'Bitstream Vera Sans', 'Computer Modern Sans Serif', 'Lucida Grande', 'Verdana', 'Geneva', 'Lucid', 'Arial', 'Helvetica', 'Avant Garde', sans-serif; text-anchor: middle" x="73.062544" y="404.638438" transform="rotate(-0 73.062544 404.638438)">−4</text>
     </g>
    </g>
    <g id="xtick_2">
     <g id="line2d_2">
      <g>
       <use xlink:href="#m79fbc962e0" x="120.179137" y="390.04" style="stroke: #000000; stroke-width: 0.8"/>
      </g>
     </g>
     <g id="text_2">
      <text style="font: 10px 'DejaVu Sans', 'Bitstream Vera Sans', 'Computer Modern Sans Serif', 'Lucida Grande', 'Verdana', 'Geneva', 'Lucid', 'Arial', 'Helvetica', 'Avant Garde', sans-serif; text-anchor: middle" x="120.179137" y="404.638438" transform="rotate(-0 120.179137 404.638438)">−3</text>
     </g>
    </g>
    <g id="xtick_3">
     <g id="line2d_3">
      <g>
       <use xlink:href="#m79fbc962e0" x="167.295731" y="390.04" style="stroke: #000000; stroke-width: 0.8"/>
      </g>
     </g>
     <g id="text_3">
      <text style="font: 10px 'DejaVu Sans', 'Bitstream Vera Sans', 'Computer Modern Sans Serif', 'Lucida Grande', 'Verdana', 'Geneva', 'Lucid', 'Arial', 'Helvetica', 'Avant Garde', sans-serif; text-anchor: middle" x="167.295731" y="404.638438" transform="rotate(-0 167.295731 404.638438)">−2</text>
     </g>
    </g>
    <g id="xtick_4">
     <g id="line2d_4">
      <g>
       <use xlink:href="#m79fbc962e0" x="214.412324" y="390.04" style="stroke: #000000; stroke-width: 0.8"/>
      </g>
     </g>
     <g id="text_4">
      <text style="font: 10px 'DejaVu Sans', 'Bitstream Vera Sans', 'Computer Modern Sans Serif', 'Lucida Grande', 'Verdana', 'Geneva', 'Lucid', 'Arial', 'Helvetica', 'Avant Garde', sans-serif; text-anchor: middle" x="214.412324" y="404.638438" transform="rotate(-0 214.412324 404.638438)">−1</text>
     </g>
    </g>
    <g id="xtick_5">
     <g id="line2d_5">
      <g>
       <use xlink:href="#m79fbc962e0" x="261.528918" y="390.04" style="stroke: #000000; stroke-width: 0.8"/>
      </g>
     </g>
     <g id="text_5">
      <text style="font: 10px 'DejaVu Sans', 'Bitstream Vera Sans', 'Computer Modern Sans Serif', 'Lucida Grande', 'Verdana', 'Geneva', 'Lucid', 'Arial', 'Helvetica', 'Avant Garde', sans-serif; text-anchor: middle" x="261.528918" y="404.638438" transform="rotate(-0 261.528918 404.638438)">0</text>
     </g>
    </g>
    <g id="xtick_6">
     <g id="line2d_6">
      <g>
       <use xlink:href="#m79fbc962e0" x="308.645512" y="390.04" style="stroke: #000000; stroke-width: 0.8"/>
      </g>
     </g>
     <g id="text_6">
      <text style="font: 10px 'DejaVu Sans', 'Bitstream Vera Sans', 'Computer Modern Sans Serif', 'Lucida Grande', 'Verdana', 'Geneva', 'Lucid', 'Arial', 'Helvetica', 'Avant Garde', sans-serif; text-anchor: middle" x="308.645512" y="404.638438" transform="rotate(-0 308.645512 404.638438)">1</text>
     </g>
    </g>
    <g id="xtick_7">
     <g id="line2d_7">
      <g>
       <use xlink:href="#m79fbc962e0" x="355.762105" y="390.04" style="stroke: #000000; stroke-width: 0.8"/>
      </g>
     </g>
     <g id="text_7">
      <text style="font: 10px 'DejaVu Sans', 'Bitstream Vera Sans', 'Computer Modern Sans Serif', 'Lucida Grande', 'Verdana', 'Geneva', 'Lucid', 'Arial', 'Helvetica', 'Avant Garde', sans-serif; text-anchor: middle" x="355.762105" y="404.638438" transform="rotate(-0 355.762105 404.638438)">2</text>
     </g>
    </g>
    <g id="xtick_8">
     <g id="line2d_8">
      <g>
       <use xlink:href="#m79fbc962e0" x="402.878699" y="390.04" style="stroke: #000000; stroke-width: 0.8"/>
      </g>
     </g>
     <g id="text_8">
      <text style="font: 10px 'DejaVu Sans', 'Bitstream Vera Sans', 'Computer Modern Sans Serif', 'Lucida Grande', 'Verdana', 'Geneva', 'Lucid', 'Arial', 'Helvetica', 'Avant Garde', sans-serif; text-anchor: middle" x="402.878699" y="404.638438" transform="rotate(-0 402.878699 404.638438)">3</text>
     </g>
    </g>
    <g id="xtick_9">
     <g id="line2d_9">
      <g>
       <use xlink:href="#m79fbc962e0" x="449.995293" y="390.04" style="stroke: #000000; stroke-width: 0.8"/>
      </g>
     </g>
     <g id="text_9">
      <text style="font: 10px 'DejaVu Sans', 'Bitstream Vera Sans', 'Computer Modern Sans Serif', 'Lucida Grande', 'Verdana', 'Geneva', 'Lucid', 'Arial', 'Helvetica', 'Avant Garde', sans-serif; text-anchor: middle" x="449.995293" y="404.638438" transform="rotate(-0 449.995293 404.638438)">4</text>
     </g>
    </g>
    <g id="text_10">
     <text style="font: 10px 'DejaVu Sans', 'Bitstream Vera Sans', 'Computer Modern Sans Serif', 'Lucida Grande', 'Verdana', 'Geneva', 'Lucid', 'Arial', 'Helvetica', 'Avant Garde', sans-serif; text-anchor: middle" x="261.73" y="418.316562" transform="rotate(-0 261.73 418.316562)">Motor Torque [Nm]</text>
    </g>
   </g>
   <g id="matplotlib.axis_2">
    <g id="ytick_1">
     <g id="line2d_10">
      <defs>
       <path id="m1d0d185792" d="M 0 0 
L -3.5 0 
" style="stroke: #000000; stroke-width: 0.8"/>
      </defs>
      <g>
       <use xlink:href="#m1d0d185792" x="56.09" y="358.9137" style="stroke: #000000; stroke-width: 0.8"/>
      </g>
     </g>
     <g id="text_11">
      <text style="font: 10px 'DejaVu Sans', 'Bitstream Vera Sans', 'Computer Modern Sans Serif', 'Lucida Grande', 'Verdana', 'Geneva', 'Lucid', 'Arial', 'Helvetica', 'Avant Garde', sans-serif; text-anchor: end" x="49.09" y="362.712919" transform="rotate(-0 49.09 362.712919)">−0.6</text>
     </g>
    </g>
    <g id="ytick_2">
     <g id="line2d_11">
      <g>
       <use xlink:href="#m1d0d185792" x="56.09" y="318.461329" style="stroke: #000000; stroke-width: 0.8"/>
      </g>
     </g>
     <g id="text_12">
      <text style="font: 10px 'DejaVu Sans', 'Bitstream Vera Sans', 'Computer Modern Sans Serif', 'Lucida Grande', 'Verdana', 'Geneva', 'Lucid', 'Arial', 'Helvetica', 'Avant Garde', sans-serif; text-anchor: end" x="49.09" y="322.260548" transform="rotate(-0 49.09 322.260548)">−0.4</text>
     </g>
    </g>
    <g id="ytick_3">
     <g id="line2d_12">
      <g>
       <use xlink:href="#m1d0d185792" x="56.09" y="278.008958" style="stroke: #000000; stroke-width: 0.8"/>
      </g>
     </g>
     <g id="text_13">
      <text style="font: 10px 'DejaVu Sans', 'Bitstream Vera Sans', 'Computer Modern Sans Serif', 'Lucida Grande', 'Verdana', 'Geneva', 'Lucid', 'Arial', 'Helvetica', 'Avant Garde', sans-serif; text-anchor: end" x="49.09" y="281.808177" transform="rotate(-0 49.09 281.808177)">−0.2</text>
     </g>
    </g>
    <g id="ytick_4">
     <g id="line2d_13">
      <g>
       <use xlink:href="#m1d0d185792" x="56.09" y="237.556588" style="stroke: #000000; stroke-width: 0.8"/>
      </g>
     </g>
     <g id="text_14">
      <text style="font: 10px 'DejaVu Sans', 'Bitstream Vera Sans', 'Computer Modern Sans Serif', 'Lucida Grande', 'Verdana', 'Geneva', 'Lucid', 'Arial', 'Helvetica', 'Avant Garde', sans-serif; text-anchor: end" x="49.09" y="241.355806" transform="rotate(-0 49.09 241.355806)">0.0</text>
     </g>
    </g>
    <g id="ytick_5">
     <g id="line2d_14">
      <g>
       <use xlink:href="#m1d0d185792" x="56.09" y="197.104217" style="stroke: #000000; stroke-width: 0.8"/>
      </g>
     </g>
     <g id="text_15">
      <text style="font: 10px 'DejaVu Sans', 'Bitstream Vera Sans', 'Computer Modern Sans Serif', 'Lucida Grande', 'Verdana', 'Geneva', 'Lucid', 'Arial', 'Helvetica', 'Avant Garde', sans-serif; text-anchor: end" x="49.09" y="200.903435" transform="rotate(-0 49.09 200.903435)">0.2</text>
     </g>
    </g>
    <g id="ytick_6">
     <g id="line2d_15">
      <g>
       <use xlink:href="#m1d0d185792" x="56.09" y="156.651846" style="stroke: #000000; stroke-width: 0.8"/>
      </g>
     </g>
     <g id="text_16">
      <text style="font: 10px 'DejaVu Sans', 'Bitstream Vera Sans', 'Computer Modern Sans Serif', 'Lucida Grande', 'Verdana', 'Geneva', 'Lucid', 'Arial', 'Helvetica', 'Avant Garde', sans-serif; text-anchor: end" x="49.09" y="160.451065" transform="rotate(-0 49.09 160.451065)">0.4</text>
     </g>
    </g>
    <g id="ytick_7">
     <g id="line2d_16">
      <g>
       <use xlink:href="#m1d0d185792" x="56.09" y="116.199475" style="stroke: #000000; stroke-width: 0.8"/>
      </g>
     </g>
     <g id="text_17">
      <text style="font: 10px 'DejaVu Sans', 'Bitstream Vera Sans', 'Computer Modern Sans Serif', 'Lucida Grande', 'Verdana', 'Geneva', 'Lucid', 'Arial', 'Helvetica', 'Avant Garde', sans-serif; text-anchor: end" x="49.09" y="119.998694" transform="rotate(-0 49.09 119.998694)">0.6</text>
     </g>
    </g>
    <g id="ytick_8">
     <g id="line2d_17">
      <g>
       <use xlink:href="#m1d0d185792" x="56.09" y="75.747104" style="stroke: #000000; stroke-width: 0.8"/>
      </g>
     </g>
     <g id="text_18">
      <text style="font: 10px 'DejaVu Sans', 'Bitstream Vera Sans', 'Computer Modern Sans Serif', 'Lucida Grande', 'Verdana', 'Geneva', 'Lucid', 'Arial', 'Helvetica', 'Avant Garde', sans-serif; text-anchor: end" x="49.09" y="79.546323" transform="rotate(-0 49.09 79.546323)">0.8</text>
     </g>
    </g>
    <g id="ytick_9">
     <g id="line2d_18">
      <g>
       <use xlink:href="#m1d0d185792" x="56.09" y="35.294733" style="stroke: #000000; stroke-width: 0.8"/>
      </g>
     </g>
     <g id="text_19">
      <text style="font: 10px 'DejaVu Sans', 'Bitstream Vera Sans', 'Computer Modern Sans Serif', 'Lucida Grande', 'Verdana', 'Geneva', 'Lucid', 'Arial', 'Helvetica', 'Avant Garde', sans-serif; text-anchor: end" x="49.09" y="39.093952" transform="rotate(-0 49.09 39.093952)">1.0</text>
     </g>
    </g>
    <g id="text_20">
     <text style="font: 10px 'DejaVu Sans', 'Bitstream Vera Sans', 'Computer Modern Sans Serif', 'Lucida Grande', 'Verdana', 'Geneva', 'Lucid', 'Arial', 'Helvetica', 'Avant Garde', sans-serif; text-anchor: middle" x="18.7275" y="208.46" transform="rotate(-90 18.7275 208.46)">Deflection [deg]</text>
    </g>
   </g>
   <g id="line2d_19">
    <path d="M 266.87388 358.431902 
L 272.517145 356.720214 
L 280.539586 355.061157 
L 287.738212 353.528104 
L 302.071364 349.325264 
L 304.458602 348.728847 
L 306.742612 348.086389 
L 310.402587 347.144968 
L 313.803352 345.838443 
L 315.289145 345.098589 
L 316.501847 344.215412 
L 317.620506 343.459413 
L 318.913747 342.904496 
L 321.001322 342.273123 
L 328.400082 340.248057 
L 330.136515 339.443228 
L 331.582164 338.563195 
L 332.754136 337.835411 
L 333.758453 337.423781 
L 335.537838 336.953684 
L 343.030708 335.443938 
L 349.560079 334.444213 
L 353.205642 333.471308 
L 353.398925 333.374546 
L 354.424142 333.200191 
L 358.862348 332.757403 
L 362.174252 332.293429 
L 365.180989 331.841192 
L 373.215377 331.003121 
L 376.417319 330.688926 
L 380.657965 330.005961 
L 383.750801 329.297715 
L 385.250409 328.732744 
L 386.407143 328.075601 
L 387.446672 327.217028 
L 388.153992 326.399072 
L 388.916741 325.125958 
L 389.693804 323.380129 
L 392.030535 317.217631 
L 392.95595 314.248396 
L 393.772222 310.802475 
L 394.473805 306.843208 
L 395.382341 300.015112 
L 396.157563 292.490632 
L 396.419671 287.957951 
L 396.502896 282.470049 
L 396.364972 276.569932 
L 396.201064 268.682252 
L 396.302931 261.679257 
L 396.645597 254.198394 
L 397.191293 247.118136 
L 397.924117 240.59119 
L 398.899643 233.794616 
L 400.117871 226.728415 
L 403.243402 210.697561 
L 409.503664 178.30561 
L 412.050291 167.542488 
L 414.820952 156.791091 
L 420.138625 136.73706 
L 421.639642 129.927368 
L 422.901149 123.283056 
L 423.923147 116.804126 
L 424.695626 110.525804 
L 426.18057 97.84192 
L 427.269463 90.683138 
L 428.502458 84.025968 
L 431.483595 69.323073 
L 432.210992 64.178664 
L 432.434658 61.166104 
L 432.653935 51.607968 
L 432.775406 49.517143 
L 433.212203 46.915197 
L 433.666758 45.423452 
L 434.261444 44.267371 
L 434.762094 43.656748 
L 435.019628 43.642526 
L 436.951043 43.87178 
L 439.778151 44.151996 
L 442.33068 44.140069 
L 446.440103 43.828195 
L 448.674048 43.569168 
L 448.583727 43.486013 
L 448.267178 43.401275 
L 444.8098 43.395738 
L 438.278476 43.572549 
L 419.022888 44.062745 
L 411.695108 44.243908 
L 403.221079 44.672204 
L 396.318979 44.8872 
L 391.96518 45.13264 
L 390.511603 45.395788 
L 389.416332 45.876864 
L 387.58385 46.608313 
L 385.448617 47.228629 
L 379.385073 48.630398 
L 375.817378 49.566638 
L 371.886993 50.835497 
L 361.109991 54.797499 
L 354.091521 56.520446 
L 350.633679 57.467057 
L 347.410911 58.561139 
L 339.615974 60.607384 
L 335.980096 61.665028 
L 331.03938 63.161114 
L 322.037225 65.107638 
L 307.717764 65.663533 
L 305.067556 66.134064 
L 302.398561 66.921097 
L 298.076204 68.276979 
L 293.829078 69.609357 
L 290.211357 70.97515 
L 286.662681 72.49476 
L 283.007528 74.321616 
L 280.740252 75.080824 
L 276.383084 76.56237 
L 269.759547 79.424769 
L 266.439295 81.187347 
L 264.776732 81.962512 
L 264.046195 82.543495 
L 263.361149 83.064568 
L 262.23813 83.626557 
L 256.213895 86.162607 
L 252.621317 87.823026 
L 249.582258 89.077709 
L 245.228338 90.892006 
L 243.142053 91.960892 
L 241.67619 92.959301 
L 240.590491 93.957653 
L 239.605224 95.173358 
L 238.802482 96.518157 
L 238.255579 97.886251 
L 237.900833 99.389614 
L 237.102507 103.75921 
L 236.445435 105.263949 
L 235.393857 107.097636 
L 234.295907 108.555402 
L 233.171933 109.686277 
L 232.025219 110.53445 
L 230.730316 111.19098 
L 229.293684 111.655901 
L 227.01314 112.097805 
L 225.296119 112.247915 
L 220.271311 112.433934 
L 207.862348 113.125064 
L 205.339423 113.461805 
L 203.410107 113.928091 
L 201.658122 114.585011 
L 200.646495 115.188765 
L 200.030472 115.809199 
L 197.268177 120.155916 
L 195.338821 124.513823 
L 194.299092 127.401948 
L 192.986689 131.901222 
L 191.183635 138.20203 
L 189.919683 141.585401 
L 188.153793 145.61911 
L 186.44182 149.499014 
L 185.287537 152.638349 
L 184.319003 155.866076 
L 183.536219 159.182195 
L 182.450564 165.115759 
L 181.660985 170.770996 
L 181.076932 176.588081 
L 180.793846 181.553677 
L 180.795103 185.588046 
L 181.004934 189.774296 
L 181.488535 194.745898 
L 182.177515 201.998086 
L 182.328444 206.171538 
L 182.289154 210.497646 
L 182.002897 215.73771 
L 181.438922 221.220925 
L 180.561315 227.816047 
L 179.422523 234.717589 
L 178.022547 241.925549 
L 176.136037 250.397518 
L 174.166119 258.177585 
L 171.913672 266.164245 
L 169.381979 274.355786 
L 164.571602 288.92564 
L 146.914901 342.703299 
L 145.413939 348.275598 
L 144.466368 352.625928 
L 143.858098 356.484449 
L 143.347143 361.46761 
L 143.205532 364.947884 
L 143.314384 367.032407 
L 143.606267 368.492323 
L 144.116776 369.720379 
L 144.604848 370.372356 
L 145.15972 370.732904 
L 145.744538 370.841279 
L 146.248932 370.782128 
L 146.248369 370.769814 
L 146.09409 370.633686 
L 145.275392 370.265654 
L 144.220565 370.025838 
L 142.902534 369.975657 
L 140.432518 370.165123 
L 135.490068 370.416147 
L 125.306879 370.714363 
L 118.224133 371.448694 
L 112.615723 371.80763 
L 107.052474 372.256413 
L 100.930307 372.671934 
L 81.003356 373.488625 
L 74.784545 373.489061 
L 129.267653 373.242555 
L 142.890404 372.867741 
L 150.826346 372.482444 
L 165.939134 371.807948 
L 183.991696 370.643072 
L 193.947196 369.830271 
L 199.057729 369.342742 
L 206.655865 368.673117 
L 209.372527 368.176877 
L 220.093706 366.021401 
L 222.098368 365.542967 
L 224.376106 364.836507 
L 227.882364 364.258298 
L 236.732937 362.637627 
L 243.854172 360.688577 
L 255.682065 358.19227 
L 257.888967 357.594537 
L 257.888967 357.594537 
" clip-path="url(#p284e5c7fd0)" style="fill: none; stroke: #1f77b4; stroke-opacity: 0.5; stroke-width: 1.5; stroke-linecap: square"/>
   </g>
   <g id="line2d_20">
    <path d="M 266.87388 358.431902 
L 272.517145 356.720214 
L 280.539586 355.061157 
L 287.738212 353.528104 
L 302.071364 349.325264 
L 304.458602 348.728847 
L 306.742612 348.086389 
L 310.402587 347.144968 
L 313.803352 345.838443 
L 315.289145 345.098589 
L 316.501847 344.215412 
L 317.620506 343.459413 
L 318.913747 342.904496 
L 321.001322 342.273123 
L 328.400082 340.248057 
L 330.136515 339.443228 
L 331.582164 338.563195 
L 332.754136 337.835411 
L 333.758453 337.423781 
L 335.537838 336.953684 
L 343.030708 335.443938 
L 349.560079 334.444213 
L 353.205642 333.471308 
L 353.398925 333.374546 
L 354.424142 333.200191 
L 358.862348 332.757403 
L 362.174252 332.293429 
L 365.180989 331.841192 
L 373.215377 331.003121 
L 376.417319 330.688926 
L 380.657965 330.005961 
L 383.750801 329.297715 
L 385.250409 328.732744 
L 386.407143 328.075601 
L 387.446672 327.217028 
L 388.153992 326.399072 
L 388.916741 325.125958 
L 389.693804 323.380129 
L 392.030535 317.217631 
L 392.95595 314.248396 
L 393.772222 310.802475 
L 394.473805 306.843208 
L 395.382341 300.015112 
L 396.157563 292.490632 
L 396.419671 287.957951 
L 396.502896 282.470049 
L 396.364972 276.569932 
L 396.201064 268.682252 
L 396.302931 261.679257 
L 396.645597 254.198394 
L 397.191293 247.118136 
L 397.924117 240.59119 
L 398.899643 233.794616 
L 400.117871 226.728415 
L 403.243402 210.697561 
L 409.503664 178.30561 
L 412.050291 167.542488 
L 414.820952 156.791091 
L 420.138625 136.73706 
L 421.639642 129.927368 
L 422.901149 123.283056 
L 423.923147 116.804126 
L 424.695626 110.525804 
L 426.18057 97.84192 
L 427.269463 90.683138 
L 428.502458 84.025968 
L 431.483595 69.323073 
L 432.210992 64.178664 
L 432.434658 61.166104 
L 432.653935 51.607968 
L 432.775406 49.517143 
L 433.212203 46.915197 
L 433.666758 45.423452 
L 434.261444 44.267371 
L 434.762094 43.656748 
L 435.019628 43.642526 
L 436.951043 43.87178 
L 439.778151 44.151996 
L 442.33068 44.140069 
L 446.440103 43.828195 
L 448.674048 43.569168 
L 448.598072 43.495291 
L 448.598072 43.495291 
" clip-path="url(#p284e5c7fd0)" style="fill: none; stroke: #ff0000; stroke-width: 1.5; stroke-linecap: square"/>
   </g>
   <g id="line2d_21">
    <path d="M 261.567561 83.89253 
L 256.914373 85.828053 
L 249.879499 88.96176 
L 245.228338 90.892006 
L 243.142053 91.960892 
L 241.67619 92.959301 
L 240.590491 93.957653 
L 239.605224 95.173358 
L 238.802482 96.518157 
L 238.255579 97.886251 
L 237.900833 99.389614 
L 237.102507 103.75921 
L 236.445435 105.263949 
L 235.393857 107.097636 
L 234.295907 108.555402 
L 233.171933 109.686277 
L 232.025219 110.53445 
L 230.730316 111.19098 
L 229.293684 111.655901 
L 227.01314 112.097805 
L 225.296119 112.247915 
L 220.271311 112.433934 
L 207.862348 113.125064 
L 205.339423 113.461805 
L 203.410107 113.928091 
L 201.658122 114.585011 
L 200.646495 115.188765 
L 200.030472 115.809199 
L 197.268177 120.155916 
L 195.338821 124.513823 
L 194.299092 127.401948 
L 192.986689 131.901222 
L 191.183635 138.20203 
L 189.919683 141.585401 
L 188.153793 145.61911 
L 186.44182 149.499014 
L 185.287537 152.638349 
L 184.319003 155.866076 
L 183.536219 159.182195 
L 182.450564 165.115759 
L 181.660985 170.770996 
L 181.076932 176.588081 
L 180.793846 181.553677 
L 180.795103 185.588046 
L 181.004934 189.774296 
L 181.488535 194.745898 
L 182.177515 201.998086 
L 182.328444 206.171538 
L 182.289154 210.497646 
L 182.002897 215.73771 
L 181.438922 221.220925 
L 180.561315 227.816047 
L 179.422523 234.717589 
L 178.022547 241.925549 
L 176.136037 250.397518 
L 174.166119 258.177585 
L 171.913672 266.164245 
L 169.381979 274.355786 
L 164.571602 288.92564 
L 146.914901 342.703299 
L 145.413939 348.275598 
L 144.466368 352.625928 
L 143.858098 356.484449 
L 143.347143 361.46761 
L 143.205532 364.947884 
L 143.314384 367.032407 
L 143.606267 368.492323 
L 144.116776 369.720379 
L 144.604848 370.372356 
L 145.15972 370.732904 
L 145.744538 370.841279 
L 146.248932 370.782128 
L 146.248369 370.769814 
L 146.09409 370.633686 
L 145.275392 370.265654 
L 144.220565 370.025838 
L 142.902534 369.975657 
L 140.432518 370.165123 
L 135.490068 370.416147 
L 125.306879 370.714363 
L 118.224133 371.448694 
L 112.615723 371.80763 
L 107.052474 372.256413 
L 100.930307 372.671934 
L 81.003356 373.488625 
L 74.784545 373.489061 
L 74.786762 373.489632 
" clip-path="url(#p284e5c7fd0)" style="fill: none; stroke: #008000; stroke-width: 1.5; stroke-linecap: square"/>
   </g>
   <g id="line2d_22">
    <path d="M 261.528918 358.431902 
L 261.528918 83.89253 
" clip-path="url(#p284e5c7fd0)" style="fill: none; stroke-dasharray: 5.55,2.4; stroke-dashoffset: 0; stroke: #000000; stroke-width: 1.5"/>
   </g>
   <g id="patch_3">
    <path d="M 56.09 390.04 
L 56.09 26.88 
" style="fill: none; stroke: #000000; stroke-width: 0.8; stroke-linejoin: miter; stroke-linecap: square"/>
   </g>
   <g id="patch_4">
    <path d="M 467.37 390.04 
L 467.37 26.88 
" style="fill: none; stroke: #000000; stroke-width: 0.8; stroke-linejoin: miter; stroke-linecap: square"/>
   </g>
   <g id="patch_5">
    <path d="M 56.09 390.04 
L 467.37 390.04 
" style="fill: none; stroke: #000000; stroke-width: 0.8; stroke-linejoin: miter; stroke-linecap: square"/>
   </g>
   <g id="patch_6">
    <path d="M 56.09 26.88 
L 467.37 26.88 
" style="fill: none; stroke: #000000; stroke-width: 0.8; stroke-linejoin: miter; stroke-linecap: square"/>
   </g>
   <g id="text_21">
    <text style="font: 10px 'DejaVu Sans', 'Bitstream Vera Sans', 'Computer Modern Sans Serif', 'Lucida Grande', 'Verdana', 'Geneva', 'Lucid', 'Arial', 'Helvetica', 'Avant Garde', sans-serif; text-anchor: start" x="261.528918" y="237.556588" transform="rotate(-0 261.528918 237.556588)">  1.36 deg</text>
   </g>
   <g id="text_22">
    <text style="font: 12px 'DejaVu Sans', 'Bitstream Vera Sans', 'Computer Modern Sans Serif', 'Lucida Grande', 'Verdana', 'Geneva', 'Lucid', 'Arial', 'Helvetica', 'Avant Garde', sans-serif; text-anchor: middle" x="261.73" y="20.88" transform="rotate(-0 261.73 20.88)">Play test</text>
   </g>
  </g>
  <g id="axes_2">
   <g id="patch_7">
    <path d="M 513.92 390.04 
L 925.2 390.04 
L 925.2 26.88 
L 513.92 26.88 
z
" style="fill: #ffffff"/>
   </g>
   <g id="matplotlib.axis_3">
    <g id="xtick_10">
     <g id="line2d_23">
      <g>
       <use xlink:href="#m79fbc962e0" x="572.511485" y="390.04" style="stroke: #000000; stroke-width: 0.8"/>
      </g>
     </g>
     <g id="text_23">
      <text style="font: 10px 'DejaVu Sans', 'Bitstream Vera Sans', 'Computer Modern Sans Serif', 'Lucida Grande', 'Verdana', 'Geneva', 'Lucid', 'Arial', 'Helvetica', 'Avant Garde', sans-serif; text-anchor: middle" x="572.511485" y="404.638438" transform="rotate(-0 572.511485 404.638438)">−20</text>
     </g>
    </g>
    <g id="xtick_11">
     <g id="line2d_24">
      <g>
       <use xlink:href="#m79fbc962e0" x="646.018152" y="390.04" style="stroke: #000000; stroke-width: 0.8"/>
      </g>
     </g>
     <g id="text_24">
      <text style="font: 10px 'DejaVu Sans', 'Bitstream Vera Sans', 'Computer Modern Sans Serif', 'Lucida Grande', 'Verdana', 'Geneva', 'Lucid', 'Arial', 'Helvetica', 'Avant Garde', sans-serif; text-anchor: middle" x="646.018152" y="404.638438" transform="rotate(-0 646.018152 404.638438)">−10</text>
     </g>
    </g>
    <g id="xtick_12">
     <g id="line2d_25">
      <g>
       <use xlink:href="#m79fbc962e0" x="719.524819" y="390.04" style="stroke: #000000; stroke-width: 0.8"/>
      </g>
     </g>
     <g id="text_25">
      <text style="font: 10px 'DejaVu Sans', 'Bitstream Vera Sans', 'Computer Modern Sans Serif', 'Lucida Grande', 'Verdana', 'Geneva', 'Lucid', 'Arial', 'Helvetica', 'Avant Garde', sans-serif; text-anchor: middle" x="719.524819" y="404.638438" transform="rotate(-0 719.524819 404.638438)">0</text>
     </g>
    </g>
    <g id="xtick_13">
     <g id="line2d_26">
      <g>
       <use xlink:href="#m79fbc962e0" x="793.031486" y="390.04" style="stroke: #000000; stroke-width: 0.8"/>
      </g>
     </g>
     <g id="text_26">
      <text style="font: 10px 'DejaVu Sans', 'Bitstream Vera Sans', 'Computer Modern Sans Serif', 'Lucida Grande', 'Verdana', 'Geneva', 'Lucid', 'Arial', 'Helvetica', 'Avant Garde', sans-serif; text-anchor: middle" x="793.031486" y="404.638438" transform="rotate(-0 793.031486 404.638438)">10</text>
     </g>
    </g>
    <g id="xtick_14">
     <g id="line2d_27">
      <g>
       <use xlink:href="#m79fbc962e0" x="866.538153" y="390.04" style="stroke: #000000; stroke-width: 0.8"/>
      </g>
     </g>
     <g id="text_27">
      <text style="font: 10px 'DejaVu Sans', 'Bitstream Vera Sans', 'Computer Modern Sans Serif', 'Lucida Grande', 'Verdana', 'Geneva', 'Lucid', 'Arial', 'Helvetica', 'Avant Garde', sans-serif; text-anchor: middle" x="866.538153" y="404.638438" transform="rotate(-0 866.538153 404.638438)">20</text>
     </g>
    </g>
    <g id="text_28">
     <text style="font: 10px 'DejaVu Sans', 'Bitstream Vera Sans', 'Computer Modern Sans Serif', 'Lucida Grande', 'Verdana', 'Geneva', 'Lucid', 'Arial', 'Helvetica', 'Avant Garde', sans-serif; text-anchor: middle" x="719.56" y="418.316562" transform="rotate(-0 719.56 418.316562)">Motor Torque [Nm]</text>
    </g>
   </g>
   <g id="matplotlib.axis_4">
    <g id="ytick_10">
     <g id="line2d_28">
      <g>
       <use xlink:href="#m1d0d185792" x="513.92" y="338.994109" style="stroke: #000000; stroke-width: 0.8"/>
      </g>
     </g>
     <g id="text_29">
      <text style="font: 10px 'DejaVu Sans', 'Bitstream Vera Sans', 'Computer Modern Sans Serif', 'Lucida Grande', 'Verdana', 'Geneva', 'Lucid', 'Arial', 'Helvetica', 'Avant Garde', sans-serif; text-anchor: end" x="506.92" y="342.793328" transform="rotate(-0 506.92 342.793328)">−4</text>
     </g>
    </g>
    <g id="ytick_11">
     <g id="line2d_29">
      <g>
       <use xlink:href="#m1d0d185792" x="513.92" y="273.506531" style="stroke: #000000; stroke-width: 0.8"/>
      </g>
     </g>
     <g id="text_30">
      <text style="font: 10px 'DejaVu Sans', 'Bitstream Vera Sans', 'Computer Modern Sans Serif', 'Lucida Grande', 'Verdana', 'Geneva', 'Lucid', 'Arial', 'Helvetica', 'Avant Garde', sans-serif; text-anchor: end" x="506.92" y="277.305749" transform="rotate(-0 506.92 277.305749)">−2</text>
     </g>
    </g>
    <g id="ytick_12">
     <g id="line2d_30">
      <g>
       <use xlink:href="#m1d0d185792" x="513.92" y="208.018952" style="stroke: #000000; stroke-width: 0.8"/>
      </g>
     </g>
     <g id="text_31">
      <text style="font: 10px 'DejaVu Sans', 'Bitstream Vera Sans', 'Computer Modern Sans Serif', 'Lucida Grande', 'Verdana', 'Geneva', 'Lucid', 'Arial', 'Helvetica', 'Avant Garde', sans-serif; text-anchor: end" x="506.92" y="211.818171" transform="rotate(-0 506.92 211.818171)">0</text>
     </g>
    </g>
    <g id="ytick_13">
     <g id="line2d_31">
      <g>
       <use xlink:href="#m1d0d185792" x="513.92" y="142.531373" style="stroke: #000000; stroke-width: 0.8"/>
      </g>
     </g>
     <g id="text_32">
      <text style="font: 10px 'DejaVu Sans', 'Bitstream Vera Sans', 'Computer Modern Sans Serif', 'Lucida Grande', 'Verdana', 'Geneva', 'Lucid', 'Arial', 'Helvetica', 'Avant Garde', sans-serif; text-anchor: end" x="506.92" y="146.330592" transform="rotate(-0 506.92 146.330592)">2</text>
     </g>
    </g>
    <g id="ytick_14">
     <g id="line2d_32">
      <g>
       <use xlink:href="#m1d0d185792" x="513.92" y="77.043794" style="stroke: #000000; stroke-width: 0.8"/>
      </g>
     </g>
     <g id="text_33">
      <text style="font: 10px 'DejaVu Sans', 'Bitstream Vera Sans', 'Computer Modern Sans Serif', 'Lucida Grande', 'Verdana', 'Geneva', 'Lucid', 'Arial', 'Helvetica', 'Avant Garde', sans-serif; text-anchor: end" x="506.92" y="80.843013" transform="rotate(-0 506.92 80.843013)">4</text>
     </g>
    </g>
    <g id="text_34">
     <text style="font: 10px 'DejaVu Sans', 'Bitstream Vera Sans', 'Computer Modern Sans Serif', 'Lucida Grande', 'Verdana', 'Geneva', 'Lucid', 'Arial', 'Helvetica', 'Avant Garde', sans-serif; text-anchor: middle" x="486.098125" y="208.46" transform="rotate(-90 486.098125 208.46)">Deflection [deg]</text>
    </g>
   </g>
   <g id="line2d_33">
    <path d="M 721.077374 276.189345 
L 722.322886 274.21029 
L 722.870349 272.699703 
L 723.701146 270.259353 
L 724.970887 267.107488 
L 727.69203 258.395294 
L 727.892845 256.361599 
L 728.367223 250.039833 
L 729.078019 245.155842 
L 729.831396 241.004679 
L 731.085073 235.547752 
L 732.335547 230.024174 
L 732.657863 227.203186 
L 733.033964 224.672877 
L 733.668597 222.079484 
L 734.425584 218.703403 
L 735.392515 214.123118 
L 736.21434 211.703499 
L 736.795257 209.633824 
L 737.466104 206.967644 
L 738.082595 205.697295 
L 739.291046 203.763321 
L 740.318286 202.046542 
L 740.747744 200.930406 
L 740.863065 200.054075 
L 741.004828 198.337587 
L 741.540221 196.514175 
L 742.842901 192.88514 
L 743.879392 190.484939 
L 746.289858 184.777577 
L 747.897325 181.248161 
L 749.296521 178.379131 
L 749.852995 178.400494 
L 750.753729 178.387659 
L 752.363744 178.051535 
L 753.90388 177.493976 
L 756.052058 176.428394 
L 757.657878 175.630515 
L 758.479767 175.195137 
L 759.669653 174.48408 
L 760.659877 173.833978 
L 761.315764 173.429872 
L 762.296311 173.133486 
L 764.109731 172.881715 
L 766.189691 172.506024 
L 767.511981 172.087785 
L 768.391517 171.623077 
L 768.76565 171.168481 
L 771.073469 167.184636 
L 773.116634 164.363019 
L 773.495472 163.3296 
L 773.668951 162.174196 
L 773.994521 160.214909 
L 774.562386 158.112388 
L 775.298213 156.370428 
L 776.240876 154.708751 
L 778.918886 150.371808 
L 779.638494 148.573211 
L 780.078992 147.47315 
L 780.600243 146.980038 
L 783.134339 145.159419 
L 783.894425 144.776051 
L 784.563487 144.673404 
L 787.344302 144.378191 
L 788.63126 144.019171 
L 790.775907 142.928455 
L 792.093269 142.550784 
L 797.838868 141.102659 
L 800.005295 140.701693 
L 800.967313 140.329047 
L 802.147188 139.634434 
L 802.809607 138.940057 
L 804.177042 137.170478 
L 806.067667 134.161465 
L 806.773601 132.500708 
L 808.426159 128.644044 
L 809.250237 127.366322 
L 809.855902 126.890237 
L 810.532284 126.603931 
L 811.389552 126.476631 
L 813.081116 126.251764 
L 817.193081 125.019532 
L 818.664435 124.398493 
L 819.322179 123.823525 
L 819.964026 123.014252 
L 820.408009 122.02763 
L 821.381403 119.809524 
L 822.657436 117.637963 
L 824.359143 115.011596 
L 826.244279 112.00428 
L 826.610953 111.568501 
L 827.537533 111.472263 
L 830.189543 111.037832 
L 832.371822 110.480334 
L 833.054149 110.099387 
L 833.832495 109.365027 
L 838.006647 104.313158 
L 839.480747 102.942151 
L 840.782336 101.460275 
L 841.196144 100.845799 
L 842.116678 99.918734 
L 844.006856 98.365172 
L 845.679107 96.936832 
L 846.995286 95.790014 
L 848.777434 95.153047 
L 850.202274 94.501316 
L 851.964473 93.431516 
L 852.705131 92.676164 
L 853.561636 91.508642 
L 854.378538 90.506397 
L 855.17411 89.930869 
L 856.220404 89.396259 
L 857.338611 89.096811 
L 859.514243 88.620839 
L 860.565559 88.173194 
L 861.53462 87.479689 
L 862.268842 86.7463 
L 865.663768 82.760272 
L 867.899354 80.981538 
L 869.31795 79.931115 
L 870.561235 78.752329 
L 874.85565 72.848676 
L 877.581944 70.202421 
L 880.34377 68.327661 
L 881.483909 67.553935 
L 882.951147 66.194684 
L 883.928262 64.967158 
L 884.860041 63.86611 
L 886.699745 61.795756 
L 888.573089 59.977764 
L 890.215269 58.481836 
L 891.424248 57.097972 
L 892.86266 55.976503 
L 896.127352 54.33716 
L 898.003522 53.363318 
L 900.001715 52.812112 
L 901.424812 52.412266 
L 903.788319 51.344522 
L 904.787341 50.653133 
L 905.23601 50.096981 
L 905.661889 49.180822 
L 906.34258 47.354981 
L 906.356152 46.402404 
L 906.289027 44.666029 
L 906.309679 44.331182 
L 906.112984 44.158136 
L 906.2903 44.088797 
L 906.251693 44.01576 
L 906.205215 44.008984 
L 906.021169 43.93837 
L 906.368229 43.992181 
L 906.169937 43.893484 
L 906.17697 43.867942 
L 906.026905 43.864034 
L 905.680027 43.753121 
L 906.330639 43.804735 
L 905.702831 43.750744 
L 906.414021 43.683953 
L 905.604741 43.648776 
L 905.54249 43.587403 
L 906.428265 43.603147 
L 906.1714 43.574024 
L 906.454241 43.536286 
L 905.896561 43.525648 
L 905.976459 43.481752 
L 905.509893 43.465282 
L 906.505455 43.474042 
L 906.358483 43.39047 
L 906.447176 43.390264 
L 890.739993 43.501229 
L 881.907254 43.560724 
L 861.278438 43.730442 
L 835.270764 44.139805 
L 830.68485 44.511128 
L 826.623128 44.826772 
L 821.553755 45.184436 
L 818.287331 45.616105 
L 815.842438 45.853926 
L 812.661717 46.152737 
L 810.912111 46.451192 
L 810.150074 46.777883 
L 808.034323 48.240822 
L 806.124815 49.673719 
L 803.197324 51.690153 
L 798.703346 54.64077 
L 796.786985 55.865721 
L 795.797093 56.315072 
L 793.859446 56.937509 
L 792.1073 57.615271 
L 790.870718 58.423182 
L 789.217778 59.256463 
L 785.161026 60.615757 
L 783.772258 60.978103 
L 782.766021 61.443379 
L 782.005677 62.034984 
L 778.562666 65.140073 
L 773.561652 68.149119 
L 772.618848 68.547882 
L 771.392583 69.394521 
L 771.105363 69.903039 
L 770.540638 71.161945 
L 769.666455 72.383506 
L 768.482003 74.113122 
L 767.488081 75.442178 
L 765.126673 78.003398 
L 763.136681 79.128192 
L 761.870639 79.581549 
L 759.006226 80.7193 
L 758.102702 81.269245 
L 756.656964 82.635399 
L 755.972965 83.541968 
L 755.394916 84.739751 
L 753.016761 90.234179 
L 751.871422 92.66463 
L 749.568556 96.955711 
L 747.992566 99.93699 
L 747.297223 101.315248 
L 746.845856 101.436191 
L 744.791413 101.801329 
L 741.78215 102.429885 
L 740.207735 102.735153 
L 739.307813 103.138726 
L 738.521266 103.757842 
L 737.72641 104.672166 
L 737.229398 105.578655 
L 736.772294 106.952912 
L 735.908217 109.617755 
L 735.484447 111.07998 
L 735.250934 112.762682 
L 734.899884 116.125521 
L 734.179755 119.839693 
L 732.500931 128.102463 
L 731.533109 130.787343 
L 729.834765 135.44415 
L 725.62293 148.338277 
L 725.302094 149.442409 
L 723.763482 149.465276 
L 720.772432 149.744213 
L 719.092998 150.142295 
L 716.710587 150.892476 
L 715.091057 151.648373 
L 713.258655 152.216814 
L 711.219445 152.615795 
L 708.313284 153.089256 
L 707.836705 153.434025 
L 707.468335 153.932613 
L 707.371096 154.490865 
L 707.46944 155.516791 
L 707.778449 158.561447 
L 707.696909 161.098431 
L 707.336269 165.305327 
L 706.632696 170.182124 
L 705.456481 176.948966 
L 704.289283 183.694383 
L 703.678845 188.720929 
L 702.59049 198.673284 
L 701.562571 206.024711 
L 700.541079 211.65668 
L 698.948373 218.943335 
L 696.36029 230.218425 
L 693.34656 242.220776 
L 693.216952 244.024541 
L 693.344453 245.449936 
L 693.763626 247.214807 
L 694.186719 248.088153 
L 694.535521 248.409831 
L 694.832121 248.398588 
L 694.90854 248.339081 
L 694.826016 248.286047 
L 694.269057 248.197653 
L 692.551833 248.253458 
L 686.777514 248.644891 
L 677.974587 249.890408 
L 674.999697 250.538241 
L 673.897235 251.220447 
L 672.295209 252.743705 
L 671.773477 253.768041 
L 671.063465 254.775057 
L 669.227095 257.140116 
L 668.580435 257.953226 
L 667.791845 258.57972 
L 667.009812 259.242828 
L 666.644383 259.602095 
L 665.874971 259.761023 
L 664.921209 260.061661 
L 664.188027 260.533726 
L 663.643833 261.149119 
L 662.848214 262.583748 
L 661.859667 263.962275 
L 658.926456 267.560019 
L 657.894651 268.789176 
L 657.113532 269.807792 
L 656.134655 270.120662 
L 645.702033 272.869063 
L 641.621611 274.214823 
L 641.147441 274.653104 
L 640.035077 276.089786 
L 639.729362 276.876256 
L 639.062196 279.109466 
L 637.698409 282.529857 
L 636.839388 284.801285 
L 635.840406 286.70247 
L 634.75874 288.80629 
L 633.824629 291.204624 
L 632.980208 292.984091 
L 632.129096 294.757018 
L 631.595449 296.068959 
L 631.129198 296.396642 
L 630.559944 296.575426 
L 628.937852 296.852953 
L 628.127607 297.349926 
L 626.929589 298.290303 
L 626.499015 299.008905 
L 625.311577 301.458323 
L 624.828402 302.666194 
L 624.193441 303.460204 
L 620.205846 307.481175 
L 618.707035 307.653562 
L 614.003011 308.337612 
L 611.935277 308.863343 
L 608.624056 310.127218 
L 606.803097 310.894844 
L 604.249212 312.085418 
L 602.570401 312.329279 
L 600.202689 312.805728 
L 596.241099 313.954373 
L 594.100343 314.860789 
L 592.516495 315.703632 
L 590.546627 317.025318 
L 588.051367 318.841409 
L 587.12722 319.45864 
L 584.251438 320.922926 
L 583.189775 321.179931 
L 580.501752 321.745433 
L 578.64837 322.41615 
L 577.476305 323.166465 
L 576.535372 323.982196 
L 575.753238 324.988404 
L 574.758623 326.676802 
L 574.048443 328.356236 
L 573.10928 330.464189 
L 572.081484 332.269145 
L 568.658252 337.65206 
L 567.718819 338.885974 
L 567.182614 339.685949 
L 566.515256 339.992402 
L 565.26599 340.127259 
L 561.847494 340.640466 
L 559.801101 341.092005 
L 559.162225 341.430239 
L 556.125778 344.232087 
L 555.335948 345.271805 
L 554.739675 346.451717 
L 553.550905 348.818157 
L 552.491069 350.17994 
L 550.536263 352.38022 
L 548.996665 353.524786 
L 547.785461 354.066898 
L 546.359796 354.617657 
L 544.22895 355.194197 
L 542.712493 355.642357 
L 540.982169 356.384371 
L 539.288168 357.117673 
L 537.551129 357.623244 
L 534.555263 358.438844 
L 533.406486 358.993922 
L 532.887858 359.489587 
L 532.621189 359.911534 
L 532.786281 360.101088 
L 533.221502 360.544498 
L 533.194194 360.916227 
L 532.891312 362.783726 
L 533.295871 362.902214 
L 533.123878 362.956873 
L 532.932873 363.070708 
L 532.961075 363.121542 
L 533.077261 363.230009 
L 533.250883 363.379705 
L 533.207702 363.424802 
L 533.167133 363.441802 
L 532.976708 363.609366 
L 532.982925 363.623654 
L 533.012694 363.902473 
L 532.941387 364.49595 
L 532.914892 365.231616 
L 532.92511 365.803699 
L 533.066341 366.865014 
L 533.016322 368.444001 
L 532.907782 368.674305 
L 532.940968 368.696324 
L 533.252516 368.952488 
L 533.219586 368.977545 
L 532.830605 369.293181 
L 532.862293 369.578763 
L 533.066992 369.772106 
L 533.034183 370.192957 
L 532.992156 370.509579 
L 533.048598 370.661809 
L 533.190177 370.87095 
L 533.174404 370.886181 
L 532.978622 371.156092 
L 532.985516 371.162693 
L 533.309097 371.421945 
L 533.208537 371.453461 
L 533.107382 371.500636 
L 533.193506 371.566258 
L 533.169753 371.695188 
L 532.948149 372.426564 
L 533.054707 372.644609 
L 532.886818 372.65328 
L 532.833102 372.750418 
L 533.075142 372.759084 
L 533.074976 372.759585 
L 532.880256 372.80636 
L 532.805183 372.817755 
L 533.243933 372.846664 
L 533.015817 372.904559 
L 532.862129 372.929203 
L 533.125372 372.914877 
L 533.080325 372.993904 
L 532.672525 373.08719 
L 533.256309 373.110863 
L 533.256122 373.112428 
L 533.142842 373.141475 
L 532.765829 373.198881 
L 533.351206 373.252469 
L 532.981495 373.250582 
L 532.89804 373.269706 
L 533.019275 373.260638 
L 533.065857 373.320712 
L 533.300298 373.337366 
L 532.964736 373.370717 
L 532.994718 373.428193 
L 532.778498 373.437781 
L 534.262774 373.512607 
L 551.404014 373.444356 
L 583.050413 373.139422 
L 591.733418 372.893292 
L 598.842098 372.358751 
L 601.073392 372.052719 
L 609.621064 371.153326 
L 612.649923 370.178272 
L 615.334625 369.263506 
L 617.167236 368.759061 
L 618.149742 368.264632 
L 621.305322 366.444557 
L 622.790443 365.948964 
L 624.000902 365.844532 
L 626.005362 365.612986 
L 628.479166 364.959792 
L 629.344384 364.479623 
L 630.388961 363.669437 
L 631.037632 362.87311 
L 632.308071 361.123279 
L 634.62308 358.829213 
L 637.763802 356.912807 
L 640.003588 356.077452 
L 641.150058 355.19025 
L 644.03303 352.796891 
L 645.553807 351.486935 
L 646.345237 351.251836 
L 648.948666 350.572802 
L 652.36214 349.114676 
L 656.995798 347.813983 
L 658.349414 347.126639 
L 661.689599 345.285231 
L 662.945246 344.934634 
L 664.054852 344.593556 
L 665.198966 343.982226 
L 668.136345 341.525985 
L 669.421342 341.142279 
L 671.939884 340.457419 
L 672.52525 339.975318 
L 674.514512 337.897238 
L 678.292126 332.779607 
L 679.188549 331.340055 
L 679.630183 330.557208 
L 680.726988 327.751517 
L 681.006905 326.574606 
L 681.330344 325.230046 
L 681.925178 323.807528 
L 683.075622 321.727959 
L 684.635068 318.893736 
L 687.324901 313.417802 
L 687.935011 311.509827 
L 688.590869 310.450679 
L 689.252185 309.288552 
L 689.662724 308.585235 
L 690.199178 308.161103 
L 691.646675 307.428967 
L 693.658994 306.927004 
L 695.487402 306.157416 
L 697.299593 305.392666 
L 698.279607 305.253721 
L 703.344517 304.970495 
L 705.591739 304.46945 
L 714.439719 302.306354 
L 718.84695 301.668114 
L 718.84695 301.668114 
" clip-path="url(#p123db83a39)" style="fill: none; stroke: #1f77b4; stroke-opacity: 0.5; stroke-width: 1.5; stroke-linecap: square"/>
   </g>
   <g id="line2d_34">
    <path d="M 747.016501 183.127919 
L 749.3317 178.375461 
L 752.024318 178.144261 
L 753.575435 177.630952 
L 755.163996 176.886182 
L 758.71449 175.030271 
L 761.343669 173.418056 
L 762.344863 173.123792 
L 764.243339 172.864272 
L 766.352898 172.466433 
L 767.715694 172.00319 
L 768.461046 171.560921 
L 768.829264 171.053626 
L 771.265732 166.94027 
L 772.905402 164.762269 
L 773.393824 163.679293 
L 773.625015 162.614581 
L 773.976725 160.296931 
L 774.562386 158.112388 
L 775.298213 156.370428 
L 776.240876 154.708751 
L 778.918886 150.371808 
L 779.638494 148.573211 
L 780.078992 147.47315 
L 780.600243 146.980038 
L 783.134339 145.159419 
L 783.894425 144.776051 
L 784.563487 144.673404 
L 787.344302 144.378191 
L 788.63126 144.019171 
L 790.775907 142.928455 
L 792.093269 142.550784 
L 797.838868 141.102659 
L 800.005295 140.701693 
L 800.967313 140.329047 
L 802.147188 139.634434 
L 802.809607 138.940057 
L 804.177042 137.170478 
L 806.067667 134.161465 
L 806.773601 132.500708 
L 808.426159 128.644044 
L 809.250237 127.366322 
L 809.855902 126.890237 
L 810.532284 126.603931 
L 811.389552 126.476631 
L 813.081116 126.251764 
L 817.193081 125.019532 
L 818.664435 124.398493 
L 819.322179 123.823525 
L 819.964026 123.014252 
L 820.408009 122.02763 
L 821.381403 119.809524 
L 822.657436 117.637963 
L 824.359143 115.011596 
L 826.244279 112.00428 
L 826.610953 111.568501 
L 827.537533 111.472263 
L 830.189543 111.037832 
L 832.371822 110.480334 
L 833.054149 110.099387 
L 833.832495 109.365027 
L 838.006647 104.313158 
L 839.480747 102.942151 
L 840.782336 101.460275 
L 841.196144 100.845799 
L 842.116678 99.918734 
L 844.006856 98.365172 
L 845.679107 96.936832 
L 846.995286 95.790014 
L 848.777434 95.153047 
L 850.202274 94.501316 
L 851.964473 93.431516 
L 852.705131 92.676164 
L 853.561636 91.508642 
L 854.378538 90.506397 
L 855.17411 89.930869 
L 856.220404 89.396259 
L 857.338611 89.096811 
L 859.514243 88.620839 
L 860.565559 88.173194 
L 861.53462 87.479689 
L 862.268842 86.7463 
L 865.663768 82.760272 
L 867.899354 80.981538 
L 869.31795 79.931115 
L 870.561235 78.752329 
L 874.85565 72.848676 
L 877.581944 70.202421 
L 880.34377 68.327661 
L 881.483909 67.553935 
L 882.951147 66.194684 
L 883.928262 64.967158 
L 884.860041 63.86611 
L 886.699745 61.795756 
L 888.573089 59.977764 
L 890.215269 58.481836 
L 891.424248 57.097972 
L 892.86266 55.976503 
L 896.127352 54.33716 
L 898.003522 53.363318 
L 900.001715 52.812112 
L 901.424812 52.412266 
L 903.788319 51.344522 
L 904.787341 50.653133 
L 905.23601 50.096981 
L 905.661889 49.180822 
L 906.34258 47.354981 
L 906.356152 46.402404 
L 906.289027 44.666029 
L 906.309679 44.331182 
L 906.112984 44.158136 
L 906.2903 44.088797 
L 906.251693 44.01576 
L 906.205215 44.008984 
L 906.021169 43.93837 
L 906.368229 43.992181 
L 906.169937 43.893484 
L 906.17697 43.867942 
L 906.026905 43.864034 
L 905.680027 43.753121 
L 906.330639 43.804735 
L 905.702831 43.750744 
L 906.414021 43.683953 
L 905.604741 43.648776 
L 905.581482 43.646024 
L 906.428265 43.603147 
L 906.063126 43.601632 
" clip-path="url(#p123db83a39)" style="fill: none; stroke: #ff0000; stroke-width: 1.5; stroke-linecap: square"/>
   </g>
   <g id="line2d_35">
    <path d="M 696.978586 227.669971 
L 695.641363 232.937428 
L 693.439995 241.606929 
L 693.22646 243.522567 
L 693.268127 244.926686 
L 693.569746 246.54421 
L 693.968599 247.70356 
L 694.413111 248.339672 
L 694.700227 248.429991 
L 694.909524 248.344209 
L 694.852687 248.29694 
L 694.359422 248.201978 
L 692.966252 248.233206 
L 686.992848 248.617133 
L 678.005336 249.884758 
L 674.981158 250.547632 
L 673.897235 251.220447 
L 672.295209 252.743705 
L 671.773477 253.768041 
L 671.063465 254.775057 
L 669.227095 257.140116 
L 668.580435 257.953226 
L 667.791845 258.57972 
L 667.009812 259.242828 
L 666.644383 259.602095 
L 665.874971 259.761023 
L 664.921209 260.061661 
L 664.188027 260.533726 
L 663.643833 261.149119 
L 662.848214 262.583748 
L 661.859667 263.962275 
L 658.926456 267.560019 
L 657.894651 268.789176 
L 657.113532 269.807792 
L 656.134655 270.120662 
L 645.702033 272.869063 
L 641.621611 274.214823 
L 641.147441 274.653104 
L 640.035077 276.089786 
L 639.729362 276.876256 
L 639.062196 279.109466 
L 637.698409 282.529857 
L 636.839388 284.801285 
L 635.840406 286.70247 
L 634.75874 288.80629 
L 633.824629 291.204624 
L 632.980208 292.984091 
L 632.129096 294.757018 
L 631.595449 296.068959 
L 631.129198 296.396642 
L 630.559944 296.575426 
L 628.937852 296.852953 
L 628.127607 297.349926 
L 626.929589 298.290303 
L 626.499015 299.008905 
L 625.311577 301.458323 
L 624.828402 302.666194 
L 624.193441 303.460204 
L 620.205846 307.481175 
L 618.707035 307.653562 
L 614.003011 308.337612 
L 611.935277 308.863343 
L 608.624056 310.127218 
L 606.803097 310.894844 
L 604.249212 312.085418 
L 602.570401 312.329279 
L 600.202689 312.805728 
L 596.241099 313.954373 
L 594.100343 314.860789 
L 592.516495 315.703632 
L 590.546627 317.025318 
L 588.051367 318.841409 
L 587.12722 319.45864 
L 584.251438 320.922926 
L 583.189775 321.179931 
L 580.501752 321.745433 
L 578.64837 322.41615 
L 577.476305 323.166465 
L 576.535372 323.982196 
L 575.753238 324.988404 
L 574.758623 326.676802 
L 574.048443 328.356236 
L 573.10928 330.464189 
L 572.081484 332.269145 
L 568.658252 337.65206 
L 567.718819 338.885974 
L 567.182614 339.685949 
L 566.515256 339.992402 
L 565.26599 340.127259 
L 561.847494 340.640466 
L 559.801101 341.092005 
L 559.162225 341.430239 
L 556.125778 344.232087 
L 555.335948 345.271805 
L 554.739675 346.451717 
L 553.550905 348.818157 
L 552.491069 350.17994 
L 550.536263 352.38022 
L 548.996665 353.524786 
L 547.785461 354.066898 
L 546.359796 354.617657 
L 544.22895 355.194197 
L 542.712493 355.642357 
L 540.982169 356.384371 
L 539.288168 357.117673 
L 537.551129 357.623244 
L 534.555263 358.438844 
L 533.406486 358.993922 
L 532.887858 359.489587 
L 532.621189 359.911534 
L 532.786281 360.101088 
L 533.221502 360.544498 
L 533.194194 360.916227 
L 532.891312 362.783726 
L 533.295871 362.902214 
L 533.123878 362.956873 
L 532.932873 363.070708 
L 532.961075 363.121542 
L 533.077261 363.230009 
L 533.250883 363.379705 
L 533.207702 363.424802 
L 533.167133 363.441802 
L 532.976708 363.609366 
L 532.982925 363.623654 
L 533.012694 363.902473 
L 532.941387 364.49595 
L 532.914892 365.231616 
L 532.92511 365.803699 
L 533.066341 366.865014 
L 533.016322 368.444001 
L 532.907782 368.674305 
L 532.940968 368.696324 
L 533.252516 368.952488 
L 533.219586 368.977545 
L 532.830605 369.293181 
L 532.862293 369.578763 
L 533.066992 369.772106 
L 533.034183 370.192957 
L 532.992156 370.509579 
L 533.048598 370.661809 
L 533.190177 370.87095 
L 533.174404 370.886181 
L 532.978622 371.156092 
L 532.985516 371.162693 
L 533.309097 371.421945 
L 533.208537 371.453461 
L 533.107382 371.500636 
L 533.193506 371.566258 
L 533.169753 371.695188 
L 532.948149 372.426564 
L 533.054707 372.644609 
L 532.886818 372.65328 
L 532.833102 372.750418 
L 533.075142 372.759084 
L 533.074976 372.759585 
L 532.880256 372.80636 
L 532.805183 372.817755 
L 533.243933 372.846664 
L 533.015817 372.904559 
L 532.862129 372.929203 
L 533.125372 372.914877 
L 533.080325 372.993904 
L 533.258527 373.004035 
L 533.209252 373.030175 
" clip-path="url(#p123db83a39)" style="fill: none; stroke: #008000; stroke-width: 1.5; stroke-linecap: square"/>
   </g>
   <g id="line2d_36">
    <path d="M 747.016501 184.039247 
L 906.428265 44.337936 
L 906.063126 44.657928 
" clip-path="url(#p123db83a39)" style="fill: none; stroke-dasharray: 5.55,2.4; stroke-dashoffset: 0; stroke: #ff0000; stroke-width: 1.5"/>
   </g>
   <g id="line2d_37">
    <path d="M 696.978586 237.427477 
L 532.614545 367.782276 
L 533.209252 367.310622 
" clip-path="url(#p123db83a39)" style="fill: none; stroke-dasharray: 5.55,2.4; stroke-dashoffset: 0; stroke: #008000; stroke-width: 1.5"/>
   </g>
   <g id="patch_8">
    <path d="M 513.92 390.04 
L 513.92 26.88 
" style="fill: none; stroke: #000000; stroke-width: 0.8; stroke-linejoin: miter; stroke-linecap: square"/>
   </g>
   <g id="patch_9">
    <path d="M 925.2 390.04 
L 925.2 26.88 
" style="fill: none; stroke: #000000; stroke-width: 0.8; stroke-linejoin: miter; stroke-linecap: square"/>
   </g>
   <g id="patch_10">
    <path d="M 513.92 390.04 
L 925.2 390.04 
" style="fill: none; stroke: #000000; stroke-width: 0.8; stroke-linejoin: miter; stroke-linecap: square"/>
   </g>
   <g id="patch_11">
    <path d="M 513.92 26.88 
L 925.2 26.88 
" style="fill: none; stroke: #000000; stroke-width: 0.8; stroke-linejoin: miter; stroke-linecap: square"/>
   </g>
   <g id="text_35">
    <text style="font: 12px 'DejaVu Sans', 'Bitstream Vera Sans', 'Computer Modern Sans Serif', 'Lucida Grande', 'Verdana', 'Geneva', 'Lucid', 'Arial', 'Helvetica', 'Avant Garde', sans-serif; text-anchor: middle" x="719.56" y="20.88" transform="rotate(-0 719.56 20.88)">Stiffness test</text>
   </g>
   <g id="legend_1">
    <g id="patch_12">
     <path d="M 815.005 386.04 
L 919.6 386.04 
Q 921.2 386.04 921.2 384.44 
L 921.2 350.0125 
Q 921.2 348.4125 919.6 348.4125 
L 815.005 348.4125 
Q 813.405 348.4125 813.405 350.0125 
L 813.405 384.44 
Q 813.405 386.04 815.005 386.04 
z
" style="fill: #ffffff; opacity: 0.8; stroke: #cccccc; stroke-linejoin: miter"/>
    </g>
    <g id="line2d_38">
     <path d="M 816.605 354.89125 
L 824.605 354.89125 
L 832.605 354.89125 
" style="fill: none; stroke: #1f77b4; stroke-opacity: 0.5; stroke-width: 1.5; stroke-linecap: square"/>
    </g>
    <g id="text_36">
     <text style="font: 8px 'DejaVu Sans', 'Bitstream Vera Sans', 'Computer Modern Sans Serif', 'Lucida Grande', 'Verdana', 'Geneva', 'Lucid', 'Arial', 'Helvetica', 'Avant Garde', sans-serif; text-anchor: start" x="839.005" y="357.69125" transform="rotate(-0 839.005 357.69125)">\ld{stiffness test}</text>
    </g>
    <g id="line2d_39">
     <path d="M 816.605 366.63375 
L 824.605 366.63375 
L 832.605 366.63375 
" style="fill: none; stroke: #ff0000; stroke-width: 1.5; stroke-linecap: square"/>
    </g>
    <g id="text_37">
     <text style="font: 8px 'DejaVu Sans', 'Bitstream Vera Sans', 'Computer Modern Sans Serif', 'Lucida Grande', 'Verdana', 'Geneva', 'Lucid', 'Arial', 'Helvetica', 'Avant Garde', sans-serif; text-anchor: start" x="839.005" y="369.43375" transform="rotate(-0 839.005 369.43375)">\ld{positive slope}</text>
    </g>
    <g id="line2d_40">
     <path d="M 816.605 378.37625 
L 824.605 378.37625 
L 832.605 378.37625 
" style="fill: none; stroke: #008000; stroke-width: 1.5; stroke-linecap: square"/>
    </g>
    <g id="text_38">
     <text style="font: 8px 'DejaVu Sans', 'Bitstream Vera Sans', 'Computer Modern Sans Serif', 'Lucida Grande', 'Verdana', 'Geneva', 'Lucid', 'Arial', 'Helvetica', 'Avant Garde', sans-serif; text-anchor: start" x="839.005" y="381.17625" transform="rotate(-0 839.005 381.17625)">\ld{negative slope}</text>
    </g>
   </g>
  </g>
 </g>
 <defs>
  <clipPath id="p284e5c7fd0">
   <rect x="56.09" y="26.88" width="411.28" height="363.16"/>
  </clipPath>
  <clipPath id="p123db83a39">
   <rect x="513.92" y="26.88" width="411.28" height="363.16"/>
  </clipPath>
 </defs>
</svg>
