<?xml version="1.0" encoding="utf-8" standalone="no"?>
<!DOCTYPE svg PUBLIC "-//W3C//DTD SVG 1.1//EN"
  "http://www.w3.org/Graphics/SVG/1.1/DTD/svg11.dtd">
<svg xmlns:xlink="http://www.w3.org/1999/xlink" width="1008pt" height="360pt" viewBox="0 0 1008 360" xmlns="http://www.w3.org/2000/svg" version="1.1">
 <metadata>
  <rdf:RDF xmlns:dc="http://purl.org/dc/elements/1.1/" xmlns:cc="http://creativecommons.org/ns#" xmlns:rdf="http://www.w3.org/1999/02/22-rdf-syntax-ns#">
   <cc:Work>
    <dc:type rdf:resource="http://purl.org/dc/dcmitype/StillImage"/>
    <dc:date>2024-07-19T12:50:33.553755</dc:date>
    <dc:format>image/svg+xml</dc:format>
    <dc:creator>
     <cc:Agent>
      <dc:title>Matplotlib v3.9.0, https://matplotlib.org/</dc:title>
     </cc:Agent>
    </dc:creator>
   </cc:Work>
  </rdf:RDF>
 </metadata>
 <defs>
  <style type="text/css">*{stroke-linejoin: round; stroke-linecap: butt}</style>
 </defs>
 <g id="figure_1">
  <g id="patch_1">
   <path d="M 0 360 
L 1008 360 
L 1008 0 
L 0 0 
z
" style="fill: #ffffff"/>
  </g>
  <g id="axes_1">
   <g id="patch_2">
    <path d="M 56.09 318.04 
L 503.325 318.04 
L 503.325 50.64 
L 56.09 50.64 
z
" style="fill: #ffffff"/>
   </g>
   <g id="matplotlib.axis_1">
    <g id="xtick_1">
     <g id="line2d_1">
      <defs>
       <path id="m735d313f69" d="M 0 0 
L 0 3.5 
" style="stroke: #000000; stroke-width: 0.8"/>
      </defs>
      <g>
       <use xlink:href="#m735d313f69" x="74.754369" y="318.04" style="stroke: #000000; stroke-width: 0.8"/>
      </g>
     </g>
     <g id="text_1">
      <text style="font: 10px 'DejaVu Sans', 'Bitstream Vera Sans', 'Computer Modern Sans Serif', 'Lucida Grande', 'Verdana', 'Geneva', 'Lucid', 'Arial', 'Helvetica', 'Avant Garde', sans-serif; text-anchor: middle" x="74.754369" y="332.638438" transform="rotate(-0 74.754369 332.638438)">−4</text>
     </g>
    </g>
    <g id="xtick_2">
     <g id="line2d_2">
      <g>
       <use xlink:href="#m735d313f69" x="126.002428" y="318.04" style="stroke: #000000; stroke-width: 0.8"/>
      </g>
     </g>
     <g id="text_2">
      <text style="font: 10px 'DejaVu Sans', 'Bitstream Vera Sans', 'Computer Modern Sans Serif', 'Lucida Grande', 'Verdana', 'Geneva', 'Lucid', 'Arial', 'Helvetica', 'Avant Garde', sans-serif; text-anchor: middle" x="126.002428" y="332.638438" transform="rotate(-0 126.002428 332.638438)">−3</text>
     </g>
    </g>
    <g id="xtick_3">
     <g id="line2d_3">
      <g>
       <use xlink:href="#m735d313f69" x="177.250487" y="318.04" style="stroke: #000000; stroke-width: 0.8"/>
      </g>
     </g>
     <g id="text_3">
      <text style="font: 10px 'DejaVu Sans', 'Bitstream Vera Sans', 'Computer Modern Sans Serif', 'Lucida Grande', 'Verdana', 'Geneva', 'Lucid', 'Arial', 'Helvetica', 'Avant Garde', sans-serif; text-anchor: middle" x="177.250487" y="332.638438" transform="rotate(-0 177.250487 332.638438)">−2</text>
     </g>
    </g>
    <g id="xtick_4">
     <g id="line2d_4">
      <g>
       <use xlink:href="#m735d313f69" x="228.498546" y="318.04" style="stroke: #000000; stroke-width: 0.8"/>
      </g>
     </g>
     <g id="text_4">
      <text style="font: 10px 'DejaVu Sans', 'Bitstream Vera Sans', 'Computer Modern Sans Serif', 'Lucida Grande', 'Verdana', 'Geneva', 'Lucid', 'Arial', 'Helvetica', 'Avant Garde', sans-serif; text-anchor: middle" x="228.498546" y="332.638438" transform="rotate(-0 228.498546 332.638438)">−1</text>
     </g>
    </g>
    <g id="xtick_5">
     <g id="line2d_5">
      <g>
       <use xlink:href="#m735d313f69" x="279.746604" y="318.04" style="stroke: #000000; stroke-width: 0.8"/>
      </g>
     </g>
     <g id="text_5">
      <text style="font: 10px 'DejaVu Sans', 'Bitstream Vera Sans', 'Computer Modern Sans Serif', 'Lucida Grande', 'Verdana', 'Geneva', 'Lucid', 'Arial', 'Helvetica', 'Avant Garde', sans-serif; text-anchor: middle" x="279.746604" y="332.638438" transform="rotate(-0 279.746604 332.638438)">0</text>
     </g>
    </g>
    <g id="xtick_6">
     <g id="line2d_6">
      <g>
       <use xlink:href="#m735d313f69" x="330.994663" y="318.04" style="stroke: #000000; stroke-width: 0.8"/>
      </g>
     </g>
     <g id="text_6">
      <text style="font: 10px 'DejaVu Sans', 'Bitstream Vera Sans', 'Computer Modern Sans Serif', 'Lucida Grande', 'Verdana', 'Geneva', 'Lucid', 'Arial', 'Helvetica', 'Avant Garde', sans-serif; text-anchor: middle" x="330.994663" y="332.638438" transform="rotate(-0 330.994663 332.638438)">1</text>
     </g>
    </g>
    <g id="xtick_7">
     <g id="line2d_7">
      <g>
       <use xlink:href="#m735d313f69" x="382.242722" y="318.04" style="stroke: #000000; stroke-width: 0.8"/>
      </g>
     </g>
     <g id="text_7">
      <text style="font: 10px 'DejaVu Sans', 'Bitstream Vera Sans', 'Computer Modern Sans Serif', 'Lucida Grande', 'Verdana', 'Geneva', 'Lucid', 'Arial', 'Helvetica', 'Avant Garde', sans-serif; text-anchor: middle" x="382.242722" y="332.638438" transform="rotate(-0 382.242722 332.638438)">2</text>
     </g>
    </g>
    <g id="xtick_8">
     <g id="line2d_8">
      <g>
       <use xlink:href="#m735d313f69" x="433.490781" y="318.04" style="stroke: #000000; stroke-width: 0.8"/>
      </g>
     </g>
     <g id="text_8">
      <text style="font: 10px 'DejaVu Sans', 'Bitstream Vera Sans', 'Computer Modern Sans Serif', 'Lucida Grande', 'Verdana', 'Geneva', 'Lucid', 'Arial', 'Helvetica', 'Avant Garde', sans-serif; text-anchor: middle" x="433.490781" y="332.638438" transform="rotate(-0 433.490781 332.638438)">3</text>
     </g>
    </g>
    <g id="xtick_9">
     <g id="line2d_9">
      <g>
       <use xlink:href="#m735d313f69" x="484.73884" y="318.04" style="stroke: #000000; stroke-width: 0.8"/>
      </g>
     </g>
     <g id="text_9">
      <text style="font: 10px 'DejaVu Sans', 'Bitstream Vera Sans', 'Computer Modern Sans Serif', 'Lucida Grande', 'Verdana', 'Geneva', 'Lucid', 'Arial', 'Helvetica', 'Avant Garde', sans-serif; text-anchor: middle" x="484.73884" y="332.638438" transform="rotate(-0 484.73884 332.638438)">4</text>
     </g>
    </g>
    <g id="text_10">
     <text style="font: 10px 'DejaVu Sans', 'Bitstream Vera Sans', 'Computer Modern Sans Serif', 'Lucida Grande', 'Verdana', 'Geneva', 'Lucid', 'Arial', 'Helvetica', 'Avant Garde', sans-serif; text-anchor: middle" x="279.7075" y="346.316563" transform="rotate(-0 279.7075 346.316563)">Motor Torque [Nm]</text>
    </g>
   </g>
   <g id="matplotlib.axis_2">
    <g id="ytick_1">
     <g id="line2d_10">
      <defs>
       <path id="m4bf3fad9ff" d="M 0 0 
L -3.5 0 
" style="stroke: #000000; stroke-width: 0.8"/>
      </defs>
      <g>
       <use xlink:href="#m4bf3fad9ff" x="56.09" y="311.182617" style="stroke: #000000; stroke-width: 0.8"/>
      </g>
     </g>
     <g id="text_11">
      <text style="font: 10px 'DejaVu Sans', 'Bitstream Vera Sans', 'Computer Modern Sans Serif', 'Lucida Grande', 'Verdana', 'Geneva', 'Lucid', 'Arial', 'Helvetica', 'Avant Garde', sans-serif; text-anchor: end" x="49.09" y="314.981836" transform="rotate(-0 49.09 314.981836)">−1.5</text>
     </g>
    </g>
    <g id="ytick_2">
     <g id="line2d_11">
      <g>
       <use xlink:href="#m4bf3fad9ff" x="56.09" y="270.727379" style="stroke: #000000; stroke-width: 0.8"/>
      </g>
     </g>
     <g id="text_12">
      <text style="font: 10px 'DejaVu Sans', 'Bitstream Vera Sans', 'Computer Modern Sans Serif', 'Lucida Grande', 'Verdana', 'Geneva', 'Lucid', 'Arial', 'Helvetica', 'Avant Garde', sans-serif; text-anchor: end" x="49.09" y="274.526597" transform="rotate(-0 49.09 274.526597)">−1.0</text>
     </g>
    </g>
    <g id="ytick_3">
     <g id="line2d_12">
      <g>
       <use xlink:href="#m4bf3fad9ff" x="56.09" y="230.272141" style="stroke: #000000; stroke-width: 0.8"/>
      </g>
     </g>
     <g id="text_13">
      <text style="font: 10px 'DejaVu Sans', 'Bitstream Vera Sans', 'Computer Modern Sans Serif', 'Lucida Grande', 'Verdana', 'Geneva', 'Lucid', 'Arial', 'Helvetica', 'Avant Garde', sans-serif; text-anchor: end" x="49.09" y="234.071359" transform="rotate(-0 49.09 234.071359)">−0.5</text>
     </g>
    </g>
    <g id="ytick_4">
     <g id="line2d_13">
      <g>
       <use xlink:href="#m4bf3fad9ff" x="56.09" y="189.816902" style="stroke: #000000; stroke-width: 0.8"/>
      </g>
     </g>
     <g id="text_14">
      <text style="font: 10px 'DejaVu Sans', 'Bitstream Vera Sans', 'Computer Modern Sans Serif', 'Lucida Grande', 'Verdana', 'Geneva', 'Lucid', 'Arial', 'Helvetica', 'Avant Garde', sans-serif; text-anchor: end" x="49.09" y="193.616121" transform="rotate(-0 49.09 193.616121)">0.0</text>
     </g>
    </g>
    <g id="ytick_5">
     <g id="line2d_14">
      <g>
       <use xlink:href="#m4bf3fad9ff" x="56.09" y="149.361664" style="stroke: #000000; stroke-width: 0.8"/>
      </g>
     </g>
     <g id="text_15">
      <text style="font: 10px 'DejaVu Sans', 'Bitstream Vera Sans', 'Computer Modern Sans Serif', 'Lucida Grande', 'Verdana', 'Geneva', 'Lucid', 'Arial', 'Helvetica', 'Avant Garde', sans-serif; text-anchor: end" x="49.09" y="153.160883" transform="rotate(-0 49.09 153.160883)">0.5</text>
     </g>
    </g>
    <g id="ytick_6">
     <g id="line2d_15">
      <g>
       <use xlink:href="#m4bf3fad9ff" x="56.09" y="108.906426" style="stroke: #000000; stroke-width: 0.8"/>
      </g>
     </g>
     <g id="text_16">
      <text style="font: 10px 'DejaVu Sans', 'Bitstream Vera Sans', 'Computer Modern Sans Serif', 'Lucida Grande', 'Verdana', 'Geneva', 'Lucid', 'Arial', 'Helvetica', 'Avant Garde', sans-serif; text-anchor: end" x="49.09" y="112.705645" transform="rotate(-0 49.09 112.705645)">1.0</text>
     </g>
    </g>
    <g id="ytick_7">
     <g id="line2d_16">
      <g>
       <use xlink:href="#m4bf3fad9ff" x="56.09" y="68.451188" style="stroke: #000000; stroke-width: 0.8"/>
      </g>
     </g>
     <g id="text_17">
      <text style="font: 10px 'DejaVu Sans', 'Bitstream Vera Sans', 'Computer Modern Sans Serif', 'Lucida Grande', 'Verdana', 'Geneva', 'Lucid', 'Arial', 'Helvetica', 'Avant Garde', sans-serif; text-anchor: end" x="49.09" y="72.250407" transform="rotate(-0 49.09 72.250407)">1.5</text>
     </g>
    </g>
    <g id="text_18">
     <text style="font: 10px 'DejaVu Sans', 'Bitstream Vera Sans', 'Computer Modern Sans Serif', 'Lucida Grande', 'Verdana', 'Geneva', 'Lucid', 'Arial', 'Helvetica', 'Avant Garde', sans-serif; text-anchor: middle" x="18.7275" y="184.34" transform="rotate(-90 18.7275 184.34)">Deflection [deg]</text>
    </g>
   </g>
   <g id="line2d_17">
    <path d="M 285.577194 296.193959 
L 295.650913 295.639428 
L 301.919568 295.077915 
L 306.548192 294.453545 
L 312.217363 293.428146 
L 322.692549 291.437389 
L 327.454062 290.502948 
L 330.60778 289.649153 
L 332.820201 288.821453 
L 335.050566 287.74289 
L 337.229341 286.446967 
L 339.041526 285.104745 
L 340.896669 283.434848 
L 343.1012 281.154974 
L 344.640723 279.245006 
L 346.071343 277.100905 
L 347.720197 274.220836 
L 349.249326 271.114793 
L 350.538197 268.003619 
L 352.196116 263.348005 
L 355.109734 254.505266 
L 358.148941 244.281526 
L 363.087614 227.946379 
L 370.966977 202.615965 
L 381.348443 170.929357 
L 383.98178 164.079258 
L 387.146269 156.507682 
L 389.647287 151.076496 
L 391.842535 146.8333 
L 394.745621 141.754774 
L 399.615649 133.299049 
L 400.499314 131.31832 
L 400.722549 130.303844 
L 400.886143 129.797771 
L 401.215279 129.617835 
L 402.174906 129.426968 
L 417.290081 127.056685 
L 420.015128 126.331064 
L 422.132674 125.537209 
L 424.834181 124.255064 
L 427.595846 122.721392 
L 429.911347 121.178121 
L 433.359854 118.570659 
L 437.693256 115.045976 
L 443.587862 110.153877 
L 454.987444 101.559997 
L 457.423185 100.233857 
L 460.587761 98.781404 
L 464.350361 97.306892 
L 469.291083 95.625914 
L 472.497612 94.74855 
L 476.465748 93.678412 
L 478.087067 93.004993 
L 479.19432 92.327715 
L 479.980623 91.605371 
L 480.502379 90.825206 
L 480.748021 90.073421 
L 480.779608 89.256474 
L 480.593547 88.381923 
L 480.149383 87.384775 
L 479.357545 86.191947 
L 478.097867 84.730556 
L 476.105279 82.797162 
L 473.904999 80.935708 
L 471.872499 79.491969 
L 469.769284 78.257639 
L 467.304767 77.078198 
L 464.615444 76.049632 
L 461.517363 75.107448 
L 458.510217 74.418073 
L 455.742354 74.007497 
L 452.68074 73.790895 
L 448.129712 73.726434 
L 427.175716 73.865894 
L 401.843081 74.217019 
L 363.470227 75.236386 
L 355.80522 75.701784 
L 348.982276 76.322322 
L 343.674288 77.034423 
L 330.064664 79.034174 
L 324.043222 80.045324 
L 317.923529 81.386676 
L 309.814839 83.227836 
L 300.554853 85.086893 
L 291.648551 86.944633 
L 283.473926 88.738752 
L 279.275602 89.404454 
L 272.328258 90.475491 
L 269.455509 91.177562 
L 266.479069 92.100481 
L 264.436994 92.966722 
L 262.453288 94.057196 
L 260.469873 95.395998 
L 258.875788 96.742809 
L 245.935576 108.763223 
L 243.168552 111.388486 
L 239.896673 114.890986 
L 236.377072 118.853401 
L 231.344369 124.895354 
L 225.158137 131.768917 
L 216.664594 140.43835 
L 210.205805 146.723583 
L 204.141152 152.805374 
L 201.512223 155.376457 
L 199.694728 156.834749 
L 197.61169 158.206923 
L 195.315461 159.45422 
L 192.719037 160.600131 
L 189.458031 161.777479 
L 186.311475 162.691728 
L 183.672516 163.227489 
L 180.676361 163.595881 
L 174.93457 164.238222 
L 171.870547 164.847193 
L 169.334854 165.558542 
L 167.50466 166.295496 
L 166.062698 167.114448 
L 164.753212 168.121374 
L 163.702024 169.199927 
L 162.913183 170.307167 
L 162.261927 171.600941 
L 161.599081 173.490035 
L 159.817477 178.809577 
L 156.079279 188.990704 
L 154.24629 193.18817 
L 147.228614 208.125912 
L 141.954791 219.043027 
L 137.678992 228.050719 
L 135.435287 233.30365 
L 133.31995 238.868792 
L 131.348675 244.683128 
L 129.005313 252.389373 
L 126.51952 260.354891 
L 124.933908 264.765337 
L 123.39056 268.394067 
L 121.655914 271.864145 
L 119.766926 275.155709 
L 117.441756 278.740253 
L 114.617584 282.672399 
L 111.27082 286.962962 
L 108.326749 290.366832 
L 105.160609 293.685599 
L 104.519415 294.14704 
L 104.380101 294.055336 
L 103.990119 293.415731 
L 103.440846 293.103183 
L 102.482857 292.823374 
L 100.913489 292.622704 
L 98.571518 292.556868 
L 95.500449 292.69849 
L 92.486011 293.056816 
L 89.887956 293.588838 
L 87.385446 294.339086 
L 81.864105 296.331655 
L 78.596245 297.669158 
L 77.058402 298.518002 
L 76.507276 299.028524 
L 76.424288 299.342289 
L 76.58984 299.581457 
L 77.092085 299.811523 
L 78.262261 300.051753 
L 81.054195 300.341031 
L 86.617023 300.93123 
L 90.932117 301.624322 
L 94.646288 302.427291 
L 96.962678 303.146258 
L 102.646582 305.074719 
L 104.908802 305.458907 
L 108.007144 305.748077 
L 111.984971 305.878812 
L 118.916496 305.837267 
L 157.484224 305.380854 
L 181.469459 304.778012 
L 188.626397 304.405293 
L 200.246638 303.467584 
L 208.387735 302.702913 
L 216.947075 301.869568 
L 226.617443 301.031084 
L 230.37731 300.471296 
L 234.090932 299.706382 
L 243.742654 297.432074 
L 249.621087 296.470266 
L 267.737318 293.924619 
L 272.517077 293.59259 
L 275.037325 293.473835 
L 275.037325 293.473835 
" clip-path="url(#pa03c2dee8c)" style="fill: none; stroke: #440154; stroke-width: 1.5; stroke-linecap: square"/>
   </g>
   <g id="line2d_18">
    <path d="M 285.496138 289.987292 
L 289.655813 289.27115 
L 300.733907 287.373088 
L 311.353863 285.393467 
L 315.177329 285.067705 
L 331.091775 284.16901 
L 337.137561 283.745357 
L 339.717085 283.329226 
L 341.61196 282.811325 
L 343.340495 282.086887 
L 345.941026 280.738972 
L 348.089177 279.385877 
L 350.113437 277.855114 
L 352.154501 276.022145 
L 354.055029 274.009962 
L 355.885031 271.736875 
L 357.76628 269.062286 
L 359.344871 266.422543 
L 361.088403 262.995358 
L 363.795542 257.116894 
L 368.580614 246.534683 
L 371.23292 241.56465 
L 380.701068 224.125321 
L 382.833196 219.746267 
L 388.093076 208.476948 
L 390.953257 203.188307 
L 396.863313 192.409298 
L 397.518194 190.527533 
L 397.929571 188.679516 
L 398.094223 186.844962 
L 398.035097 184.806058 
L 397.686319 181.709069 
L 396.994241 175.723498 
L 396.895685 172.86815 
L 397.014003 170.006376 
L 397.382216 166.869191 
L 397.964576 163.793887 
L 398.901664 160.089102 
L 400.37649 155.250512 
L 402.652068 148.624139 
L 404.837828 142.918643 
L 407.192129 137.429927 
L 409.880079 131.757257 
L 413.635485 124.389761 
L 420.085358 112.32993 
L 430.433369 92.996133 
L 432.291261 88.997996 
L 433.763613 85.339151 
L 434.998922 81.711166 
L 436.117989 77.700075 
L 437.345514 72.293273 
L 438.362931 68.221415 
L 438.973674 66.655871 
L 439.65001 65.52598 
L 440.448836 64.615804 
L 441.379346 63.896549 
L 442.33904 63.423103 
L 443.236467 63.210682 
L 444.513878 63.165726 
L 455.256681 63.274362 
L 482.996136 62.82964 
L 482.817701 62.81686 
L 478.512863 62.794633 
L 432.872786 62.894786 
L 410.271858 63.126703 
L 382.462561 63.572399 
L 367.638563 64.182645 
L 364.538362 64.546636 
L 361.993611 65.065505 
L 359.370079 65.854245 
L 354.373735 67.59775 
L 345.828468 70.903061 
L 339.782762 73.487098 
L 333.845022 76.036651 
L 331.628061 76.705799 
L 325.417123 78.227693 
L 320.210317 79.626726 
L 304.416131 84.086079 
L 298.955177 85.159435 
L 294.285301 85.775627 
L 279.965008 87.525525 
L 272.831558 88.926387 
L 270.121253 89.647454 
L 267.915985 90.468121 
L 266.101207 91.375383 
L 264.510629 92.409012 
L 262.632158 93.914352 
L 260.065844 96.264735 
L 256.505684 99.879224 
L 250.986135 105.383751 
L 246.163381 109.884251 
L 241.333383 114.399175 
L 237.850116 118.026216 
L 236.338321 119.865902 
L 234.878455 121.701374 
L 233.782345 122.62044 
L 231.970037 123.808145 
L 229.718 125.023198 
L 220.754901 129.540706 
L 217.716851 131.374776 
L 214.446992 133.65245 
L 210.851226 136.388599 
L 207.105853 139.549384 
L 203.132914 143.165562 
L 200.894645 145.49868 
L 198.078576 148.792327 
L 195.736215 151.815662 
L 193.773379 154.758305 
L 190.185169 160.60137 
L 188.417348 163.942337 
L 186.434055 168.213243 
L 184.268762 173.408471 
L 179.840277 185.003661 
L 176.975144 192.67548 
L 174.260983 199.876975 
L 171.14586 207.33562 
L 166.959668 216.909393 
L 164.857235 221.089777 
L 162.180533 225.878524 
L 156.05933 236.23712 
L 152.450459 241.954297 
L 145.82379 252.249226 
L 144.160341 255.282529 
L 143.609826 256.68555 
L 143.448077 257.686266 
L 143.536906 258.418103 
L 143.868258 259.226461 
L 145.042839 261.650062 
L 145.187384 262.64457 
L 145.107619 263.696526 
L 144.813051 264.782963 
L 144.261652 266.01042 
L 143.409149 267.384696 
L 142.063431 269.08541 
L 140.119256 271.152144 
L 137.285934 273.82698 
L 132.449947 278.048962 
L 120.56923 288.288467 
L 118.243375 290.635677 
L 116.688589 292.50988 
L 115.781954 293.960876 
L 115.290266 295.170976 
L 115.10438 296.247112 
L 115.158515 297.480112 
L 115.10911 298.233338 
L 114.843287 298.757468 
L 114.329728 299.252611 
L 113.357306 299.83245 
L 111.747495 300.509434 
L 109.185106 301.336236 
L 105.705981 302.228052 
L 103.130581 302.689069 
L 101.647294 302.751431 
L 100.372425 302.58033 
L 96.716194 301.879172 
L 94.021922 301.72015 
L 89.801285 301.722861 
L 77.909528 302.073654 
L 76.971564 302.139026 
L 78.126084 302.175673 
L 88.917834 302.147006 
L 150.484082 301.736508 
L 173.07673 301.424341 
L 192.944221 300.877458 
L 201.453596 300.280555 
L 207.896875 299.953164 
L 218.654216 299.707461 
L 234.300854 299.272273 
L 244.492069 298.743234 
L 250.668205 298.21838 
L 255.579918 297.590669 
L 259.746454 296.828829 
L 268.157473 294.965983 
L 272.254702 293.948577 
L 275.586207 292.891807 
L 276.202765 292.639938 
L 276.202765 292.639938 
" clip-path="url(#pa03c2dee8c)" style="fill: none; stroke: #fde725; stroke-width: 1.5; stroke-linecap: square"/>
   </g>
   <g id="patch_3">
    <path d="M 56.09 318.04 
L 56.09 50.64 
" style="fill: none; stroke: #000000; stroke-width: 0.8; stroke-linejoin: miter; stroke-linecap: square"/>
   </g>
   <g id="patch_4">
    <path d="M 503.325 318.04 
L 503.325 50.64 
" style="fill: none; stroke: #000000; stroke-width: 0.8; stroke-linejoin: miter; stroke-linecap: square"/>
   </g>
   <g id="patch_5">
    <path d="M 56.09 318.04 
L 503.325 318.04 
" style="fill: none; stroke: #000000; stroke-width: 0.8; stroke-linejoin: miter; stroke-linecap: square"/>
   </g>
   <g id="patch_6">
    <path d="M 56.09 50.64 
L 503.325 50.64 
" style="fill: none; stroke: #000000; stroke-width: 0.8; stroke-linejoin: miter; stroke-linecap: square"/>
   </g>
   <g id="text_19">
    <text style="font: 12px 'DejaVu Sans', 'Bitstream Vera Sans', 'Computer Modern Sans Serif', 'Lucida Grande', 'Verdana', 'Geneva', 'Lucid', 'Arial', 'Helvetica', 'Avant Garde', sans-serif; text-anchor: middle" x="279.7075" y="44.64" transform="rotate(-0 279.7075 44.64)">Play tests</text>
   </g>
  </g>
  <g id="axes_2">
   <g id="patch_7">
    <path d="M 549.965 318.04 
L 997.2 318.04 
L 997.2 50.64 
L 549.965 50.64 
z
" style="fill: #ffffff"/>
   </g>
   <g id="matplotlib.axis_3">
    <g id="xtick_10">
     <g id="line2d_19">
      <g>
       <use xlink:href="#m735d313f69" x="611.311776" y="318.04" style="stroke: #000000; stroke-width: 0.8"/>
      </g>
     </g>
     <g id="text_20">
      <text style="font: 10px 'DejaVu Sans', 'Bitstream Vera Sans', 'Computer Modern Sans Serif', 'Lucida Grande', 'Verdana', 'Geneva', 'Lucid', 'Arial', 'Helvetica', 'Avant Garde', sans-serif; text-anchor: middle" x="611.311776" y="332.638438" transform="rotate(-0 611.311776 332.638438)">−20</text>
     </g>
    </g>
    <g id="xtick_11">
     <g id="line2d_20">
      <g>
       <use xlink:href="#m735d313f69" x="692.457046" y="318.04" style="stroke: #000000; stroke-width: 0.8"/>
      </g>
     </g>
     <g id="text_21">
      <text style="font: 10px 'DejaVu Sans', 'Bitstream Vera Sans', 'Computer Modern Sans Serif', 'Lucida Grande', 'Verdana', 'Geneva', 'Lucid', 'Arial', 'Helvetica', 'Avant Garde', sans-serif; text-anchor: middle" x="692.457046" y="332.638438" transform="rotate(-0 692.457046 332.638438)">−10</text>
     </g>
    </g>
    <g id="xtick_12">
     <g id="line2d_21">
      <g>
       <use xlink:href="#m735d313f69" x="773.602316" y="318.04" style="stroke: #000000; stroke-width: 0.8"/>
      </g>
     </g>
     <g id="text_22">
      <text style="font: 10px 'DejaVu Sans', 'Bitstream Vera Sans', 'Computer Modern Sans Serif', 'Lucida Grande', 'Verdana', 'Geneva', 'Lucid', 'Arial', 'Helvetica', 'Avant Garde', sans-serif; text-anchor: middle" x="773.602316" y="332.638438" transform="rotate(-0 773.602316 332.638438)">0</text>
     </g>
    </g>
    <g id="xtick_13">
     <g id="line2d_22">
      <g>
       <use xlink:href="#m735d313f69" x="854.747586" y="318.04" style="stroke: #000000; stroke-width: 0.8"/>
      </g>
     </g>
     <g id="text_23">
      <text style="font: 10px 'DejaVu Sans', 'Bitstream Vera Sans', 'Computer Modern Sans Serif', 'Lucida Grande', 'Verdana', 'Geneva', 'Lucid', 'Arial', 'Helvetica', 'Avant Garde', sans-serif; text-anchor: middle" x="854.747586" y="332.638438" transform="rotate(-0 854.747586 332.638438)">10</text>
     </g>
    </g>
    <g id="xtick_14">
     <g id="line2d_23">
      <g>
       <use xlink:href="#m735d313f69" x="935.892857" y="318.04" style="stroke: #000000; stroke-width: 0.8"/>
      </g>
     </g>
     <g id="text_24">
      <text style="font: 10px 'DejaVu Sans', 'Bitstream Vera Sans', 'Computer Modern Sans Serif', 'Lucida Grande', 'Verdana', 'Geneva', 'Lucid', 'Arial', 'Helvetica', 'Avant Garde', sans-serif; text-anchor: middle" x="935.892857" y="332.638438" transform="rotate(-0 935.892857 332.638438)">20</text>
     </g>
    </g>
    <g id="text_25">
     <text style="font: 10px 'DejaVu Sans', 'Bitstream Vera Sans', 'Computer Modern Sans Serif', 'Lucida Grande', 'Verdana', 'Geneva', 'Lucid', 'Arial', 'Helvetica', 'Avant Garde', sans-serif; text-anchor: middle" x="773.5825" y="346.316563" transform="rotate(-0 773.5825 346.316563)">Motor Torque [Nm]</text>
    </g>
   </g>
   <g id="matplotlib.axis_4">
    <g id="ytick_8">
     <g id="line2d_24">
      <g>
       <use xlink:href="#m4bf3fad9ff" x="549.965" y="294.907608" style="stroke: #000000; stroke-width: 0.8"/>
      </g>
     </g>
     <g id="text_26">
      <text style="font: 10px 'DejaVu Sans', 'Bitstream Vera Sans', 'Computer Modern Sans Serif', 'Lucida Grande', 'Verdana', 'Geneva', 'Lucid', 'Arial', 'Helvetica', 'Avant Garde', sans-serif; text-anchor: end" x="542.965" y="298.706827" transform="rotate(-0 542.965 298.706827)">−3</text>
     </g>
    </g>
    <g id="ytick_9">
     <g id="line2d_25">
      <g>
       <use xlink:href="#m4bf3fad9ff" x="549.965" y="257.457018" style="stroke: #000000; stroke-width: 0.8"/>
      </g>
     </g>
     <g id="text_27">
      <text style="font: 10px 'DejaVu Sans', 'Bitstream Vera Sans', 'Computer Modern Sans Serif', 'Lucida Grande', 'Verdana', 'Geneva', 'Lucid', 'Arial', 'Helvetica', 'Avant Garde', sans-serif; text-anchor: end" x="542.965" y="261.256236" transform="rotate(-0 542.965 261.256236)">−2</text>
     </g>
    </g>
    <g id="ytick_10">
     <g id="line2d_26">
      <g>
       <use xlink:href="#m4bf3fad9ff" x="549.965" y="220.006427" style="stroke: #000000; stroke-width: 0.8"/>
      </g>
     </g>
     <g id="text_28">
      <text style="font: 10px 'DejaVu Sans', 'Bitstream Vera Sans', 'Computer Modern Sans Serif', 'Lucida Grande', 'Verdana', 'Geneva', 'Lucid', 'Arial', 'Helvetica', 'Avant Garde', sans-serif; text-anchor: end" x="542.965" y="223.805646" transform="rotate(-0 542.965 223.805646)">−1</text>
     </g>
    </g>
    <g id="ytick_11">
     <g id="line2d_27">
      <g>
       <use xlink:href="#m4bf3fad9ff" x="549.965" y="182.555836" style="stroke: #000000; stroke-width: 0.8"/>
      </g>
     </g>
     <g id="text_29">
      <text style="font: 10px 'DejaVu Sans', 'Bitstream Vera Sans', 'Computer Modern Sans Serif', 'Lucida Grande', 'Verdana', 'Geneva', 'Lucid', 'Arial', 'Helvetica', 'Avant Garde', sans-serif; text-anchor: end" x="542.965" y="186.355055" transform="rotate(-0 542.965 186.355055)">0</text>
     </g>
    </g>
    <g id="ytick_12">
     <g id="line2d_28">
      <g>
       <use xlink:href="#m4bf3fad9ff" x="549.965" y="145.105245" style="stroke: #000000; stroke-width: 0.8"/>
      </g>
     </g>
     <g id="text_30">
      <text style="font: 10px 'DejaVu Sans', 'Bitstream Vera Sans', 'Computer Modern Sans Serif', 'Lucida Grande', 'Verdana', 'Geneva', 'Lucid', 'Arial', 'Helvetica', 'Avant Garde', sans-serif; text-anchor: end" x="542.965" y="148.904464" transform="rotate(-0 542.965 148.904464)">1</text>
     </g>
    </g>
    <g id="ytick_13">
     <g id="line2d_29">
      <g>
       <use xlink:href="#m4bf3fad9ff" x="549.965" y="107.654654" style="stroke: #000000; stroke-width: 0.8"/>
      </g>
     </g>
     <g id="text_31">
      <text style="font: 10px 'DejaVu Sans', 'Bitstream Vera Sans', 'Computer Modern Sans Serif', 'Lucida Grande', 'Verdana', 'Geneva', 'Lucid', 'Arial', 'Helvetica', 'Avant Garde', sans-serif; text-anchor: end" x="542.965" y="111.453873" transform="rotate(-0 542.965 111.453873)">2</text>
     </g>
    </g>
    <g id="ytick_14">
     <g id="line2d_30">
      <g>
       <use xlink:href="#m4bf3fad9ff" x="549.965" y="70.204063" style="stroke: #000000; stroke-width: 0.8"/>
      </g>
     </g>
     <g id="text_32">
      <text style="font: 10px 'DejaVu Sans', 'Bitstream Vera Sans', 'Computer Modern Sans Serif', 'Lucida Grande', 'Verdana', 'Geneva', 'Lucid', 'Arial', 'Helvetica', 'Avant Garde', sans-serif; text-anchor: end" x="542.965" y="74.003282" transform="rotate(-0 542.965 74.003282)">3</text>
     </g>
    </g>
    <g id="text_33">
     <text style="font: 10px 'DejaVu Sans', 'Bitstream Vera Sans', 'Computer Modern Sans Serif', 'Lucida Grande', 'Verdana', 'Geneva', 'Lucid', 'Arial', 'Helvetica', 'Avant Garde', sans-serif; text-anchor: middle" x="522.143125" y="184.34" transform="rotate(-90 522.143125 184.34)">Deflection [deg]</text>
    </g>
   </g>
   <g id="line2d_31">
    <path d="M 775.674712 223.875352 
L 776.806155 223.580432 
L 777.900356 223.082922 
L 779.568142 222.035767 
L 783.442281 219.544608 
L 784.526231 218.716243 
L 785.379378 217.790944 
L 786.050589 216.734715 
L 786.878766 214.963349 
L 787.988435 212.082205 
L 788.928162 208.95979 
L 789.826074 205.223133 
L 790.600122 200.946022 
L 792.081286 192.828768 
L 794.580432 179.446907 
L 795.415791 173.620313 
L 797.957689 154.408651 
L 798.88818 150.074831 
L 800.410975 144.198455 
L 802.412093 136.400059 
L 802.86211 133.744283 
L 803.032235 131.208917 
L 803.230925 129.599986 
L 803.639104 128.280166 
L 804.407278 126.60957 
L 805.604235 124.56867 
L 807.530661 121.765363 
L 808.333322 120.93512 
L 809.020394 120.508819 
L 809.661372 120.38095 
L 811.13208 120.411232 
L 813.097821 120.323042 
L 815.536747 119.982849 
L 817.249699 119.53841 
L 818.819641 118.890652 
L 820.20411 118.080534 
L 822.05782 116.686158 
L 824.894293 114.577394 
L 825.957818 114.076195 
L 827.276892 113.739329 
L 832.375809 112.811388 
L 837.730431 111.857222 
L 841.588825 111.001172 
L 844.020798 110.22025 
L 846.124319 109.302348 
L 854.772513 105.173209 
L 856.487424 104.631814 
L 859.544111 103.757023 
L 862.403069 102.582955 
L 865.86814 101.216335 
L 872.451788 98.966251 
L 878.604734 97.393512 
L 879.613736 96.760949 
L 881.125052 95.489452 
L 884.684228 92.500216 
L 885.941585 91.692233 
L 887.010459 91.294538 
L 888.80228 90.908988 
L 895.138759 89.665308 
L 896.524158 88.981207 
L 899.795612 87.242819 
L 901.103721 86.937643 
L 918.009109 83.956783 
L 920.345888 83.13243 
L 923.647366 81.69491 
L 927.783974 79.930818 
L 930.364229 79.1025 
L 933.249466 78.405757 
L 939.536791 77.009619 
L 943.275458 75.806587 
L 945.890101 75.060269 
L 950.053994 74.233116 
L 952.712759 73.588514 
L 954.661068 72.868228 
L 958.057727 71.317168 
L 959.522279 70.385451 
L 962.384304 68.574217 
L 964.310183 67.602159 
L 965.914554 67.041295 
L 970.91107 65.630049 
L 976.365351 64.297644 
L 976.597369 64.045584 
L 976.58838 63.885774 
L 976.639503 63.868314 
L 976.749862 63.820614 
L 976.635843 63.75423 
L 976.587091 63.619164 
L 976.611948 63.602132 
L 976.692391 63.533809 
L 976.521318 63.561195 
L 976.521114 63.513394 
L 976.535611 63.454963 
L 976.607933 63.500654 
L 976.615142 63.448448 
L 976.797152 63.41181 
L 976.494357 63.374156 
L 976.517425 63.339608 
L 976.871136 63.244262 
L 970.370923 63.259924 
L 926.189189 63.59097 
L 905.018204 64.00537 
L 898.077102 64.309553 
L 889.252581 64.950888 
L 885.21272 65.458027 
L 877.761071 66.534131 
L 873.284412 67.037603 
L 870.894621 67.533935 
L 863.751542 69.291492 
L 859.748943 70.049058 
L 853.648894 71.340785 
L 850.601276 71.9335 
L 849.506842 72.372981 
L 848.491083 73.032737 
L 847.237315 74.128955 
L 844.15191 76.969565 
L 842.667026 77.935657 
L 838.65421 80.170105 
L 837.092125 80.810923 
L 835.475834 81.211045 
L 832.849509 81.587716 
L 828.328883 82.201012 
L 827.211071 82.640294 
L 826.104706 83.325372 
L 823.349443 85.418077 
L 819.21937 88.505686 
L 817.632218 89.394425 
L 816.383497 89.851256 
L 814.945761 90.130547 
L 811.006094 90.774632 
L 809.209377 91.366758 
L 803.940119 93.291703 
L 801.333387 94.094024 
L 799.188249 94.771456 
L 796.701515 95.472739 
L 795.844906 95.976627 
L 795.155753 96.650171 
L 794.100826 98.070529 
L 792.545237 100.526603 
L 790.289822 104.507073 
L 786.166891 112.370558 
L 784.470124 114.724728 
L 783.08502 116.30974 
L 781.798499 117.449961 
L 779.298556 119.305447 
L 775.62881 121.851599 
L 773.806265 122.824858 
L 772.592243 123.224314 
L 770.096725 123.984968 
L 768.968108 124.555616 
L 768.106928 125.228355 
L 767.474923 126.006726 
L 766.879555 127.118549 
L 766.154094 128.991782 
L 765.118611 132.409158 
L 763.498181 138.447481 
L 762.507997 143.004285 
L 761.281815 149.726463 
L 759.121201 163.747699 
L 754.595202 194.60077 
L 751.558773 213.143568 
L 750.247353 219.699282 
L 748.965645 224.92027 
L 747.443537 230.22144 
L 746.040294 234.291835 
L 745.837609 234.42328 
L 745.57153 234.244342 
L 744.802947 233.728587 
L 743.948988 233.45042 
L 742.744776 233.309499 
L 740.566059 233.328383 
L 737.412677 233.556093 
L 733.603131 234.088794 
L 731.077075 234.671005 
L 728.252107 235.556352 
L 723.154721 237.299254 
L 720.168511 238.398062 
L 716.553494 239.681684 
L 711.085587 241.495552 
L 709.920629 242.199015 
L 708.867806 243.102936 
L 704.622315 247.168306 
L 702.819249 248.538627 
L 701.207314 249.475658 
L 699.02002 250.457518 
L 695.806917 251.874167 
L 694.554677 252.72678 
L 692.937929 254.124574 
L 689.493539 257.19677 
L 688.33779 257.828064 
L 686.823215 258.381925 
L 684.457087 258.980321 
L 682.113146 259.626494 
L 680.994125 260.177115 
L 679.423215 261.265576 
L 677.59942 262.447634 
L 676.130104 263.134518 
L 674.688775 263.560907 
L 671.999211 264.053783 
L 670.167506 264.531121 
L 668.704736 265.152295 
L 665.548231 266.821634 
L 663.59181 267.682479 
L 661.577919 268.306026 
L 657.829332 269.395751 
L 655.356225 270.46397 
L 653.350638 271.236533 
L 651.464692 271.702219 
L 647.391364 272.621732 
L 639.060235 275.026781 
L 637.668565 275.842396 
L 635.528713 277.179808 
L 633.708494 278.044453 
L 631.730975 278.723416 
L 629.295191 279.527438 
L 627.953691 280.244096 
L 626.101018 281.543456 
L 620.645692 285.455993 
L 617.458437 287.589208 
L 613.227595 290.090867 
L 611.351781 290.856752 
L 607.281012 292.455656 
L 603.073787 294.163159 
L 600.695174 294.775723 
L 596.822706 295.838153 
L 592.385025 297.293921 
L 589.010576 298.605609 
L 586.383612 299.567833 
L 580.93482 301.197159 
L 574.48666 303.105094 
L 570.79741 304.019749 
L 570.49678 304.312505 
L 570.604845 304.476367 
L 570.706695 304.561877 
L 570.630534 304.611549 
L 570.568675 304.661249 
L 570.686913 304.707289 
L 570.707939 304.747073 
L 570.655096 304.818261 
L 570.645255 304.901389 
L 570.570454 304.917571 
L 570.293923 304.976438 
L 570.589686 305.026825 
L 570.781259 305.162112 
L 570.515821 305.093435 
L 570.774399 305.16757 
L 570.466139 305.343391 
L 570.820165 305.249792 
L 570.581525 305.358378 
L 570.7275 305.469506 
L 570.412575 305.395206 
L 570.687577 305.478839 
L 570.383604 305.504766 
L 570.565091 305.617398 
L 570.813307 305.705508 
L 570.471314 305.723705 
L 570.394124 305.802361 
L 570.680403 305.783323 
L 570.622032 305.812619 
L 570.432752 305.848977 
L 575.398288 305.879121 
L 603.880194 305.631831 
L 613.122044 305.410087 
L 626.357964 304.764093 
L 641.93294 303.028121 
L 650.652528 301.857172 
L 653.455569 301.152378 
L 656.288902 300.479446 
L 658.773116 300.147087 
L 662.91177 299.61596 
L 665.09165 299.056428 
L 677.372975 295.374423 
L 683.234341 294.00789 
L 684.824679 293.220828 
L 688.730212 291.217698 
L 689.784142 291.028939 
L 693.046859 290.808484 
L 696.317262 290.441 
L 698.872815 289.937289 
L 700.258662 289.453749 
L 701.443759 288.791797 
L 702.653319 287.860419 
L 703.811454 286.689888 
L 705.304752 284.824908 
L 710.157244 278.409673 
L 711.506448 277.169592 
L 712.577676 276.459691 
L 713.587226 276.060162 
L 718.035882 274.612316 
L 719.017693 273.907997 
L 720.27176 272.676475 
L 723.668907 269.264509 
L 724.744582 268.525174 
L 725.588767 268.213564 
L 726.792593 268.052346 
L 729.313242 267.725134 
L 730.543275 267.330233 
L 734.756822 265.676362 
L 736.378739 265.392173 
L 739.648031 264.881495 
L 741.395503 264.319228 
L 743.072049 263.558388 
L 744.28739 262.737201 
L 745.492426 261.65983 
L 747.148449 259.812927 
L 750.228357 256.320009 
L 751.01631 255.869215 
L 752.099 255.53729 
L 755.231427 254.669289 
L 756.69263 253.995754 
L 758.02754 253.097095 
L 759.215524 252.047349 
L 760.469181 250.642612 
L 761.70902 248.885222 
L 763.997859 245.582481 
L 765.990251 243.265386 
L 767.771723 241.162972 
L 768.872871 239.50767 
L 770.93485 235.886445 
L 771.668604 234.481064 
L 771.668604 234.481064 
" clip-path="url(#p72c1bfecbd)" style="fill: none; stroke: #440154; stroke-width: 1.5; stroke-linecap: square"/>
   </g>
   <g id="line2d_32">
    <path d="M 775.245616 233.665748 
L 776.051826 233.176142 
L 777.082869 232.309972 
L 778.096551 231.138966 
L 779.647766 228.995101 
L 781.743637 225.609845 
L 786.062703 218.113377 
L 787.034276 215.661281 
L 788.182078 211.981311 
L 792.337274 198.38102 
L 794.033311 192.0559 
L 794.948356 187.816243 
L 796.033475 181.493024 
L 796.976958 174.924254 
L 798.064226 167.72977 
L 800.110224 156.023338 
L 802.599508 143.117817 
L 804.0224 137.202786 
L 805.806495 130.760963 
L 809.209823 119.500475 
L 809.508769 119.347863 
L 809.936795 119.409225 
L 810.795806 119.830634 
L 811.720363 120.106792 
L 812.736428 120.187031 
L 814.32519 120.058534 
L 818.175003 119.647324 
L 820.599947 119.378143 
L 821.987679 118.985277 
L 823.830211 118.208812 
L 826.242722 116.952872 
L 831.400992 114.225669 
L 832.921132 113.690842 
L 837.698899 112.391891 
L 842.135087 111.331301 
L 846.793933 110.131604 
L 852.832308 108.416445 
L 854.522025 107.657628 
L 858.637515 105.518739 
L 860.130596 104.371255 
L 862.574561 102.150233 
L 864.758787 100.302238 
L 867.193941 98.673717 
L 871.338794 95.987869 
L 872.843917 95.344071 
L 878.991292 92.906807 
L 881.947231 91.718963 
L 883.802318 91.210034 
L 889.348093 89.899082 
L 893.119643 88.720878 
L 898.608231 87.281943 
L 905.614176 85.351365 
L 909.265303 84.351575 
L 913.158964 83.328533 
L 916.548894 82.681561 
L 921.943676 81.721981 
L 925.531806 80.834458 
L 926.977968 80.254665 
L 933.401995 77.318486 
L 937.767092 75.869375 
L 940.191133 74.461932 
L 942.340589 73.357545 
L 944.566299 72.519902 
L 947.650494 71.62691 
L 953.455043 70.171351 
L 956.571236 69.335749 
L 960.009896 68.209701 
L 963.980888 66.751959 
L 968.256259 65.706669 
L 970.99989 65.217943 
L 974.003017 64.625963 
L 976.170521 63.994528 
L 976.635912 63.680487 
L 976.55006 63.553922 
L 976.513791 63.399741 
L 976.508948 63.384636 
L 976.628043 63.365194 
L 976.654963 63.314672 
L 976.545843 63.285167 
L 976.497474 63.272586 
L 976.818361 63.254796 
L 976.792689 63.213465 
L 976.808551 63.208216 
L 976.538378 63.171009 
L 976.539251 63.141861 
L 976.475419 63.128152 
L 976.691323 63.118088 
L 976.764081 63.064058 
L 976.463663 63.094563 
L 976.54011 63.013102 
L 976.81053 62.944353 
L 976.479789 63.001184 
L 976.505204 62.906457 
L 976.316812 62.901153 
L 976.762578 62.87 
L 976.557058 62.796993 
L 976.762803 62.795373 
L 970.94271 62.809348 
L 921.528981 63.219 
L 903.58829 63.608608 
L 883.067588 64.623361 
L 881.004089 65.015056 
L 876.461673 65.985556 
L 869.714416 66.795978 
L 866.714767 67.579334 
L 862.915808 68.50899 
L 858.452311 69.674293 
L 855.59492 70.251646 
L 848.767921 71.607396 
L 846.238826 72.388599 
L 843.404021 73.507031 
L 841.818097 74.345182 
L 840.381611 75.354775 
L 838.942457 76.650266 
L 837.516377 78.238025 
L 834.267297 82.029264 
L 833.2158 82.775896 
L 832.050223 83.323098 
L 830.767673 83.675647 
L 828.450016 84.01914 
L 826.32799 84.444046 
L 824.899435 84.944335 
L 823.446079 85.705205 
L 821.812856 86.838617 
L 819.319824 88.565292 
L 817.986318 89.172493 
L 816.596964 89.553692 
L 813.80463 89.997842 
L 811.794434 90.456954 
L 810.326131 91.011761 
L 808.799001 91.837035 
L 806.852542 93.188578 
L 802.063888 96.754255 
L 800.832789 98.164188 
L 798.303613 101.111381 
L 796.311919 103.092154 
L 794.544481 104.600462 
L 793.103129 105.553653 
L 791.503908 106.307742 
L 789.52432 107.283131 
L 787.249653 108.690242 
L 785.893579 109.778922 
L 785.172709 110.658343 
L 783.564241 113.16299 
L 780.495952 118.448615 
L 778.106492 122.515386 
L 777.13282 123.715222 
L 776.297526 124.402682 
L 775.353687 124.887906 
L 774.194957 125.221496 
L 771.622272 125.877618 
L 770.706795 126.409651 
L 769.375894 127.454757 
L 768.148439 128.713856 
L 767.063015 130.135054 
L 766.220366 131.615596 
L 765.332149 133.691391 
L 764.322847 136.615296 
L 762.241214 143.661423 
L 760.972238 148.947898 
L 759.864403 154.444612 
L 758.322905 163.462586 
L 755.838246 178.332433 
L 754.245299 186.175193 
L 751.07312 201.031031 
L 750.770354 203.970098 
L 750.70446 206.813836 
L 750.620621 211.193931 
L 750.322072 213.817445 
L 749.80557 216.405069 
L 749.021833 219.203783 
L 747.761305 222.831544 
L 745.808268 227.720918 
L 742.214501 235.981682 
L 742.196228 235.960181 
L 741.573228 234.986015 
L 740.976541 234.669507 
L 740.16111 234.498545 
L 739.053376 234.510576 
L 737.268338 234.787233 
L 734.359937 235.206976 
L 730.340032 235.736001 
L 728.854303 236.174807 
L 727.583371 236.775932 
L 726.269494 237.66641 
L 724.748066 238.938548 
L 720.581864 242.607106 
L 718.709413 243.862743 
L 716.968988 244.792353 
L 714.3328 246.123986 
L 712.10093 247.302978 
L 709.959778 248.104352 
L 704.94006 249.84673 
L 702.063808 250.928427 
L 698.375314 252.223978 
L 696.737878 253.151305 
L 692.138845 255.956537 
L 690.495482 256.442856 
L 685.119746 257.832427 
L 683.558848 258.610056 
L 680.358434 260.598495 
L 678.5385 262.002048 
L 676.550003 263.439208 
L 674.720688 264.519914 
L 673.166707 265.182506 
L 671.312396 265.672115 
L 666.987373 266.57509 
L 662.806484 267.3872 
L 660.6525 268.066608 
L 658.612519 268.930178 
L 655.669672 270.148896 
L 649.724928 272.389231 
L 646.82285 273.529837 
L 644.942662 273.992436 
L 641.953752 274.707638 
L 640.558081 275.307637 
L 638.332007 276.565206 
L 634.246486 278.903032 
L 629.833223 281.148723 
L 628.202152 281.735272 
L 624.154633 283.011873 
L 622.634463 283.801012 
L 619.125691 285.746514 
L 608.0223 290.881134 
L 605.443303 291.645695 
L 603.565327 292.317533 
L 601.545645 293.326281 
L 599.394168 294.317031 
L 595.534982 296.025888 
L 593.35201 296.965844 
L 591.438698 297.541732 
L 588.100508 298.257376 
L 582.867196 299.373272 
L 576.575915 300.937254 
L 571.630196 302.69708 
L 570.729817 303.215288 
L 570.514069 303.555448 
L 570.592922 303.784513 
L 570.695542 303.932908 
L 570.657633 303.977533 
L 570.7203 304.085628 
L 570.755368 304.133298 
L 570.665328 304.182104 
L 570.577215 304.215702 
L 570.731442 304.278926 
L 570.700512 304.385447 
L 570.695461 304.389898 
L 570.634343 304.438077 
L 570.76141 304.478443 
L 570.786699 304.496874 
L 570.627854 304.545268 
L 570.488568 304.597986 
L 570.593037 304.665546 
L 570.618982 304.67589 
L 570.337526 304.716134 
L 570.316325 304.725241 
L 570.546494 304.77273 
L 570.538649 304.787995 
L 570.769134 304.993144 
L 570.692691 305.013984 
L 570.464724 305.06297 
L 570.54393 305.151092 
L 570.806395 305.216774 
L 570.417647 305.183717 
L 570.493502 305.251243 
L 570.717122 305.340091 
L 570.471341 305.36237 
L 570.414627 305.370571 
L 570.674571 305.405985 
L 570.564756 305.466815 
L 570.607238 305.500955 
L 570.662259 305.480159 
L 570.669397 305.508793 
L 570.749693 305.545617 
L 570.51813 305.560862 
L 570.577968 305.599862 
L 570.552733 305.69843 
L 570.841223 305.662905 
L 570.619576 305.707383 
L 570.494155 305.788112 
L 572.315772 305.800253 
L 594.320772 305.663992 
L 608.179646 305.433679 
L 617.2 305.052774 
L 623.217796 304.664196 
L 632.218109 303.832917 
L 637.077362 303.124279 
L 641.069333 302.52387 
L 646.583767 301.966696 
L 649.31261 301.378031 
L 652.256486 300.799145 
L 656.769718 299.966918 
L 661.132632 299.133024 
L 664.462933 298.446304 
L 668.346972 297.64417 
L 672.251731 297.145236 
L 675.816012 296.592114 
L 678.258694 296.002755 
L 684.567971 294.235438 
L 688.617426 293.293198 
L 689.977947 292.689925 
L 691.285691 291.856375 
L 695.575102 288.930984 
L 697.048774 288.320251 
L 699.593296 287.531037 
L 702.536884 286.57485 
L 703.91614 285.899956 
L 704.913558 285.160488 
L 706.140152 283.947512 
L 711.277327 278.435523 
L 718.410462 272.308917 
L 719.735499 271.469423 
L 720.703676 271.108286 
L 721.886067 270.926079 
L 730.186262 270.085207 
L 732.031713 269.495003 
L 734.296143 268.569456 
L 735.916623 267.660125 
L 740.175408 265.086886 
L 741.573693 264.687073 
L 745.768008 263.68115 
L 746.806953 263.089124 
L 747.733013 262.298678 
L 749.052687 260.82747 
L 750.646695 258.70954 
L 752.376709 256.071289 
L 756.202148 249.826142 
L 757.365773 248.547383 
L 758.257134 247.926379 
L 759.257999 247.491305 
L 760.417295 247.255369 
L 766.02923 246.418393 
L 767.488863 245.823675 
L 768.607362 245.140949 
L 769.635417 244.252388 
L 770.451086 243.24916 
L 770.78306 242.765992 
L 770.78306 242.765992 
" clip-path="url(#p72c1bfecbd)" style="fill: none; stroke: #fde725; stroke-width: 1.5; stroke-linecap: square"/>
   </g>
   <g id="patch_8">
    <path d="M 549.965 318.04 
L 549.965 50.64 
" style="fill: none; stroke: #000000; stroke-width: 0.8; stroke-linejoin: miter; stroke-linecap: square"/>
   </g>
   <g id="patch_9">
    <path d="M 997.2 318.04 
L 997.2 50.64 
" style="fill: none; stroke: #000000; stroke-width: 0.8; stroke-linejoin: miter; stroke-linecap: square"/>
   </g>
   <g id="patch_10">
    <path d="M 549.965 318.04 
L 997.2 318.04 
" style="fill: none; stroke: #000000; stroke-width: 0.8; stroke-linejoin: miter; stroke-linecap: square"/>
   </g>
   <g id="patch_11">
    <path d="M 549.965 50.64 
L 997.2 50.64 
" style="fill: none; stroke: #000000; stroke-width: 0.8; stroke-linejoin: miter; stroke-linecap: square"/>
   </g>
   <g id="text_34">
    <text style="font: 12px 'DejaVu Sans', 'Bitstream Vera Sans', 'Computer Modern Sans Serif', 'Lucida Grande', 'Verdana', 'Geneva', 'Lucid', 'Arial', 'Helvetica', 'Avant Garde', sans-serif; text-anchor: middle" x="773.5825" y="44.64" transform="rotate(-0 773.5825 44.64)">Stiffness tests</text>
   </g>
   <g id="legend_1">
    <g id="patch_12">
     <path d="M 556.965 87.99625 
L 645.310313 87.99625 
Q 647.310313 87.99625 647.310313 85.99625 
L 647.310313 57.64 
Q 647.310313 55.64 645.310313 55.64 
L 556.965 55.64 
Q 554.965 55.64 554.965 57.64 
L 554.965 85.99625 
Q 554.965 87.99625 556.965 87.99625 
z
" style="fill: #ffffff; opacity: 0.8; stroke: #cccccc; stroke-linejoin: miter"/>
    </g>
    <g id="line2d_33">
     <path d="M 558.965 63.738437 
L 568.965 63.738437 
L 578.965 63.738437 
" style="fill: none; stroke: #440154; stroke-width: 1.5; stroke-linecap: square"/>
    </g>
    <g id="text_35">
     <text style="font: 10px 'DejaVu Sans', 'Bitstream Vera Sans', 'Computer Modern Sans Serif', 'Lucida Grande', 'Verdana', 'Geneva', 'Lucid', 'Arial', 'Helvetica', 'Avant Garde', sans-serif; text-anchor: start" x="586.965" y="67.238437" transform="rotate(-0 586.965 67.238437)">initial</text>
    </g>
    <g id="line2d_34">
     <path d="M 558.965 78.416562 
L 568.965 78.416562 
L 578.965 78.416562 
" style="fill: none; stroke: #fde725; stroke-width: 1.5; stroke-linecap: square"/>
    </g>
    <g id="text_36">
     <text style="font: 10px 'DejaVu Sans', 'Bitstream Vera Sans', 'Computer Modern Sans Serif', 'Lucida Grande', 'Verdana', 'Geneva', 'Lucid', 'Arial', 'Helvetica', 'Avant Garde', sans-serif; text-anchor: start" x="586.965" y="81.916562" transform="rotate(-0 586.965 81.916562)">after run-in</text>
    </g>
   </g>
  </g>
  <g id="text_37">
   <text style="font: 12px 'DejaVu Sans', 'Bitstream Vera Sans', 'Computer Modern Sans Serif', 'Lucida Grande', 'Verdana', 'Geneva', 'Lucid', 'Arial', 'Helvetica', 'Avant Garde', sans-serif; text-anchor: middle" x="504" y="16.318125" transform="rotate(-0 504 16.318125)">Baseline (PC-CF)</text>
  </g>
 </g>
 <defs>
  <clipPath id="pa03c2dee8c">
   <rect x="56.09" y="50.64" width="447.235" height="267.4"/>
  </clipPath>
  <clipPath id="p72c1bfecbd">
   <rect x="549.965" y="50.64" width="447.235" height="267.4"/>
  </clipPath>
 </defs>
</svg>
