<?xml version="1.0" encoding="utf-8" standalone="no"?>
<!DOCTYPE svg PUBLIC "-//W3C//DTD SVG 1.1//EN"
  "http://www.w3.org/Graphics/SVG/1.1/DTD/svg11.dtd">
<svg xmlns:xlink="http://www.w3.org/1999/xlink" width="1008pt" height="360pt" viewBox="0 0 1008 360" xmlns="http://www.w3.org/2000/svg" version="1.1">
 <metadata>
  <rdf:RDF xmlns:dc="http://purl.org/dc/elements/1.1/" xmlns:cc="http://creativecommons.org/ns#" xmlns:rdf="http://www.w3.org/1999/02/22-rdf-syntax-ns#">
   <cc:Work>
    <dc:type rdf:resource="http://purl.org/dc/dcmitype/StillImage"/>
    <dc:date>2024-07-30T13:00:15.652912</dc:date>
    <dc:format>image/svg+xml</dc:format>
    <dc:creator>
     <cc:Agent>
      <dc:title>Matplotlib v3.9.0, https://matplotlib.org/</dc:title>
     </cc:Agent>
    </dc:creator>
   </cc:Work>
  </rdf:RDF>
 </metadata>
 <defs>
  <style type="text/css">*{stroke-linejoin: round; stroke-linecap: butt}</style>
 </defs>
 <g id="figure_1">
  <g id="patch_1">
   <path d="M 0 360 
L 1008 360 
L 1008 0 
L 0 0 
z
" style="fill: #ffffff"/>
  </g>
  <g id="axes_1">
   <g id="patch_2">
    <path d="M 56.09 318.04 
L 503.325 318.04 
L 503.325 50.64 
L 56.09 50.64 
z
" style="fill: #ffffff"/>
   </g>
   <g id="matplotlib.axis_1">
    <g id="xtick_1">
     <g id="line2d_1">
      <path d="M 75.722615 318.04 
L 75.722615 50.64 
" clip-path="url(#pf9a5e3e8dd)" style="fill: none; stroke: #b0b0b0; stroke-width: 0.8; stroke-linecap: square"/>
     </g>
     <g id="line2d_2">
      <defs>
       <path id="mb93321f905" d="M 0 0 
L 0 3.5 
" style="stroke: #000000; stroke-width: 0.8"/>
      </defs>
      <g>
       <use xlink:href="#mb93321f905" x="75.722615" y="318.04" style="stroke: #000000; stroke-width: 0.8"/>
      </g>
     </g>
     <g id="text_1">
      <text style="font: 10px 'DejaVu Sans', 'Bitstream Vera Sans', 'Computer Modern Sans Serif', 'Lucida Grande', 'Verdana', 'Geneva', 'Lucid', 'Arial', 'Helvetica', 'Avant Garde', sans-serif; text-anchor: middle" x="75.722615" y="332.638438" transform="rotate(-0 75.722615 332.638438)">−4</text>
     </g>
    </g>
    <g id="xtick_2">
     <g id="line2d_3">
      <path d="M 126.764805 318.04 
L 126.764805 50.64 
" clip-path="url(#pf9a5e3e8dd)" style="fill: none; stroke: #b0b0b0; stroke-width: 0.8; stroke-linecap: square"/>
     </g>
     <g id="line2d_4">
      <g>
       <use xlink:href="#mb93321f905" x="126.764805" y="318.04" style="stroke: #000000; stroke-width: 0.8"/>
      </g>
     </g>
     <g id="text_2">
      <text style="font: 10px 'DejaVu Sans', 'Bitstream Vera Sans', 'Computer Modern Sans Serif', 'Lucida Grande', 'Verdana', 'Geneva', 'Lucid', 'Arial', 'Helvetica', 'Avant Garde', sans-serif; text-anchor: middle" x="126.764805" y="332.638438" transform="rotate(-0 126.764805 332.638438)">−3</text>
     </g>
    </g>
    <g id="xtick_3">
     <g id="line2d_5">
      <path d="M 177.806996 318.04 
L 177.806996 50.64 
" clip-path="url(#pf9a5e3e8dd)" style="fill: none; stroke: #b0b0b0; stroke-width: 0.8; stroke-linecap: square"/>
     </g>
     <g id="line2d_6">
      <g>
       <use xlink:href="#mb93321f905" x="177.806996" y="318.04" style="stroke: #000000; stroke-width: 0.8"/>
      </g>
     </g>
     <g id="text_3">
      <text style="font: 10px 'DejaVu Sans', 'Bitstream Vera Sans', 'Computer Modern Sans Serif', 'Lucida Grande', 'Verdana', 'Geneva', 'Lucid', 'Arial', 'Helvetica', 'Avant Garde', sans-serif; text-anchor: middle" x="177.806996" y="332.638438" transform="rotate(-0 177.806996 332.638438)">−2</text>
     </g>
    </g>
    <g id="xtick_4">
     <g id="line2d_7">
      <path d="M 228.849186 318.04 
L 228.849186 50.64 
" clip-path="url(#pf9a5e3e8dd)" style="fill: none; stroke: #b0b0b0; stroke-width: 0.8; stroke-linecap: square"/>
     </g>
     <g id="line2d_8">
      <g>
       <use xlink:href="#mb93321f905" x="228.849186" y="318.04" style="stroke: #000000; stroke-width: 0.8"/>
      </g>
     </g>
     <g id="text_4">
      <text style="font: 10px 'DejaVu Sans', 'Bitstream Vera Sans', 'Computer Modern Sans Serif', 'Lucida Grande', 'Verdana', 'Geneva', 'Lucid', 'Arial', 'Helvetica', 'Avant Garde', sans-serif; text-anchor: middle" x="228.849186" y="332.638438" transform="rotate(-0 228.849186 332.638438)">−1</text>
     </g>
    </g>
    <g id="xtick_5">
     <g id="line2d_9">
      <path d="M 279.891377 318.04 
L 279.891377 50.64 
" clip-path="url(#pf9a5e3e8dd)" style="fill: none; stroke: #b0b0b0; stroke-width: 0.8; stroke-linecap: square"/>
     </g>
     <g id="line2d_10">
      <g>
       <use xlink:href="#mb93321f905" x="279.891377" y="318.04" style="stroke: #000000; stroke-width: 0.8"/>
      </g>
     </g>
     <g id="text_5">
      <text style="font: 10px 'DejaVu Sans', 'Bitstream Vera Sans', 'Computer Modern Sans Serif', 'Lucida Grande', 'Verdana', 'Geneva', 'Lucid', 'Arial', 'Helvetica', 'Avant Garde', sans-serif; text-anchor: middle" x="279.891377" y="332.638438" transform="rotate(-0 279.891377 332.638438)">0</text>
     </g>
    </g>
    <g id="xtick_6">
     <g id="line2d_11">
      <path d="M 330.933567 318.04 
L 330.933567 50.64 
" clip-path="url(#pf9a5e3e8dd)" style="fill: none; stroke: #b0b0b0; stroke-width: 0.8; stroke-linecap: square"/>
     </g>
     <g id="line2d_12">
      <g>
       <use xlink:href="#mb93321f905" x="330.933567" y="318.04" style="stroke: #000000; stroke-width: 0.8"/>
      </g>
     </g>
     <g id="text_6">
      <text style="font: 10px 'DejaVu Sans', 'Bitstream Vera Sans', 'Computer Modern Sans Serif', 'Lucida Grande', 'Verdana', 'Geneva', 'Lucid', 'Arial', 'Helvetica', 'Avant Garde', sans-serif; text-anchor: middle" x="330.933567" y="332.638438" transform="rotate(-0 330.933567 332.638438)">1</text>
     </g>
    </g>
    <g id="xtick_7">
     <g id="line2d_13">
      <path d="M 381.975758 318.04 
L 381.975758 50.64 
" clip-path="url(#pf9a5e3e8dd)" style="fill: none; stroke: #b0b0b0; stroke-width: 0.8; stroke-linecap: square"/>
     </g>
     <g id="line2d_14">
      <g>
       <use xlink:href="#mb93321f905" x="381.975758" y="318.04" style="stroke: #000000; stroke-width: 0.8"/>
      </g>
     </g>
     <g id="text_7">
      <text style="font: 10px 'DejaVu Sans', 'Bitstream Vera Sans', 'Computer Modern Sans Serif', 'Lucida Grande', 'Verdana', 'Geneva', 'Lucid', 'Arial', 'Helvetica', 'Avant Garde', sans-serif; text-anchor: middle" x="381.975758" y="332.638438" transform="rotate(-0 381.975758 332.638438)">2</text>
     </g>
    </g>
    <g id="xtick_8">
     <g id="line2d_15">
      <path d="M 433.017948 318.04 
L 433.017948 50.64 
" clip-path="url(#pf9a5e3e8dd)" style="fill: none; stroke: #b0b0b0; stroke-width: 0.8; stroke-linecap: square"/>
     </g>
     <g id="line2d_16">
      <g>
       <use xlink:href="#mb93321f905" x="433.017948" y="318.04" style="stroke: #000000; stroke-width: 0.8"/>
      </g>
     </g>
     <g id="text_8">
      <text style="font: 10px 'DejaVu Sans', 'Bitstream Vera Sans', 'Computer Modern Sans Serif', 'Lucida Grande', 'Verdana', 'Geneva', 'Lucid', 'Arial', 'Helvetica', 'Avant Garde', sans-serif; text-anchor: middle" x="433.017948" y="332.638438" transform="rotate(-0 433.017948 332.638438)">3</text>
     </g>
    </g>
    <g id="xtick_9">
     <g id="line2d_17">
      <path d="M 484.060138 318.04 
L 484.060138 50.64 
" clip-path="url(#pf9a5e3e8dd)" style="fill: none; stroke: #b0b0b0; stroke-width: 0.8; stroke-linecap: square"/>
     </g>
     <g id="line2d_18">
      <g>
       <use xlink:href="#mb93321f905" x="484.060138" y="318.04" style="stroke: #000000; stroke-width: 0.8"/>
      </g>
     </g>
     <g id="text_9">
      <text style="font: 10px 'DejaVu Sans', 'Bitstream Vera Sans', 'Computer Modern Sans Serif', 'Lucida Grande', 'Verdana', 'Geneva', 'Lucid', 'Arial', 'Helvetica', 'Avant Garde', sans-serif; text-anchor: middle" x="484.060138" y="332.638438" transform="rotate(-0 484.060138 332.638438)">4</text>
     </g>
    </g>
    <g id="text_10">
     <text style="font: 10px 'DejaVu Sans', 'Bitstream Vera Sans', 'Computer Modern Sans Serif', 'Lucida Grande', 'Verdana', 'Geneva', 'Lucid', 'Arial', 'Helvetica', 'Avant Garde', sans-serif; text-anchor: middle" x="279.7075" y="346.316563" transform="rotate(-0 279.7075 346.316563)">Motor Torque [Nm]</text>
    </g>
   </g>
   <g id="matplotlib.axis_2">
    <g id="ytick_1">
     <g id="line2d_19">
      <path d="M 56.09 314.304882 
L 503.325 314.304882 
" clip-path="url(#pf9a5e3e8dd)" style="fill: none; stroke: #b0b0b0; stroke-width: 0.8; stroke-linecap: square"/>
     </g>
     <g id="line2d_20">
      <defs>
       <path id="mb53ccb93f7" d="M 0 0 
L -3.5 0 
" style="stroke: #000000; stroke-width: 0.8"/>
      </defs>
      <g>
       <use xlink:href="#mb53ccb93f7" x="56.09" y="314.304882" style="stroke: #000000; stroke-width: 0.8"/>
      </g>
     </g>
     <g id="text_11">
      <text style="font: 10px 'DejaVu Sans', 'Bitstream Vera Sans', 'Computer Modern Sans Serif', 'Lucida Grande', 'Verdana', 'Geneva', 'Lucid', 'Arial', 'Helvetica', 'Avant Garde', sans-serif; text-anchor: end" x="49.09" y="318.104101" transform="rotate(-0 49.09 318.104101)">−0.8</text>
     </g>
    </g>
    <g id="ytick_2">
     <g id="line2d_21">
      <path d="M 56.09 282.356354 
L 503.325 282.356354 
" clip-path="url(#pf9a5e3e8dd)" style="fill: none; stroke: #b0b0b0; stroke-width: 0.8; stroke-linecap: square"/>
     </g>
     <g id="line2d_22">
      <g>
       <use xlink:href="#mb53ccb93f7" x="56.09" y="282.356354" style="stroke: #000000; stroke-width: 0.8"/>
      </g>
     </g>
     <g id="text_12">
      <text style="font: 10px 'DejaVu Sans', 'Bitstream Vera Sans', 'Computer Modern Sans Serif', 'Lucida Grande', 'Verdana', 'Geneva', 'Lucid', 'Arial', 'Helvetica', 'Avant Garde', sans-serif; text-anchor: end" x="49.09" y="286.155573" transform="rotate(-0 49.09 286.155573)">−0.6</text>
     </g>
    </g>
    <g id="ytick_3">
     <g id="line2d_23">
      <path d="M 56.09 250.407826 
L 503.325 250.407826 
" clip-path="url(#pf9a5e3e8dd)" style="fill: none; stroke: #b0b0b0; stroke-width: 0.8; stroke-linecap: square"/>
     </g>
     <g id="line2d_24">
      <g>
       <use xlink:href="#mb53ccb93f7" x="56.09" y="250.407826" style="stroke: #000000; stroke-width: 0.8"/>
      </g>
     </g>
     <g id="text_13">
      <text style="font: 10px 'DejaVu Sans', 'Bitstream Vera Sans', 'Computer Modern Sans Serif', 'Lucida Grande', 'Verdana', 'Geneva', 'Lucid', 'Arial', 'Helvetica', 'Avant Garde', sans-serif; text-anchor: end" x="49.09" y="254.207045" transform="rotate(-0 49.09 254.207045)">−0.4</text>
     </g>
    </g>
    <g id="ytick_4">
     <g id="line2d_25">
      <path d="M 56.09 218.459298 
L 503.325 218.459298 
" clip-path="url(#pf9a5e3e8dd)" style="fill: none; stroke: #b0b0b0; stroke-width: 0.8; stroke-linecap: square"/>
     </g>
     <g id="line2d_26">
      <g>
       <use xlink:href="#mb53ccb93f7" x="56.09" y="218.459298" style="stroke: #000000; stroke-width: 0.8"/>
      </g>
     </g>
     <g id="text_14">
      <text style="font: 10px 'DejaVu Sans', 'Bitstream Vera Sans', 'Computer Modern Sans Serif', 'Lucida Grande', 'Verdana', 'Geneva', 'Lucid', 'Arial', 'Helvetica', 'Avant Garde', sans-serif; text-anchor: end" x="49.09" y="222.258517" transform="rotate(-0 49.09 222.258517)">−0.2</text>
     </g>
    </g>
    <g id="ytick_5">
     <g id="line2d_27">
      <path d="M 56.09 186.51077 
L 503.325 186.51077 
" clip-path="url(#pf9a5e3e8dd)" style="fill: none; stroke: #b0b0b0; stroke-width: 0.8; stroke-linecap: square"/>
     </g>
     <g id="line2d_28">
      <g>
       <use xlink:href="#mb53ccb93f7" x="56.09" y="186.51077" style="stroke: #000000; stroke-width: 0.8"/>
      </g>
     </g>
     <g id="text_15">
      <text style="font: 10px 'DejaVu Sans', 'Bitstream Vera Sans', 'Computer Modern Sans Serif', 'Lucida Grande', 'Verdana', 'Geneva', 'Lucid', 'Arial', 'Helvetica', 'Avant Garde', sans-serif; text-anchor: end" x="49.09" y="190.309989" transform="rotate(-0 49.09 190.309989)">0.0</text>
     </g>
    </g>
    <g id="ytick_6">
     <g id="line2d_29">
      <path d="M 56.09 154.562242 
L 503.325 154.562242 
" clip-path="url(#pf9a5e3e8dd)" style="fill: none; stroke: #b0b0b0; stroke-width: 0.8; stroke-linecap: square"/>
     </g>
     <g id="line2d_30">
      <g>
       <use xlink:href="#mb53ccb93f7" x="56.09" y="154.562242" style="stroke: #000000; stroke-width: 0.8"/>
      </g>
     </g>
     <g id="text_16">
      <text style="font: 10px 'DejaVu Sans', 'Bitstream Vera Sans', 'Computer Modern Sans Serif', 'Lucida Grande', 'Verdana', 'Geneva', 'Lucid', 'Arial', 'Helvetica', 'Avant Garde', sans-serif; text-anchor: end" x="49.09" y="158.361461" transform="rotate(-0 49.09 158.361461)">0.2</text>
     </g>
    </g>
    <g id="ytick_7">
     <g id="line2d_31">
      <path d="M 56.09 122.613715 
L 503.325 122.613715 
" clip-path="url(#pf9a5e3e8dd)" style="fill: none; stroke: #b0b0b0; stroke-width: 0.8; stroke-linecap: square"/>
     </g>
     <g id="line2d_32">
      <g>
       <use xlink:href="#mb53ccb93f7" x="56.09" y="122.613715" style="stroke: #000000; stroke-width: 0.8"/>
      </g>
     </g>
     <g id="text_17">
      <text style="font: 10px 'DejaVu Sans', 'Bitstream Vera Sans', 'Computer Modern Sans Serif', 'Lucida Grande', 'Verdana', 'Geneva', 'Lucid', 'Arial', 'Helvetica', 'Avant Garde', sans-serif; text-anchor: end" x="49.09" y="126.412933" transform="rotate(-0 49.09 126.412933)">0.4</text>
     </g>
    </g>
    <g id="ytick_8">
     <g id="line2d_33">
      <path d="M 56.09 90.665187 
L 503.325 90.665187 
" clip-path="url(#pf9a5e3e8dd)" style="fill: none; stroke: #b0b0b0; stroke-width: 0.8; stroke-linecap: square"/>
     </g>
     <g id="line2d_34">
      <g>
       <use xlink:href="#mb53ccb93f7" x="56.09" y="90.665187" style="stroke: #000000; stroke-width: 0.8"/>
      </g>
     </g>
     <g id="text_18">
      <text style="font: 10px 'DejaVu Sans', 'Bitstream Vera Sans', 'Computer Modern Sans Serif', 'Lucida Grande', 'Verdana', 'Geneva', 'Lucid', 'Arial', 'Helvetica', 'Avant Garde', sans-serif; text-anchor: end" x="49.09" y="94.464405" transform="rotate(-0 49.09 94.464405)">0.6</text>
     </g>
    </g>
    <g id="ytick_9">
     <g id="line2d_35">
      <path d="M 56.09 58.716659 
L 503.325 58.716659 
" clip-path="url(#pf9a5e3e8dd)" style="fill: none; stroke: #b0b0b0; stroke-width: 0.8; stroke-linecap: square"/>
     </g>
     <g id="line2d_36">
      <g>
       <use xlink:href="#mb53ccb93f7" x="56.09" y="58.716659" style="stroke: #000000; stroke-width: 0.8"/>
      </g>
     </g>
     <g id="text_19">
      <text style="font: 10px 'DejaVu Sans', 'Bitstream Vera Sans', 'Computer Modern Sans Serif', 'Lucida Grande', 'Verdana', 'Geneva', 'Lucid', 'Arial', 'Helvetica', 'Avant Garde', sans-serif; text-anchor: end" x="49.09" y="62.515877" transform="rotate(-0 49.09 62.515877)">0.8</text>
     </g>
    </g>
    <g id="text_20">
     <text style="font: 10px 'DejaVu Sans', 'Bitstream Vera Sans', 'Computer Modern Sans Serif', 'Lucida Grande', 'Verdana', 'Geneva', 'Lucid', 'Arial', 'Helvetica', 'Avant Garde', sans-serif; text-anchor: middle" x="18.7275" y="184.34" transform="rotate(-90 18.7275 184.34)">Deflection [deg]</text>
    </g>
   </g>
   <g id="line2d_37">
    <path d="M 285.399595 257.714751 
L 298.420025 253.421194 
L 302.408611 251.915379 
L 305.938651 250.360674 
L 308.147141 249.152142 
L 309.999437 247.884601 
L 311.483657 246.5946 
L 312.789939 245.157664 
L 314.019612 243.468583 
L 315.806211 240.561441 
L 328.135627 219.976324 
L 331.580289 214.795124 
L 334.191014 211.259461 
L 337.271675 207.496963 
L 344.323929 199.37248 
L 345.835362 198.023295 
L 347.39092 196.949742 
L 349.188452 195.980179 
L 351.680657 194.910187 
L 355.57546 193.502117 
L 361.316769 191.702999 
L 373.24731 188.08954 
L 377.790709 186.138903 
L 380.38339 184.787833 
L 382.747902 183.311535 
L 384.566258 181.926939 
L 386.297937 180.310748 
L 387.973193 178.440218 
L 389.81209 176.04234 
L 392.857738 171.627916 
L 397.471671 165.034207 
L 401.444127 159.722967 
L 405.412493 154.830224 
L 409.08969 150.619093 
L 410.60671 149.18608 
L 412.00627 148.182923 
L 413.575971 147.338291 
L 415.373237 146.622318 
L 418.140827 145.791456 
L 435.881814 140.786174 
L 440.514175 139.10099 
L 444.111314 137.906339 
L 447.673278 136.954833 
L 451.88731 136.080113 
L 457.920652 134.7971 
L 461.154312 133.879089 
L 465.453584 132.394106 
L 480.580015 126.718666 
L 481.511704 126.120726 
L 481.828819 125.68997 
L 481.829496 125.35636 
L 481.591528 125.040726 
L 480.994432 124.683078 
L 479.862452 124.298304 
L 478.054949 123.946286 
L 475.484614 123.685558 
L 471.901971 123.558523 
L 463.524008 123.564259 
L 438.456989 123.735835 
L 411.235586 124.025319 
L 368.464338 124.725377 
L 341.20724 125.65855 
L 330.566686 126.128164 
L 314.89987 126.824973 
L 308.597904 127.323139 
L 291.577079 129.008854 
L 287.10605 129.90907 
L 282.782874 131.008659 
L 277.378441 132.427401 
L 268.447787 134.268279 
L 251.161737 139.059922 
L 245.189469 140.382751 
L 235.601619 142.166511 
L 230.694879 143.211969 
L 227.057435 144.1961 
L 221.982364 145.874804 
L 210.852485 149.704153 
L 202.389041 152.869511 
L 195.009723 155.496496 
L 192.250051 156.752071 
L 190.078191 157.972664 
L 188.263332 159.240499 
L 186.411537 160.836259 
L 184.111995 163.14551 
L 181.262856 166.358394 
L 176.005233 172.328979 
L 171.107661 177.514098 
L 167.983478 180.455832 
L 164.509795 183.437119 
L 162.046345 185.249762 
L 157.689257 188.385276 
L 156.107607 189.800357 
L 154.714156 191.353633 
L 153.177538 193.439803 
L 146.688827 202.687657 
L 143.845247 206.129362 
L 139.752481 210.701125 
L 133.733527 217.055139 
L 130.48137 220.221194 
L 128.161451 222.181014 
L 125.775995 223.90165 
L 123.501457 225.279807 
L 120.78018 226.647648 
L 117.625551 228.00081 
L 112.789054 229.763256 
L 106.273206 232.153556 
L 103.62611 233.392895 
L 101.504726 234.627101 
L 99.150638 236.268685 
L 96.612703 238.322227 
L 92.75352 241.800275 
L 86.622738 247.246408 
L 82.854004 250.268317 
L 79.225444 253.221854 
L 78.247036 254.287601 
L 77.890421 254.958712 
L 77.848879 255.463678 
L 78.021455 255.873449 
L 78.437327 256.270163 
L 79.192951 256.668974 
L 80.505573 257.082315 
L 82.483834 257.455628 
L 85.210092 257.739478 
L 88.838172 257.87805 
L 96.341671 257.874468 
L 145.938014 257.434543 
L 191.180324 256.856719 
L 216.326782 256.118495 
L 225.791597 255.586482 
L 237.838468 254.647614 
L 243.859846 253.930435 
L 254.818758 252.649941 
L 264.124517 251.473208 
L 270.035352 250.484849 
L 275.734483 249.357624 
L 275.734483 249.357624 
" clip-path="url(#pf9a5e3e8dd)" style="fill: none; stroke: #440154; stroke-width: 1.5; stroke-linecap: square"/>
   </g>
   <g id="line2d_38">
    <path d="M 284.246657 297.121782 
L 287.779081 295.937139 
L 292.022862 294.278265 
L 295.072927 292.848729 
L 307.100022 286.867856 
L 314.566656 283.807246 
L 320.324204 281.35496 
L 323.230754 279.910303 
L 327.07782 277.781038 
L 329.65208 276.076056 
L 332.714521 273.792163 
L 334.928937 271.873865 
L 337.34819 269.475218 
L 340.07732 266.467956 
L 342.276606 263.727961 
L 344.676333 260.362959 
L 348.64208 254.780349 
L 350.513749 252.547718 
L 352.4073 250.642478 
L 354.9499 248.435676 
L 363.16619 241.486998 
L 368.894928 236.422781 
L 372.905986 233.273612 
L 383.993299 224.919472 
L 386.823609 223.275609 
L 391.591515 220.81888 
L 398.690327 217.057907 
L 401.757113 215.207316 
L 403.77541 213.736315 
L 405.459643 212.237503 
L 406.912186 210.656838 
L 408.215753 208.913293 
L 409.542 206.737063 
L 411.034434 203.830854 
L 412.976469 199.515954 
L 415.375345 193.628085 
L 429.789252 157.271276 
L 435.413098 142.904995 
L 440.083698 130.313053 
L 445.211797 115.895436 
L 451.099194 99.207159 
L 452.672789 95.937158 
L 454.640506 92.343785 
L 457.001115 88.492887 
L 460.269231 83.62143 
L 469.518551 70.522048 
L 471.609236 67.856072 
L 473.261848 66.110452 
L 474.575423 65.024298 
L 475.740457 64.336276 
L 477.014716 63.843797 
L 478.75566 63.433453 
L 480.712127 62.976981 
L 480.691867 62.951151 
L 480.377218 62.880652 
L 478.805766 62.813708 
L 470.70711 62.795114 
L 429.552015 62.918572 
L 364.789291 63.329924 
L 348.606399 63.633242 
L 328.240442 64.216878 
L 303.271445 65.802218 
L 299.300786 66.330026 
L 296.398097 66.967305 
L 291.488628 68.262385 
L 286.873221 69.760346 
L 279.504929 72.323345 
L 274.50162 73.632877 
L 269.233213 75.176075 
L 254.878767 79.632587 
L 239.849481 84.996917 
L 233.880426 87.384903 
L 230.848525 88.89953 
L 225.14001 91.76682 
L 222.898299 92.608438 
L 219.967293 93.439217 
L 215.323917 94.497923 
L 206.002755 96.554755 
L 203.227615 97.36616 
L 200.157531 98.499832 
L 197.904727 99.55815 
L 195.729653 100.840916 
L 192.939087 102.754349 
L 190.542615 104.661633 
L 188.447374 106.620312 
L 185.531407 109.700794 
L 183.262563 112.381238 
L 181.661253 114.605981 
L 180.129365 117.123059 
L 178.730491 119.843482 
L 177.780969 122.141611 
L 176.931704 124.832271 
L 174.082351 134.642529 
L 172.336689 139.389458 
L 169.770633 145.716726 
L 166.182062 153.925348 
L 161.186169 165.370846 
L 158.915662 171.172582 
L 156.551761 177.896729 
L 153.420423 187.54625 
L 151.230959 194.962987 
L 149.2271 202.608054 
L 144.855539 220.560528 
L 143.019794 229.16135 
L 137.962243 253.28246 
L 136.015358 261.656443 
L 134.442169 267.430536 
L 132.905041 272.252743 
L 131.203785 276.891377 
L 129.363375 281.286934 
L 127.416965 285.378187 
L 125.107391 289.697364 
L 122.567231 293.952422 
L 119.659776 298.340319 
L 115.827906 303.705978 
L 115.226157 304.252016 
L 114.707646 304.434917 
L 113.767508 304.476321 
L 104.778205 304.473654 
L 90.856095 304.769912 
L 81.241914 305.252323 
L 78.863337 305.548168 
L 78.759085 305.616124 
L 78.844556 305.663281 
L 79.637927 305.765142 
L 82.331458 305.864919 
L 90.563815 305.876001 
L 126.396911 305.705001 
L 187.735242 304.992819 
L 197.469709 304.53033 
L 207.301053 303.894876 
L 233.553139 301.591146 
L 251.820976 299.303982 
L 258.799142 298.07891 
L 262.737046 297.192322 
L 266.023699 296.218071 
L 269.082754 295.065328 
L 273.347384 293.208154 
L 274.535018 292.668945 
L 274.535018 292.668945 
" clip-path="url(#pf9a5e3e8dd)" style="fill: none; stroke: #414487; stroke-width: 1.5; stroke-linecap: square"/>
   </g>
   <g id="line2d_39">
    <path d="M 285.447601 272.470426 
L 292.712607 270.196313 
L 295.857802 268.989572 
L 299.905042 267.151556 
L 303.295848 265.384407 
L 306.699861 263.347825 
L 308.91666 261.793173 
L 310.923854 260.107605 
L 314.439181 256.771291 
L 320.186465 251.430713 
L 332.250913 240.872864 
L 335.698049 238.203553 
L 339.762106 235.361128 
L 342.51298 233.299165 
L 344.670651 231.405616 
L 350.874939 225.767966 
L 366.30582 212.963802 
L 370.058621 209.607468 
L 372.268729 207.667026 
L 375.011902 205.604419 
L 379.195463 202.728448 
L 388.910802 196.508216 
L 392.704802 194.599853 
L 396.022165 193.178649 
L 404.291383 189.962325 
L 409.166135 188.408715 
L 420.445041 184.88366 
L 423.287072 183.751002 
L 425.680508 182.546255 
L 428.253913 181.003348 
L 430.810561 179.205235 
L 433.555235 176.976653 
L 436.699778 174.128179 
L 439.977675 170.862821 
L 445.04199 165.397641 
L 449.064056 160.852346 
L 455.86829 152.718701 
L 462.591159 144.06201 
L 465.285644 140.214831 
L 467.54527 136.610093 
L 469.959799 132.308127 
L 475.662602 121.91152 
L 479.47202 114.996259 
L 480.914199 111.907821 
L 481.757751 109.595457 
L 482.295491 107.521275 
L 482.587887 105.521309 
L 482.631939 103.61601 
L 482.43842 101.826504 
L 482.057914 100.305866 
L 481.491905 98.91182 
L 480.68884 97.543042 
L 479.72989 96.339684 
L 478.560681 95.222222 
L 477.190521 94.233209 
L 475.732537 93.453574 
L 474.075117 92.823447 
L 472.191631 92.347624 
L 469.832266 91.989057 
L 466.675626 91.750377 
L 461.914894 91.644501 
L 448.371154 91.664549 
L 405.836026 92.005427 
L 383.716394 92.285467 
L 354.892744 92.874469 
L 333.507766 93.447693 
L 311.029594 94.136003 
L 298.290913 94.820077 
L 293.178779 95.320209 
L 288.192505 96.032427 
L 284.454617 96.81993 
L 273.964448 99.348154 
L 270.204217 100.552646 
L 260.831118 103.641014 
L 248.99855 107.224942 
L 243.213638 108.62317 
L 236.389904 110.30807 
L 231.627837 111.788859 
L 227.502309 113.11454 
L 224.476195 113.791004 
L 220.073758 114.533885 
L 214.416664 115.511169 
L 210.097854 116.523046 
L 206.649914 117.551048 
L 203.704888 118.644788 
L 201.281755 119.776011 
L 198.740567 121.208821 
L 196.082356 122.963768 
L 192.934561 125.319636 
L 189.217965 128.374224 
L 181.317007 135.349568 
L 173.142179 142.894267 
L 167.055798 148.705048 
L 164.72978 150.571346 
L 162.405489 152.14176 
L 156.552079 155.957946 
L 154.684239 157.496213 
L 153.271374 158.94205 
L 151.831836 160.750482 
L 150.186469 163.186162 
L 148.139334 166.641111 
L 145.689668 171.248581 
L 140.52515 181.627666 
L 133.429136 195.879399 
L 129.663115 202.869297 
L 125.88029 209.430843 
L 122.168685 215.400869 
L 118.018126 221.665042 
L 112.88482 228.925732 
L 106.209187 237.367886 
L 104.264733 240.239408 
L 99.300228 248.164867 
L 78.152503 282.652424 
L 77.437749 284.432763 
L 77.108687 285.815138 
L 77.116333 286.675666 
L 77.324156 287.283843 
L 77.767429 287.846493 
L 78.474502 288.345013 
L 79.535995 288.790788 
L 81.071087 289.170274 
L 83.201873 289.454079 
L 86.34415 289.636928 
L 91.440259 289.675216 
L 143.198089 289.347969 
L 176.865889 288.922043 
L 190.754533 288.574426 
L 200.329728 288.160873 
L 207.632954 287.631591 
L 215.536153 287.121352 
L 228.972315 286.646112 
L 239.807102 286.118882 
L 245.948106 285.590524 
L 250.300002 285.009239 
L 255.114564 284.128256 
L 264.471214 282.262604 
L 267.159305 281.528283 
L 270.492103 280.328344 
L 274.238232 278.777743 
L 274.238232 278.777743 
" clip-path="url(#pf9a5e3e8dd)" style="fill: none; stroke: #2a788e; stroke-width: 1.5; stroke-linecap: square"/>
   </g>
   <g id="line2d_40">
    <path d="M 283.794237 236.296824 
L 288.591638 235.373942 
L 292.160558 234.497501 
L 294.688812 233.651328 
L 296.963491 232.650182 
L 299.226283 231.402624 
L 301.782083 229.717481 
L 315.386992 220.347252 
L 320.033764 217.20489 
L 324.141663 214.078221 
L 326.129865 212.324888 
L 327.992503 210.373844 
L 329.886173 208.0601 
L 331.743745 205.411589 
L 334.009751 202.242855 
L 335.764121 200.204338 
L 337.631645 198.372003 
L 339.642933 196.711121 
L 341.634808 195.355002 
L 343.789719 194.153605 
L 346.531556 192.897642 
L 350.012273 191.545913 
L 356.219488 189.244307 
L 368.162572 184.744023 
L 371.288284 183.149081 
L 374.96004 181.313519 
L 380.733863 178.818787 
L 393.188238 173.555624 
L 395.764399 172.144081 
L 398.822924 170.482566 
L 404.736692 167.432644 
L 407.121192 165.890664 
L 409.673166 163.968562 
L 412.587164 161.481317 
L 415.492865 158.714303 
L 419.559588 154.798716 
L 422.086987 152.727458 
L 424.735879 150.838495 
L 427.246825 149.32309 
L 429.97818 147.961757 
L 433.399177 146.519355 
L 436.214608 145.545591 
L 438.246904 145.083458 
L 440.756863 144.760173 
L 445.479943 144.425982 
L 453.842922 143.771936 
L 463.875273 142.770062 
L 469.332727 141.983945 
L 473.429264 141.199077 
L 477.96519 140.104974 
L 480.154603 139.351909 
L 481.401055 138.71182 
L 481.830278 138.272809 
L 481.852957 137.982343 
L 481.629406 137.706852 
L 481.035402 137.385229 
L 479.828676 137.013216 
L 477.875791 136.662906 
L 475.098114 136.407091 
L 471.259345 136.290193 
L 461.562475 136.324702 
L 432.014096 136.617205 
L 375.381891 137.237528 
L 329.0929 138.388669 
L 306.736057 139.365446 
L 299.66162 139.623593 
L 290.397132 140.220544 
L 284.817785 140.771209 
L 280.613218 141.404117 
L 276.279456 141.9942 
L 258.558532 144.079276 
L 251.837113 145.187976 
L 244.288206 146.736781 
L 240.03794 147.514166 
L 228.489421 149.414508 
L 225.570421 150.227195 
L 221.802847 151.521042 
L 202.825087 158.692809 
L 200.009145 159.986102 
L 197.56593 161.362153 
L 195.30889 162.896684 
L 190.278668 166.761206 
L 187.357006 169.251632 
L 184.690054 171.78613 
L 182.787492 173.901384 
L 180.954557 176.310972 
L 178.320844 180.211839 
L 168.016958 195.84309 
L 160.747161 205.681986 
L 156.145806 211.740559 
L 154.774439 213.135061 
L 153.610013 213.99543 
L 152.246774 214.707414 
L 150.52969 215.332935 
L 147.711031 216.087745 
L 141.37187 217.479689 
L 133.567148 218.996676 
L 126.73541 220.123539 
L 115.463885 221.868335 
L 112.730253 222.643363 
L 110.428607 223.523798 
L 94.50808 230.44844 
L 91.229128 232.28392 
L 85.157091 235.988187 
L 81.887839 238.18517 
L 79.88614 239.787153 
L 78.797841 240.916982 
L 78.333522 241.695599 
L 78.270201 242.2037 
L 78.43505 242.567097 
L 78.847298 242.883345 
L 79.618162 243.159264 
L 81.000017 243.398642 
L 83.552653 243.585921 
L 88.298744 243.674776 
L 99.819491 243.605518 
L 157.628601 243.047192 
L 181.934875 242.606956 
L 194.762782 242.141822 
L 204.175874 241.779596 
L 221.761153 241.137811 
L 239.637391 240.476928 
L 255.717667 239.912878 
L 261.347688 239.519142 
L 267.50502 238.818824 
L 274.329263 237.855864 
L 275.810237 237.603404 
L 275.810237 237.603404 
" clip-path="url(#pf9a5e3e8dd)" style="fill: none; stroke: #22a884; stroke-width: 1.5; stroke-linecap: square"/>
   </g>
   <g id="line2d_41">
    <path d="M 285.04863 241.175458 
L 289.256909 240.39516 
L 292.569701 239.591578 
L 297.897064 237.99884 
L 304.119412 236.156965 
L 317.954166 232.412914 
L 321.326341 231.159211 
L 324.552128 229.709951 
L 327.660127 228.070233 
L 329.868974 226.659341 
L 332.019948 225.017561 
L 334.455163 222.867672 
L 339.281096 218.219813 
L 347.784988 209.982711 
L 351.369722 206.108235 
L 358.605906 198.199922 
L 360.797956 196.132579 
L 363.408104 193.682195 
L 366.396744 190.419472 
L 368.283414 187.993994 
L 372.00315 183.189072 
L 374.886453 179.315966 
L 380.986535 170.961046 
L 392.924859 155.099237 
L 394.519331 153.340592 
L 396.277311 151.732784 
L 398.060376 150.403471 
L 400.859369 148.642454 
L 405.200557 146.171978 
L 407.674909 145.010123 
L 410.19506 144.071484 
L 413.287529 143.165038 
L 416.855143 142.347972 
L 422.615438 141.306851 
L 425.650332 140.933225 
L 429.648032 140.697959 
L 439.649736 140.186958 
L 444.915548 139.671341 
L 448.490238 139.098363 
L 451.427045 138.402122 
L 454.914925 137.318102 
L 460.228546 135.459735 
L 466.036129 133.158583 
L 470.272216 131.551741 
L 473.272956 130.673466 
L 476.706539 129.913464 
L 482.995199 128.723901 
L 482.820593 128.647585 
L 481.807194 128.541661 
L 478.223504 128.439672 
L 467.590347 128.415374 
L 450.778731 128.549068 
L 422.294775 128.881208 
L 389.755657 129.238166 
L 370.727233 129.560602 
L 357.59407 129.933147 
L 344.493766 130.470794 
L 328.252085 131.473876 
L 304.091027 133.33046 
L 295.803916 133.906987 
L 290.156449 134.512303 
L 284.971676 135.265606 
L 250.866142 141.090697 
L 246.210846 142.156661 
L 241.22032 143.53311 
L 235.779746 145.227284 
L 232.665026 146.425956 
L 230.366853 147.530162 
L 228.566088 148.632682 
L 226.094963 150.462753 
L 221.088824 154.156982 
L 213.184949 159.835154 
L 208.935016 163.295675 
L 205.103473 166.65676 
L 199.655144 171.540507 
L 194.757355 175.474114 
L 191.592687 178.141588 
L 188.713399 180.907893 
L 185.343826 184.443433 
L 182.585992 187.649092 
L 178.286218 193.147633 
L 169.955515 203.553252 
L 168.167918 205.3268 
L 166.395804 206.779007 
L 164.850075 207.773678 
L 163.080048 208.638123 
L 160.577934 209.588259 
L 150.759448 212.89433 
L 147.044354 213.784639 
L 142.881917 214.558208 
L 137.872931 215.255 
L 126.517043 216.659266 
L 124.020801 217.305138 
L 121.652646 218.156091 
L 119.598478 219.105119 
L 118.004916 220.079512 
L 116.497936 221.271256 
L 114.623856 223.071183 
L 105.986525 231.698156 
L 94.126906 242.171806 
L 92.863522 242.938522 
L 91.228496 243.631576 
L 88.197426 244.622935 
L 79.52215 247.386035 
L 76.905924 248.479692 
L 76.427347 248.847905 
L 76.489633 249.013632 
L 76.878839 249.167949 
L 77.983425 249.321952 
L 80.65311 249.43731 
L 87.944556 249.470248 
L 109.938548 249.307514 
L 150.133151 248.91033 
L 181.283536 248.644127 
L 202.6271 248.14847 
L 215.503597 247.584498 
L 224.573454 247.081361 
L 230.04905 246.485943 
L 239.136926 245.256085 
L 255.49763 242.60681 
L 267.79972 240.849856 
L 271.952058 239.933963 
L 274.957649 239.173929 
L 274.957649 239.173929 
" clip-path="url(#pf9a5e3e8dd)" style="fill: none; stroke: #7ad151; stroke-width: 1.5; stroke-linecap: square"/>
   </g>
   <g id="line2d_42">
    <path d="M 284.19444 237.428609 
L 294.839412 235.895728 
L 300.196335 234.873561 
L 306.475421 233.448315 
L 324.975754 229.158261 
L 331.853924 227.852124 
L 338.34224 226.588337 
L 341.77102 225.680266 
L 346.358787 224.199213 
L 350.603928 222.903521 
L 354.116666 222.085415 
L 357.861622 221.450705 
L 364.945419 220.292737 
L 367.568815 219.62268 
L 372.624825 217.980041 
L 376.565669 216.533752 
L 381.262701 214.64398 
L 384.666811 212.948124 
L 388.395315 210.889627 
L 390.909589 209.23631 
L 393.375045 207.36146 
L 395.049371 205.837074 
L 396.385043 204.320861 
L 397.772184 202.371713 
L 399.50049 199.517848 
L 401.564022 195.626932 
L 404.526359 190.122237 
L 407.804467 184.576331 
L 414.015535 174.623288 
L 418.369419 167.545993 
L 420.86781 163.017531 
L 424.77914 155.757995 
L 426.11323 153.895136 
L 427.443402 152.404889 
L 429.154286 150.827505 
L 432.399084 148.222598 
L 439.59913 142.615493 
L 441.952165 141.150935 
L 444.296856 139.979433 
L 447.758013 138.54195 
L 455.018659 135.492518 
L 460.046681 133.390693 
L 466.120575 131.065915 
L 470.802667 129.501465 
L 475.599231 128.184446 
L 480.453742 126.850521 
L 481.364358 126.36803 
L 481.564371 126.06849 
L 481.464667 125.871913 
L 481.060189 125.659032 
L 480.034773 125.404769 
L 477.95066 125.143972 
L 474.3275 124.935722 
L 467.950174 124.819049 
L 456.226138 124.865079 
L 372.333168 125.39178 
L 352.327903 125.772945 
L 339.113595 126.32166 
L 323.366847 127.018137 
L 315.559676 127.469362 
L 297.143315 129.063296 
L 285.32458 130.725108 
L 282.698699 131.328716 
L 277.255973 132.696055 
L 264.890289 135.437493 
L 259.832 136.994974 
L 254.906327 138.700791 
L 251.543437 140.052217 
L 246.776682 142.312941 
L 240.924542 145.068195 
L 237.822599 146.104198 
L 234.376661 147.016152 
L 230.032646 148.19023 
L 226.691467 149.367816 
L 211.810561 155.207808 
L 208.363302 156.895397 
L 202.895876 159.906864 
L 199.651257 161.904992 
L 197.35633 163.567002 
L 195.645451 165.05783 
L 194.204056 166.60304 
L 192.814934 168.425863 
L 191.366607 170.716399 
L 189.463341 174.223153 
L 187.290803 178.108157 
L 185.017975 181.668769 
L 181.945216 186.049897 
L 178.576938 190.474584 
L 174.418414 195.530354 
L 169.073176 201.741967 
L 167.049741 203.726336 
L 165.592597 204.86267 
L 164.387412 205.536239 
L 163.00619 206.047309 
L 161.110576 206.485098 
L 158.320619 206.883879 
L 150.726132 207.61783 
L 141.852107 208.303558 
L 134.300412 208.98 
L 130.097996 209.559487 
L 127.27377 210.158716 
L 125.343874 210.785655 
L 123.805396 211.512646 
L 122.604942 212.309605 
L 121.494651 213.324272 
L 120.244242 214.791132 
L 113.519589 223.209182 
L 110.540647 226.326492 
L 106.27936 230.438721 
L 99.69649 236.435068 
L 96.887358 238.773008 
L 96.029697 239.199499 
L 94.971419 239.446893 
L 92.376443 239.747751 
L 79.81128 241.137115 
L 78.370738 241.529576 
L 77.98382 241.823169 
L 78.024261 242.012229 
L 78.348488 242.199966 
L 79.218176 242.402394 
L 81.145659 242.598647 
L 84.876747 242.727652 
L 92.874607 242.738031 
L 148.792154 242.400493 
L 210.662702 241.897605 
L 228.959812 241.447909 
L 239.34175 241.007743 
L 249.09721 240.308999 
L 254.78556 239.727647 
L 260.143558 238.952715 
L 271.377235 237.116588 
L 275.645126 236.331607 
L 275.645126 236.331607 
" clip-path="url(#pf9a5e3e8dd)" style="fill: none; stroke: #fde725; stroke-width: 1.5; stroke-linecap: square"/>
   </g>
   <g id="patch_3">
    <path d="M 56.09 318.04 
L 56.09 50.64 
" style="fill: none; stroke: #000000; stroke-width: 0.8; stroke-linejoin: miter; stroke-linecap: square"/>
   </g>
   <g id="patch_4">
    <path d="M 503.325 318.04 
L 503.325 50.64 
" style="fill: none; stroke: #000000; stroke-width: 0.8; stroke-linejoin: miter; stroke-linecap: square"/>
   </g>
   <g id="patch_5">
    <path d="M 56.09 318.04 
L 503.325 318.04 
" style="fill: none; stroke: #000000; stroke-width: 0.8; stroke-linejoin: miter; stroke-linecap: square"/>
   </g>
   <g id="patch_6">
    <path d="M 56.09 50.64 
L 503.325 50.64 
" style="fill: none; stroke: #000000; stroke-width: 0.8; stroke-linejoin: miter; stroke-linecap: square"/>
   </g>
   <g id="text_21">
    <text style="font: 12px 'DejaVu Sans', 'Bitstream Vera Sans', 'Computer Modern Sans Serif', 'Lucida Grande', 'Verdana', 'Geneva', 'Lucid', 'Arial', 'Helvetica', 'Avant Garde', sans-serif; text-anchor: middle" x="279.7075" y="44.64" transform="rotate(-0 279.7075 44.64)">Play tests</text>
   </g>
  </g>
  <g id="axes_2">
   <g id="patch_7">
    <path d="M 549.965 318.04 
L 997.2 318.04 
L 997.2 50.64 
L 549.965 50.64 
z
" style="fill: #ffffff"/>
   </g>
   <g id="matplotlib.axis_3">
    <g id="xtick_10">
     <g id="line2d_43">
      <path d="M 552.701693 318.04 
L 552.701693 50.64 
" clip-path="url(#pc07d70181e)" style="fill: none; stroke: #b0b0b0; stroke-width: 0.8; stroke-linecap: square"/>
     </g>
     <g id="line2d_44">
      <g>
       <use xlink:href="#mb93321f905" x="552.701693" y="318.04" style="stroke: #000000; stroke-width: 0.8"/>
      </g>
     </g>
     <g id="text_22">
      <text style="font: 10px 'DejaVu Sans', 'Bitstream Vera Sans', 'Computer Modern Sans Serif', 'Lucida Grande', 'Verdana', 'Geneva', 'Lucid', 'Arial', 'Helvetica', 'Avant Garde', sans-serif; text-anchor: middle" x="552.701693" y="332.638438" transform="rotate(-0 552.701693 332.638438)">−40</text>
     </g>
    </g>
    <g id="xtick_11">
     <g id="line2d_45">
      <path d="M 606.73999 318.04 
L 606.73999 50.64 
" clip-path="url(#pc07d70181e)" style="fill: none; stroke: #b0b0b0; stroke-width: 0.8; stroke-linecap: square"/>
     </g>
     <g id="line2d_46">
      <g>
       <use xlink:href="#mb93321f905" x="606.73999" y="318.04" style="stroke: #000000; stroke-width: 0.8"/>
      </g>
     </g>
     <g id="text_23">
      <text style="font: 10px 'DejaVu Sans', 'Bitstream Vera Sans', 'Computer Modern Sans Serif', 'Lucida Grande', 'Verdana', 'Geneva', 'Lucid', 'Arial', 'Helvetica', 'Avant Garde', sans-serif; text-anchor: middle" x="606.73999" y="332.638438" transform="rotate(-0 606.73999 332.638438)">−30</text>
     </g>
    </g>
    <g id="xtick_12">
     <g id="line2d_47">
      <path d="M 660.778287 318.04 
L 660.778287 50.64 
" clip-path="url(#pc07d70181e)" style="fill: none; stroke: #b0b0b0; stroke-width: 0.8; stroke-linecap: square"/>
     </g>
     <g id="line2d_48">
      <g>
       <use xlink:href="#mb93321f905" x="660.778287" y="318.04" style="stroke: #000000; stroke-width: 0.8"/>
      </g>
     </g>
     <g id="text_24">
      <text style="font: 10px 'DejaVu Sans', 'Bitstream Vera Sans', 'Computer Modern Sans Serif', 'Lucida Grande', 'Verdana', 'Geneva', 'Lucid', 'Arial', 'Helvetica', 'Avant Garde', sans-serif; text-anchor: middle" x="660.778287" y="332.638438" transform="rotate(-0 660.778287 332.638438)">−20</text>
     </g>
    </g>
    <g id="xtick_13">
     <g id="line2d_49">
      <path d="M 714.816584 318.04 
L 714.816584 50.64 
" clip-path="url(#pc07d70181e)" style="fill: none; stroke: #b0b0b0; stroke-width: 0.8; stroke-linecap: square"/>
     </g>
     <g id="line2d_50">
      <g>
       <use xlink:href="#mb93321f905" x="714.816584" y="318.04" style="stroke: #000000; stroke-width: 0.8"/>
      </g>
     </g>
     <g id="text_25">
      <text style="font: 10px 'DejaVu Sans', 'Bitstream Vera Sans', 'Computer Modern Sans Serif', 'Lucida Grande', 'Verdana', 'Geneva', 'Lucid', 'Arial', 'Helvetica', 'Avant Garde', sans-serif; text-anchor: middle" x="714.816584" y="332.638438" transform="rotate(-0 714.816584 332.638438)">−10</text>
     </g>
    </g>
    <g id="xtick_14">
     <g id="line2d_51">
      <path d="M 768.854881 318.04 
L 768.854881 50.64 
" clip-path="url(#pc07d70181e)" style="fill: none; stroke: #b0b0b0; stroke-width: 0.8; stroke-linecap: square"/>
     </g>
     <g id="line2d_52">
      <g>
       <use xlink:href="#mb93321f905" x="768.854881" y="318.04" style="stroke: #000000; stroke-width: 0.8"/>
      </g>
     </g>
     <g id="text_26">
      <text style="font: 10px 'DejaVu Sans', 'Bitstream Vera Sans', 'Computer Modern Sans Serif', 'Lucida Grande', 'Verdana', 'Geneva', 'Lucid', 'Arial', 'Helvetica', 'Avant Garde', sans-serif; text-anchor: middle" x="768.854881" y="332.638438" transform="rotate(-0 768.854881 332.638438)">0</text>
     </g>
    </g>
    <g id="xtick_15">
     <g id="line2d_53">
      <path d="M 822.893178 318.04 
L 822.893178 50.64 
" clip-path="url(#pc07d70181e)" style="fill: none; stroke: #b0b0b0; stroke-width: 0.8; stroke-linecap: square"/>
     </g>
     <g id="line2d_54">
      <g>
       <use xlink:href="#mb93321f905" x="822.893178" y="318.04" style="stroke: #000000; stroke-width: 0.8"/>
      </g>
     </g>
     <g id="text_27">
      <text style="font: 10px 'DejaVu Sans', 'Bitstream Vera Sans', 'Computer Modern Sans Serif', 'Lucida Grande', 'Verdana', 'Geneva', 'Lucid', 'Arial', 'Helvetica', 'Avant Garde', sans-serif; text-anchor: middle" x="822.893178" y="332.638438" transform="rotate(-0 822.893178 332.638438)">10</text>
     </g>
    </g>
    <g id="xtick_16">
     <g id="line2d_55">
      <path d="M 876.931475 318.04 
L 876.931475 50.64 
" clip-path="url(#pc07d70181e)" style="fill: none; stroke: #b0b0b0; stroke-width: 0.8; stroke-linecap: square"/>
     </g>
     <g id="line2d_56">
      <g>
       <use xlink:href="#mb93321f905" x="876.931475" y="318.04" style="stroke: #000000; stroke-width: 0.8"/>
      </g>
     </g>
     <g id="text_28">
      <text style="font: 10px 'DejaVu Sans', 'Bitstream Vera Sans', 'Computer Modern Sans Serif', 'Lucida Grande', 'Verdana', 'Geneva', 'Lucid', 'Arial', 'Helvetica', 'Avant Garde', sans-serif; text-anchor: middle" x="876.931475" y="332.638438" transform="rotate(-0 876.931475 332.638438)">20</text>
     </g>
    </g>
    <g id="xtick_17">
     <g id="line2d_57">
      <path d="M 930.969772 318.04 
L 930.969772 50.64 
" clip-path="url(#pc07d70181e)" style="fill: none; stroke: #b0b0b0; stroke-width: 0.8; stroke-linecap: square"/>
     </g>
     <g id="line2d_58">
      <g>
       <use xlink:href="#mb93321f905" x="930.969772" y="318.04" style="stroke: #000000; stroke-width: 0.8"/>
      </g>
     </g>
     <g id="text_29">
      <text style="font: 10px 'DejaVu Sans', 'Bitstream Vera Sans', 'Computer Modern Sans Serif', 'Lucida Grande', 'Verdana', 'Geneva', 'Lucid', 'Arial', 'Helvetica', 'Avant Garde', sans-serif; text-anchor: middle" x="930.969772" y="332.638438" transform="rotate(-0 930.969772 332.638438)">30</text>
     </g>
    </g>
    <g id="xtick_18">
     <g id="line2d_59">
      <path d="M 985.008069 318.04 
L 985.008069 50.64 
" clip-path="url(#pc07d70181e)" style="fill: none; stroke: #b0b0b0; stroke-width: 0.8; stroke-linecap: square"/>
     </g>
     <g id="line2d_60">
      <g>
       <use xlink:href="#mb93321f905" x="985.008069" y="318.04" style="stroke: #000000; stroke-width: 0.8"/>
      </g>
     </g>
     <g id="text_30">
      <text style="font: 10px 'DejaVu Sans', 'Bitstream Vera Sans', 'Computer Modern Sans Serif', 'Lucida Grande', 'Verdana', 'Geneva', 'Lucid', 'Arial', 'Helvetica', 'Avant Garde', sans-serif; text-anchor: middle" x="985.008069" y="332.638438" transform="rotate(-0 985.008069 332.638438)">40</text>
     </g>
    </g>
    <g id="text_31">
     <text style="font: 10px 'DejaVu Sans', 'Bitstream Vera Sans', 'Computer Modern Sans Serif', 'Lucida Grande', 'Verdana', 'Geneva', 'Lucid', 'Arial', 'Helvetica', 'Avant Garde', sans-serif; text-anchor: middle" x="773.5825" y="346.316563" transform="rotate(-0 773.5825 346.316563)">Motor Torque [Nm]</text>
    </g>
   </g>
   <g id="matplotlib.axis_4">
    <g id="ytick_10">
     <g id="line2d_61">
      <path d="M 549.965 294.527216 
L 997.2 294.527216 
" clip-path="url(#pc07d70181e)" style="fill: none; stroke: #b0b0b0; stroke-width: 0.8; stroke-linecap: square"/>
     </g>
     <g id="line2d_62">
      <g>
       <use xlink:href="#mb53ccb93f7" x="549.965" y="294.527216" style="stroke: #000000; stroke-width: 0.8"/>
      </g>
     </g>
     <g id="text_32">
      <text style="font: 10px 'DejaVu Sans', 'Bitstream Vera Sans', 'Computer Modern Sans Serif', 'Lucida Grande', 'Verdana', 'Geneva', 'Lucid', 'Arial', 'Helvetica', 'Avant Garde', sans-serif; text-anchor: end" x="542.965" y="298.326434" transform="rotate(-0 542.965 298.326434)">−6</text>
     </g>
    </g>
    <g id="ytick_11">
     <g id="line2d_63">
      <path d="M 549.965 256.756471 
L 997.2 256.756471 
" clip-path="url(#pc07d70181e)" style="fill: none; stroke: #b0b0b0; stroke-width: 0.8; stroke-linecap: square"/>
     </g>
     <g id="line2d_64">
      <g>
       <use xlink:href="#mb53ccb93f7" x="549.965" y="256.756471" style="stroke: #000000; stroke-width: 0.8"/>
      </g>
     </g>
     <g id="text_33">
      <text style="font: 10px 'DejaVu Sans', 'Bitstream Vera Sans', 'Computer Modern Sans Serif', 'Lucida Grande', 'Verdana', 'Geneva', 'Lucid', 'Arial', 'Helvetica', 'Avant Garde', sans-serif; text-anchor: end" x="542.965" y="260.55569" transform="rotate(-0 542.965 260.55569)">−4</text>
     </g>
    </g>
    <g id="ytick_12">
     <g id="line2d_65">
      <path d="M 549.965 218.985727 
L 997.2 218.985727 
" clip-path="url(#pc07d70181e)" style="fill: none; stroke: #b0b0b0; stroke-width: 0.8; stroke-linecap: square"/>
     </g>
     <g id="line2d_66">
      <g>
       <use xlink:href="#mb53ccb93f7" x="549.965" y="218.985727" style="stroke: #000000; stroke-width: 0.8"/>
      </g>
     </g>
     <g id="text_34">
      <text style="font: 10px 'DejaVu Sans', 'Bitstream Vera Sans', 'Computer Modern Sans Serif', 'Lucida Grande', 'Verdana', 'Geneva', 'Lucid', 'Arial', 'Helvetica', 'Avant Garde', sans-serif; text-anchor: end" x="542.965" y="222.784945" transform="rotate(-0 542.965 222.784945)">−2</text>
     </g>
    </g>
    <g id="ytick_13">
     <g id="line2d_67">
      <path d="M 549.965 181.214982 
L 997.2 181.214982 
" clip-path="url(#pc07d70181e)" style="fill: none; stroke: #b0b0b0; stroke-width: 0.8; stroke-linecap: square"/>
     </g>
     <g id="line2d_68">
      <g>
       <use xlink:href="#mb53ccb93f7" x="549.965" y="181.214982" style="stroke: #000000; stroke-width: 0.8"/>
      </g>
     </g>
     <g id="text_35">
      <text style="font: 10px 'DejaVu Sans', 'Bitstream Vera Sans', 'Computer Modern Sans Serif', 'Lucida Grande', 'Verdana', 'Geneva', 'Lucid', 'Arial', 'Helvetica', 'Avant Garde', sans-serif; text-anchor: end" x="542.965" y="185.014201" transform="rotate(-0 542.965 185.014201)">0</text>
     </g>
    </g>
    <g id="ytick_14">
     <g id="line2d_69">
      <path d="M 549.965 143.444238 
L 997.2 143.444238 
" clip-path="url(#pc07d70181e)" style="fill: none; stroke: #b0b0b0; stroke-width: 0.8; stroke-linecap: square"/>
     </g>
     <g id="line2d_70">
      <g>
       <use xlink:href="#mb53ccb93f7" x="549.965" y="143.444238" style="stroke: #000000; stroke-width: 0.8"/>
      </g>
     </g>
     <g id="text_36">
      <text style="font: 10px 'DejaVu Sans', 'Bitstream Vera Sans', 'Computer Modern Sans Serif', 'Lucida Grande', 'Verdana', 'Geneva', 'Lucid', 'Arial', 'Helvetica', 'Avant Garde', sans-serif; text-anchor: end" x="542.965" y="147.243456" transform="rotate(-0 542.965 147.243456)">2</text>
     </g>
    </g>
    <g id="ytick_15">
     <g id="line2d_71">
      <path d="M 549.965 105.673493 
L 997.2 105.673493 
" clip-path="url(#pc07d70181e)" style="fill: none; stroke: #b0b0b0; stroke-width: 0.8; stroke-linecap: square"/>
     </g>
     <g id="line2d_72">
      <g>
       <use xlink:href="#mb53ccb93f7" x="549.965" y="105.673493" style="stroke: #000000; stroke-width: 0.8"/>
      </g>
     </g>
     <g id="text_37">
      <text style="font: 10px 'DejaVu Sans', 'Bitstream Vera Sans', 'Computer Modern Sans Serif', 'Lucida Grande', 'Verdana', 'Geneva', 'Lucid', 'Arial', 'Helvetica', 'Avant Garde', sans-serif; text-anchor: end" x="542.965" y="109.472712" transform="rotate(-0 542.965 109.472712)">4</text>
     </g>
    </g>
    <g id="ytick_16">
     <g id="line2d_73">
      <path d="M 549.965 67.902749 
L 997.2 67.902749 
" clip-path="url(#pc07d70181e)" style="fill: none; stroke: #b0b0b0; stroke-width: 0.8; stroke-linecap: square"/>
     </g>
     <g id="line2d_74">
      <g>
       <use xlink:href="#mb53ccb93f7" x="549.965" y="67.902749" style="stroke: #000000; stroke-width: 0.8"/>
      </g>
     </g>
     <g id="text_38">
      <text style="font: 10px 'DejaVu Sans', 'Bitstream Vera Sans', 'Computer Modern Sans Serif', 'Lucida Grande', 'Verdana', 'Geneva', 'Lucid', 'Arial', 'Helvetica', 'Avant Garde', sans-serif; text-anchor: end" x="542.965" y="71.701968" transform="rotate(-0 542.965 71.701968)">6</text>
     </g>
    </g>
    <g id="text_39">
     <text style="font: 10px 'DejaVu Sans', 'Bitstream Vera Sans', 'Computer Modern Sans Serif', 'Lucida Grande', 'Verdana', 'Geneva', 'Lucid', 'Arial', 'Helvetica', 'Avant Garde', sans-serif; text-anchor: middle" x="522.143125" y="184.34" transform="rotate(-90 522.143125 184.34)">Deflection [deg]</text>
    </g>
   </g>
   <g id="line2d_75">
    <path d="M 769.836002 211.852233 
L 771.214579 208.94821 
L 772.433422 205.823587 
L 773.378891 203.723555 
L 774.393662 202.04122 
L 776.497002 199.063972 
L 783.284355 190.018823 
L 785.178387 187.486866 
L 788.358611 184.19491 
L 793.766086 177.678598 
L 796.218048 175.50752 
L 800.977051 171.036234 
L 804.838396 166.597604 
L 806.877394 163.889402 
L 808.993428 161.274272 
L 810.188588 160.136848 
L 811.413134 159.31263 
L 813.371628 158.013325 
L 817.859618 154.467256 
L 824.907336 148.454844 
L 825.994938 147.85544 
L 827.65182 147.258522 
L 829.469721 146.516244 
L 831.030182 145.592038 
L 832.723875 144.358098 
L 834.913227 142.740641 
L 836.259157 142.022448 
L 839.423818 140.555265 
L 840.62121 139.597379 
L 842.214868 138.014803 
L 844.279659 136.024192 
L 845.597021 135.063748 
L 847.006168 134.307528 
L 848.935838 133.230239 
L 855.095623 129.462104 
L 857.45614 128.278818 
L 863.743298 124.538714 
L 865.626997 123.355881 
L 868.87886 120.967354 
L 873.131207 117.905673 
L 876.423796 115.617083 
L 880.794399 113.309186 
L 885.658988 110.304709 
L 888.131297 108.900002 
L 889.725892 107.637844 
L 891.620424 106.242716 
L 892.848079 105.620575 
L 895.405822 104.396659 
L 898.571295 102.82418 
L 903.64931 100.548395 
L 910.254359 96.110496 
L 914.916458 92.696158 
L 917.394242 91.284769 
L 919.04777 90.434909 
L 922.257165 88.999154 
L 923.920045 87.841765 
L 925.812763 86.308372 
L 929.919529 83.120362 
L 933.147641 80.857995 
L 934.036211 80.196335 
L 936.071119 79.126445 
L 937.61001 78.497708 
L 939.373764 77.708555 
L 940.919246 76.763955 
L 942.063355 76.121945 
L 943.49924 75.662788 
L 945.62362 74.881485 
L 948.327094 73.830758 
L 949.291449 73.30135 
L 950.289801 72.481803 
L 951.218223 71.776534 
L 953.129248 70.603378 
L 954.343137 69.472718 
L 955.171164 68.523764 
L 956.098789 67.341714 
L 957.154256 66.482683 
L 957.855375 65.36214 
L 958.151126 64.692336 
L 958.069944 64.456008 
L 957.753905 64.323805 
L 956.826314 64.228948 
L 953.169993 64.170183 
L 923.495977 64.248916 
L 896.470782 64.445034 
L 884.054488 64.721914 
L 880.03889 65.173394 
L 874.474962 65.357131 
L 867.281605 65.99873 
L 864.696872 66.693112 
L 862.413789 67.372619 
L 859.624614 68.135934 
L 858.077886 68.352235 
L 855.422973 68.696881 
L 849.739697 70.126512 
L 847.620871 70.818332 
L 845.825264 71.002655 
L 843.581477 71.33285 
L 842.400885 71.725005 
L 838.708265 73.25513 
L 833.398326 74.788871 
L 827.038807 77.449189 
L 824.613468 78.437646 
L 820.529936 80.370917 
L 815.918072 83.113695 
L 811.229857 85.342748 
L 807.221012 87.648779 
L 804.148785 89.501497 
L 801.395556 91.037944 
L 789.795875 98.950945 
L 787.803435 100.946545 
L 786.031227 102.85981 
L 784.634864 104.42238 
L 783.178622 105.594677 
L 781.25091 107.1446 
L 778.133596 109.736216 
L 776.541676 110.817214 
L 775.62625 111.70554 
L 774.696039 112.928843 
L 770.839019 118.869078 
L 770.007292 120.889329 
L 768.950173 123.971808 
L 766.803937 130.403056 
L 765.766073 132.684363 
L 764.621581 134.626093 
L 761.721973 138.660003 
L 759.150396 142.040612 
L 757.86882 143.823652 
L 755.132776 147.351532 
L 753.327887 150.710821 
L 751.659934 154.510228 
L 749.888756 158.265086 
L 747.095445 163.583234 
L 745.949803 165.333133 
L 742.459606 170.493615 
L 740.86532 173.305943 
L 738.75945 177.050987 
L 734.821632 183.216939 
L 733.616376 184.531502 
L 731.556293 186.403235 
L 729.650807 187.792489 
L 726.287723 190.138148 
L 724.923622 191.65953 
L 723.22207 193.884412 
L 720.455553 197.447767 
L 718.975185 199.104608 
L 717.429433 200.493695 
L 714.121938 203.030433 
L 711.040303 205.606104 
L 701.083248 215.084016 
L 699.617297 216.085121 
L 695.783591 218.497556 
L 693.177812 220.715432 
L 691.464313 222.072648 
L 683.614971 227.545516 
L 681.80455 228.583025 
L 678.452054 230.4568 
L 676.408141 231.835824 
L 674.251418 233.555143 
L 672.987154 234.854182 
L 670.609017 237.405517 
L 668.058816 239.652276 
L 666.343024 240.895912 
L 662.970241 243.014166 
L 660.414572 244.549339 
L 658.343113 246.040507 
L 655.612758 248.480518 
L 652.583199 251.319567 
L 650.49071 253.022444 
L 647.586237 255.128755 
L 642.551596 259.302909 
L 638.229112 263.298244 
L 634.520299 266.244983 
L 632.001178 268.30678 
L 627.671803 272.743174 
L 625.434372 274.715976 
L 623.743329 275.840351 
L 622.046498 277.020529 
L 620.399956 278.475323 
L 619.024635 279.687782 
L 617.452515 280.618932 
L 616.131768 281.527044 
L 612.649874 284.299554 
L 611.431677 285.451469 
L 610.019034 286.805321 
L 609.168013 287.558543 
L 606.194661 289.743078 
L 605.561273 290.605703 
L 604.17711 292.483164 
L 603.299746 293.334441 
L 601.954237 294.267802 
L 599.15149 296.337101 
L 598.440329 296.905482 
L 597.330085 297.407254 
L 592.6767 299.496169 
L 591.511672 300.452412 
L 589.864025 301.311366 
L 589.072855 302.413052 
L 588.576972 302.918338 
L 587.585561 303.76414 
L 586.900917 304.460427 
L 585.999907 305.001139 
L 585.652259 305.300379 
L 585.807242 305.427734 
L 586.432967 305.585319 
L 588.202597 305.760955 
L 591.594887 305.869856 
L 600.912497 305.876999 
L 626.35785 305.787875 
L 638.829265 305.540413 
L 645.628853 305.204522 
L 648.558668 304.895082 
L 650.64374 304.461019 
L 651.896671 303.981867 
L 653.064661 303.600421 
L 654.972239 303.282044 
L 656.894419 302.838 
L 658.433095 302.632359 
L 661.067158 302.288379 
L 664.507299 301.567938 
L 665.913466 300.930178 
L 668.064335 300.008119 
L 669.39661 299.774636 
L 677.556191 298.633805 
L 679.610813 298.055091 
L 685.982601 296.048796 
L 687.497462 295.626414 
L 689.517974 294.786738 
L 694.02313 292.69895 
L 695.585929 292.210159 
L 697.617112 291.545727 
L 699.070726 290.789447 
L 700.206512 289.975209 
L 704.295418 286.579489 
L 709.759428 283.587441 
L 714.692777 281.087361 
L 717.724846 279.142787 
L 719.34157 278.529303 
L 722.805565 277.177084 
L 724.750518 276.185053 
L 726.963461 274.811545 
L 728.820282 273.744724 
L 732.647001 272.01209 
L 735.258797 270.791565 
L 736.681481 269.836958 
L 738.609898 268.212241 
L 741.005781 265.86658 
L 745.471608 261.326639 
L 747.181948 258.797052 
L 749.704669 254.778588 
L 752.019467 250.986213 
L 753.29199 249.475168 
L 755.552736 247.202791 
L 759.4024 243.214096 
L 760.888197 241.440552 
L 763.88402 237.771806 
L 765.071026 236.694336 
L 767.500248 234.935754 
L 767.500248 234.935754 
" clip-path="url(#pc07d70181e)" style="fill: none; stroke: #440154; stroke-width: 1.5; stroke-linecap: square"/>
   </g>
   <g id="line2d_76">
    <path d="M 769.954468 215.82463 
L 777.743809 189.038443 
L 778.917905 186.197178 
L 780.289778 183.459308 
L 781.758799 180.974213 
L 782.372807 180.336804 
L 784.395451 178.62629 
L 785.02342 177.5047 
L 785.928331 175.355992 
L 789.14218 167.461133 
L 790.58905 164.462805 
L 791.536856 162.935767 
L 792.366264 161.996194 
L 792.950105 161.652695 
L 795.755873 160.49116 
L 797.160461 159.457788 
L 799.439823 157.723341 
L 800.843551 157.019357 
L 802.49342 156.19787 
L 803.467715 155.383345 
L 805.11591 153.666217 
L 809.368075 149.031687 
L 810.332455 148.468727 
L 811.372725 148.146898 
L 812.927734 147.647796 
L 814.267437 146.936752 
L 816.180917 145.645551 
L 818.020905 144.460036 
L 819.326404 143.921691 
L 821.716601 142.948909 
L 824.713844 141.4237 
L 827.07433 139.837993 
L 834.914561 134.386496 
L 836.341275 132.927407 
L 838.384207 130.751982 
L 839.564733 129.937003 
L 840.941625 129.251216 
L 843.705519 127.94563 
L 845.311972 126.818557 
L 847.22803 125.518412 
L 848.653164 124.877473 
L 850.063682 124.176753 
L 851.555952 123.155013 
L 855.585587 120.314664 
L 857.621301 119.539121 
L 863.183345 117.483716 
L 864.703643 116.566441 
L 867.355438 114.930566 
L 868.849229 113.906701 
L 870.259245 112.65696 
L 873.681798 109.564188 
L 875.395713 108.355679 
L 878.941887 106.131138 
L 883.515817 104.195423 
L 886.971348 102.289413 
L 889.547557 100.874186 
L 891.936994 99.641582 
L 893.741149 98.734038 
L 897.542779 96.655329 
L 899.714645 95.561115 
L 901.878798 94.534655 
L 904.662323 93.572506 
L 906.867868 92.51296 
L 908.599082 91.674214 
L 911.06509 90.643951 
L 915.337907 88.309135 
L 917.22901 87.478154 
L 921.808032 85.067501 
L 924.511446 83.590423 
L 926.863173 82.54739 
L 928.288487 81.365846 
L 929.476156 80.480689 
L 931.455726 79.115485 
L 932.330063 78.426591 
L 933.632464 77.858499 
L 935.249388 77.012331 
L 935.748162 76.459674 
L 936.334964 75.79629 
L 936.946431 75.533715 
L 938.585075 74.90932 
L 940.370971 74.05974 
L 942.146275 73.454039 
L 943.950832 72.478806 
L 945.04301 71.978679 
L 946.841738 71.035555 
L 948.991228 70.362046 
L 949.889049 69.929573 
L 949.881049 69.913785 
L 949.681414 69.814772 
L 948.897516 69.726415 
L 946.073821 69.703671 
L 905.204884 69.867781 
L 897.875718 70.03499 
L 887.702558 70.361774 
L 875.544546 71.274513 
L 872.738706 71.763636 
L 867.638619 72.28818 
L 857.405558 73.997377 
L 854.015946 75.104592 
L 850.793247 75.681569 
L 849.884017 76.157973 
L 848.558104 76.908501 
L 847.495752 77.144786 
L 842.978537 77.949439 
L 840.407414 78.739741 
L 838.626107 79.235727 
L 837.43419 79.832259 
L 836.615457 80.47522 
L 835.087085 81.740109 
L 833.839621 82.451774 
L 829.91703 84.154469 
L 823.204362 86.008198 
L 821.50651 86.619987 
L 817.367955 87.786753 
L 815.369313 88.660928 
L 813.536528 89.721923 
L 811.72258 90.724873 
L 804.190646 94.115808 
L 801.421454 95.648731 
L 797.621124 97.497098 
L 794.962924 98.884974 
L 793.185833 99.864149 
L 791.434945 101.096026 
L 788.36877 103.493576 
L 787.036336 105.132883 
L 784.621869 108.156225 
L 783.411489 109.136024 
L 780.841055 110.959016 
L 778.386622 112.374172 
L 776.661843 113.259952 
L 775.605299 114.102672 
L 774.519 115.25325 
L 773.621738 116.525887 
L 772.621356 118.33506 
L 771.543206 120.793247 
L 770.557261 123.637056 
L 769.655601 126.893782 
L 767.911582 133.751438 
L 766.969901 135.971002 
L 765.083356 139.685588 
L 763.572776 142.255814 
L 761.870379 144.596182 
L 760.044215 147.137838 
L 759.14901 148.786014 
L 756.651154 153.933359 
L 755.988825 156.255821 
L 754.083205 163.118138 
L 752.334427 168.318693 
L 750.209649 173.939299 
L 747.711462 179.85093 
L 746.791833 180.502059 
L 745.017829 181.774706 
L 742.725524 183.822269 
L 740.151295 185.970854 
L 738.783796 186.758946 
L 736.48795 187.81006 
L 734.838855 188.647405 
L 732.595924 190.143116 
L 730.421929 191.496016 
L 724.18298 194.958937 
L 721.7751 196.468003 
L 719.598916 197.574094 
L 718.158862 198.384621 
L 716.939983 199.367029 
L 712.019965 203.715696 
L 709.059005 205.616283 
L 706.901815 206.754544 
L 704.613668 207.955692 
L 702.913928 209.079575 
L 701.442085 210.318539 
L 700.153274 211.710244 
L 698.598186 213.35065 
L 696.583003 215.101574 
L 694.671056 216.511594 
L 692.266457 217.955271 
L 686.130378 221.499933 
L 683.977599 222.994955 
L 682.566921 224.177767 
L 679.345716 227.329244 
L 675.472091 231.138774 
L 671.189174 234.133064 
L 666.0902 237.333136 
L 664.754794 238.533706 
L 662.61299 240.397217 
L 658.697753 243.392662 
L 654.883111 245.517564 
L 651.633759 247.290412 
L 650.186676 248.320374 
L 648.664402 249.700401 
L 646.479584 252.094787 
L 644.379905 254.251999 
L 642.595007 255.733736 
L 640.874687 256.878196 
L 637.582783 259.013756 
L 635.415291 260.670997 
L 634.06891 262.004897 
L 631.484785 264.679956 
L 629.373722 266.426184 
L 624.277674 270.057354 
L 621.995745 271.283888 
L 619.734818 272.531128 
L 617.190716 274.183875 
L 615.735759 275.458193 
L 614.63678 276.727082 
L 612.635001 279.176011 
L 611.311933 280.285991 
L 609.274038 281.710396 
L 605.902447 283.577001 
L 604.646678 284.63285 
L 602.245931 286.793981 
L 597.597267 290.369601 
L 596.247597 291.172935 
L 594.394727 292.251579 
L 593.151055 293.26054 
L 592.142442 294.064197 
L 591.210868 294.472566 
L 589.356985 294.996885 
L 587.412313 295.615699 
L 586.474625 296.161601 
L 584.928395 297.1114 
L 583.651418 297.467095 
L 580.013995 298.436841 
L 576.91175 299.682565 
L 574.8 300.342725 
L 573.101593 301.152929 
L 572.062959 301.562541 
L 570.389405 302.219419 
L 570.308714 302.435484 
L 570.516188 302.59102 
L 571.211927 302.776602 
L 572.913868 302.971605 
L 576.476283 303.124256 
L 582.458248 303.159735 
L 611.109577 303.044114 
L 621.187729 302.782081 
L 625.333631 302.516347 
L 629.541212 302.313611 
L 643.094919 301.551964 
L 661.162463 300.052798 
L 662.699784 299.641752 
L 666.050292 298.699803 
L 667.992228 298.338197 
L 670.179697 297.909689 
L 673.876115 296.853764 
L 677.906555 295.642099 
L 680.89561 294.955109 
L 683.954703 294.188973 
L 686.301893 293.629701 
L 689.540914 292.784965 
L 692.008201 291.924099 
L 694.879127 290.702823 
L 697.535458 289.67842 
L 700.022727 288.626288 
L 707.301553 285.082101 
L 710.643704 283.987792 
L 714.666687 282.57756 
L 716.959813 281.61234 
L 727.284605 276.682251 
L 731.295919 274.545027 
L 735.008865 273.040353 
L 736.975317 271.835225 
L 738.015127 270.960148 
L 739.219458 269.634543 
L 741.077198 267.259819 
L 742.324855 265.306065 
L 745.437571 260.211842 
L 746.421408 259.152375 
L 747.426282 258.415584 
L 750.652917 256.357598 
L 754.044504 253.691659 
L 757.247878 252.019326 
L 758.483852 251.297697 
L 759.145982 250.656174 
L 759.796749 249.690496 
L 761.380779 246.693267 
L 763.510428 242.834454 
L 764.543856 241.401067 
L 765.426806 240.53017 
L 767.231893 238.867436 
L 767.352175 238.722375 
L 767.352175 238.722375 
" clip-path="url(#pc07d70181e)" style="fill: none; stroke: #414487; stroke-width: 1.5; stroke-linecap: square"/>
   </g>
   <g id="line2d_77">
    <path d="M 769.875375 215.610797 
L 770.652317 213.576297 
L 773.040825 206.734496 
L 775.535854 200.182858 
L 778.121183 192.736918 
L 779.047321 191.180984 
L 780.910874 188.614827 
L 782.126801 187.090859 
L 783.01622 186.464957 
L 785.432818 185.20622 
L 786.568929 184.481237 
L 787.269196 183.76619 
L 788.052551 182.609978 
L 788.973258 180.82701 
L 791.089766 176.047626 
L 795.353058 166.409599 
L 796.809299 163.858146 
L 797.655866 162.824369 
L 798.583087 162.037841 
L 799.947412 161.178793 
L 801.583849 160.431751 
L 805.737803 158.699386 
L 807.215737 157.692527 
L 809.884219 155.801638 
L 811.512174 154.980277 
L 815.250234 153.415874 
L 816.917392 152.646608 
L 818.071366 151.866717 
L 819.265968 150.764672 
L 821.276398 148.890042 
L 822.781811 147.80035 
L 824.292163 146.967034 
L 825.656074 146.114189 
L 827.039617 144.930278 
L 828.925126 142.938954 
L 831.0673 140.844319 
L 834.13075 137.843085 
L 838.110696 132.910718 
L 839.14677 132.164979 
L 840.725189 131.328718 
L 846.455784 128.467422 
L 848.684251 127.429721 
L 852.45802 125.785263 
L 854.866537 124.436368 
L 858.646546 121.93506 
L 860.299034 120.967684 
L 862.519925 119.818451 
L 863.496319 118.93475 
L 866.637406 115.954099 
L 868.164273 114.759515 
L 869.449 114.043856 
L 873.65625 111.918857 
L 875.336693 110.698916 
L 879.457658 107.550541 
L 881.974735 105.956809 
L 884.454524 104.622604 
L 885.948959 104.115846 
L 888.46347 103.301848 
L 890.150754 102.479726 
L 891.910991 101.360314 
L 896.25278 98.565386 
L 900.026749 96.44539 
L 902.078502 95.103284 
L 904.185098 93.980103 
L 908.646871 91.778788 
L 910.761451 90.563726 
L 914.375353 88.951373 
L 916.108659 88.141409 
L 917.3939 87.244639 
L 918.8638 85.941646 
L 920.612432 84.398295 
L 921.833598 83.821186 
L 923.93955 82.79473 
L 925.341748 81.798958 
L 927.149391 80.468101 
L 929.805785 79.53574 
L 932.848654 78.124257 
L 935.646353 77.326954 
L 936.45065 76.763781 
L 938.471497 74.992318 
L 939.537206 73.839496 
L 940.48205 73.166751 
L 941.56778 72.762053 
L 943.031227 72.135552 
L 943.948862 71.50188 
L 946.017031 69.941421 
L 946.964211 69.621617 
L 947.750138 69.250435 
L 950.167669 67.783104 
L 952.40904 66.648725 
L 957.215362 65.078784 
L 958.308078 64.377954 
L 959.148614 63.932735 
L 959.890406 63.526019 
L 959.881644 63.511757 
L 959.653499 63.408453 
L 958.669437 63.262577 
L 956.549503 63.192463 
L 937.357326 63.230377 
L 889.757603 63.587828 
L 884.598508 63.797415 
L 882.238593 64.08482 
L 877.65264 64.777248 
L 873.350157 65.235013 
L 870.767162 65.549657 
L 868.325219 66.09373 
L 866.500069 66.632744 
L 865.067346 66.971026 
L 863.35293 67.353426 
L 862.865312 67.721984 
L 862.212961 68.566949 
L 861.457183 69.396138 
L 860.759626 69.860506 
L 859.962162 70.104829 
L 858.404615 70.289745 
L 854.296743 70.732835 
L 850.400521 71.424364 
L 849.076445 71.962766 
L 843.427364 74.433562 
L 840.753497 75.120899 
L 831.312537 79.0234 
L 829.286336 79.619181 
L 825.651017 81.03425 
L 823.920654 81.49682 
L 822.865945 82.035055 
L 820.010328 83.644761 
L 818.753558 83.981082 
L 816.816198 84.527592 
L 814.940134 85.297295 
L 812.307859 86.611807 
L 807.565901 89.348917 
L 804.539747 90.582049 
L 802.364525 92.066672 
L 800.87892 92.93835 
L 797.822575 94.509701 
L 794.957749 96.401853 
L 793.069896 97.694163 
L 790.659535 99.215488 
L 785.608321 103.531628 
L 783.801409 105.550635 
L 782.333411 107.517213 
L 780.435279 110.098758 
L 778.804731 112.107974 
L 777.736036 113.871057 
L 776.124715 116.392145 
L 774.187111 118.937871 
L 771.818693 122.03548 
L 770.595598 124.082279 
L 769.858299 125.762854 
L 765.761305 136.577543 
L 761.279818 146.726661 
L 757.401999 155.183465 
L 755.340542 159.095986 
L 753.986934 161.721585 
L 749.882149 170.636932 
L 744.255039 184.618118 
L 743.302963 186.329368 
L 742.461032 187.408414 
L 741.591337 188.176152 
L 740.455617 188.860373 
L 738.730244 189.616872 
L 736.881332 190.178586 
L 735.172811 190.776908 
L 733.832148 191.480435 
L 732.278551 192.574451 
L 730.316624 194.245781 
L 726.5643 197.527761 
L 722.131195 201.185171 
L 720.506037 202.94241 
L 719.336201 204.518761 
L 718.121029 206.596536 
L 715.77884 210.765701 
L 713.878379 213.555562 
L 712.726734 215.004177 
L 711.425717 216.176183 
L 709.829747 217.751459 
L 706.601642 221.090818 
L 704.852814 222.664281 
L 703.749181 223.356371 
L 692.686975 229.287928 
L 690.353755 230.971231 
L 687.247834 233.225896 
L 683.579707 235.542649 
L 681.937734 237.159566 
L 679.74656 239.240639 
L 678.48304 240.157404 
L 677.033081 240.903591 
L 675.171512 241.889819 
L 672.135543 243.901626 
L 670.36731 245.28431 
L 668.624009 246.561525 
L 664.301086 249.513479 
L 660.946364 252.085757 
L 658.631293 253.503919 
L 656.800442 254.727144 
L 653.445318 256.97117 
L 649.47183 259.505253 
L 646.565988 261.330612 
L 645.365846 262.333502 
L 644.158323 263.69741 
L 642.346126 265.69777 
L 640.639908 267.217632 
L 633.669971 272.470359 
L 629.580924 274.887474 
L 624.393489 279.76656 
L 622.61618 281.269601 
L 621.381785 282.348084 
L 619.984775 283.205718 
L 618.418421 284.235146 
L 616.942468 285.486981 
L 613.141082 288.971516 
L 610.405767 290.903754 
L 609.240315 291.413947 
L 607.870842 292.066733 
L 606.688106 292.912875 
L 606.393192 293.37852 
L 605.765187 294.697012 
L 604.857093 295.794296 
L 604.253197 296.568903 
L 603.598494 297.021353 
L 601.623449 298.064714 
L 599.130692 299.05851 
L 597.35807 299.770123 
L 596.085263 300.316417 
L 594.544474 300.945697 
L 590.423904 302.874355 
L 588.981485 303.844157 
L 587.780862 304.51636 
L 587.856259 304.691905 
L 588.23437 304.888171 
L 589.273395 305.141226 
L 590.964695 305.315334 
L 594.009975 305.348382 
L 621.303031 305.243736 
L 631.024089 305.019741 
L 635.941449 304.691372 
L 638.650736 304.30886 
L 641.913513 303.77003 
L 645.214794 303.142496 
L 648.708354 302.604281 
L 651.015066 302.168754 
L 655.836168 301.021735 
L 657.097666 300.663279 
L 662.642656 299.53519 
L 665.24247 298.67734 
L 666.811878 297.937413 
L 669.834404 296.556464 
L 672.089493 296.047415 
L 674.95301 295.345017 
L 676.194874 294.746611 
L 677.979841 293.945286 
L 682.336157 292.317727 
L 687.574028 290.459371 
L 691.68573 288.374165 
L 693.501369 287.86639 
L 696.135624 287.106119 
L 699.556698 285.871357 
L 703.399838 284.137849 
L 705.78891 283.115676 
L 718.262078 278.098311 
L 723.29773 275.640493 
L 726.770446 273.719204 
L 729.472744 272.618142 
L 731.76759 271.644072 
L 734.632162 270.168557 
L 736.040561 269.245419 
L 738.306124 267.394604 
L 741.801335 264.336182 
L 742.876364 262.980537 
L 744.517313 260.503238 
L 747.559473 256.02167 
L 750.260872 252.38993 
L 751.891331 250.093899 
L 756.004971 245.403134 
L 758.658693 242.905598 
L 759.823029 241.359568 
L 761.444465 238.825139 
L 763.370152 235.861739 
L 764.504174 234.589747 
L 765.966198 233.319413 
L 767.272077 232.25319 
L 767.272077 232.25319 
" clip-path="url(#pc07d70181e)" style="fill: none; stroke: #2a788e; stroke-width: 1.5; stroke-linecap: square"/>
   </g>
   <g id="line2d_78">
    <path d="M 770.131011 206.74186 
L 772.620822 201.687666 
L 773.780738 199.741575 
L 775.165316 197.867128 
L 776.544353 196.369944 
L 777.383308 195.76425 
L 778.202773 195.452438 
L 781.929283 194.342422 
L 783.126452 193.691612 
L 784.175295 192.835197 
L 784.9837 191.895784 
L 785.625218 190.804241 
L 786.348555 189.054606 
L 790.289775 178.044989 
L 793.154172 169.310047 
L 794.744168 165.88578 
L 796.08111 163.317697 
L 796.844181 162.373259 
L 797.786622 161.593267 
L 798.904703 160.942564 
L 800.005734 160.5469 
L 801.246777 160.378452 
L 802.919553 160.099743 
L 804.373659 159.609238 
L 807.863819 158.118813 
L 810.652986 156.721619 
L 812.856679 155.651689 
L 815.651116 154.582373 
L 817.751973 153.323675 
L 820.165383 151.920411 
L 823.209921 150.270803 
L 824.833712 149.169119 
L 828.894971 146.226989 
L 832.109935 144.349933 
L 833.983425 143.620428 
L 838.101944 141.984579 
L 839.280805 141.332946 
L 844.254678 138.288198 
L 845.572997 137.851716 
L 846.929887 137.315769 
L 850.331565 135.534928 
L 854.322668 133.323816 
L 857.102469 131.480033 
L 859.331074 130.134141 
L 860.90508 129.517293 
L 862.540601 128.81534 
L 863.659407 128.005371 
L 865.978646 126.30375 
L 866.979242 125.831808 
L 868.001113 125.629199 
L 869.440152 125.304426 
L 870.821857 124.739725 
L 876.490426 121.928952 
L 878.069446 120.707197 
L 880.637981 118.649647 
L 882.325237 117.663092 
L 885.877661 115.76489 
L 888.42185 113.830113 
L 890.773471 112.120726 
L 892.681503 111.139253 
L 894.228457 110.496493 
L 897.200074 109.507679 
L 898.609953 108.688678 
L 899.916833 107.634303 
L 901.601339 106.318336 
L 902.79094 105.683679 
L 903.987619 105.302799 
L 906.718787 104.510493 
L 908.085749 103.837591 
L 909.144636 103.065172 
L 910.605921 101.579142 
L 914.439435 97.725241 
L 915.091932 97.4672 
L 918.400872 96.560817 
L 921.770061 95.158332 
L 923.37921 94.624698 
L 924.715727 93.810799 
L 926.123452 92.698545 
L 928.726428 90.518828 
L 930.381189 89.646023 
L 932.373547 88.493924 
L 934.852996 87.126599 
L 936.510606 86.157727 
L 938.363858 84.806259 
L 940.704313 83.081168 
L 942.578629 81.995897 
L 943.712179 81.616021 
L 949.326102 80.110847 
L 950.276636 79.473346 
L 952.220928 78.096257 
L 957.368802 74.764383 
L 961.280586 71.564668 
L 962.246267 71.397277 
L 964.348427 71.05589 
L 965.67592 70.544847 
L 967.036394 69.789362 
L 969.480383 68.239667 
L 970.630116 68.006889 
L 973.665719 67.498777 
L 974.390679 67.126359 
L 974.804608 66.670335 
L 975.140498 65.958714 
L 975.415882 64.777443 
L 975.754505 63.339623 
L 976.091183 63.137145 
L 976.870241 62.926124 
L 976.574688 62.854605 
L 975.011979 62.800095 
L 962.233059 62.820398 
L 894.473776 63.116082 
L 881.02569 63.472073 
L 875.392017 63.768173 
L 874.422102 64.08037 
L 871.501648 65.329645 
L 868.17276 65.984045 
L 863.617032 67.259786 
L 861.595993 67.522689 
L 860.166383 67.814136 
L 859.644292 68.150022 
L 857.178025 70.192053 
L 856.170127 70.63933 
L 851.816291 72.033597 
L 849.965842 72.299295 
L 848.322725 72.541955 
L 847.342396 72.937457 
L 840.527359 76.30199 
L 837.363274 77.392379 
L 831.181244 80.15929 
L 829.169034 81.110295 
L 823.926995 83.933977 
L 821.326361 85.242905 
L 816.778918 87.40173 
L 804.867451 94.000963 
L 800.475152 96.8121 
L 798.942058 98.176019 
L 796.764659 100.477307 
L 795.21481 102.35076 
L 794.083237 104.084503 
L 792.158584 107.086451 
L 788.995886 111.377138 
L 787.679977 113.490247 
L 786.738258 114.563607 
L 784.435851 116.758241 
L 782.354591 118.384783 
L 779.11343 121.088665 
L 778.085538 122.265586 
L 777.200724 123.629826 
L 776.282693 125.48602 
L 774.048766 130.206621 
L 772.944896 131.988939 
L 772.086957 132.960526 
L 771.306353 133.487438 
L 770.431279 134.124446 
L 769.749426 134.948945 
L 768.775142 136.514636 
L 767.529841 138.762343 
L 765.816265 142.165283 
L 762.057351 150.107986 
L 760.977955 152.201655 
L 757.96153 157.87785 
L 756.626602 160.693816 
L 754.559059 164.369281 
L 751.641905 169.134392 
L 750.510202 171.025282 
L 749.919279 172.480014 
L 748.40152 176.599117 
L 746.144321 182.260463 
L 743.25084 190.231674 
L 741.992638 192.562328 
L 740.826164 194.350254 
L 740.265869 194.827068 
L 739.342008 195.26117 
L 737.674529 195.772966 
L 735.618705 196.158428 
L 733.662237 196.57111 
L 732.469577 197.067227 
L 730.944101 197.961084 
L 729.512606 199.048395 
L 727.957976 200.577798 
L 726.332752 202.031463 
L 724.176903 203.670553 
L 718.576212 207.433987 
L 716.838525 208.85789 
L 714.931435 210.368369 
L 712.970879 211.654835 
L 711.668497 212.242085 
L 710.519126 212.835698 
L 709.103517 213.889339 
L 706.315462 216.263442 
L 701.939931 219.878327 
L 698.469004 222.371582 
L 694.146153 225.268492 
L 688.376391 230.662407 
L 684.623116 234.099655 
L 683.477268 234.823221 
L 680.595004 236.497191 
L 678.345538 238.183773 
L 675.56159 240.43891 
L 672.923547 242.04525 
L 670.64212 243.622797 
L 668.199702 245.51874 
L 666.165778 247.090254 
L 664.104232 248.366036 
L 660.271271 250.587395 
L 658.591909 251.914666 
L 656.00162 253.981995 
L 654.451905 254.857703 
L 651.801831 256.294232 
L 650.331508 257.430729 
L 648.000862 259.594756 
L 646.265595 261.175202 
L 642.895194 263.814948 
L 640.531435 265.904024 
L 636.379347 269.133454 
L 634.466576 270.602631 
L 633.005921 271.420885 
L 631.556666 272.267749 
L 630.595299 273.171328 
L 629.424009 274.572698 
L 627.305067 277.27864 
L 625.030678 279.332061 
L 623.569568 280.946789 
L 622.663951 282.025809 
L 621.851525 282.885641 
L 619.073242 284.924786 
L 617.273778 285.725757 
L 613.730308 287.324176 
L 612.168155 288.49915 
L 611.183464 288.97302 
L 609.3339 290.220948 
L 607.910205 290.971286 
L 606.201068 292.189788 
L 604.987696 293.003258 
L 604.007812 293.87748 
L 603.320065 294.558768 
L 602.437324 295.455572 
L 600.624691 296.600515 
L 596.906618 298.286161 
L 596.922103 298.311725 
L 597.169636 298.443616 
L 597.947294 298.571862 
L 599.845976 298.609697 
L 621.882455 298.550634 
L 635.170866 298.370995 
L 639.346706 298.146788 
L 651.280747 297.043121 
L 653.368812 296.593834 
L 656.398121 295.965098 
L 665.043552 294.063437 
L 668.711415 292.936251 
L 669.951019 292.39845 
L 672.945149 290.948854 
L 678.652843 289.322012 
L 683.384541 287.477895 
L 684.567489 286.937161 
L 686.500368 286.453673 
L 694.450536 284.302026 
L 700.429626 282.040528 
L 703.359605 280.99549 
L 705.217669 280.223117 
L 706.854021 279.538401 
L 710.538661 277.633266 
L 712.695836 276.849835 
L 716.874948 275.00139 
L 724.601215 271.55835 
L 728.063817 269.697162 
L 730.226648 268.851893 
L 733.511908 267.565197 
L 734.718128 266.739583 
L 737.657974 264.704674 
L 740.932717 262.733903 
L 743.157401 261.20982 
L 745.35816 259.447221 
L 746.521356 258.206281 
L 747.774741 256.461363 
L 748.774989 254.663926 
L 749.69738 252.536167 
L 751.15528 249.232092 
L 752.066806 247.753816 
L 752.987036 246.665597 
L 754.615287 245.20692 
L 756.04164 243.729079 
L 758.295876 241.340895 
L 761.414818 238.43321 
L 764.9689 234.322956 
L 765.805645 232.869401 
L 767.250097 229.783937 
L 767.300343 229.664583 
L 767.300343 229.664583 
" clip-path="url(#pc07d70181e)" style="fill: none; stroke: #22a884; stroke-width: 1.5; stroke-linecap: square"/>
   </g>
   <g id="line2d_79">
    <path d="M 769.76707 207.372552 
L 773.294549 201.94241 
L 774.76862 199.949722 
L 778.051165 196.300757 
L 783.249515 191.415643 
L 784.370581 189.930938 
L 785.809124 187.636061 
L 787.157472 185.078996 
L 789.60923 180.468583 
L 792.362065 175.61773 
L 793.317943 174.625417 
L 795.799549 172.492138 
L 797.07321 171.247544 
L 798.317288 169.730849 
L 803.450094 163.151063 
L 804.853073 161.889161 
L 806.287228 160.849534 
L 808.924872 159.319924 
L 810.540424 158.597934 
L 814.851924 156.896295 
L 817.082183 155.324941 
L 818.77612 153.910298 
L 820.296239 152.697516 
L 821.933249 151.716982 
L 823.245874 151.163314 
L 826.248488 150.125941 
L 827.257603 149.364575 
L 828.815341 147.878747 
L 831.062799 145.754743 
L 832.163751 145.0981 
L 837.142854 142.397273 
L 840.977685 139.521616 
L 842.972331 138.304218 
L 847.767189 135.161222 
L 849.761257 133.997551 
L 851.161491 133.486695 
L 857.022854 131.515251 
L 858.462266 130.655576 
L 859.49989 129.770987 
L 860.85516 128.293097 
L 863.363922 125.636595 
L 864.57788 124.630842 
L 865.672136 124.019212 
L 867.237791 123.463193 
L 869.207617 122.675544 
L 870.9438 121.728305 
L 872.697371 120.811664 
L 874.511795 120.157716 
L 876.503042 119.428618 
L 877.673023 118.693486 
L 880.469634 116.555759 
L 882.948198 114.483185 
L 885.975539 111.994582 
L 887.105829 111.41636 
L 888.648891 110.879032 
L 890.501411 110.463993 
L 893.410181 109.818853 
L 894.246899 109.35611 
L 895.58429 108.314905 
L 898.50838 106.047031 
L 899.541433 105.513408 
L 900.857806 105.147202 
L 901.910837 104.724418 
L 902.910603 104.062753 
L 904.515715 102.666588 
L 906.594633 100.988092 
L 907.941078 100.152634 
L 908.813661 99.862931 
L 912.778936 98.825766 
L 915.447115 97.750453 
L 917.343585 96.805655 
L 918.986201 95.622726 
L 921.011173 94.249774 
L 922.502305 93.518186 
L 924.920356 92.346954 
L 925.985709 91.551996 
L 927.221345 90.337039 
L 929.700778 87.744646 
L 930.682765 87.127297 
L 931.602601 86.80289 
L 933.317018 86.481569 
L 936.185743 85.962754 
L 938.79611 85.139476 
L 939.943358 84.739309 
L 941.075168 84.049436 
L 942.560319 82.929657 
L 943.736313 81.782374 
L 944.441949 80.789112 
L 945.4183 79.389408 
L 946.310406 78.563586 
L 947.129552 78.08695 
L 947.917546 77.879694 
L 951.472736 77.289426 
L 952.821368 76.710753 
L 955.313918 75.345629 
L 957.863201 73.503179 
L 958.953343 73.209152 
L 960.763683 73.009056 
L 961.890396 72.781831 
L 962.465779 72.44106 
L 963.002502 71.850956 
L 965.147446 69.058517 
L 965.994556 68.579473 
L 969.225274 66.936337 
L 970.277808 66.457697 
L 972.071968 65.992201 
L 972.000516 65.908422 
L 971.537305 65.710419 
L 970.385487 65.460684 
L 968.824106 65.359818 
L 959.004875 65.373471 
L 922.163955 65.570029 
L 891.927845 66.232684 
L 884.72668 66.56206 
L 879.617828 67.060811 
L 876.623247 67.284597 
L 873.052199 67.63055 
L 870.601375 67.824719 
L 867.338008 68.379552 
L 865.265258 68.738027 
L 862.070984 68.889413 
L 860.676729 69.083193 
L 859.840088 69.457926 
L 858.400952 70.384432 
L 857.090379 71.430868 
L 855.33568 72.928921 
L 853.646971 74.025177 
L 852.811893 74.300926 
L 850.71586 74.619375 
L 847.606376 75.30218 
L 846.787718 75.651633 
L 845.247196 76.696964 
L 843.409392 77.873049 
L 840.298608 79.486018 
L 838.839838 80.346465 
L 837.697181 80.758051 
L 836.213999 81.034181 
L 834.810362 81.348359 
L 833.605415 81.919209 
L 829.49529 84.083183 
L 825.545118 85.386995 
L 824.138801 85.997805 
L 821.008353 87.526399 
L 815.574552 89.64508 
L 814.336782 90.50491 
L 811.399824 92.545005 
L 809.398502 93.677451 
L 804.517942 96.190066 
L 801.855156 98.097933 
L 799.677546 99.492531 
L 797.159453 101.090193 
L 796.032634 102.110818 
L 794.714221 103.670383 
L 793.337927 105.188995 
L 791.289363 106.988975 
L 790.006624 107.812831 
L 788.759318 108.656202 
L 787.870642 109.59458 
L 784.813893 113.31087 
L 782.774752 115.844923 
L 777.555524 121.149794 
L 775.913743 123.319031 
L 774.779651 124.72278 
L 772.368374 127.684652 
L 770.200515 131.078836 
L 769.387345 132.837082 
L 767.577659 137.181668 
L 765.743556 141.398652 
L 764.26305 144.702077 
L 762.796556 147.310406 
L 760.484407 150.965249 
L 759.686271 151.750601 
L 758.456688 152.61667 
L 756.871679 153.772014 
L 755.484987 155.096713 
L 754.274203 156.550981 
L 753.365527 158.036127 
L 752.208134 160.38437 
L 750.087342 165.177466 
L 747.01734 172.611326 
L 745.38317 177.372709 
L 742.75498 183.828148 
L 740.176771 190.370432 
L 738.935678 192.788784 
L 737.919097 194.28565 
L 736.990901 195.287185 
L 736.217378 195.811228 
L 735.403507 196.081478 
L 732.551551 196.86002 
L 730.739521 197.759053 
L 728.10914 199.258232 
L 725.653148 201.011561 
L 722.552134 203.379466 
L 719.396442 205.225569 
L 717.65437 206.811189 
L 714.296626 209.81145 
L 712.903013 210.65326 
L 710.818643 211.642712 
L 709.188451 212.461002 
L 707.881827 213.417169 
L 703.408025 216.795925 
L 699.910054 218.980486 
L 695.73211 221.810297 
L 693.862099 222.850943 
L 692.122144 223.883586 
L 688.921868 226.247143 
L 682.400635 231.321806 
L 680.277389 233.196751 
L 676.849359 235.888984 
L 671.680728 239.516225 
L 666.067097 243.806203 
L 663.400606 245.886958 
L 661.970249 246.767283 
L 657.762687 249.004448 
L 656.141545 250.459531 
L 652.313813 253.885609 
L 648.148884 257.639359 
L 646.369439 259.255216 
L 644.640024 260.47578 
L 641.532997 262.325958 
L 639.757599 263.305325 
L 638.221917 264.509946 
L 634.692314 267.157141 
L 633.311021 267.945084 
L 631.964556 268.775798 
L 630.458185 270.133672 
L 626.770894 273.353144 
L 623.906486 275.274788 
L 622.469799 276.233985 
L 619.947808 277.787584 
L 617.082314 279.715893 
L 614.897365 280.765111 
L 613.897682 281.456598 
L 613.210783 282.248456 
L 611.563445 284.6297 
L 610.79869 285.574845 
L 609.61881 286.682398 
L 608.488151 287.598764 
L 607.547027 289.044708 
L 605.335358 291.0022 
L 604.596072 291.644103 
L 603.990571 292.117809 
L 601.426037 293.34375 
L 599.479556 294.043486 
L 598.362081 294.478783 
L 596.352152 295.458955 
L 593.367886 296.146179 
L 591.358513 296.616507 
L 590.64706 296.994055 
L 589.368896 297.761373 
L 588.888105 298.111774 
L 588.868147 298.351266 
L 589.096897 298.594838 
L 589.641865 298.819797 
L 590.826263 299.028266 
L 593.350556 299.211675 
L 597.178459 299.23087 
L 615.021967 299.166527 
L 627.903265 298.995466 
L 633.348405 298.768327 
L 636.058082 298.493917 
L 643.457134 297.093423 
L 646.332339 296.366494 
L 648.351065 296.114268 
L 651.837428 295.657238 
L 659.676657 294.373951 
L 661.181154 293.90609 
L 662.743742 293.567081 
L 665.908919 292.887297 
L 674.330738 290.273838 
L 675.677849 289.67398 
L 677.544083 288.729211 
L 679.07753 288.249568 
L 680.430374 287.799049 
L 687.085458 284.302101 
L 688.802553 283.44853 
L 690.301282 283.034816 
L 694.018769 282.047311 
L 697.439906 280.960357 
L 701.228432 279.535629 
L 705.263466 278.119784 
L 711.4691 275.670545 
L 714.778667 274.119366 
L 716.867265 273.29238 
L 719.472782 272.248934 
L 721.521384 271.152225 
L 725.829813 268.929704 
L 728.36311 267.860122 
L 730.4833 267.13619 
L 733.426909 266.147629 
L 735.512923 265.219555 
L 737.913049 263.872849 
L 739.693719 262.614547 
L 743.281451 259.784168 
L 745.497995 257.603857 
L 747.179175 255.659554 
L 748.230924 254.101124 
L 749.432186 251.857101 
L 753.258895 244.890895 
L 754.130165 243.939583 
L 757.178356 241.241456 
L 761.202894 237.695446 
L 762.354435 236.089556 
L 763.642333 233.920378 
L 764.774378 231.56449 
L 767.816293 224.598922 
L 767.816293 224.598922 
" clip-path="url(#pc07d70181e)" style="fill: none; stroke: #7ad151; stroke-width: 1.5; stroke-linecap: square"/>
   </g>
   <g id="line2d_80">
    <path d="M 769.932752 208.881246 
L 771.169927 205.137197 
L 772.418922 202.160453 
L 773.572724 199.976598 
L 774.527166 198.573349 
L 775.252505 197.870718 
L 776.060853 197.42253 
L 777.356586 196.995376 
L 780.165454 196.10394 
L 780.71913 195.639327 
L 781.247328 194.863054 
L 781.976495 193.360182 
L 784.217147 188.470837 
L 788.951029 179.121561 
L 789.694882 178.277902 
L 790.528262 177.663345 
L 791.593138 177.166233 
L 793.241308 176.663488 
L 795.102938 176.054236 
L 796.062309 175.472629 
L 796.872494 174.712632 
L 797.90294 173.4314 
L 799.828138 170.983624 
L 802.343547 167.79072 
L 806.063744 162.827284 
L 808.42129 159.962882 
L 809.459946 159.028333 
L 810.722991 158.186469 
L 811.910125 157.638725 
L 813.300253 157.289474 
L 815.003793 156.790342 
L 815.925847 156.290118 
L 816.833222 155.505418 
L 820.645837 152.00689 
L 821.769427 151.308833 
L 823.541738 150.496823 
L 826.159676 149.503187 
L 830.627254 147.971549 
L 831.987533 147.083508 
L 833.58844 145.746863 
L 836.907662 142.755239 
L 839.557331 141.070432 
L 842.441561 139.258349 
L 845.649994 137.215572 
L 847.39289 136.324858 
L 849.293693 135.437091 
L 852.306444 133.717672 
L 853.528558 133.33473 
L 855.118578 132.812807 
L 857.111649 131.856422 
L 858.33879 131.039548 
L 859.909105 129.687728 
L 861.672404 128.216695 
L 863.742512 126.824705 
L 866.706623 125.172035 
L 867.921062 124.680421 
L 871.331858 123.536931 
L 872.782559 122.640739 
L 877.389097 119.718538 
L 886.842388 114.288682 
L 893.837059 109.815956 
L 895.957221 109.209007 
L 901.837373 107.265327 
L 902.972347 106.54416 
L 904.402319 105.338462 
L 907.333557 102.773565 
L 912.082343 99.366837 
L 913.029377 98.966725 
L 914.522411 98.654093 
L 919.278179 97.695141 
L 920.815972 97.112898 
L 922.392643 96.21335 
L 928.134721 92.540199 
L 930.059698 90.694337 
L 931.06054 89.419869 
L 931.730427 88.211685 
L 932.291748 87.290034 
L 932.84761 86.874046 
L 933.684761 86.53726 
L 936.843043 85.41752 
L 940.510758 83.816459 
L 941.807467 83.667237 
L 942.668428 83.442181 
L 943.353838 83.021334 
L 945.717595 81.29345 
L 947.321643 80.695065 
L 950.715559 79.813194 
L 952.720491 79.382511 
L 953.104251 79.01577 
L 954.570004 76.946738 
L 955.899867 75.282997 
L 956.644385 74.876227 
L 961.467386 72.820135 
L 962.639285 72.582193 
L 965.22673 72.156803 
L 965.824375 71.67216 
L 966.812094 70.57355 
L 967.377855 69.640076 
L 967.800158 69.118049 
L 968.212715 68.621165 
L 968.072054 68.432491 
L 967.618949 68.250507 
L 966.59788 68.11361 
L 964.257341 68.081374 
L 920.830705 68.223875 
L 879.487999 68.569006 
L 876.621675 68.725783 
L 868.64121 68.905638 
L 865.269888 69.249953 
L 863.285433 69.451761 
L 860.73151 70.05195 
L 856.12875 71.211208 
L 855.075849 71.99253 
L 853.806841 72.927808 
L 852.230515 73.603101 
L 850.26017 74.390688 
L 849.670977 74.996952 
L 848.997924 75.995254 
L 848.233511 77.129297 
L 847.329789 78.063052 
L 846.204105 78.901701 
L 845.415445 79.189511 
L 843.170782 79.846214 
L 841.227724 80.716494 
L 840.151199 80.915171 
L 838.038994 81.28022 
L 836.553353 81.796522 
L 829.929922 84.405608 
L 828.339685 84.668794 
L 826.069307 85.064193 
L 825.24545 85.46019 
L 824.302475 86.188187 
L 821.41609 88.527363 
L 820.354303 89.06423 
L 818.098504 89.841966 
L 815.988895 90.655312 
L 814.958215 91.4197 
L 810.550842 94.862613 
L 809.26287 95.311519 
L 805.338944 96.533753 
L 803.618345 97.464478 
L 798.513227 100.477345 
L 796.341438 101.993067 
L 793.994075 104.001817 
L 791.840793 105.97585 
L 790.931137 107.183651 
L 789.007749 109.787158 
L 786.909658 112.071018 
L 785.969453 112.739166 
L 784.434262 113.490917 
L 783.322904 114.165203 
L 782.569032 114.896182 
L 780.27443 117.646872 
L 777.980389 120.328901 
L 776.620097 121.903025 
L 773.857744 125.61392 
L 771.015337 129.796947 
L 769.989307 131.741802 
L 769.029052 134.069918 
L 766.969502 139.023449 
L 765.932315 140.660327 
L 764.74956 142.181982 
L 763.616882 143.265212 
L 760.793111 145.71396 
L 759.714639 147.082513 
L 758.719911 148.696341 
L 755.021391 155.58642 
L 753.116081 159.411821 
L 751.18414 162.877796 
L 749.184614 166.357515 
L 748.062927 168.887117 
L 745.015058 176.537516 
L 743.652985 179.74322 
L 740.864235 186.086257 
L 740.147655 187.574698 
L 739.338977 188.729429 
L 737.949241 190.273307 
L 736.711009 191.396286 
L 735.945265 191.773933 
L 734.198296 192.285375 
L 732.400701 192.919902 
L 730.511838 193.852849 
L 727.846491 195.419358 
L 726.366415 196.537712 
L 724.270581 198.449769 
L 722.362044 200.054408 
L 720.117646 201.600044 
L 717.828346 202.905555 
L 716.539575 203.779957 
L 714.938028 205.207199 
L 711.467946 208.364107 
L 709.884956 209.42121 
L 706.865525 210.956907 
L 704.841272 212.144936 
L 700.595571 214.8533 
L 697.230728 217.205949 
L 690.992847 221.212454 
L 686.127601 224.871535 
L 678.600448 230.518896 
L 676.090854 231.713717 
L 674.220526 232.70204 
L 672.459159 233.957774 
L 669.66244 235.927074 
L 667.592182 237.327295 
L 665.95029 238.753004 
L 659.454861 244.695032 
L 656.0496 247.023572 
L 654.553082 247.984786 
L 643.533963 256.251734 
L 640.575894 257.848706 
L 638.298063 259.119304 
L 635.151136 261.246732 
L 633.759045 262.490519 
L 630.507905 265.418776 
L 628.454722 267.100725 
L 626.848708 267.973844 
L 624.919315 269.066799 
L 622.924188 270.545717 
L 620.543228 272.470556 
L 618.621753 274.306211 
L 615.39511 277.270925 
L 613.592722 278.33318 
L 611.367643 279.733878 
L 603.508945 284.841208 
L 602.225872 285.357374 
L 599.399756 286.361501 
L 597.419959 287.115697 
L 595.870063 287.649698 
L 594.22692 288.648945 
L 593.957314 289.160106 
L 593.517137 289.8942 
L 592.721574 290.675254 
L 590.796554 292.399323 
L 588.872911 293.420753 
L 587.386017 294.279916 
L 586.429325 294.726653 
L 583.654734 295.743611 
L 582.029668 296.6969 
L 581.104491 297.019861 
L 579.305275 297.589776 
L 579.219057 297.803852 
L 579.434242 298.006 
L 579.995592 298.206014 
L 581.266571 298.382543 
L 583.977393 298.472639 
L 593.329568 298.476611 
L 631.029138 298.231113 
L 637.235891 297.952896 
L 644.384141 297.240822 
L 648.791509 296.521749 
L 652.701676 296.049626 
L 658.611042 295.309478 
L 661.059688 294.789927 
L 663.498492 294.280671 
L 665.459676 293.929792 
L 667.702662 293.404695 
L 670.041359 292.880078 
L 672.006439 292.133531 
L 674.935966 290.850355 
L 675.731902 290.26154 
L 676.89623 289.370073 
L 679.401867 287.965045 
L 680.809396 287.431723 
L 685.730575 285.850881 
L 694.285712 283.016642 
L 697.305248 281.634414 
L 707.875093 276.774035 
L 711.033472 275.621752 
L 713.199438 274.739686 
L 715.025267 273.648259 
L 717.310103 272.418867 
L 719.180061 271.659876 
L 722.406283 270.406002 
L 728.09538 267.579653 
L 730.060809 266.325856 
L 732.468654 264.796916 
L 734.58156 263.806099 
L 738.508017 261.926929 
L 739.739929 260.974898 
L 740.811532 259.896125 
L 741.947412 258.425774 
L 744.237329 254.837531 
L 747.423687 250.011803 
L 749.917871 246.452006 
L 751.785357 243.437132 
L 752.945221 242.12494 
L 755.094881 240.123159 
L 759.455986 236.236234 
L 764.228358 232.720602 
L 767.113021 230.538117 
L 767.113021 230.538117 
" clip-path="url(#pc07d70181e)" style="fill: none; stroke: #fde725; stroke-width: 1.5; stroke-linecap: square"/>
   </g>
   <g id="patch_8">
    <path d="M 549.965 318.04 
L 549.965 50.64 
" style="fill: none; stroke: #000000; stroke-width: 0.8; stroke-linejoin: miter; stroke-linecap: square"/>
   </g>
   <g id="patch_9">
    <path d="M 997.2 318.04 
L 997.2 50.64 
" style="fill: none; stroke: #000000; stroke-width: 0.8; stroke-linejoin: miter; stroke-linecap: square"/>
   </g>
   <g id="patch_10">
    <path d="M 549.965 318.04 
L 997.2 318.04 
" style="fill: none; stroke: #000000; stroke-width: 0.8; stroke-linejoin: miter; stroke-linecap: square"/>
   </g>
   <g id="patch_11">
    <path d="M 549.965 50.64 
L 997.2 50.64 
" style="fill: none; stroke: #000000; stroke-width: 0.8; stroke-linejoin: miter; stroke-linecap: square"/>
   </g>
   <g id="text_40">
    <text style="font: 12px 'DejaVu Sans', 'Bitstream Vera Sans', 'Computer Modern Sans Serif', 'Lucida Grande', 'Verdana', 'Geneva', 'Lucid', 'Arial', 'Helvetica', 'Avant Garde', sans-serif; text-anchor: middle" x="773.5825" y="44.64" transform="rotate(-0 773.5825 44.64)">Stiffness tests</text>
   </g>
   <g id="legend_1">
    <g id="patch_12">
     <path d="M 555.915 132.298437 
L 683.282187 132.298437 
Q 684.982188 132.298437 684.982188 130.598437 
L 684.982188 56.59 
Q 684.982188 54.89 683.282187 54.89 
L 555.915 54.89 
Q 554.215 54.89 554.215 56.59 
L 554.215 130.598437 
Q 554.215 132.298437 555.915 132.298437 
z
" style="fill: #ffffff; opacity: 0.8; stroke: #cccccc; stroke-linejoin: miter"/>
    </g>
    <g id="line2d_81">
     <path d="M 557.615 61.773672 
L 566.115 61.773672 
L 574.615 61.773672 
" style="fill: none; stroke: #440154; stroke-width: 1.5; stroke-linecap: square"/>
    </g>
    <g id="text_41">
     <text style="font: 8.5px 'DejaVu Sans', 'Bitstream Vera Sans', 'Computer Modern Sans Serif', 'Lucida Grande', 'Verdana', 'Geneva', 'Lucid', 'Arial', 'Helvetica', 'Avant Garde', sans-serif; text-anchor: start" x="581.415" y="64.748672" transform="rotate(-0 581.415 64.748672)">\ld{initial}</text>
    </g>
    <g id="line2d_82">
     <path d="M 557.615 74.250078 
L 566.115 74.250078 
L 574.615 74.250078 
" style="fill: none; stroke: #414487; stroke-width: 1.5; stroke-linecap: square"/>
    </g>
    <g id="text_42">
     <text style="font: 8.5px 'DejaVu Sans', 'Bitstream Vera Sans', 'Computer Modern Sans Serif', 'Lucida Grande', 'Verdana', 'Geneva', 'Lucid', 'Arial', 'Helvetica', 'Avant Garde', sans-serif; text-anchor: start" x="581.415" y="77.225078" transform="rotate(-0 581.415 77.225078)">\ld{after run-in}</text>
    </g>
    <g id="line2d_83">
     <path d="M 557.615 86.726484 
L 566.115 86.726484 
L 574.615 86.726484 
" style="fill: none; stroke: #2a788e; stroke-width: 1.5; stroke-linecap: square"/>
    </g>
    <g id="text_43">
     <text style="font: 8.5px 'DejaVu Sans', 'Bitstream Vera Sans', 'Computer Modern Sans Serif', 'Lucida Grande', 'Verdana', 'Geneva', 'Lucid', 'Arial', 'Helvetica', 'Avant Garde', sans-serif; text-anchor: start" x="581.415" y="89.701484" transform="rotate(-0 581.415 89.701484)">\ld{preload increase 1}</text>
    </g>
    <g id="line2d_84">
     <path d="M 557.615 99.202891 
L 566.115 99.202891 
L 574.615 99.202891 
" style="fill: none; stroke: #22a884; stroke-width: 1.5; stroke-linecap: square"/>
    </g>
    <g id="text_44">
     <text style="font: 8.5px 'DejaVu Sans', 'Bitstream Vera Sans', 'Computer Modern Sans Serif', 'Lucida Grande', 'Verdana', 'Geneva', 'Lucid', 'Arial', 'Helvetica', 'Avant Garde', sans-serif; text-anchor: start" x="581.415" y="102.177891" transform="rotate(-0 581.415 102.177891)">\ld{preload increase 2}</text>
    </g>
    <g id="line2d_85">
     <path d="M 557.615 111.679297 
L 566.115 111.679297 
L 574.615 111.679297 
" style="fill: none; stroke: #7ad151; stroke-width: 1.5; stroke-linecap: square"/>
    </g>
    <g id="text_45">
     <text style="font: 8.5px 'DejaVu Sans', 'Bitstream Vera Sans', 'Computer Modern Sans Serif', 'Lucida Grande', 'Verdana', 'Geneva', 'Lucid', 'Arial', 'Helvetica', 'Avant Garde', sans-serif; text-anchor: start" x="581.415" y="114.654297" transform="rotate(-0 581.415 114.654297)">\ld{preload increase 3}</text>
    </g>
    <g id="line2d_86">
     <path d="M 557.615 124.155703 
L 566.115 124.155703 
L 574.615 124.155703 
" style="fill: none; stroke: #fde725; stroke-width: 1.5; stroke-linecap: square"/>
    </g>
    <g id="text_46">
     <text style="font: 8.5px 'DejaVu Sans', 'Bitstream Vera Sans', 'Computer Modern Sans Serif', 'Lucida Grande', 'Verdana', 'Geneva', 'Lucid', 'Arial', 'Helvetica', 'Avant Garde', sans-serif; text-anchor: start" x="581.415" y="127.130703" transform="rotate(-0 581.415 127.130703)">\ld{preload increase 4}</text>
    </g>
   </g>
  </g>
  <g id="text_47">
   <text style="font: 12px 'DejaVu Sans', 'Bitstream Vera Sans', 'Computer Modern Sans Serif', 'Lucida Grande', 'Verdana', 'Geneva', 'Lucid', 'Arial', 'Helvetica', 'Avant Garde', sans-serif; text-anchor: middle" x="504" y="16.318125" transform="rotate(-0 504 16.318125)">Conic Disk (Onyx)</text>
  </g>
 </g>
 <defs>
  <clipPath id="pf9a5e3e8dd">
   <rect x="56.09" y="50.64" width="447.235" height="267.4"/>
  </clipPath>
  <clipPath id="pc07d70181e">
   <rect x="549.965" y="50.64" width="447.235" height="267.4"/>
  </clipPath>
 </defs>
</svg>
