<?xml version="1.0" encoding="utf-8" standalone="no"?>
<!DOCTYPE svg PUBLIC "-//W3C//DTD SVG 1.1//EN"
  "http://www.w3.org/Graphics/SVG/1.1/DTD/svg11.dtd">
<svg xmlns:xlink="http://www.w3.org/1999/xlink" width="1008pt" height="360pt" viewBox="0 0 1008 360" xmlns="http://www.w3.org/2000/svg" version="1.1">
 <metadata>
  <rdf:RDF xmlns:dc="http://purl.org/dc/elements/1.1/" xmlns:cc="http://creativecommons.org/ns#" xmlns:rdf="http://www.w3.org/1999/02/22-rdf-syntax-ns#">
   <cc:Work>
    <dc:type rdf:resource="http://purl.org/dc/dcmitype/StillImage"/>
    <dc:date>2024-07-27T11:51:04.777622</dc:date>
    <dc:format>image/svg+xml</dc:format>
    <dc:creator>
     <cc:Agent>
      <dc:title>Matplotlib v3.9.0, https://matplotlib.org/</dc:title>
     </cc:Agent>
    </dc:creator>
   </cc:Work>
  </rdf:RDF>
 </metadata>
 <defs>
  <style type="text/css">*{stroke-linejoin: round; stroke-linecap: butt}</style>
 </defs>
 <g id="figure_1">
  <g id="patch_1">
   <path d="M 0 360 
L 1008 360 
L 1008 0 
L 0 0 
z
" style="fill: #ffffff"/>
  </g>
  <g id="axes_1">
   <g id="patch_2">
    <path d="M 62.39 318.04 
L 506.52 318.04 
L 506.52 50.64 
L 62.39 50.64 
z
" style="fill: #ffffff"/>
   </g>
   <g id="matplotlib.axis_1">
    <g id="xtick_1">
     <g id="line2d_1">
      <path d="M 84.943 318.04 
L 84.943 50.64 
" clip-path="url(#p37ec5339c1)" style="fill: none; stroke: #b0b0b0; stroke-width: 0.8; stroke-linecap: square"/>
     </g>
     <g id="line2d_2">
      <defs>
       <path id="m0b8b2f3215" d="M 0 0 
L 0 3.5 
" style="stroke: #000000; stroke-width: 0.8"/>
      </defs>
      <g>
       <use xlink:href="#m0b8b2f3215" x="84.943" y="318.04" style="stroke: #000000; stroke-width: 0.8"/>
      </g>
     </g>
     <g id="text_1">
      <text style="font: 10px 'DejaVu Sans', 'Bitstream Vera Sans', 'Computer Modern Sans Serif', 'Lucida Grande', 'Verdana', 'Geneva', 'Lucid', 'Arial', 'Helvetica', 'Avant Garde', sans-serif; text-anchor: middle" x="84.943" y="332.638438" transform="rotate(-0 84.943 332.638438)">−4</text>
     </g>
    </g>
    <g id="xtick_2">
     <g id="line2d_3">
      <path d="M 135.39845 318.04 
L 135.39845 50.64 
" clip-path="url(#p37ec5339c1)" style="fill: none; stroke: #b0b0b0; stroke-width: 0.8; stroke-linecap: square"/>
     </g>
     <g id="line2d_4">
      <g>
       <use xlink:href="#m0b8b2f3215" x="135.39845" y="318.04" style="stroke: #000000; stroke-width: 0.8"/>
      </g>
     </g>
     <g id="text_2">
      <text style="font: 10px 'DejaVu Sans', 'Bitstream Vera Sans', 'Computer Modern Sans Serif', 'Lucida Grande', 'Verdana', 'Geneva', 'Lucid', 'Arial', 'Helvetica', 'Avant Garde', sans-serif; text-anchor: middle" x="135.39845" y="332.638438" transform="rotate(-0 135.39845 332.638438)">−3</text>
     </g>
    </g>
    <g id="xtick_3">
     <g id="line2d_5">
      <path d="M 185.8539 318.04 
L 185.8539 50.64 
" clip-path="url(#p37ec5339c1)" style="fill: none; stroke: #b0b0b0; stroke-width: 0.8; stroke-linecap: square"/>
     </g>
     <g id="line2d_6">
      <g>
       <use xlink:href="#m0b8b2f3215" x="185.8539" y="318.04" style="stroke: #000000; stroke-width: 0.8"/>
      </g>
     </g>
     <g id="text_3">
      <text style="font: 10px 'DejaVu Sans', 'Bitstream Vera Sans', 'Computer Modern Sans Serif', 'Lucida Grande', 'Verdana', 'Geneva', 'Lucid', 'Arial', 'Helvetica', 'Avant Garde', sans-serif; text-anchor: middle" x="185.8539" y="332.638438" transform="rotate(-0 185.8539 332.638438)">−2</text>
     </g>
    </g>
    <g id="xtick_4">
     <g id="line2d_7">
      <path d="M 236.30935 318.04 
L 236.30935 50.64 
" clip-path="url(#p37ec5339c1)" style="fill: none; stroke: #b0b0b0; stroke-width: 0.8; stroke-linecap: square"/>
     </g>
     <g id="line2d_8">
      <g>
       <use xlink:href="#m0b8b2f3215" x="236.30935" y="318.04" style="stroke: #000000; stroke-width: 0.8"/>
      </g>
     </g>
     <g id="text_4">
      <text style="font: 10px 'DejaVu Sans', 'Bitstream Vera Sans', 'Computer Modern Sans Serif', 'Lucida Grande', 'Verdana', 'Geneva', 'Lucid', 'Arial', 'Helvetica', 'Avant Garde', sans-serif; text-anchor: middle" x="236.30935" y="332.638438" transform="rotate(-0 236.30935 332.638438)">−1</text>
     </g>
    </g>
    <g id="xtick_5">
     <g id="line2d_9">
      <path d="M 286.7648 318.04 
L 286.7648 50.64 
" clip-path="url(#p37ec5339c1)" style="fill: none; stroke: #b0b0b0; stroke-width: 0.8; stroke-linecap: square"/>
     </g>
     <g id="line2d_10">
      <g>
       <use xlink:href="#m0b8b2f3215" x="286.7648" y="318.04" style="stroke: #000000; stroke-width: 0.8"/>
      </g>
     </g>
     <g id="text_5">
      <text style="font: 10px 'DejaVu Sans', 'Bitstream Vera Sans', 'Computer Modern Sans Serif', 'Lucida Grande', 'Verdana', 'Geneva', 'Lucid', 'Arial', 'Helvetica', 'Avant Garde', sans-serif; text-anchor: middle" x="286.7648" y="332.638438" transform="rotate(-0 286.7648 332.638438)">0</text>
     </g>
    </g>
    <g id="xtick_6">
     <g id="line2d_11">
      <path d="M 337.22025 318.04 
L 337.22025 50.64 
" clip-path="url(#p37ec5339c1)" style="fill: none; stroke: #b0b0b0; stroke-width: 0.8; stroke-linecap: square"/>
     </g>
     <g id="line2d_12">
      <g>
       <use xlink:href="#m0b8b2f3215" x="337.22025" y="318.04" style="stroke: #000000; stroke-width: 0.8"/>
      </g>
     </g>
     <g id="text_6">
      <text style="font: 10px 'DejaVu Sans', 'Bitstream Vera Sans', 'Computer Modern Sans Serif', 'Lucida Grande', 'Verdana', 'Geneva', 'Lucid', 'Arial', 'Helvetica', 'Avant Garde', sans-serif; text-anchor: middle" x="337.22025" y="332.638438" transform="rotate(-0 337.22025 332.638438)">1</text>
     </g>
    </g>
    <g id="xtick_7">
     <g id="line2d_13">
      <path d="M 387.6757 318.04 
L 387.6757 50.64 
" clip-path="url(#p37ec5339c1)" style="fill: none; stroke: #b0b0b0; stroke-width: 0.8; stroke-linecap: square"/>
     </g>
     <g id="line2d_14">
      <g>
       <use xlink:href="#m0b8b2f3215" x="387.6757" y="318.04" style="stroke: #000000; stroke-width: 0.8"/>
      </g>
     </g>
     <g id="text_7">
      <text style="font: 10px 'DejaVu Sans', 'Bitstream Vera Sans', 'Computer Modern Sans Serif', 'Lucida Grande', 'Verdana', 'Geneva', 'Lucid', 'Arial', 'Helvetica', 'Avant Garde', sans-serif; text-anchor: middle" x="387.6757" y="332.638438" transform="rotate(-0 387.6757 332.638438)">2</text>
     </g>
    </g>
    <g id="xtick_8">
     <g id="line2d_15">
      <path d="M 438.13115 318.04 
L 438.13115 50.64 
" clip-path="url(#p37ec5339c1)" style="fill: none; stroke: #b0b0b0; stroke-width: 0.8; stroke-linecap: square"/>
     </g>
     <g id="line2d_16">
      <g>
       <use xlink:href="#m0b8b2f3215" x="438.13115" y="318.04" style="stroke: #000000; stroke-width: 0.8"/>
      </g>
     </g>
     <g id="text_8">
      <text style="font: 10px 'DejaVu Sans', 'Bitstream Vera Sans', 'Computer Modern Sans Serif', 'Lucida Grande', 'Verdana', 'Geneva', 'Lucid', 'Arial', 'Helvetica', 'Avant Garde', sans-serif; text-anchor: middle" x="438.13115" y="332.638438" transform="rotate(-0 438.13115 332.638438)">3</text>
     </g>
    </g>
    <g id="xtick_9">
     <g id="line2d_17">
      <path d="M 488.5866 318.04 
L 488.5866 50.64 
" clip-path="url(#p37ec5339c1)" style="fill: none; stroke: #b0b0b0; stroke-width: 0.8; stroke-linecap: square"/>
     </g>
     <g id="line2d_18">
      <g>
       <use xlink:href="#m0b8b2f3215" x="488.5866" y="318.04" style="stroke: #000000; stroke-width: 0.8"/>
      </g>
     </g>
     <g id="text_9">
      <text style="font: 10px 'DejaVu Sans', 'Bitstream Vera Sans', 'Computer Modern Sans Serif', 'Lucida Grande', 'Verdana', 'Geneva', 'Lucid', 'Arial', 'Helvetica', 'Avant Garde', sans-serif; text-anchor: middle" x="488.5866" y="332.638438" transform="rotate(-0 488.5866 332.638438)">4</text>
     </g>
    </g>
    <g id="text_10">
     <text style="font: 10px 'DejaVu Sans', 'Bitstream Vera Sans', 'Computer Modern Sans Serif', 'Lucida Grande', 'Verdana', 'Geneva', 'Lucid', 'Arial', 'Helvetica', 'Avant Garde', sans-serif; text-anchor: middle" x="284.455" y="346.316563" transform="rotate(-0 284.455 346.316563)">Motor Torque [Nm]</text>
    </g>
   </g>
   <g id="matplotlib.axis_2">
    <g id="ytick_1">
     <g id="line2d_19">
      <path d="M 62.39 305.610203 
L 506.52 305.610203 
" clip-path="url(#p37ec5339c1)" style="fill: none; stroke: #b0b0b0; stroke-width: 0.8; stroke-linecap: square"/>
     </g>
     <g id="line2d_20">
      <defs>
       <path id="mee03be94e2" d="M 0 0 
L -3.5 0 
" style="stroke: #000000; stroke-width: 0.8"/>
      </defs>
      <g>
       <use xlink:href="#mee03be94e2" x="62.39" y="305.610203" style="stroke: #000000; stroke-width: 0.8"/>
      </g>
     </g>
     <g id="text_11">
      <text style="font: 10px 'DejaVu Sans', 'Bitstream Vera Sans', 'Computer Modern Sans Serif', 'Lucida Grande', 'Verdana', 'Geneva', 'Lucid', 'Arial', 'Helvetica', 'Avant Garde', sans-serif; text-anchor: end" x="55.39" y="309.409422" transform="rotate(-0 55.39 309.409422)">−1.00</text>
     </g>
    </g>
    <g id="ytick_2">
     <g id="line2d_21">
      <path d="M 62.39 271.740061 
L 506.52 271.740061 
" clip-path="url(#p37ec5339c1)" style="fill: none; stroke: #b0b0b0; stroke-width: 0.8; stroke-linecap: square"/>
     </g>
     <g id="line2d_22">
      <g>
       <use xlink:href="#mee03be94e2" x="62.39" y="271.740061" style="stroke: #000000; stroke-width: 0.8"/>
      </g>
     </g>
     <g id="text_12">
      <text style="font: 10px 'DejaVu Sans', 'Bitstream Vera Sans', 'Computer Modern Sans Serif', 'Lucida Grande', 'Verdana', 'Geneva', 'Lucid', 'Arial', 'Helvetica', 'Avant Garde', sans-serif; text-anchor: end" x="55.39" y="275.53928" transform="rotate(-0 55.39 275.53928)">−0.75</text>
     </g>
    </g>
    <g id="ytick_3">
     <g id="line2d_23">
      <path d="M 62.39 237.869918 
L 506.52 237.869918 
" clip-path="url(#p37ec5339c1)" style="fill: none; stroke: #b0b0b0; stroke-width: 0.8; stroke-linecap: square"/>
     </g>
     <g id="line2d_24">
      <g>
       <use xlink:href="#mee03be94e2" x="62.39" y="237.869918" style="stroke: #000000; stroke-width: 0.8"/>
      </g>
     </g>
     <g id="text_13">
      <text style="font: 10px 'DejaVu Sans', 'Bitstream Vera Sans', 'Computer Modern Sans Serif', 'Lucida Grande', 'Verdana', 'Geneva', 'Lucid', 'Arial', 'Helvetica', 'Avant Garde', sans-serif; text-anchor: end" x="55.39" y="241.669137" transform="rotate(-0 55.39 241.669137)">−0.50</text>
     </g>
    </g>
    <g id="ytick_4">
     <g id="line2d_25">
      <path d="M 62.39 203.999776 
L 506.52 203.999776 
" clip-path="url(#p37ec5339c1)" style="fill: none; stroke: #b0b0b0; stroke-width: 0.8; stroke-linecap: square"/>
     </g>
     <g id="line2d_26">
      <g>
       <use xlink:href="#mee03be94e2" x="62.39" y="203.999776" style="stroke: #000000; stroke-width: 0.8"/>
      </g>
     </g>
     <g id="text_14">
      <text style="font: 10px 'DejaVu Sans', 'Bitstream Vera Sans', 'Computer Modern Sans Serif', 'Lucida Grande', 'Verdana', 'Geneva', 'Lucid', 'Arial', 'Helvetica', 'Avant Garde', sans-serif; text-anchor: end" x="55.39" y="207.798995" transform="rotate(-0 55.39 207.798995)">−0.25</text>
     </g>
    </g>
    <g id="ytick_5">
     <g id="line2d_27">
      <path d="M 62.39 170.129634 
L 506.52 170.129634 
" clip-path="url(#p37ec5339c1)" style="fill: none; stroke: #b0b0b0; stroke-width: 0.8; stroke-linecap: square"/>
     </g>
     <g id="line2d_28">
      <g>
       <use xlink:href="#mee03be94e2" x="62.39" y="170.129634" style="stroke: #000000; stroke-width: 0.8"/>
      </g>
     </g>
     <g id="text_15">
      <text style="font: 10px 'DejaVu Sans', 'Bitstream Vera Sans', 'Computer Modern Sans Serif', 'Lucida Grande', 'Verdana', 'Geneva', 'Lucid', 'Arial', 'Helvetica', 'Avant Garde', sans-serif; text-anchor: end" x="55.39" y="173.928853" transform="rotate(-0 55.39 173.928853)">0.00</text>
     </g>
    </g>
    <g id="ytick_6">
     <g id="line2d_29">
      <path d="M 62.39 136.259491 
L 506.52 136.259491 
" clip-path="url(#p37ec5339c1)" style="fill: none; stroke: #b0b0b0; stroke-width: 0.8; stroke-linecap: square"/>
     </g>
     <g id="line2d_30">
      <g>
       <use xlink:href="#mee03be94e2" x="62.39" y="136.259491" style="stroke: #000000; stroke-width: 0.8"/>
      </g>
     </g>
     <g id="text_16">
      <text style="font: 10px 'DejaVu Sans', 'Bitstream Vera Sans', 'Computer Modern Sans Serif', 'Lucida Grande', 'Verdana', 'Geneva', 'Lucid', 'Arial', 'Helvetica', 'Avant Garde', sans-serif; text-anchor: end" x="55.39" y="140.05871" transform="rotate(-0 55.39 140.05871)">0.25</text>
     </g>
    </g>
    <g id="ytick_7">
     <g id="line2d_31">
      <path d="M 62.39 102.389349 
L 506.52 102.389349 
" clip-path="url(#p37ec5339c1)" style="fill: none; stroke: #b0b0b0; stroke-width: 0.8; stroke-linecap: square"/>
     </g>
     <g id="line2d_32">
      <g>
       <use xlink:href="#mee03be94e2" x="62.39" y="102.389349" style="stroke: #000000; stroke-width: 0.8"/>
      </g>
     </g>
     <g id="text_17">
      <text style="font: 10px 'DejaVu Sans', 'Bitstream Vera Sans', 'Computer Modern Sans Serif', 'Lucida Grande', 'Verdana', 'Geneva', 'Lucid', 'Arial', 'Helvetica', 'Avant Garde', sans-serif; text-anchor: end" x="55.39" y="106.188568" transform="rotate(-0 55.39 106.188568)">0.50</text>
     </g>
    </g>
    <g id="ytick_8">
     <g id="line2d_33">
      <path d="M 62.39 68.519207 
L 506.52 68.519207 
" clip-path="url(#p37ec5339c1)" style="fill: none; stroke: #b0b0b0; stroke-width: 0.8; stroke-linecap: square"/>
     </g>
     <g id="line2d_34">
      <g>
       <use xlink:href="#mee03be94e2" x="62.39" y="68.519207" style="stroke: #000000; stroke-width: 0.8"/>
      </g>
     </g>
     <g id="text_18">
      <text style="font: 10px 'DejaVu Sans', 'Bitstream Vera Sans', 'Computer Modern Sans Serif', 'Lucida Grande', 'Verdana', 'Geneva', 'Lucid', 'Arial', 'Helvetica', 'Avant Garde', sans-serif; text-anchor: end" x="55.39" y="72.318425" transform="rotate(-0 55.39 72.318425)">0.75</text>
     </g>
    </g>
    <g id="text_19">
     <text style="font: 10px 'DejaVu Sans', 'Bitstream Vera Sans', 'Computer Modern Sans Serif', 'Lucida Grande', 'Verdana', 'Geneva', 'Lucid', 'Arial', 'Helvetica', 'Avant Garde', sans-serif; text-anchor: middle" x="18.665" y="184.34" transform="rotate(-90 18.665 184.34)">Deflection [deg]</text>
    </g>
   </g>
   <g id="line2d_35">
    <path d="M 292.062348 239.079062 
L 299.523757 235.85711 
L 302.852163 234.674038 
L 307.525189 233.279674 
L 311.977517 232.166072 
L 317.840699 230.940685 
L 323.558706 229.771133 
L 326.450826 228.964817 
L 328.546923 228.154681 
L 330.614896 227.118604 
L 332.597876 225.880478 
L 335.014458 224.077119 
L 339.243036 220.904873 
L 342.890028 218.485011 
L 346.377016 216.426747 
L 349.815762 214.65452 
L 354.107415 212.697222 
L 356.40735 211.905913 
L 359.337208 211.163999 
L 367.521782 209.206295 
L 370.650659 208.140474 
L 373.228195 207.024436 
L 375.782218 205.667293 
L 378.837615 203.780529 
L 381.654246 201.79471 
L 384.131688 199.781916 
L 386.560328 197.519174 
L 388.653794 195.288658 
L 390.341206 193.168192 
L 391.711804 191.07518 
L 393.233336 188.29162 
L 394.850386 184.888124 
L 395.921857 182.11515 
L 397.291472 177.775272 
L 400.544004 167.599787 
L 402.182835 162.943823 
L 405.08111 155.607913 
L 407.823716 149.12195 
L 410.371216 143.71238 
L 413.940421 136.701243 
L 417.429016 130.261354 
L 420.19154 125.621033 
L 424.215571 119.406196 
L 428.292647 112.978242 
L 432.582618 105.742659 
L 433.911129 103.140843 
L 434.768913 101.536763 
L 435.456734 100.767423 
L 436.409463 100.06568 
L 437.719545 99.398256 
L 439.424434 98.786258 
L 441.710356 98.218066 
L 444.302634 97.796129 
L 447.149188 97.580365 
L 459.864396 97.083797 
L 466.966651 96.652476 
L 473.597267 96.01398 
L 481.002485 95.101831 
L 485.801648 94.317194 
L 486.331973 94.083465 
L 486.329703 94.074893 
L 486.176158 93.987212 
L 485.357685 93.859461 
L 482.830288 93.73343 
L 476.663318 93.679379 
L 461.320201 93.834989 
L 431.356346 94.430019 
L 409.413043 95.049029 
L 398.882202 95.440516 
L 381.617692 96.397282 
L 370.519203 97.184895 
L 354.548948 98.730749 
L 333.420899 101.155824 
L 319.913758 102.72766 
L 310.626015 103.87574 
L 302.842707 104.541981 
L 296.52572 104.850978 
L 269.710031 105.917383 
L 264.405271 106.445899 
L 259.909826 107.112824 
L 254.12444 108.174535 
L 249.72846 109.205258 
L 246.369972 110.209132 
L 243.461879 111.31781 
L 240.626633 112.634904 
L 237.851666 114.192074 
L 232.162289 117.643196 
L 221.201034 124.703997 
L 216.540446 127.148 
L 211.879525 129.5433 
L 208.56824 131.59218 
L 205.318768 133.811211 
L 199.785172 137.767227 
L 194.972174 140.8971 
L 191.393992 142.872704 
L 186.284123 145.437645 
L 181.045599 148.073168 
L 173.945668 151.767075 
L 169.017472 153.942606 
L 166.354339 155.289691 
L 164.278299 156.583865 
L 162.201311 158.144338 
L 154.580823 164.379378 
L 151.150098 167.448468 
L 148.454881 170.138628 
L 146.482995 172.413224 
L 145.098973 174.327038 
L 143.939645 176.293317 
L 142.662917 178.931706 
L 139.605676 185.527755 
L 138.149095 188.011072 
L 136.620091 190.185064 
L 134.823301 192.350506 
L 132.366338 194.940465 
L 129.199297 197.933808 
L 123.800961 202.691288 
L 121.81408 204.195255 
L 120.620503 204.821189 
L 119.197787 205.278787 
L 117.555014 205.855108 
L 116.459272 206.483697 
L 115.521219 207.284989 
L 114.366314 208.603985 
L 112.929194 210.612782 
L 110.887157 213.902525 
L 103.855862 225.466927 
L 99.19718 232.799913 
L 93.836721 240.759152 
L 86.24463 251.970138 
L 84.466403 255.016235 
L 83.400717 257.271772 
L 82.807688 259.019949 
L 82.584539 260.336796 
L 82.637027 261.218635 
L 82.90404 261.933503 
L 83.320436 262.435633 
L 83.964228 262.863068 
L 84.931004 263.214628 
L 86.219086 263.43233 
L 88.014613 263.491244 
L 91.520805 263.317488 
L 96.911881 263.089854 
L 137.239854 262.443165 
L 174.722698 261.04191 
L 183.452178 260.385612 
L 188.323981 259.783161 
L 193.844955 258.883026 
L 198.842114 257.843079 
L 203.019826 256.749117 
L 209.823084 254.918978 
L 213.685276 254.127685 
L 219.462648 253.213346 
L 224.560656 252.624335 
L 230.482989 252.158101 
L 247.348458 250.908195 
L 253.486457 250.228628 
L 263.929091 248.791573 
L 269.161458 247.871862 
L 273.434895 246.904415 
L 277.080872 245.846645 
L 281.355038 244.355576 
L 283.115697 243.702839 
L 283.115697 243.702839 
" clip-path="url(#p37ec5339c1)" style="fill: none; stroke: #440154; stroke-width: 1.5; stroke-linecap: square"/>
   </g>
   <g id="line2d_36">
    <path d="M 291.492372 276.831783 
L 293.820861 275.95156 
L 296.540675 274.683574 
L 298.99037 273.283602 
L 301.884622 271.347086 
L 308.611861 266.504535 
L 313.639795 262.496275 
L 316.521007 259.95102 
L 329.515044 247.923304 
L 334.214397 243.460163 
L 337.819911 239.905843 
L 339.65898 237.6529 
L 343.764211 232.160709 
L 351.593733 221.32967 
L 354.910802 216.182368 
L 357.592518 211.652179 
L 359.798658 207.503453 
L 362.484179 201.905424 
L 364.99529 196.29076 
L 366.814073 191.599958 
L 369.121169 185.74151 
L 371.027258 181.536819 
L 379.247168 163.987978 
L 380.898388 159.762549 
L 382.327178 155.452451 
L 385.776586 144.749066 
L 388.377685 137.610468 
L 390.823715 131.503341 
L 393.791655 124.749955 
L 398.64926 113.73416 
L 405.236092 98.116282 
L 408.033798 92.290901 
L 409.759305 89.144421 
L 411.664763 86.158531 
L 413.985635 82.944719 
L 415.827565 80.742806 
L 417.456936 79.142104 
L 419.446721 77.523029 
L 421.816515 75.873063 
L 423.743038 74.778271 
L 425.417204 74.067664 
L 426.970731 73.646107 
L 428.463677 73.480064 
L 430.995686 73.481675 
L 435.617823 73.453042 
L 441.937968 73.133567 
L 468.403362 71.409306 
L 472.052402 70.869237 
L 476.093476 70.040743 
L 480.708765 68.857561 
L 483.110743 68.037798 
L 484.647712 67.289448 
L 485.519009 66.643519 
L 485.915643 66.101361 
L 485.982914 65.640671 
L 485.819148 65.230471 
L 485.38104 64.771323 
L 484.596154 64.290941 
L 483.401017 63.827209 
L 481.73844 63.425512 
L 479.385902 63.095252 
L 476.208776 62.879615 
L 471.176303 62.795431 
L 462.099777 62.884213 
L 426.059 63.653658 
L 392.84942 65.005287 
L 377.639653 65.92913 
L 356.56042 67.790995 
L 339.253553 69.820726 
L 331.254823 71.274316 
L 326.59848 72.288514 
L 321.356291 73.68028 
L 309.791667 76.81936 
L 297.951651 79.816744 
L 294.811938 80.431016 
L 291.750434 80.791462 
L 279.958998 81.950007 
L 276.369766 82.604258 
L 272.307046 83.582 
L 266.621826 85.207331 
L 262.152778 86.726046 
L 256.688364 88.764961 
L 251.088654 91.060461 
L 246.614481 93.22294 
L 244.142542 94.676871 
L 241.125871 96.734302 
L 238.551006 98.727283 
L 236.534495 100.582855 
L 230.153821 106.69588 
L 227.501285 108.952715 
L 225.256866 110.558796 
L 222.883692 111.997137 
L 221.216755 112.760578 
L 219.63774 113.245875 
L 217.780085 113.580763 
L 214.874282 113.84279 
L 207.145244 114.231139 
L 198.977633 114.762002 
L 195.059621 115.238221 
L 192.168977 115.809382 
L 188.951935 116.6844 
L 186.232747 117.639872 
L 183.743132 118.738986 
L 181.554962 119.945558 
L 179.498232 121.336275 
L 177.347657 123.059997 
L 175.331675 124.963793 
L 173.266145 127.243925 
L 171.295033 129.731425 
L 169.64723 132.174264 
L 167.933884 135.15367 
L 165.743485 139.451184 
L 163.116674 145.123957 
L 158.890555 154.921504 
L 154.772695 164.861828 
L 152.460635 171.004079 
L 150.283538 177.441964 
L 148.264236 184.114024 
L 146.296086 191.381186 
L 143.851023 201.330597 
L 141.417001 211.010105 
L 139.69699 216.872718 
L 138.026059 221.812541 
L 136.028808 227.005925 
L 133.31324 233.394995 
L 130.120293 240.361436 
L 127.072209 246.461753 
L 125.044989 250.64117 
L 124.34143 252.611772 
L 123.421548 255.400511 
L 122.84703 256.142903 
L 121.92839 256.94857 
L 120.081218 258.216308 
L 116.957748 260.415078 
L 113.813113 262.931317 
L 101.100709 273.708283 
L 99.334454 275.569441 
L 97.122732 278.297836 
L 93.440374 283.134691 
L 90.249284 287.829875 
L 87.451438 292.261067 
L 85.914538 295.087235 
L 85.057488 297.104794 
L 84.609267 298.672217 
L 84.428125 300.105534 
L 84.506808 301.263646 
L 84.780443 302.176218 
L 85.247118 302.972219 
L 85.891854 303.653787 
L 86.806712 304.289747 
L 88.025743 304.842328 
L 89.549274 305.281358 
L 91.610972 305.631754 
L 94.176518 305.837581 
L 97.763802 305.882159 
L 120.200743 305.613546 
L 135.521881 305.271513 
L 153.23007 304.6628 
L 162.051792 304.216965 
L 178.017501 303.065689 
L 192.996546 301.549194 
L 217.336026 298.674028 
L 226.567033 297.861221 
L 239.559157 296.442686 
L 249.7277 294.893372 
L 253.992052 294.043712 
L 257.566358 293.109707 
L 260.348255 292.165429 
L 263.82158 290.708898 
L 273.193918 286.659669 
L 277.28515 285.290751 
L 282.142868 283.899827 
L 282.142868 283.899827 
" clip-path="url(#p37ec5339c1)" style="fill: none; stroke: #fde725; stroke-width: 1.5; stroke-linecap: square"/>
   </g>
   <g id="patch_3">
    <path d="M 62.39 318.04 
L 62.39 50.64 
" style="fill: none; stroke: #000000; stroke-width: 0.8; stroke-linejoin: miter; stroke-linecap: square"/>
   </g>
   <g id="patch_4">
    <path d="M 506.52 318.04 
L 506.52 50.64 
" style="fill: none; stroke: #000000; stroke-width: 0.8; stroke-linejoin: miter; stroke-linecap: square"/>
   </g>
   <g id="patch_5">
    <path d="M 62.39 318.04 
L 506.52 318.04 
" style="fill: none; stroke: #000000; stroke-width: 0.8; stroke-linejoin: miter; stroke-linecap: square"/>
   </g>
   <g id="patch_6">
    <path d="M 62.39 50.64 
L 506.52 50.64 
" style="fill: none; stroke: #000000; stroke-width: 0.8; stroke-linejoin: miter; stroke-linecap: square"/>
   </g>
   <g id="text_20">
    <text style="font: 12px 'DejaVu Sans', 'Bitstream Vera Sans', 'Computer Modern Sans Serif', 'Lucida Grande', 'Verdana', 'Geneva', 'Lucid', 'Arial', 'Helvetica', 'Avant Garde', sans-serif; text-anchor: middle" x="284.455" y="44.64" transform="rotate(-0 284.455 44.64)">Play tests</text>
   </g>
  </g>
  <g id="axes_2">
   <g id="patch_7">
    <path d="M 553.07 318.04 
L 997.2 318.04 
L 997.2 50.64 
L 553.07 50.64 
z
" style="fill: #ffffff"/>
   </g>
   <g id="matplotlib.axis_3">
    <g id="xtick_10">
     <g id="line2d_37">
      <path d="M 613.384823 318.04 
L 613.384823 50.64 
" clip-path="url(#pec59e55bc0)" style="fill: none; stroke: #b0b0b0; stroke-width: 0.8; stroke-linecap: square"/>
     </g>
     <g id="line2d_38">
      <g>
       <use xlink:href="#m0b8b2f3215" x="613.384823" y="318.04" style="stroke: #000000; stroke-width: 0.8"/>
      </g>
     </g>
     <g id="text_21">
      <text style="font: 10px 'DejaVu Sans', 'Bitstream Vera Sans', 'Computer Modern Sans Serif', 'Lucida Grande', 'Verdana', 'Geneva', 'Lucid', 'Arial', 'Helvetica', 'Avant Garde', sans-serif; text-anchor: middle" x="613.384823" y="332.638438" transform="rotate(-0 613.384823 332.638438)">−20</text>
     </g>
    </g>
    <g id="xtick_11">
     <g id="line2d_39">
      <path d="M 694.235976 318.04 
L 694.235976 50.64 
" clip-path="url(#pec59e55bc0)" style="fill: none; stroke: #b0b0b0; stroke-width: 0.8; stroke-linecap: square"/>
     </g>
     <g id="line2d_40">
      <g>
       <use xlink:href="#m0b8b2f3215" x="694.235976" y="318.04" style="stroke: #000000; stroke-width: 0.8"/>
      </g>
     </g>
     <g id="text_22">
      <text style="font: 10px 'DejaVu Sans', 'Bitstream Vera Sans', 'Computer Modern Sans Serif', 'Lucida Grande', 'Verdana', 'Geneva', 'Lucid', 'Arial', 'Helvetica', 'Avant Garde', sans-serif; text-anchor: middle" x="694.235976" y="332.638438" transform="rotate(-0 694.235976 332.638438)">−10</text>
     </g>
    </g>
    <g id="xtick_12">
     <g id="line2d_41">
      <path d="M 775.08713 318.04 
L 775.08713 50.64 
" clip-path="url(#pec59e55bc0)" style="fill: none; stroke: #b0b0b0; stroke-width: 0.8; stroke-linecap: square"/>
     </g>
     <g id="line2d_42">
      <g>
       <use xlink:href="#m0b8b2f3215" x="775.08713" y="318.04" style="stroke: #000000; stroke-width: 0.8"/>
      </g>
     </g>
     <g id="text_23">
      <text style="font: 10px 'DejaVu Sans', 'Bitstream Vera Sans', 'Computer Modern Sans Serif', 'Lucida Grande', 'Verdana', 'Geneva', 'Lucid', 'Arial', 'Helvetica', 'Avant Garde', sans-serif; text-anchor: middle" x="775.08713" y="332.638438" transform="rotate(-0 775.08713 332.638438)">0</text>
     </g>
    </g>
    <g id="xtick_13">
     <g id="line2d_43">
      <path d="M 855.938284 318.04 
L 855.938284 50.64 
" clip-path="url(#pec59e55bc0)" style="fill: none; stroke: #b0b0b0; stroke-width: 0.8; stroke-linecap: square"/>
     </g>
     <g id="line2d_44">
      <g>
       <use xlink:href="#m0b8b2f3215" x="855.938284" y="318.04" style="stroke: #000000; stroke-width: 0.8"/>
      </g>
     </g>
     <g id="text_24">
      <text style="font: 10px 'DejaVu Sans', 'Bitstream Vera Sans', 'Computer Modern Sans Serif', 'Lucida Grande', 'Verdana', 'Geneva', 'Lucid', 'Arial', 'Helvetica', 'Avant Garde', sans-serif; text-anchor: middle" x="855.938284" y="332.638438" transform="rotate(-0 855.938284 332.638438)">10</text>
     </g>
    </g>
    <g id="xtick_14">
     <g id="line2d_45">
      <path d="M 936.789437 318.04 
L 936.789437 50.64 
" clip-path="url(#pec59e55bc0)" style="fill: none; stroke: #b0b0b0; stroke-width: 0.8; stroke-linecap: square"/>
     </g>
     <g id="line2d_46">
      <g>
       <use xlink:href="#m0b8b2f3215" x="936.789437" y="318.04" style="stroke: #000000; stroke-width: 0.8"/>
      </g>
     </g>
     <g id="text_25">
      <text style="font: 10px 'DejaVu Sans', 'Bitstream Vera Sans', 'Computer Modern Sans Serif', 'Lucida Grande', 'Verdana', 'Geneva', 'Lucid', 'Arial', 'Helvetica', 'Avant Garde', sans-serif; text-anchor: middle" x="936.789437" y="332.638438" transform="rotate(-0 936.789437 332.638438)">20</text>
     </g>
    </g>
    <g id="text_26">
     <text style="font: 10px 'DejaVu Sans', 'Bitstream Vera Sans', 'Computer Modern Sans Serif', 'Lucida Grande', 'Verdana', 'Geneva', 'Lucid', 'Arial', 'Helvetica', 'Avant Garde', sans-serif; text-anchor: middle" x="775.135" y="346.316563" transform="rotate(-0 775.135 346.316563)">Motor Torque [Nm]</text>
    </g>
   </g>
   <g id="matplotlib.axis_4">
    <g id="ytick_9">
     <g id="line2d_47">
      <path d="M 553.07 281.931565 
L 997.2 281.931565 
" clip-path="url(#pec59e55bc0)" style="fill: none; stroke: #b0b0b0; stroke-width: 0.8; stroke-linecap: square"/>
     </g>
     <g id="line2d_48">
      <g>
       <use xlink:href="#mee03be94e2" x="553.07" y="281.931565" style="stroke: #000000; stroke-width: 0.8"/>
      </g>
     </g>
     <g id="text_27">
      <text style="font: 10px 'DejaVu Sans', 'Bitstream Vera Sans', 'Computer Modern Sans Serif', 'Lucida Grande', 'Verdana', 'Geneva', 'Lucid', 'Arial', 'Helvetica', 'Avant Garde', sans-serif; text-anchor: end" x="546.07" y="285.730784" transform="rotate(-0 546.07 285.730784)">−4</text>
     </g>
    </g>
    <g id="ytick_10">
     <g id="line2d_49">
      <path d="M 553.07 231.368627 
L 997.2 231.368627 
" clip-path="url(#pec59e55bc0)" style="fill: none; stroke: #b0b0b0; stroke-width: 0.8; stroke-linecap: square"/>
     </g>
     <g id="line2d_50">
      <g>
       <use xlink:href="#mee03be94e2" x="553.07" y="231.368627" style="stroke: #000000; stroke-width: 0.8"/>
      </g>
     </g>
     <g id="text_28">
      <text style="font: 10px 'DejaVu Sans', 'Bitstream Vera Sans', 'Computer Modern Sans Serif', 'Lucida Grande', 'Verdana', 'Geneva', 'Lucid', 'Arial', 'Helvetica', 'Avant Garde', sans-serif; text-anchor: end" x="546.07" y="235.167846" transform="rotate(-0 546.07 235.167846)">−2</text>
     </g>
    </g>
    <g id="ytick_11">
     <g id="line2d_51">
      <path d="M 553.07 180.805689 
L 997.2 180.805689 
" clip-path="url(#pec59e55bc0)" style="fill: none; stroke: #b0b0b0; stroke-width: 0.8; stroke-linecap: square"/>
     </g>
     <g id="line2d_52">
      <g>
       <use xlink:href="#mee03be94e2" x="553.07" y="180.805689" style="stroke: #000000; stroke-width: 0.8"/>
      </g>
     </g>
     <g id="text_29">
      <text style="font: 10px 'DejaVu Sans', 'Bitstream Vera Sans', 'Computer Modern Sans Serif', 'Lucida Grande', 'Verdana', 'Geneva', 'Lucid', 'Arial', 'Helvetica', 'Avant Garde', sans-serif; text-anchor: end" x="546.07" y="184.604908" transform="rotate(-0 546.07 184.604908)">0</text>
     </g>
    </g>
    <g id="ytick_12">
     <g id="line2d_53">
      <path d="M 553.07 130.242751 
L 997.2 130.242751 
" clip-path="url(#pec59e55bc0)" style="fill: none; stroke: #b0b0b0; stroke-width: 0.8; stroke-linecap: square"/>
     </g>
     <g id="line2d_54">
      <g>
       <use xlink:href="#mee03be94e2" x="553.07" y="130.242751" style="stroke: #000000; stroke-width: 0.8"/>
      </g>
     </g>
     <g id="text_30">
      <text style="font: 10px 'DejaVu Sans', 'Bitstream Vera Sans', 'Computer Modern Sans Serif', 'Lucida Grande', 'Verdana', 'Geneva', 'Lucid', 'Arial', 'Helvetica', 'Avant Garde', sans-serif; text-anchor: end" x="546.07" y="134.04197" transform="rotate(-0 546.07 134.04197)">2</text>
     </g>
    </g>
    <g id="ytick_13">
     <g id="line2d_55">
      <path d="M 553.07 79.679813 
L 997.2 79.679813 
" clip-path="url(#pec59e55bc0)" style="fill: none; stroke: #b0b0b0; stroke-width: 0.8; stroke-linecap: square"/>
     </g>
     <g id="line2d_56">
      <g>
       <use xlink:href="#mee03be94e2" x="553.07" y="79.679813" style="stroke: #000000; stroke-width: 0.8"/>
      </g>
     </g>
     <g id="text_31">
      <text style="font: 10px 'DejaVu Sans', 'Bitstream Vera Sans', 'Computer Modern Sans Serif', 'Lucida Grande', 'Verdana', 'Geneva', 'Lucid', 'Arial', 'Helvetica', 'Avant Garde', sans-serif; text-anchor: end" x="546.07" y="83.479032" transform="rotate(-0 546.07 83.479032)">4</text>
     </g>
    </g>
    <g id="text_32">
     <text style="font: 10px 'DejaVu Sans', 'Bitstream Vera Sans', 'Computer Modern Sans Serif', 'Lucida Grande', 'Verdana', 'Geneva', 'Lucid', 'Arial', 'Helvetica', 'Avant Garde', sans-serif; text-anchor: middle" x="525.248125" y="184.34" transform="rotate(-90 525.248125 184.34)">Deflection [deg]</text>
    </g>
   </g>
   <g id="line2d_57">
    <path d="M 776.567619 209.805218 
L 782.912097 199.436633 
L 783.929913 198.20567 
L 787.726896 193.992057 
L 790.352337 190.097632 
L 792.74338 186.136537 
L 799.3512 174.633625 
L 801.453561 170.608579 
L 807.544312 159.965654 
L 808.648095 158.666667 
L 809.667145 157.817131 
L 810.690285 157.22735 
L 811.63404 156.941264 
L 813.34609 156.713448 
L 816.245851 156.272341 
L 818.679601 155.702443 
L 820.199001 155.125607 
L 821.738507 154.297756 
L 823.213329 153.240016 
L 828.144728 149.525059 
L 829.545399 148.797984 
L 833.663927 146.908611 
L 834.87133 146.048642 
L 836.654747 144.40397 
L 839.734886 141.32841 
L 842.11175 139.035563 
L 842.840805 138.740476 
L 845.03294 137.976787 
L 846.014682 137.368246 
L 847.03951 136.475231 
L 847.992746 135.332194 
L 853.325671 128.528802 
L 854.671809 127.153003 
L 855.870526 126.189334 
L 858.06887 124.928201 
L 860.446825 123.842387 
L 862.120753 123.334433 
L 863.713884 123.093169 
L 870.136899 122.340346 
L 874.222413 121.57355 
L 876.008061 121.050166 
L 877.30817 120.446588 
L 879.563205 119.066544 
L 882.203205 117.473511 
L 883.749287 116.777757 
L 889.69195 114.489571 
L 891.857505 113.324289 
L 894.212635 111.756724 
L 896.243903 110.550046 
L 897.967207 109.797041 
L 899.763307 109.284669 
L 905.511932 107.775031 
L 907.120311 107.077831 
L 908.691781 106.138031 
L 911.331413 104.221057 
L 912.96113 103.196034 
L 919.060323 99.694974 
L 921.059916 98.599339 
L 926.598282 95.766136 
L 929.640837 94.274276 
L 936.6951 91.032344 
L 940.433118 89.416724 
L 941.794679 88.562923 
L 946.414556 85.308953 
L 948.729266 83.904029 
L 950.421104 83.221697 
L 954.402627 81.912301 
L 963.279737 79.356907 
L 972.119212 77.374637 
L 973.816289 76.522903 
L 975.246242 75.581133 
L 976.09674 74.763171 
L 976.949741 73.630419 
L 976.975241 73.332963 
L 976.732744 73.220892 
L 976.629138 73.193392 
L 976.779074 73.116744 
L 976.784767 73.109907 
L 976.685315 73.044358 
L 976.611731 72.944402 
L 976.705918 72.915474 
L 976.800943 72.844143 
L 976.691995 72.803442 
L 976.584052 72.735855 
L 976.66097 72.676892 
L 976.798727 72.565406 
L 976.697211 72.535283 
L 976.525368 72.49493 
L 976.721493 72.426985 
L 976.709653 72.398174 
L 976.637627 72.358618 
L 976.452432 72.14521 
L 976.613212 71.968334 
L 976.711014 71.847564 
L 976.605244 71.820655 
L 976.582702 71.813311 
L 976.82554 71.751594 
L 976.695525 71.724218 
L 976.861407 71.705308 
L 976.532887 71.632946 
L 976.594352 71.617799 
L 976.847291 71.521044 
L 976.461052 71.589229 
L 976.689958 71.471083 
L 976.462713 71.361796 
L 976.804216 71.441532 
L 976.696975 71.359501 
L 976.827324 71.344801 
L 969.00178 71.352205 
L 935.924393 71.543911 
L 917.430265 71.869162 
L 891.293745 72.865016 
L 877.751362 74.173603 
L 874.872435 74.730856 
L 870.758856 75.697315 
L 865.181535 77.408283 
L 862.628244 77.802891 
L 858.555998 78.468303 
L 853.234446 79.52665 
L 850.894124 80.302407 
L 838.87607 84.614437 
L 833.644386 86.495804 
L 830.164469 87.817568 
L 827.845007 88.326115 
L 826.612188 88.746473 
L 825.555021 89.343258 
L 823.828261 90.63757 
L 821.897709 91.98227 
L 820.378341 92.781383 
L 817.749002 94.052024 
L 810.834223 98.041455 
L 807.241469 99.570854 
L 805.478692 100.015438 
L 803.9062 100.508398 
L 802.709956 101.13229 
L 800.34088 102.610163 
L 798.819454 103.75355 
L 797.736749 104.891809 
L 796.09548 106.61775 
L 794.428191 107.901737 
L 791.355471 109.959965 
L 789.936753 110.588583 
L 784.436344 112.852492 
L 783.517505 113.599499 
L 782.545313 114.715344 
L 780.493882 117.094885 
L 778.196915 119.578683 
L 777.132333 121.127867 
L 775.160484 124.658509 
L 771.943683 130.465209 
L 770.119603 133.24553 
L 769.210194 134.208816 
L 768.282555 134.895138 
L 766.26409 136.268861 
L 765.399607 137.145309 
L 764.677752 138.215188 
L 763.892078 139.80679 
L 762.24542 143.914114 
L 761.010936 147.383757 
L 759.984226 151.063577 
L 759.320256 154.134977 
L 758.75816 157.950602 
L 758.145938 161.438226 
L 755.755145 172.541006 
L 753.018052 182.411675 
L 751.610553 186.659957 
L 749.05086 193.654552 
L 746.999278 198.392697 
L 746.47575 198.317972 
L 745.096772 198.170091 
L 743.285453 198.23366 
L 740.705081 198.552601 
L 738.953092 198.97393 
L 737.276757 199.621176 
L 735.713335 200.459565 
L 733.859259 201.729149 
L 730.997887 203.637358 
L 718.707481 211.383424 
L 716.750999 212.151554 
L 714.167057 212.906946 
L 712.575951 213.49411 
L 711.131659 214.255164 
L 709.734476 215.230749 
L 708.417364 216.473723 
L 705.643073 219.120837 
L 703.511656 220.737144 
L 701.189153 222.221563 
L 699.844014 222.840682 
L 697.631629 223.516401 
L 695.67847 224.239268 
L 693.863948 225.149846 
L 691.775174 226.48589 
L 688.906286 228.338688 
L 687.508504 228.967209 
L 685.052038 229.764192 
L 679.236573 231.884653 
L 677.038988 232.917235 
L 674.951456 234.196811 
L 669.502343 237.944904 
L 667.400018 239.287432 
L 665.460822 240.267573 
L 663.072601 241.183493 
L 657.308328 243.25375 
L 655.359515 244.249919 
L 653.97987 245.177454 
L 652.541273 246.433043 
L 650.985392 247.707168 
L 649.116262 248.92799 
L 646.492505 250.347455 
L 643.739084 251.546723 
L 641.27562 252.711099 
L 637.716037 254.528534 
L 635.141617 255.630383 
L 633.18502 256.157531 
L 627.358183 257.634454 
L 623.900147 258.853126 
L 621.601307 259.834035 
L 620.236476 260.660575 
L 617.197187 262.60554 
L 613.8077 264.339031 
L 607.607023 267.411378 
L 598.910147 272.963417 
L 597.153778 274.014692 
L 595.391096 274.784411 
L 592.211334 276.168809 
L 589.263004 277.781287 
L 583.386316 281.346729 
L 581.409121 282.966587 
L 575.93159 287.663936 
L 573.61475 289.410295 
L 573.582298 289.712343 
L 573.555436 289.964148 
L 573.513504 290.245466 
L 573.543222 290.342603 
L 573.506807 290.377131 
L 573.410359 290.592257 
L 573.610745 290.836522 
L 573.709442 290.87749 
L 573.613225 290.950718 
L 573.411038 291.122145 
L 573.474883 291.177159 
L 573.627801 291.328585 
L 573.574261 291.36443 
L 573.543288 291.515796 
L 573.575515 292.31985 
L 573.299997 292.786313 
L 573.408781 292.840683 
L 573.683618 293.043517 
L 573.581739 293.06551 
L 573.501916 293.09195 
L 573.620611 293.172312 
L 573.697696 293.361906 
L 573.649388 293.764364 
L 573.480482 293.931731 
L 573.436392 294.025757 
L 573.580817 293.985578 
L 573.485358 294.043799 
L 573.700298 294.197015 
L 573.364572 294.090898 
L 573.635937 294.229236 
L 573.355277 294.407624 
L 573.389525 294.437395 
L 573.650372 294.533684 
L 573.41134 294.572743 
L 573.329972 294.583575 
L 573.686419 294.651024 
L 573.618077 294.668319 
L 573.451064 294.737096 
L 573.528681 294.793891 
L 573.756755 294.89121 
L 573.504038 294.816257 
L 573.525313 294.929655 
L 573.318146 294.987979 
L 573.570045 295.03618 
L 573.354959 295.090563 
L 575.342439 295.116695 
L 623.209881 294.764658 
L 634.058774 294.514013 
L 641.44223 294.208214 
L 651.342542 293.651515 
L 654.505562 293.16084 
L 664.191554 291.356602 
L 666.762336 290.763128 
L 673.183881 289.540599 
L 675.5885 288.867713 
L 679.01179 287.523983 
L 683.917118 285.502228 
L 685.931185 284.807741 
L 688.257324 284.301169 
L 690.856691 283.685719 
L 694.394229 282.526225 
L 697.547369 281.396553 
L 700.999092 280.044625 
L 706.658808 278.28698 
L 708.584548 277.556669 
L 710.825055 276.428754 
L 713.242469 275.248293 
L 714.827159 274.729797 
L 718.747575 273.571619 
L 725.515599 270.736842 
L 726.878649 269.779888 
L 730.76806 266.886163 
L 731.904791 266.329076 
L 733.263175 265.938746 
L 735.097646 265.379941 
L 736.480468 264.720788 
L 738.338352 263.545577 
L 740.690349 261.788165 
L 743.189377 259.978754 
L 744.544557 259.332259 
L 746.701023 258.599363 
L 749.48313 257.596121 
L 757.864197 254.030487 
L 759.319254 253.376357 
L 760.380544 252.669538 
L 761.429436 251.679371 
L 762.482149 250.386972 
L 763.629277 248.582827 
L 764.943713 246.106245 
L 767.556326 241.028923 
L 769.067629 238.629164 
L 772.881494 232.823914 
L 772.881494 232.823914 
" clip-path="url(#pec59e55bc0)" style="fill: none; stroke: #440154; stroke-width: 1.5; stroke-linecap: square"/>
   </g>
   <g id="line2d_58">
    <path d="M 777.476093 208.54228 
L 779.60161 205.534915 
L 782.343273 201.706282 
L 784.73866 197.795979 
L 786.952657 193.903894 
L 788.086624 191.427816 
L 789.372468 188.012299 
L 794.382593 173.724858 
L 795.988827 169.078803 
L 799.090087 159.654413 
L 800.11574 157.728158 
L 801.302403 155.939049 
L 802.398617 154.686043 
L 803.588854 153.645116 
L 804.827252 152.867229 
L 806.170059 152.26409 
L 810.370151 150.873268 
L 811.92206 150.572977 
L 815.571025 149.944278 
L 817.403767 149.382532 
L 819.336993 148.520351 
L 822.525716 146.827224 
L 827.106541 144.269919 
L 831.59847 140.723274 
L 833.061752 139.474698 
L 834.366867 138.040074 
L 835.616051 136.805692 
L 837.292399 135.463531 
L 838.840144 134.497689 
L 840.018828 134.004859 
L 841.326879 133.73908 
L 843.826922 133.229696 
L 845.197983 132.714954 
L 846.602965 131.950606 
L 848.111942 130.862089 
L 849.632382 129.494312 
L 852.317366 127.01011 
L 853.335183 126.399777 
L 854.523902 125.956259 
L 856.925502 125.399919 
L 858.320925 124.957393 
L 859.591958 124.293687 
L 861.755495 122.695992 
L 864.390277 120.775531 
L 866.758768 119.292058 
L 870.689833 117.069866 
L 872.637889 116.293627 
L 875.272052 115.509382 
L 879.475195 114.378615 
L 880.58828 113.796286 
L 882.163008 112.671511 
L 885.509404 110.283815 
L 887.291088 109.243123 
L 888.394002 108.874073 
L 892.577373 107.731238 
L 894.381338 106.764705 
L 898.03054 104.539911 
L 900.849447 102.905571 
L 904.043612 101.511374 
L 906.691238 100.550174 
L 910.395472 99.247477 
L 912.418984 98.218373 
L 914.596339 96.811676 
L 916.615989 95.571107 
L 918.657349 94.59873 
L 920.756441 93.892188 
L 924.140788 92.83736 
L 925.824722 92.059743 
L 928.562269 90.42598 
L 931.162369 88.683299 
L 933.877263 86.774592 
L 935.886045 85.65865 
L 937.55629 84.989515 
L 944.60018 82.514602 
L 946.453563 81.48321 
L 948.566342 80.112629 
L 951.464797 78.174323 
L 953.133922 77.444081 
L 956.334284 76.335096 
L 959.62238 75.337503 
L 961.292311 74.491393 
L 964.203354 72.762055 
L 966.799373 71.297458 
L 968.082723 70.863925 
L 973.202321 69.680191 
L 975.637126 69.010337 
L 976.403562 68.587109 
L 976.589696 68.280701 
L 976.878496 66.983131 
L 977.005287 66.297823 
L 976.843739 65.901546 
L 976.605824 65.636311 
L 976.710915 65.579123 
L 976.812015 65.514943 
L 976.700038 65.459457 
L 976.598245 65.389789 
L 976.674281 65.331992 
L 976.714735 65.297463 
L 976.574143 65.25828 
L 976.47648 65.213339 
L 976.651381 65.162793 
L 976.949277 65.05398 
L 976.836854 65.01089 
L 976.493802 64.826865 
L 976.527039 64.813114 
L 976.706106 64.761916 
L 976.549892 64.693895 
L 976.556753 64.6007 
L 976.608824 64.652217 
L 976.596635 64.582517 
L 976.85185 64.492312 
L 976.719825 64.433361 
L 976.527834 64.385258 
L 976.653757 64.3047 
L 976.708554 64.287477 
L 976.619815 64.240862 
L 976.65336 64.192839 
L 976.59362 63.726279 
L 976.660599 63.660178 
L 976.545353 63.627507 
L 976.459006 63.610904 
L 976.801766 63.542963 
L 976.833481 63.532897 
L 976.62086 63.497305 
L 976.652165 63.463766 
L 976.476296 63.442117 
L 976.748655 63.396224 
L 976.596172 63.349194 
L 976.718589 63.326922 
L 976.446893 63.267173 
L 976.439373 63.263358 
L 976.643432 63.224535 
L 976.622765 63.198944 
L 976.839144 63.171871 
L 976.593518 63.091868 
L 976.467616 62.992088 
L 976.886318 63.076083 
L 976.618968 62.981964 
L 976.851294 62.961751 
L 976.605065 62.871716 
L 976.761234 62.816588 
L 973.973364 62.79847 
L 951.907914 62.913513 
L 924.59236 63.462191 
L 911.07794 64.116995 
L 904.64122 64.904489 
L 900.4841 65.24406 
L 889.017825 66.728552 
L 885.834545 67.235486 
L 882.164578 67.74715 
L 880.298738 68.245329 
L 875.64419 69.685269 
L 871.616078 70.315789 
L 867.933017 70.962418 
L 864.73818 71.563822 
L 858.742942 72.43715 
L 856.908463 73.078376 
L 847.740521 76.99045 
L 845.677207 77.815182 
L 835.334651 81.296696 
L 829.659003 82.639419 
L 824.485716 84.31028 
L 822.538294 85.281713 
L 819.815353 86.946393 
L 813.679589 90.85007 
L 812.142775 91.433222 
L 810.101148 91.977047 
L 804.711329 93.330152 
L 803.660406 93.951031 
L 802.676681 94.806786 
L 801.800582 95.841615 
L 799.266554 99.140775 
L 795.247239 104.1476 
L 793.968247 106.338646 
L 793.117355 107.626283 
L 792.296462 108.442638 
L 790.980477 109.403068 
L 789.233346 110.40565 
L 787.360623 111.224856 
L 784.245439 112.254222 
L 781.922524 113.073536 
L 780.885433 113.68519 
L 779.901795 114.516414 
L 778.998746 115.593703 
L 777.725474 117.503317 
L 774.94857 121.816115 
L 773.290025 123.921453 
L 771.671127 125.573599 
L 769.255782 127.837552 
L 768.635417 128.873259 
L 767.772841 130.885886 
L 766.509021 133.709356 
L 762.790303 141.449986 
L 761.862698 144.084732 
L 761.280334 146.418217 
L 759.661777 153.883684 
L 758.720542 156.555745 
L 755.311932 165.442309 
L 754.338547 168.785828 
L 753.511191 172.536386 
L 751.558045 181.659562 
L 749.682028 188.094009 
L 747.567199 194.639078 
L 746.054777 198.7389 
L 743.968113 203.616189 
L 741.75908 208.387393 
L 741.117939 209.296253 
L 740.578782 209.658222 
L 739.364854 210.106507 
L 736.001402 211.35759 
L 733.853095 212.070196 
L 730.051753 213.230251 
L 728.420595 214.087487 
L 725.977993 215.646935 
L 724.371648 216.545919 
L 723.093179 216.987512 
L 717.948423 218.486254 
L 711.91502 221.134056 
L 710.047689 222.316992 
L 704.737248 226.038999 
L 700.904633 228.418966 
L 697.937689 230.341878 
L 694.296233 232.434189 
L 684.628255 237.345367 
L 678.785311 241.188286 
L 677.323976 241.856886 
L 675.403152 242.437715 
L 670.119445 243.935289 
L 667.260431 244.755774 
L 663.600015 245.778211 
L 659.253709 247.358657 
L 657.603336 248.219386 
L 653.614639 250.742555 
L 651.581134 252.361704 
L 649.750897 253.655763 
L 646.946005 255.319235 
L 641.946312 257.978361 
L 637.441053 260.247723 
L 631.356729 262.991754 
L 628.382263 264.472491 
L 625.568438 266.154034 
L 620.874344 268.904551 
L 615.865286 271.612382 
L 613.451445 272.921374 
L 610.672964 274.428367 
L 603.801291 277.647986 
L 600.309294 278.951626 
L 594.231476 281.330417 
L 592.290988 282.425873 
L 590.540514 283.658804 
L 588.973134 284.665111 
L 583.702227 287.800252 
L 581.45425 289.21492 
L 576.149922 292.445362 
L 574.005223 294.063627 
L 573.386418 294.757918 
L 573.361641 295.087546 
L 573.560831 295.379578 
L 573.619223 295.614745 
L 573.573382 296.309633 
L 573.521381 296.521757 
L 573.330682 296.93607 
L 573.530227 297.138657 
L 573.545668 297.338244 
L 573.450109 297.823613 
L 573.584225 298.557873 
L 573.508614 298.847205 
L 573.547736 299.503461 
L 573.406274 299.75108 
L 573.483567 299.896587 
L 573.718527 300.041165 
L 573.640953 300.115799 
L 573.440351 300.640444 
L 573.563483 300.902897 
L 573.638081 300.974766 
L 573.528616 301.010497 
L 573.437447 301.145434 
L 573.553369 301.651232 
L 573.620318 301.827681 
L 573.496792 301.946095 
L 573.44443 302.027624 
L 573.523604 302.066734 
L 573.627217 302.140054 
L 573.546859 302.196679 
L 573.450174 302.292586 
L 573.504046 302.340746 
L 573.610647 302.483828 
L 573.576905 302.51855 
L 573.629765 302.629739 
L 573.677756 302.706093 
L 573.576511 302.747136 
L 573.566758 302.770068 
L 573.646276 302.833099 
L 573.656912 302.901453 
L 573.605074 302.944861 
L 573.436029 303.144935 
L 573.486526 303.172104 
L 573.660508 303.286739 
L 573.562536 303.335167 
L 573.463916 303.400224 
L 573.499396 303.477516 
L 573.608954 303.734648 
L 573.705273 303.768203 
L 573.575877 303.841717 
L 573.411093 303.963414 
L 573.566689 304.009447 
L 573.680579 304.088326 
L 573.642691 304.144565 
L 573.601481 304.223802 
L 573.697134 304.253014 
L 573.698358 304.255882 
L 573.546441 304.276928 
L 573.353881 304.338606 
L 573.537219 304.388667 
L 573.769546 304.423944 
L 573.447861 304.4895 
L 573.406466 304.511726 
L 573.538086 304.578751 
L 573.709125 304.80163 
L 573.764692 304.849907 
L 573.675947 304.908496 
L 573.692161 304.9561 
L 573.607658 304.994796 
L 573.386951 305.173432 
L 573.353527 305.27563 
L 573.415373 305.215015 
L 573.394912 305.294612 
L 573.695432 305.439617 
L 573.65211 305.475665 
L 573.510958 305.659699 
L 573.523064 305.676265 
L 573.761824 305.779404 
L 574.641805 305.863398 
L 578.051837 305.881799 
L 599.89816 305.669683 
L 610.305049 305.387892 
L 614.838898 305.033732 
L 621.244196 304.311385 
L 628.020911 303.286443 
L 640.198773 300.970488 
L 643.56774 300.279362 
L 648.844086 299.594811 
L 651.449182 299.122651 
L 654.858008 298.213619 
L 658.185293 297.351568 
L 661.974867 296.508174 
L 663.888161 295.770145 
L 666.34391 294.854405 
L 668.172012 294.467492 
L 673.209924 293.50961 
L 675.08316 292.818667 
L 678.845428 291.441688 
L 685.699734 289.197667 
L 690.226424 287.298178 
L 691.855588 286.919695 
L 695.027419 286.456556 
L 696.894455 286.063996 
L 698.506459 285.482311 
L 701.509667 284.105564 
L 703.893798 283.129519 
L 706.432011 282.417859 
L 709.019359 281.610792 
L 711.454083 280.537253 
L 715.642301 278.74075 
L 722.018482 276.349499 
L 725.281582 275.227597 
L 729.259315 273.962508 
L 730.778389 273.168212 
L 732.053408 272.254498 
L 737.675893 267.803105 
L 740.803693 265.816881 
L 742.48175 264.375565 
L 745.156082 261.882686 
L 746.59372 260.2813 
L 749.414342 257.163336 
L 751.015999 255.856117 
L 752.435415 255.032371 
L 754.208791 254.291377 
L 756.012161 253.434185 
L 757.32541 252.528856 
L 758.573963 251.392229 
L 760.71844 249.057872 
L 763.32505 245.989289 
L 764.813918 243.938051 
L 766.389906 241.224026 
L 767.29377 239.303181 
L 772.706727 226.472158 
L 773.463355 224.509096 
L 773.463355 224.509096 
" clip-path="url(#pec59e55bc0)" style="fill: none; stroke: #fde725; stroke-width: 1.5; stroke-linecap: square"/>
   </g>
   <g id="patch_8">
    <path d="M 553.07 318.04 
L 553.07 50.64 
" style="fill: none; stroke: #000000; stroke-width: 0.8; stroke-linejoin: miter; stroke-linecap: square"/>
   </g>
   <g id="patch_9">
    <path d="M 997.2 318.04 
L 997.2 50.64 
" style="fill: none; stroke: #000000; stroke-width: 0.8; stroke-linejoin: miter; stroke-linecap: square"/>
   </g>
   <g id="patch_10">
    <path d="M 553.07 318.04 
L 997.2 318.04 
" style="fill: none; stroke: #000000; stroke-width: 0.8; stroke-linejoin: miter; stroke-linecap: square"/>
   </g>
   <g id="patch_11">
    <path d="M 553.07 50.64 
L 997.2 50.64 
" style="fill: none; stroke: #000000; stroke-width: 0.8; stroke-linejoin: miter; stroke-linecap: square"/>
   </g>
   <g id="text_33">
    <text style="font: 12px 'DejaVu Sans', 'Bitstream Vera Sans', 'Computer Modern Sans Serif', 'Lucida Grande', 'Verdana', 'Geneva', 'Lucid', 'Arial', 'Helvetica', 'Avant Garde', sans-serif; text-anchor: middle" x="775.135" y="44.64" transform="rotate(-0 775.135 44.64)">Stiffness tests</text>
   </g>
   <g id="legend_1">
    <g id="patch_12">
     <path d="M 559.02 82.392812 
L 655.550781 82.392812 
Q 657.250781 82.392812 657.250781 80.692812 
L 657.250781 56.59 
Q 657.250781 54.89 655.550781 54.89 
L 559.02 54.89 
Q 557.32 54.89 557.32 56.59 
L 557.32 80.692812 
Q 557.32 82.392812 559.02 82.392812 
z
" style="fill: #ffffff; opacity: 0.8; stroke: #cccccc; stroke-linejoin: miter"/>
    </g>
    <g id="line2d_59">
     <path d="M 560.72 61.773672 
L 569.22 61.773672 
L 577.72 61.773672 
" style="fill: none; stroke: #440154; stroke-width: 1.5; stroke-linecap: square"/>
    </g>
    <g id="text_34">
     <text style="font: 8.5px 'DejaVu Sans', 'Bitstream Vera Sans', 'Computer Modern Sans Serif', 'Lucida Grande', 'Verdana', 'Geneva', 'Lucid', 'Arial', 'Helvetica', 'Avant Garde', sans-serif; text-anchor: start" x="584.52" y="64.748672" transform="rotate(-0 584.52 64.748672)">\ld{initial}</text>
    </g>
    <g id="line2d_60">
     <path d="M 560.72 74.250078 
L 569.22 74.250078 
L 577.72 74.250078 
" style="fill: none; stroke: #fde725; stroke-width: 1.5; stroke-linecap: square"/>
    </g>
    <g id="text_35">
     <text style="font: 8.5px 'DejaVu Sans', 'Bitstream Vera Sans', 'Computer Modern Sans Serif', 'Lucida Grande', 'Verdana', 'Geneva', 'Lucid', 'Arial', 'Helvetica', 'Avant Garde', sans-serif; text-anchor: start" x="584.52" y="77.225078" transform="rotate(-0 584.52 77.225078)">\ld{after run-in}</text>
    </g>
   </g>
  </g>
  <g id="text_36">
   <text style="font: 12px 'DejaVu Sans', 'Bitstream Vera Sans', 'Computer Modern Sans Serif', 'Lucida Grande', 'Verdana', 'Geneva', 'Lucid', 'Arial', 'Helvetica', 'Avant Garde', sans-serif; text-anchor: middle" x="504" y="16.318125" transform="rotate(-0 504 16.318125)">Baseline (Onyx)</text>
  </g>
 </g>
 <defs>
  <clipPath id="p37ec5339c1">
   <rect x="62.39" y="50.64" width="444.13" height="267.4"/>
  </clipPath>
  <clipPath id="pec59e55bc0">
   <rect x="553.07" y="50.64" width="444.13" height="267.4"/>
  </clipPath>
 </defs>
</svg>
