<?xml version="1.0" encoding="utf-8" standalone="no"?>
<!DOCTYPE svg PUBLIC "-//W3C//DTD SVG 1.1//EN"
  "http://www.w3.org/Graphics/SVG/1.1/DTD/svg11.dtd">
<svg xmlns:xlink="http://www.w3.org/1999/xlink" width="1008pt" height="360pt" viewBox="0 0 1008 360" xmlns="http://www.w3.org/2000/svg" version="1.1">
 <metadata>
  <rdf:RDF xmlns:dc="http://purl.org/dc/elements/1.1/" xmlns:cc="http://creativecommons.org/ns#" xmlns:rdf="http://www.w3.org/1999/02/22-rdf-syntax-ns#">
   <cc:Work>
    <dc:type rdf:resource="http://purl.org/dc/dcmitype/StillImage"/>
    <dc:date>2024-08-18T17:23:52.612487</dc:date>
    <dc:format>image/svg+xml</dc:format>
    <dc:creator>
     <cc:Agent>
      <dc:title>Matplotlib v3.9.0, https://matplotlib.org/</dc:title>
     </cc:Agent>
    </dc:creator>
   </cc:Work>
  </rdf:RDF>
 </metadata>
 <defs>
  <style type="text/css">*{stroke-linejoin: round; stroke-linecap: butt}</style>
 </defs>
 <g id="figure_1">
  <g id="patch_1">
   <path d="M 0 360 
L 1008 360 
L 1008 0 
L 0 0 
z
" style="fill: #ffffff"/>
  </g>
  <g id="axes_1">
   <g id="patch_2">
    <path d="M 56.09 318.04 
L 503.325 318.04 
L 503.325 26.88 
L 56.09 26.88 
z
" style="fill: #ffffff"/>
   </g>
   <g id="matplotlib.axis_1">
    <g id="xtick_1">
     <g id="line2d_1">
      <path d="M 75.722615 318.04 
L 75.722615 26.88 
" clip-path="url(#pdcc4ce8fb9)" style="fill: none; stroke: #e6e6e6; stroke-width: 0.8; stroke-linecap: square"/>
     </g>
     <g id="line2d_2">
      <defs>
       <path id="me4358c32f3" d="M 0 0 
L 0 3.5 
" style="stroke: #000000; stroke-width: 0.8"/>
      </defs>
      <g>
       <use xlink:href="#me4358c32f3" x="75.722615" y="318.04" style="stroke: #000000; stroke-width: 0.8"/>
      </g>
     </g>
     <g id="text_1">
      <text style="font: 10px 'DejaVu Sans', 'Bitstream Vera Sans', 'Computer Modern Sans Serif', 'Lucida Grande', 'Verdana', 'Geneva', 'Lucid', 'Arial', 'Helvetica', 'Avant Garde', sans-serif; text-anchor: middle" x="75.722615" y="332.638438" transform="rotate(-0 75.722615 332.638438)">−4</text>
     </g>
    </g>
    <g id="xtick_2">
     <g id="line2d_3">
      <path d="M 126.764805 318.04 
L 126.764805 26.88 
" clip-path="url(#pdcc4ce8fb9)" style="fill: none; stroke: #e6e6e6; stroke-width: 0.8; stroke-linecap: square"/>
     </g>
     <g id="line2d_4">
      <g>
       <use xlink:href="#me4358c32f3" x="126.764805" y="318.04" style="stroke: #000000; stroke-width: 0.8"/>
      </g>
     </g>
     <g id="text_2">
      <text style="font: 10px 'DejaVu Sans', 'Bitstream Vera Sans', 'Computer Modern Sans Serif', 'Lucida Grande', 'Verdana', 'Geneva', 'Lucid', 'Arial', 'Helvetica', 'Avant Garde', sans-serif; text-anchor: middle" x="126.764805" y="332.638438" transform="rotate(-0 126.764805 332.638438)">−3</text>
     </g>
    </g>
    <g id="xtick_3">
     <g id="line2d_5">
      <path d="M 177.806996 318.04 
L 177.806996 26.88 
" clip-path="url(#pdcc4ce8fb9)" style="fill: none; stroke: #e6e6e6; stroke-width: 0.8; stroke-linecap: square"/>
     </g>
     <g id="line2d_6">
      <g>
       <use xlink:href="#me4358c32f3" x="177.806996" y="318.04" style="stroke: #000000; stroke-width: 0.8"/>
      </g>
     </g>
     <g id="text_3">
      <text style="font: 10px 'DejaVu Sans', 'Bitstream Vera Sans', 'Computer Modern Sans Serif', 'Lucida Grande', 'Verdana', 'Geneva', 'Lucid', 'Arial', 'Helvetica', 'Avant Garde', sans-serif; text-anchor: middle" x="177.806996" y="332.638438" transform="rotate(-0 177.806996 332.638438)">−2</text>
     </g>
    </g>
    <g id="xtick_4">
     <g id="line2d_7">
      <path d="M 228.849186 318.04 
L 228.849186 26.88 
" clip-path="url(#pdcc4ce8fb9)" style="fill: none; stroke: #e6e6e6; stroke-width: 0.8; stroke-linecap: square"/>
     </g>
     <g id="line2d_8">
      <g>
       <use xlink:href="#me4358c32f3" x="228.849186" y="318.04" style="stroke: #000000; stroke-width: 0.8"/>
      </g>
     </g>
     <g id="text_4">
      <text style="font: 10px 'DejaVu Sans', 'Bitstream Vera Sans', 'Computer Modern Sans Serif', 'Lucida Grande', 'Verdana', 'Geneva', 'Lucid', 'Arial', 'Helvetica', 'Avant Garde', sans-serif; text-anchor: middle" x="228.849186" y="332.638438" transform="rotate(-0 228.849186 332.638438)">−1</text>
     </g>
    </g>
    <g id="xtick_5">
     <g id="line2d_9">
      <path d="M 279.891377 318.04 
L 279.891377 26.88 
" clip-path="url(#pdcc4ce8fb9)" style="fill: none; stroke: #e6e6e6; stroke-width: 0.8; stroke-linecap: square"/>
     </g>
     <g id="line2d_10">
      <g>
       <use xlink:href="#me4358c32f3" x="279.891377" y="318.04" style="stroke: #000000; stroke-width: 0.8"/>
      </g>
     </g>
     <g id="text_5">
      <text style="font: 10px 'DejaVu Sans', 'Bitstream Vera Sans', 'Computer Modern Sans Serif', 'Lucida Grande', 'Verdana', 'Geneva', 'Lucid', 'Arial', 'Helvetica', 'Avant Garde', sans-serif; text-anchor: middle" x="279.891377" y="332.638438" transform="rotate(-0 279.891377 332.638438)">0</text>
     </g>
    </g>
    <g id="xtick_6">
     <g id="line2d_11">
      <path d="M 330.933567 318.04 
L 330.933567 26.88 
" clip-path="url(#pdcc4ce8fb9)" style="fill: none; stroke: #e6e6e6; stroke-width: 0.8; stroke-linecap: square"/>
     </g>
     <g id="line2d_12">
      <g>
       <use xlink:href="#me4358c32f3" x="330.933567" y="318.04" style="stroke: #000000; stroke-width: 0.8"/>
      </g>
     </g>
     <g id="text_6">
      <text style="font: 10px 'DejaVu Sans', 'Bitstream Vera Sans', 'Computer Modern Sans Serif', 'Lucida Grande', 'Verdana', 'Geneva', 'Lucid', 'Arial', 'Helvetica', 'Avant Garde', sans-serif; text-anchor: middle" x="330.933567" y="332.638438" transform="rotate(-0 330.933567 332.638438)">1</text>
     </g>
    </g>
    <g id="xtick_7">
     <g id="line2d_13">
      <path d="M 381.975758 318.04 
L 381.975758 26.88 
" clip-path="url(#pdcc4ce8fb9)" style="fill: none; stroke: #e6e6e6; stroke-width: 0.8; stroke-linecap: square"/>
     </g>
     <g id="line2d_14">
      <g>
       <use xlink:href="#me4358c32f3" x="381.975758" y="318.04" style="stroke: #000000; stroke-width: 0.8"/>
      </g>
     </g>
     <g id="text_7">
      <text style="font: 10px 'DejaVu Sans', 'Bitstream Vera Sans', 'Computer Modern Sans Serif', 'Lucida Grande', 'Verdana', 'Geneva', 'Lucid', 'Arial', 'Helvetica', 'Avant Garde', sans-serif; text-anchor: middle" x="381.975758" y="332.638438" transform="rotate(-0 381.975758 332.638438)">2</text>
     </g>
    </g>
    <g id="xtick_8">
     <g id="line2d_15">
      <path d="M 433.017948 318.04 
L 433.017948 26.88 
" clip-path="url(#pdcc4ce8fb9)" style="fill: none; stroke: #e6e6e6; stroke-width: 0.8; stroke-linecap: square"/>
     </g>
     <g id="line2d_16">
      <g>
       <use xlink:href="#me4358c32f3" x="433.017948" y="318.04" style="stroke: #000000; stroke-width: 0.8"/>
      </g>
     </g>
     <g id="text_8">
      <text style="font: 10px 'DejaVu Sans', 'Bitstream Vera Sans', 'Computer Modern Sans Serif', 'Lucida Grande', 'Verdana', 'Geneva', 'Lucid', 'Arial', 'Helvetica', 'Avant Garde', sans-serif; text-anchor: middle" x="433.017948" y="332.638438" transform="rotate(-0 433.017948 332.638438)">3</text>
     </g>
    </g>
    <g id="xtick_9">
     <g id="line2d_17">
      <path d="M 484.060138 318.04 
L 484.060138 26.88 
" clip-path="url(#pdcc4ce8fb9)" style="fill: none; stroke: #e6e6e6; stroke-width: 0.8; stroke-linecap: square"/>
     </g>
     <g id="line2d_18">
      <g>
       <use xlink:href="#me4358c32f3" x="484.060138" y="318.04" style="stroke: #000000; stroke-width: 0.8"/>
      </g>
     </g>
     <g id="text_9">
      <text style="font: 10px 'DejaVu Sans', 'Bitstream Vera Sans', 'Computer Modern Sans Serif', 'Lucida Grande', 'Verdana', 'Geneva', 'Lucid', 'Arial', 'Helvetica', 'Avant Garde', sans-serif; text-anchor: middle" x="484.060138" y="332.638438" transform="rotate(-0 484.060138 332.638438)">4</text>
     </g>
    </g>
    <g id="text_10">
     <text style="font: 10px 'DejaVu Sans', 'Bitstream Vera Sans', 'Computer Modern Sans Serif', 'Lucida Grande', 'Verdana', 'Geneva', 'Lucid', 'Arial', 'Helvetica', 'Avant Garde', sans-serif; text-anchor: middle" x="279.7075" y="346.316563" transform="rotate(-0 279.7075 346.316563)">Motor Torque [Nm]</text>
    </g>
   </g>
   <g id="matplotlib.axis_2">
    <g id="ytick_1">
     <g id="line2d_19">
      <path d="M 56.09 313.972996 
L 503.325 313.972996 
" clip-path="url(#pdcc4ce8fb9)" style="fill: none; stroke: #e6e6e6; stroke-width: 0.8; stroke-linecap: square"/>
     </g>
     <g id="line2d_20">
      <defs>
       <path id="m2eb0464b75" d="M 0 0 
L -3.5 0 
" style="stroke: #000000; stroke-width: 0.8"/>
      </defs>
      <g>
       <use xlink:href="#m2eb0464b75" x="56.09" y="313.972996" style="stroke: #000000; stroke-width: 0.8"/>
      </g>
     </g>
     <g id="text_11">
      <text style="font: 10px 'DejaVu Sans', 'Bitstream Vera Sans', 'Computer Modern Sans Serif', 'Lucida Grande', 'Verdana', 'Geneva', 'Lucid', 'Arial', 'Helvetica', 'Avant Garde', sans-serif; text-anchor: end" x="49.09" y="317.772214" transform="rotate(-0 49.09 317.772214)">−0.8</text>
     </g>
    </g>
    <g id="ytick_2">
     <g id="line2d_21">
      <path d="M 56.09 279.185661 
L 503.325 279.185661 
" clip-path="url(#pdcc4ce8fb9)" style="fill: none; stroke: #e6e6e6; stroke-width: 0.8; stroke-linecap: square"/>
     </g>
     <g id="line2d_22">
      <g>
       <use xlink:href="#m2eb0464b75" x="56.09" y="279.185661" style="stroke: #000000; stroke-width: 0.8"/>
      </g>
     </g>
     <g id="text_12">
      <text style="font: 10px 'DejaVu Sans', 'Bitstream Vera Sans', 'Computer Modern Sans Serif', 'Lucida Grande', 'Verdana', 'Geneva', 'Lucid', 'Arial', 'Helvetica', 'Avant Garde', sans-serif; text-anchor: end" x="49.09" y="282.984879" transform="rotate(-0 49.09 282.984879)">−0.6</text>
     </g>
    </g>
    <g id="ytick_3">
     <g id="line2d_23">
      <path d="M 56.09 244.398326 
L 503.325 244.398326 
" clip-path="url(#pdcc4ce8fb9)" style="fill: none; stroke: #e6e6e6; stroke-width: 0.8; stroke-linecap: square"/>
     </g>
     <g id="line2d_24">
      <g>
       <use xlink:href="#m2eb0464b75" x="56.09" y="244.398326" style="stroke: #000000; stroke-width: 0.8"/>
      </g>
     </g>
     <g id="text_13">
      <text style="font: 10px 'DejaVu Sans', 'Bitstream Vera Sans', 'Computer Modern Sans Serif', 'Lucida Grande', 'Verdana', 'Geneva', 'Lucid', 'Arial', 'Helvetica', 'Avant Garde', sans-serif; text-anchor: end" x="49.09" y="248.197544" transform="rotate(-0 49.09 248.197544)">−0.4</text>
     </g>
    </g>
    <g id="ytick_4">
     <g id="line2d_25">
      <path d="M 56.09 209.610991 
L 503.325 209.610991 
" clip-path="url(#pdcc4ce8fb9)" style="fill: none; stroke: #e6e6e6; stroke-width: 0.8; stroke-linecap: square"/>
     </g>
     <g id="line2d_26">
      <g>
       <use xlink:href="#m2eb0464b75" x="56.09" y="209.610991" style="stroke: #000000; stroke-width: 0.8"/>
      </g>
     </g>
     <g id="text_14">
      <text style="font: 10px 'DejaVu Sans', 'Bitstream Vera Sans', 'Computer Modern Sans Serif', 'Lucida Grande', 'Verdana', 'Geneva', 'Lucid', 'Arial', 'Helvetica', 'Avant Garde', sans-serif; text-anchor: end" x="49.09" y="213.410209" transform="rotate(-0 49.09 213.410209)">−0.2</text>
     </g>
    </g>
    <g id="ytick_5">
     <g id="line2d_27">
      <path d="M 56.09 174.823656 
L 503.325 174.823656 
" clip-path="url(#pdcc4ce8fb9)" style="fill: none; stroke: #e6e6e6; stroke-width: 0.8; stroke-linecap: square"/>
     </g>
     <g id="line2d_28">
      <g>
       <use xlink:href="#m2eb0464b75" x="56.09" y="174.823656" style="stroke: #000000; stroke-width: 0.8"/>
      </g>
     </g>
     <g id="text_15">
      <text style="font: 10px 'DejaVu Sans', 'Bitstream Vera Sans', 'Computer Modern Sans Serif', 'Lucida Grande', 'Verdana', 'Geneva', 'Lucid', 'Arial', 'Helvetica', 'Avant Garde', sans-serif; text-anchor: end" x="49.09" y="178.622874" transform="rotate(-0 49.09 178.622874)">0.0</text>
     </g>
    </g>
    <g id="ytick_6">
     <g id="line2d_29">
      <path d="M 56.09 140.036321 
L 503.325 140.036321 
" clip-path="url(#pdcc4ce8fb9)" style="fill: none; stroke: #e6e6e6; stroke-width: 0.8; stroke-linecap: square"/>
     </g>
     <g id="line2d_30">
      <g>
       <use xlink:href="#m2eb0464b75" x="56.09" y="140.036321" style="stroke: #000000; stroke-width: 0.8"/>
      </g>
     </g>
     <g id="text_16">
      <text style="font: 10px 'DejaVu Sans', 'Bitstream Vera Sans', 'Computer Modern Sans Serif', 'Lucida Grande', 'Verdana', 'Geneva', 'Lucid', 'Arial', 'Helvetica', 'Avant Garde', sans-serif; text-anchor: end" x="49.09" y="143.835539" transform="rotate(-0 49.09 143.835539)">0.2</text>
     </g>
    </g>
    <g id="ytick_7">
     <g id="line2d_31">
      <path d="M 56.09 105.248985 
L 503.325 105.248985 
" clip-path="url(#pdcc4ce8fb9)" style="fill: none; stroke: #e6e6e6; stroke-width: 0.8; stroke-linecap: square"/>
     </g>
     <g id="line2d_32">
      <g>
       <use xlink:href="#m2eb0464b75" x="56.09" y="105.248985" style="stroke: #000000; stroke-width: 0.8"/>
      </g>
     </g>
     <g id="text_17">
      <text style="font: 10px 'DejaVu Sans', 'Bitstream Vera Sans', 'Computer Modern Sans Serif', 'Lucida Grande', 'Verdana', 'Geneva', 'Lucid', 'Arial', 'Helvetica', 'Avant Garde', sans-serif; text-anchor: end" x="49.09" y="109.048204" transform="rotate(-0 49.09 109.048204)">0.4</text>
     </g>
    </g>
    <g id="ytick_8">
     <g id="line2d_33">
      <path d="M 56.09 70.46165 
L 503.325 70.46165 
" clip-path="url(#pdcc4ce8fb9)" style="fill: none; stroke: #e6e6e6; stroke-width: 0.8; stroke-linecap: square"/>
     </g>
     <g id="line2d_34">
      <g>
       <use xlink:href="#m2eb0464b75" x="56.09" y="70.46165" style="stroke: #000000; stroke-width: 0.8"/>
      </g>
     </g>
     <g id="text_18">
      <text style="font: 10px 'DejaVu Sans', 'Bitstream Vera Sans', 'Computer Modern Sans Serif', 'Lucida Grande', 'Verdana', 'Geneva', 'Lucid', 'Arial', 'Helvetica', 'Avant Garde', sans-serif; text-anchor: end" x="49.09" y="74.260869" transform="rotate(-0 49.09 74.260869)">0.6</text>
     </g>
    </g>
    <g id="ytick_9">
     <g id="line2d_35">
      <path d="M 56.09 35.674315 
L 503.325 35.674315 
" clip-path="url(#pdcc4ce8fb9)" style="fill: none; stroke: #e6e6e6; stroke-width: 0.8; stroke-linecap: square"/>
     </g>
     <g id="line2d_36">
      <g>
       <use xlink:href="#m2eb0464b75" x="56.09" y="35.674315" style="stroke: #000000; stroke-width: 0.8"/>
      </g>
     </g>
     <g id="text_19">
      <text style="font: 10px 'DejaVu Sans', 'Bitstream Vera Sans', 'Computer Modern Sans Serif', 'Lucida Grande', 'Verdana', 'Geneva', 'Lucid', 'Arial', 'Helvetica', 'Avant Garde', sans-serif; text-anchor: end" x="49.09" y="39.473534" transform="rotate(-0 49.09 39.473534)">0.8</text>
     </g>
    </g>
    <g id="text_20">
     <text style="font: 10px 'DejaVu Sans', 'Bitstream Vera Sans', 'Computer Modern Sans Serif', 'Lucida Grande', 'Verdana', 'Geneva', 'Lucid', 'Arial', 'Helvetica', 'Avant Garde', sans-serif; text-anchor: middle" x="18.7275" y="172.46" transform="rotate(-90 18.7275 172.46)">Deflection [deg]</text>
    </g>
   </g>
   <g id="line2d_37">
    <path d="M 285.399595 252.354512 
L 298.104195 247.798383 
L 301.921221 246.253348 
L 305.448322 244.604142 
L 307.673794 243.338408 
L 309.544624 242.020741 
L 311.057859 240.684908 
L 312.390637 239.198377 
L 313.641076 237.448401 
L 315.086353 234.990995 
L 321.639658 222.900879 
L 326.630061 213.862872 
L 330.29719 207.663137 
L 333.009166 203.460435 
L 335.629145 199.81593 
L 339.673216 194.630104 
L 344.6299 188.501953 
L 346.006832 187.215247 
L 347.589274 186.060379 
L 349.416252 185.017061 
L 351.922842 183.866409 
L 355.689783 182.394733 
L 361.316769 180.477243 
L 367.207619 178.710576 
L 371.50629 177.261487 
L 374.287488 176.079224 
L 378.284755 174.159384 
L 380.789976 172.691118 
L 383.056435 171.10525 
L 384.76248 169.649864 
L 386.392255 167.967101 
L 388.065241 165.914285 
L 389.90501 163.284511 
L 393.071282 158.27677 
L 397.600382 151.244738 
L 401.444127 145.655604 
L 405.294746 140.481166 
L 409.006317 135.838624 
L 410.528278 134.253093 
L 411.85141 133.196688 
L 413.335339 132.294771 
L 415.012722 131.529424 
L 417.320553 130.736328 
L 424.386606 128.663683 
L 431.944032 126.393748 
L 436.404874 124.841639 
L 446.328592 121.226465 
L 449.815919 120.356454 
L 458.954747 118.222486 
L 462.14838 117.16295 
L 466.693964 115.397289 
L 481.04791 109.434282 
L 481.67134 108.889117 
L 481.856925 108.456789 
L 481.766197 108.100611 
L 481.43853 107.765557 
L 480.696106 107.367797 
L 479.45121 106.974651 
L 477.547544 106.625794 
L 474.83161 106.373733 
L 471.088591 106.269128 
L 459.302541 106.295179 
L 439.033633 106.466515 
L 410.54845 106.796574 
L 367.100977 107.595383 
L 355.034515 107.912656 
L 345.87236 108.298838 
L 309.160389 110.320345 
L 291.86997 112.157214 
L 287.779449 113.028983 
L 283.666775 114.123238 
L 276.687216 116.076823 
L 269.51489 117.622847 
L 265.890659 118.767441 
L 258.346675 121.155312 
L 250.675616 123.283131 
L 245.084944 124.619411 
L 235.932217 126.471376 
L 231.205191 127.54675 
L 227.626942 128.562382 
L 223.863308 129.891446 
L 210.36426 134.953458 
L 203.164683 137.903817 
L 194.70633 141.190498 
L 192.146861 142.478001 
L 189.975388 143.82021 
L 188.263332 145.130266 
L 186.509143 146.768831 
L 184.316287 149.145802 
L 181.697801 152.329203 
L 175.623556 159.834783 
L 170.983825 165.161263 
L 167.983478 168.230702 
L 164.602804 171.396143 
L 162.213197 173.324795 
L 157.613347 176.931807 
L 156.033328 178.486863 
L 154.714156 180.096834 
L 153.252592 182.250029 
L 146.561784 192.613342 
L 143.702211 196.365644 
L 139.60607 201.336084 
L 133.733527 208.082063 
L 130.590849 211.420642 
L 128.365302 213.489254 
L 126.04499 215.340147 
L 123.824871 216.841501 
L 121.318178 218.249993 
L 118.170532 219.765872 
L 114.151938 221.396358 
L 105.778055 224.753155 
L 103.335888 226.039713 
L 101.214448 227.419725 
L 98.950728 229.167842 
L 96.509455 231.335947 
L 92.640969 235.137656 
L 86.622738 240.955998 
L 82.962643 244.154589 
L 79.294064 247.392796 
L 78.287542 248.562926 
L 77.906148 249.300521 
L 77.842664 249.855993 
L 77.995163 250.307277 
L 78.39036 250.744802 
L 79.126049 251.185243 
L 80.336909 251.61958 
L 82.207773 252.027207 
L 84.764583 252.345478 
L 88.088601 252.51749 
L 93.887571 252.543487 
L 132.786026 252.240609 
L 159.904466 251.928415 
L 184.289901 251.578996 
L 202.910803 251.10807 
L 214.424154 250.706927 
L 224.636153 250.121909 
L 236.380593 249.168657 
L 242.220556 248.464257 
L 252.880017 247.076027 
L 262.273617 245.852138 
L 268.984715 244.696687 
L 275.734483 243.254807 
L 275.734483 243.254807 
" clip-path="url(#pdcc4ce8fb9)" style="fill: none; stroke: #d62728; stroke-width: 1.5; stroke-linecap: square"/>
   </g>
   <g id="line2d_38">
    <path d="M 284.246657 295.263081 
L 287.675513 294.014129 
L 291.788779 292.275574 
L 294.744523 290.790119 
L 300.921375 287.299835 
L 305.475155 284.86629 
L 311.149035 282.237377 
L 320.614976 277.949821 
L 323.609448 276.30618 
L 327.07782 274.203802 
L 329.65208 272.347323 
L 332.714521 269.860492 
L 334.928937 267.771743 
L 337.34819 265.159963 
L 340.07732 261.885488 
L 342.276606 258.90203 
L 344.676333 255.238028 
L 348.64208 249.159371 
L 350.513749 246.728358 
L 352.302028 244.760572 
L 354.722562 242.456773 
L 363.490421 234.363324 
L 368.536877 229.492851 
L 372.182643 226.345245 
L 383.745134 216.816297 
L 386.380801 215.119122 
L 390.263794 212.91623 
L 397.699236 208.686354 
L 401.22026 206.450109 
L 403.343029 204.83871 
L 405.045499 203.269458 
L 406.515167 201.620347 
L 407.839664 199.806521 
L 409.102503 197.682531 
L 410.504198 194.860847 
L 412.221056 190.873956 
L 414.411366 185.214702 
L 419.608538 170.83202 
L 437.454979 121.424927 
L 442.938963 104.995768 
L 447.844243 89.613034 
L 450.454335 81.409038 
L 451.837728 78.028801 
L 453.71645 74.06844 
L 455.906947 69.986946 
L 458.74756 65.210691 
L 462.881101 58.750183 
L 471.136981 46.239235 
L 472.763741 44.254972 
L 474.125248 42.908943 
L 475.308068 42.038919 
L 476.523795 41.434461 
L 477.946949 40.991513 
L 480.7112 40.308339 
L 480.582801 40.243449 
L 479.810051 40.164975 
L 476.426674 40.116682 
L 449.094342 40.162329 
L 383.761199 40.479943 
L 355.245618 40.848468 
L 330.003682 41.559582 
L 322.281781 42.085887 
L 302.826878 43.441521 
L 299.1499 43.994154 
L 296.317924 44.679121 
L 291.580886 46.038247 
L 287.134063 47.597591 
L 278.815831 50.699484 
L 267.668077 54.113602 
L 254.04462 58.765585 
L 240.509715 64.015859 
L 233.981657 66.839508 
L 231.124715 68.382166 
L 225.14001 71.661171 
L 223.012133 72.537069 
L 220.317039 73.384787 
L 216.068395 74.463237 
L 205.106667 77.131522 
L 202.412259 78.06149 
L 199.611618 79.245441 
L 197.592596 80.329115 
L 195.415352 81.761752 
L 192.720055 83.801848 
L 190.435517 85.802929 
L 188.344353 87.947046 
L 185.425914 91.31608 
L 183.262563 94.107296 
L 181.661253 96.52972 
L 180.129365 99.270454 
L 178.730491 102.232602 
L 177.780969 104.734933 
L 176.931704 107.664673 
L 174.082351 118.346628 
L 172.336689 123.515348 
L 169.770633 130.40483 
L 166.349393 138.934261 
L 161.186169 151.805329 
L 158.915662 158.122583 
L 156.551761 165.444208 
L 153.420423 175.951144 
L 151.230959 184.0269 
L 149.326758 191.918147 
L 145.032688 211.054071 
L 143.263014 219.976401 
L 137.591959 249.355239 
L 135.803492 257.552095 
L 134.32108 263.377032 
L 132.769021 268.613755 
L 131.055482 273.644916 
L 129.204404 278.406053 
L 127.252087 282.83036 
L 124.943963 287.492672 
L 122.415299 292.073596 
L 119.539689 296.779568 
L 115.827906 302.432319 
L 115.226157 303.026876 
L 114.707646 303.226029 
L 113.823983 303.271733 
L 104.214916 303.27643 
L 91.217286 303.575733 
L 81.741885 304.076397 
L 79.030887 304.392526 
L 78.759085 304.512193 
L 78.812942 304.552466 
L 79.367468 304.648733 
L 81.528392 304.766493 
L 87.339928 304.803231 
L 128.342881 304.588899 
L 186.146855 303.891479 
L 194.539684 303.500715 
L 207.301053 302.638001 
L 233.276637 300.16535 
L 251.350686 297.720372 
L 258.158788 296.439481 
L 262.106007 295.514569 
L 265.322081 294.529234 
L 268.141488 293.433275 
L 271.883936 291.71654 
L 274.535018 290.414584 
L 274.535018 290.414584 
" clip-path="url(#pdcc4ce8fb9)" style="fill: none; stroke: #440154; stroke-width: 1.5; stroke-linecap: square"/>
   </g>
   <g id="line2d_39">
    <path d="M 285.447601 268.421312 
L 292.511949 266.020307 
L 295.567809 264.764286 
L 299.379371 262.904195 
L 302.766944 261.025542 
L 306.063135 258.926058 
L 308.433671 257.192334 
L 310.391591 255.475109 
L 312.862652 252.972936 
L 319.489959 246.190064 
L 324.717548 241.226103 
L 334.740455 231.887082 
L 338.115058 229.251074 
L 341.964593 226.245743 
L 344.114178 224.266015 
L 352.133641 216.461038 
L 360.933852 208.686681 
L 364.332375 205.513524 
L 373.177491 197.085592 
L 376.729513 194.289033 
L 380.747826 191.384644 
L 389.134202 185.57954 
L 392.817264 183.57465 
L 396.022165 182.084013 
L 404.196378 178.61745 
L 408.831601 177.000592 
L 420.445041 173.051967 
L 423.205334 171.85883 
L 425.500624 170.614008 
L 427.955911 169.035827 
L 430.395369 167.208112 
L 432.915173 165.0348 
L 435.934118 162.123026 
L 439.217308 158.641869 
L 442.803044 154.481946 
L 448.844032 147.165383 
L 455.551807 138.462343 
L 462.090938 129.336372 
L 464.816948 125.175121 
L 467.103989 121.292012 
L 469.361304 117.007049 
L 480.604411 94.377901 
L 481.586459 91.649182 
L 482.222641 89.1868 
L 482.556476 86.994252 
L 482.641469 84.900846 
L 482.486633 82.929749 
L 482.141432 81.250002 
L 481.607676 79.706442 
L 480.834746 78.186677 
L 479.898604 76.846213 
L 478.747996 75.597148 
L 477.491927 74.557426 
L 476.051976 73.661808 
L 474.527969 72.973874 
L 472.792037 72.434541 
L 470.711726 72.022941 
L 467.934897 71.72048 
L 464.172721 71.557778 
L 457.003958 71.521574 
L 434.330804 71.675837 
L 409.405268 71.892436 
L 385.273806 72.198704 
L 359.628881 72.746217 
L 322.043533 73.810371 
L 312.025518 74.192334 
L 298.923742 74.934361 
L 293.784703 75.452025 
L 288.710984 76.207043 
L 285.368043 76.937694 
L 275.794536 79.384271 
L 272.768277 80.308676 
L 268.228077 81.971368 
L 262.567752 83.999917 
L 249.21787 88.429916 
L 243.95003 89.82926 
L 236.290644 91.880963 
L 231.713749 93.429841 
L 227.502309 94.905756 
L 224.581578 95.619869 
L 220.523758 96.375933 
L 214.514041 97.493334 
L 210.304016 98.557845 
L 206.966342 99.623031 
L 204.016044 100.787507 
L 201.579316 101.994107 
L 199.127013 103.464841 
L 196.551649 105.273543 
L 193.57987 107.648408 
L 189.871789 110.91158 
L 184.416433 116.107728 
L 177.532371 122.851285 
L 173.142179 127.331579 
L 167.143593 133.5757 
L 164.914239 135.5422 
L 162.705764 137.192934 
L 156.18755 141.857776 
L 154.513224 143.40429 
L 153.110069 145.007197 
L 151.671078 147.016236 
L 150.016092 149.721863 
L 147.951989 153.554087 
L 145.482641 158.648201 
L 140.019673 170.631469 
L 133.576288 184.716849 
L 129.815538 192.337284 
L 126.029372 199.508969 
L 122.438827 205.821509 
L 118.225011 212.773778 
L 113.011833 220.834752 
L 105.656253 231.049124 
L 103.407369 234.794355 
L 96.534079 246.892524 
L 89.314925 259.627714 
L 80.441324 275.0568 
L 78.497568 278.738898 
L 77.608976 280.913145 
L 77.173888 282.513655 
L 77.086043 283.594055 
L 77.241686 284.363311 
L 77.581647 284.954147 
L 78.154251 285.495401 
L 78.977636 285.967599 
L 80.230167 286.407775 
L 81.96331 286.76043 
L 84.434033 287.018111 
L 87.979237 287.147515 
L 96.151306 287.130404 
L 140.37692 286.824879 
L 162.568945 286.524731 
L 187.48091 286.063387 
L 198.706857 285.601007 
L 205.489699 285.113433 
L 215.162724 284.392198 
L 225.400511 283.999759 
L 237.441264 283.443374 
L 243.8607 282.931181 
L 248.595449 282.351581 
L 252.726507 281.612026 
L 264.471214 279.08358 
L 267.068939 278.315688 
L 270.122805 277.130946 
L 273.701974 275.533378 
L 274.238232 275.28907 
L 274.238232 275.28907 
" clip-path="url(#pdcc4ce8fb9)" style="fill: none; stroke: #3b528b; stroke-width: 1.5; stroke-linecap: square"/>
   </g>
   <g id="line2d_40">
    <path d="M 283.794237 229.033482 
L 288.469486 228.057132 
L 292.048144 227.109422 
L 294.48953 226.235648 
L 296.687765 225.209638 
L 298.866637 223.938751 
L 301.221513 222.291564 
L 306.087532 218.519112 
L 312.351761 213.832851 
L 321.536849 207.03067 
L 325.024212 204.033516 
L 326.827534 202.176292 
L 328.635579 199.993342 
L 330.415289 197.506189 
L 335.251051 190.34369 
L 337.064868 188.310076 
L 339.038314 186.438161 
L 341.005006 184.890316 
L 343.03173 183.575888 
L 345.382889 182.321981 
L 348.683598 180.834868 
L 358.284243 176.995127 
L 366.215249 173.838293 
L 369.029435 172.443301 
L 377.889597 167.760899 
L 383.95757 165.026932 
L 390.78268 161.942434 
L 393.932219 160.301946 
L 396.990385 158.416307 
L 399.798736 156.851098 
L 404.068755 154.471285 
L 406.433906 152.883578 
L 408.856447 150.979277 
L 411.542686 148.576283 
L 414.400769 145.727271 
L 420.744746 139.198566 
L 423.334947 137.030976 
L 425.776865 135.260622 
L 428.066979 133.857662 
L 430.90296 132.400106 
L 434.325815 130.897677 
L 436.630224 130.094557 
L 438.562586 129.657951 
L 441.080921 129.33085 
L 446.314344 128.939367 
L 454.346659 128.23843 
L 463.76628 127.210939 
L 469.008902 126.397513 
L 472.931034 125.601998 
L 477.510866 124.434374 
L 479.739362 123.654394 
L 481.184805 122.929075 
L 481.764517 122.417454 
L 481.870724 122.068085 
L 481.738719 121.790065 
L 481.326962 121.478314 
L 480.447391 121.108807 
L 478.897912 120.718798 
L 476.695092 120.400781 
L 473.636436 120.193239 
L 469.281077 120.136056 
L 447.536957 120.29987 
L 364.722686 121.406623 
L 333.528544 122.214199 
L 324.906202 122.65815 
L 310.894736 123.401067 
L 299.750916 123.765193 
L 290.863189 124.381182 
L 285.397734 124.943895 
L 281.474774 125.555035 
L 276.72686 126.296172 
L 257.068922 128.870942 
L 250.625933 130.086767 
L 238.713679 132.578955 
L 229.894656 134.093013 
L 227.064199 134.833971 
L 223.860381 135.926469 
L 219.926897 137.50765 
L 210.610495 141.369513 
L 203.143485 144.390752 
L 200.295518 145.784673 
L 197.914078 147.2085 
L 195.717342 148.786907 
L 192.307181 151.605145 
L 188.889027 154.572179 
L 185.874395 157.519698 
L 183.728007 159.905091 
L 182.070966 162.073644 
L 180.135604 164.998052 
L 176.964782 170.25936 
L 170.289809 181.484231 
L 166.62769 187.053558 
L 156.296724 202.105404 
L 154.916739 203.676356 
L 153.832209 204.594899 
L 152.553799 205.374238 
L 150.997798 206.042974 
L 148.616531 206.786135 
L 144.370671 207.845941 
L 136.243444 209.653501 
L 128.908302 211.064453 
L 122.83491 211.998121 
L 117.518842 212.83355 
L 114.552673 213.57627 
L 112.041556 214.427235 
L 109.674796 215.482019 
L 101.242179 219.41355 
L 95.811569 221.956371 
L 93.060025 223.51811 
L 88.945214 226.152108 
L 83.48827 229.874721 
L 81.022908 231.801416 
L 79.446683 233.285389 
L 78.606614 234.34909 
L 78.289969 235.069773 
L 78.29001 235.563284 
L 78.502614 235.941637 
L 78.96794 236.268655 
L 79.796679 236.5523 
L 81.24388 236.796176 
L 83.855442 236.983602 
L 88.636863 237.068175 
L 100.353812 236.987105 
L 155.352829 236.416724 
L 179.945837 235.963411 
L 193.816591 235.448889 
L 204.478304 234.99345 
L 221.44041 234.319596 
L 239.532547 233.588226 
L 255.289336 232.993912 
L 260.926397 232.585014 
L 266.437704 231.922791 
L 273.512978 230.872057 
L 275.810237 230.456158 
L 275.810237 230.456158 
" clip-path="url(#pdcc4ce8fb9)" style="fill: none; stroke: #21918c; stroke-width: 1.5; stroke-linecap: square"/>
   </g>
   <g id="line2d_41">
    <path d="M 285.04863 234.34561 
L 289.153102 233.519472 
L 292.364251 232.682624 
L 297.2569 231.104585 
L 304.412441 228.797437 
L 317.748918 224.879188 
L 321.037825 223.567475 
L 324.077368 222.110325 
L 327.170283 220.379667 
L 329.395706 218.894179 
L 331.46133 217.243925 
L 333.699169 215.166532 
L 336.900034 211.853027 
L 343.375448 205.126518 
L 347.652431 200.530622 
L 351.122527 196.462117 
L 358.695899 187.451964 
L 360.797956 185.300416 
L 363.341099 182.707835 
L 366.23896 179.282927 
L 368.024023 176.817032 
L 372.125958 171.035366 
L 374.886453 166.989552 
L 380.986535 157.892251 
L 392.924859 140.62103 
L 394.519331 138.706119 
L 396.277311 136.955448 
L 397.971999 135.573565 
L 400.554295 133.790427 
L 404.783409 131.140184 
L 407.23363 129.840936 
L 409.610864 128.829499 
L 412.448812 127.872039 
L 415.853721 126.963261 
L 420.355159 126.025794 
L 424.621321 125.306622 
L 427.849317 125.029932 
L 443.396342 124.015987 
L 447.149859 123.464782 
L 450.08151 122.819166 
L 452.842988 121.98455 
L 458.030318 120.108352 
L 462.81029 118.149621 
L 471.048549 114.70911 
L 474.007797 113.826683 
L 477.361526 113.065089 
L 482.995199 111.902096 
L 482.945048 111.858708 
L 482.46081 111.760728 
L 480.541682 111.644148 
L 474.87963 111.56672 
L 456.285318 111.625141 
L 364.923947 112.959965 
L 348.000684 113.60518 
L 334.168708 114.432059 
L 325.014763 115.196329 
L 308.5814 116.641045 
L 295.139911 117.610482 
L 289.753094 118.259568 
L 284.971676 119.025069 
L 251.072592 125.322156 
L 246.733011 126.386303 
L 242.09766 127.751728 
L 236.34084 129.662553 
L 233.181065 130.940726 
L 230.817879 132.119709 
L 228.952264 133.298511 
L 226.928931 134.880065 
L 220.628908 139.945255 
L 213.852784 145.215299 
L 210.064404 148.520709 
L 205.819974 152.491946 
L 198.534419 159.533658 
L 190.14419 167.189189 
L 186.739776 170.936144 
L 183.789257 174.48988 
L 181.263848 177.880645 
L 170.568993 192.639733 
L 168.754021 194.716352 
L 167.036285 196.360766 
L 165.488705 197.56279 
L 163.924853 198.499586 
L 161.935957 199.417291 
L 157.45194 201.138218 
L 151.778603 203.240739 
L 148.384966 204.197591 
L 144.384336 205.085618 
L 139.846335 205.851691 
L 135.421821 206.390735 
L 129.496219 207.094511 
L 126.326218 207.695661 
L 124.020801 208.354277 
L 121.745877 209.239798 
L 119.690348 210.261411 
L 118.176752 211.246266 
L 116.745713 212.438536 
L 115.065769 214.148474 
L 111.523472 218.160278 
L 108.146698 221.849957 
L 104.779258 225.189071 
L 96.728064 233.003779 
L 94.258328 235.326049 
L 93.015832 236.180109 
L 91.508088 236.905802 
L 88.975154 237.83817 
L 78.867892 241.37903 
L 76.750675 242.392666 
L 76.419517 242.735362 
L 76.507763 242.894862 
L 76.922123 243.059302 
L 78.056832 243.222582 
L 80.763374 243.343944 
L 87.826035 243.377735 
L 108.7922 243.214829 
L 158.419503 242.727003 
L 177.683736 242.539533 
L 192.535289 242.206731 
L 205.51697 241.814906 
L 224.105327 240.819625 
L 228.930313 240.274279 
L 237.756177 239.035005 
L 245.764472 237.548501 
L 252.186038 236.419846 
L 258.84047 235.442794 
L 265.159547 234.499892 
L 269.417796 233.630772 
L 274.14637 232.399417 
L 274.957649 232.166234 
L 274.957649 232.166234 
" clip-path="url(#pdcc4ce8fb9)" style="fill: none; stroke: #5ec962; stroke-width: 1.5; stroke-linecap: square"/>
   </g>
   <g id="line2d_42">
    <path d="M 284.19444 230.265832 
L 294.614047 228.638209 
L 299.770487 227.58003 
L 305.683954 226.13654 
L 325.219545 221.205994 
L 331.853924 219.838422 
L 338.139031 218.513306 
L 341.483891 217.56571 
L 345.591854 216.139747 
L 350.29911 214.539588 
L 353.594604 213.675617 
L 356.99831 213.010424 
L 365.557262 211.45929 
L 368.057319 210.71371 
L 374.250219 208.46569 
L 380.266496 205.939089 
L 382.994365 204.542002 
L 387.465551 201.966128 
L 390.01229 200.241942 
L 392.593637 198.210207 
L 394.508804 196.440886 
L 395.901002 194.85814 
L 397.162332 193.076623 
L 398.701035 190.47974 
L 400.41255 187.166355 
L 405.455851 176.996523 
L 409.071655 170.472175 
L 419.930778 151.151491 
L 422.604263 145.552684 
L 424.330526 142.120464 
L 425.706838 139.881589 
L 426.980227 138.21496 
L 428.528117 136.564247 
L 430.781851 134.524866 
L 439.885051 126.817794 
L 442.055128 125.371377 
L 444.296856 124.157746 
L 447.567037 122.676235 
L 454.566493 119.490238 
L 459.669716 117.148729 
L 465.878866 114.546807 
L 470.611132 112.811405 
L 475.081953 111.458825 
L 480.624079 109.785717 
L 481.390447 109.312764 
L 481.564157 108.988542 
L 481.442542 108.7763 
L 481.013545 108.54689 
L 479.960573 108.273753 
L 477.95066 108.00407 
L 474.540363 107.785843 
L 468.630091 107.655196 
L 458.83886 107.685109 
L 366.334694 108.354197 
L 354.128528 108.624085 
L 339.925035 109.24124 
L 323.818737 110.0235 
L 315.994623 110.498701 
L 298.419898 112.09263 
L 287.438316 113.696286 
L 283.900833 114.405067 
L 280.41877 115.411778 
L 276.538201 116.389868 
L 266.746183 118.66039 
L 262.654056 119.942098 
L 256.62216 122.094725 
L 252.388662 123.836393 
L 249.271618 125.394277 
L 240.224073 129.975389 
L 237.113304 131.050791 
L 233.127281 132.155493 
L 229.772481 133.188744 
L 226.518847 134.452744 
L 211.428232 140.929476 
L 208.179321 142.682878 
L 202.669864 145.998457 
L 199.534431 148.116612 
L 197.35633 149.841204 
L 195.645451 151.464501 
L 194.204056 153.147011 
L 192.814934 155.131802 
L 191.445106 157.479466 
L 189.710818 160.933854 
L 187.398311 165.479035 
L 185.147592 169.340461 
L 182.092653 174.101635 
L 178.733904 178.924098 
L 174.711015 184.26421 
L 169.174068 191.2913 
L 167.134491 193.487045 
L 165.671803 194.748432 
L 164.469737 195.497946 
L 163.185663 196.036761 
L 161.5016 196.491514 
L 159.020808 196.91693 
L 154.811671 197.374236 
L 142.471204 198.502938 
L 134.886531 199.220372 
L 130.713755 199.809314 
L 127.833309 200.41912 
L 125.852673 201.048208 
L 124.27976 201.77208 
L 122.968728 202.621025 
L 121.904602 203.573864 
L 120.740371 204.946499 
L 118.908168 207.532752 
L 115.500891 212.297407 
L 113.051968 215.338203 
L 109.837491 218.939936 
L 105.585016 223.35861 
L 98.934374 229.91366 
L 96.838641 231.76358 
L 95.980493 232.212373 
L 94.971419 232.463451 
L 92.559981 232.770643 
L 79.878728 234.289815 
L 78.436418 234.700759 
L 77.997253 235.020741 
L 78.003728 235.228017 
L 78.258655 235.42206 
L 78.993611 235.639376 
L 80.634915 235.855511 
L 83.79746 236.012929 
L 89.806628 236.058111 
L 116.074044 235.876718 
L 162.206866 235.632702 
L 196.750001 235.425274 
L 223.779252 234.825986 
L 239.131877 234.176618 
L 248.24125 233.476651 
L 253.822513 232.894494 
L 258.703425 232.167822 
L 271.479114 229.906053 
L 275.645126 229.071355 
L 275.645126 229.071355 
" clip-path="url(#pdcc4ce8fb9)" style="fill: none; stroke: #fde725; stroke-width: 1.5; stroke-linecap: square"/>
   </g>
   <g id="patch_3">
    <path d="M 56.09 318.04 
L 56.09 26.88 
" style="fill: none; stroke: #000000; stroke-width: 0.8; stroke-linejoin: miter; stroke-linecap: square"/>
   </g>
   <g id="patch_4">
    <path d="M 503.325 318.04 
L 503.325 26.88 
" style="fill: none; stroke: #000000; stroke-width: 0.8; stroke-linejoin: miter; stroke-linecap: square"/>
   </g>
   <g id="patch_5">
    <path d="M 56.09 318.04 
L 503.325 318.04 
" style="fill: none; stroke: #000000; stroke-width: 0.8; stroke-linejoin: miter; stroke-linecap: square"/>
   </g>
   <g id="patch_6">
    <path d="M 56.09 26.88 
L 503.325 26.88 
" style="fill: none; stroke: #000000; stroke-width: 0.8; stroke-linejoin: miter; stroke-linecap: square"/>
   </g>
   <g id="text_21">
    <text style="font: 12px 'DejaVu Sans', 'Bitstream Vera Sans', 'Computer Modern Sans Serif', 'Lucida Grande', 'Verdana', 'Geneva', 'Lucid', 'Arial', 'Helvetica', 'Avant Garde', sans-serif; text-anchor: middle" x="279.7075" y="20.88" transform="rotate(-0 279.7075 20.88)">Play tests</text>
   </g>
  </g>
  <g id="axes_2">
   <g id="patch_7">
    <path d="M 549.965 318.04 
L 997.2 318.04 
L 997.2 26.88 
L 549.965 26.88 
z
" style="fill: #ffffff"/>
   </g>
   <g id="matplotlib.axis_3">
    <g id="xtick_10">
     <g id="line2d_43">
      <path d="M 552.701693 318.04 
L 552.701693 26.88 
" clip-path="url(#pfee0bdc938)" style="fill: none; stroke: #e6e6e6; stroke-width: 0.8; stroke-linecap: square"/>
     </g>
     <g id="line2d_44">
      <g>
       <use xlink:href="#me4358c32f3" x="552.701693" y="318.04" style="stroke: #000000; stroke-width: 0.8"/>
      </g>
     </g>
     <g id="text_22">
      <text style="font: 10px 'DejaVu Sans', 'Bitstream Vera Sans', 'Computer Modern Sans Serif', 'Lucida Grande', 'Verdana', 'Geneva', 'Lucid', 'Arial', 'Helvetica', 'Avant Garde', sans-serif; text-anchor: middle" x="552.701693" y="332.638438" transform="rotate(-0 552.701693 332.638438)">−40</text>
     </g>
    </g>
    <g id="xtick_11">
     <g id="line2d_45">
      <path d="M 606.73999 318.04 
L 606.73999 26.88 
" clip-path="url(#pfee0bdc938)" style="fill: none; stroke: #e6e6e6; stroke-width: 0.8; stroke-linecap: square"/>
     </g>
     <g id="line2d_46">
      <g>
       <use xlink:href="#me4358c32f3" x="606.73999" y="318.04" style="stroke: #000000; stroke-width: 0.8"/>
      </g>
     </g>
     <g id="text_23">
      <text style="font: 10px 'DejaVu Sans', 'Bitstream Vera Sans', 'Computer Modern Sans Serif', 'Lucida Grande', 'Verdana', 'Geneva', 'Lucid', 'Arial', 'Helvetica', 'Avant Garde', sans-serif; text-anchor: middle" x="606.73999" y="332.638438" transform="rotate(-0 606.73999 332.638438)">−30</text>
     </g>
    </g>
    <g id="xtick_12">
     <g id="line2d_47">
      <path d="M 660.778287 318.04 
L 660.778287 26.88 
" clip-path="url(#pfee0bdc938)" style="fill: none; stroke: #e6e6e6; stroke-width: 0.8; stroke-linecap: square"/>
     </g>
     <g id="line2d_48">
      <g>
       <use xlink:href="#me4358c32f3" x="660.778287" y="318.04" style="stroke: #000000; stroke-width: 0.8"/>
      </g>
     </g>
     <g id="text_24">
      <text style="font: 10px 'DejaVu Sans', 'Bitstream Vera Sans', 'Computer Modern Sans Serif', 'Lucida Grande', 'Verdana', 'Geneva', 'Lucid', 'Arial', 'Helvetica', 'Avant Garde', sans-serif; text-anchor: middle" x="660.778287" y="332.638438" transform="rotate(-0 660.778287 332.638438)">−20</text>
     </g>
    </g>
    <g id="xtick_13">
     <g id="line2d_49">
      <path d="M 714.816584 318.04 
L 714.816584 26.88 
" clip-path="url(#pfee0bdc938)" style="fill: none; stroke: #e6e6e6; stroke-width: 0.8; stroke-linecap: square"/>
     </g>
     <g id="line2d_50">
      <g>
       <use xlink:href="#me4358c32f3" x="714.816584" y="318.04" style="stroke: #000000; stroke-width: 0.8"/>
      </g>
     </g>
     <g id="text_25">
      <text style="font: 10px 'DejaVu Sans', 'Bitstream Vera Sans', 'Computer Modern Sans Serif', 'Lucida Grande', 'Verdana', 'Geneva', 'Lucid', 'Arial', 'Helvetica', 'Avant Garde', sans-serif; text-anchor: middle" x="714.816584" y="332.638438" transform="rotate(-0 714.816584 332.638438)">−10</text>
     </g>
    </g>
    <g id="xtick_14">
     <g id="line2d_51">
      <path d="M 768.854881 318.04 
L 768.854881 26.88 
" clip-path="url(#pfee0bdc938)" style="fill: none; stroke: #e6e6e6; stroke-width: 0.8; stroke-linecap: square"/>
     </g>
     <g id="line2d_52">
      <g>
       <use xlink:href="#me4358c32f3" x="768.854881" y="318.04" style="stroke: #000000; stroke-width: 0.8"/>
      </g>
     </g>
     <g id="text_26">
      <text style="font: 10px 'DejaVu Sans', 'Bitstream Vera Sans', 'Computer Modern Sans Serif', 'Lucida Grande', 'Verdana', 'Geneva', 'Lucid', 'Arial', 'Helvetica', 'Avant Garde', sans-serif; text-anchor: middle" x="768.854881" y="332.638438" transform="rotate(-0 768.854881 332.638438)">0</text>
     </g>
    </g>
    <g id="xtick_15">
     <g id="line2d_53">
      <path d="M 822.893178 318.04 
L 822.893178 26.88 
" clip-path="url(#pfee0bdc938)" style="fill: none; stroke: #e6e6e6; stroke-width: 0.8; stroke-linecap: square"/>
     </g>
     <g id="line2d_54">
      <g>
       <use xlink:href="#me4358c32f3" x="822.893178" y="318.04" style="stroke: #000000; stroke-width: 0.8"/>
      </g>
     </g>
     <g id="text_27">
      <text style="font: 10px 'DejaVu Sans', 'Bitstream Vera Sans', 'Computer Modern Sans Serif', 'Lucida Grande', 'Verdana', 'Geneva', 'Lucid', 'Arial', 'Helvetica', 'Avant Garde', sans-serif; text-anchor: middle" x="822.893178" y="332.638438" transform="rotate(-0 822.893178 332.638438)">10</text>
     </g>
    </g>
    <g id="xtick_16">
     <g id="line2d_55">
      <path d="M 876.931475 318.04 
L 876.931475 26.88 
" clip-path="url(#pfee0bdc938)" style="fill: none; stroke: #e6e6e6; stroke-width: 0.8; stroke-linecap: square"/>
     </g>
     <g id="line2d_56">
      <g>
       <use xlink:href="#me4358c32f3" x="876.931475" y="318.04" style="stroke: #000000; stroke-width: 0.8"/>
      </g>
     </g>
     <g id="text_28">
      <text style="font: 10px 'DejaVu Sans', 'Bitstream Vera Sans', 'Computer Modern Sans Serif', 'Lucida Grande', 'Verdana', 'Geneva', 'Lucid', 'Arial', 'Helvetica', 'Avant Garde', sans-serif; text-anchor: middle" x="876.931475" y="332.638438" transform="rotate(-0 876.931475 332.638438)">20</text>
     </g>
    </g>
    <g id="xtick_17">
     <g id="line2d_57">
      <path d="M 930.969772 318.04 
L 930.969772 26.88 
" clip-path="url(#pfee0bdc938)" style="fill: none; stroke: #e6e6e6; stroke-width: 0.8; stroke-linecap: square"/>
     </g>
     <g id="line2d_58">
      <g>
       <use xlink:href="#me4358c32f3" x="930.969772" y="318.04" style="stroke: #000000; stroke-width: 0.8"/>
      </g>
     </g>
     <g id="text_29">
      <text style="font: 10px 'DejaVu Sans', 'Bitstream Vera Sans', 'Computer Modern Sans Serif', 'Lucida Grande', 'Verdana', 'Geneva', 'Lucid', 'Arial', 'Helvetica', 'Avant Garde', sans-serif; text-anchor: middle" x="930.969772" y="332.638438" transform="rotate(-0 930.969772 332.638438)">30</text>
     </g>
    </g>
    <g id="xtick_18">
     <g id="line2d_59">
      <path d="M 985.008069 318.04 
L 985.008069 26.88 
" clip-path="url(#pfee0bdc938)" style="fill: none; stroke: #e6e6e6; stroke-width: 0.8; stroke-linecap: square"/>
     </g>
     <g id="line2d_60">
      <g>
       <use xlink:href="#me4358c32f3" x="985.008069" y="318.04" style="stroke: #000000; stroke-width: 0.8"/>
      </g>
     </g>
     <g id="text_30">
      <text style="font: 10px 'DejaVu Sans', 'Bitstream Vera Sans', 'Computer Modern Sans Serif', 'Lucida Grande', 'Verdana', 'Geneva', 'Lucid', 'Arial', 'Helvetica', 'Avant Garde', sans-serif; text-anchor: middle" x="985.008069" y="332.638438" transform="rotate(-0 985.008069 332.638438)">40</text>
     </g>
    </g>
    <g id="text_31">
     <text style="font: 10px 'DejaVu Sans', 'Bitstream Vera Sans', 'Computer Modern Sans Serif', 'Lucida Grande', 'Verdana', 'Geneva', 'Lucid', 'Arial', 'Helvetica', 'Avant Garde', sans-serif; text-anchor: middle" x="773.5825" y="346.316563" transform="rotate(-0 773.5825 346.316563)">Motor Torque [Nm]</text>
    </g>
   </g>
   <g id="matplotlib.axis_4">
    <g id="ytick_10">
     <g id="line2d_61">
      <path d="M 549.965 292.437972 
L 997.2 292.437972 
" clip-path="url(#pfee0bdc938)" style="fill: none; stroke: #e6e6e6; stroke-width: 0.8; stroke-linecap: square"/>
     </g>
     <g id="line2d_62">
      <g>
       <use xlink:href="#m2eb0464b75" x="549.965" y="292.437972" style="stroke: #000000; stroke-width: 0.8"/>
      </g>
     </g>
     <g id="text_32">
      <text style="font: 10px 'DejaVu Sans', 'Bitstream Vera Sans', 'Computer Modern Sans Serif', 'Lucida Grande', 'Verdana', 'Geneva', 'Lucid', 'Arial', 'Helvetica', 'Avant Garde', sans-serif; text-anchor: end" x="542.965" y="296.237191" transform="rotate(-0 542.965 296.237191)">−6</text>
     </g>
    </g>
    <g id="ytick_11">
     <g id="line2d_63">
      <path d="M 549.965 251.311084 
L 997.2 251.311084 
" clip-path="url(#pfee0bdc938)" style="fill: none; stroke: #e6e6e6; stroke-width: 0.8; stroke-linecap: square"/>
     </g>
     <g id="line2d_64">
      <g>
       <use xlink:href="#m2eb0464b75" x="549.965" y="251.311084" style="stroke: #000000; stroke-width: 0.8"/>
      </g>
     </g>
     <g id="text_33">
      <text style="font: 10px 'DejaVu Sans', 'Bitstream Vera Sans', 'Computer Modern Sans Serif', 'Lucida Grande', 'Verdana', 'Geneva', 'Lucid', 'Arial', 'Helvetica', 'Avant Garde', sans-serif; text-anchor: end" x="542.965" y="255.110302" transform="rotate(-0 542.965 255.110302)">−4</text>
     </g>
    </g>
    <g id="ytick_12">
     <g id="line2d_65">
      <path d="M 549.965 210.184195 
L 997.2 210.184195 
" clip-path="url(#pfee0bdc938)" style="fill: none; stroke: #e6e6e6; stroke-width: 0.8; stroke-linecap: square"/>
     </g>
     <g id="line2d_66">
      <g>
       <use xlink:href="#m2eb0464b75" x="549.965" y="210.184195" style="stroke: #000000; stroke-width: 0.8"/>
      </g>
     </g>
     <g id="text_34">
      <text style="font: 10px 'DejaVu Sans', 'Bitstream Vera Sans', 'Computer Modern Sans Serif', 'Lucida Grande', 'Verdana', 'Geneva', 'Lucid', 'Arial', 'Helvetica', 'Avant Garde', sans-serif; text-anchor: end" x="542.965" y="213.983414" transform="rotate(-0 542.965 213.983414)">−2</text>
     </g>
    </g>
    <g id="ytick_13">
     <g id="line2d_67">
      <path d="M 549.965 169.057307 
L 997.2 169.057307 
" clip-path="url(#pfee0bdc938)" style="fill: none; stroke: #e6e6e6; stroke-width: 0.8; stroke-linecap: square"/>
     </g>
     <g id="line2d_68">
      <g>
       <use xlink:href="#m2eb0464b75" x="549.965" y="169.057307" style="stroke: #000000; stroke-width: 0.8"/>
      </g>
     </g>
     <g id="text_35">
      <text style="font: 10px 'DejaVu Sans', 'Bitstream Vera Sans', 'Computer Modern Sans Serif', 'Lucida Grande', 'Verdana', 'Geneva', 'Lucid', 'Arial', 'Helvetica', 'Avant Garde', sans-serif; text-anchor: end" x="542.965" y="172.856525" transform="rotate(-0 542.965 172.856525)">0</text>
     </g>
    </g>
    <g id="ytick_14">
     <g id="line2d_69">
      <path d="M 549.965 127.930418 
L 997.2 127.930418 
" clip-path="url(#pfee0bdc938)" style="fill: none; stroke: #e6e6e6; stroke-width: 0.8; stroke-linecap: square"/>
     </g>
     <g id="line2d_70">
      <g>
       <use xlink:href="#m2eb0464b75" x="549.965" y="127.930418" style="stroke: #000000; stroke-width: 0.8"/>
      </g>
     </g>
     <g id="text_36">
      <text style="font: 10px 'DejaVu Sans', 'Bitstream Vera Sans', 'Computer Modern Sans Serif', 'Lucida Grande', 'Verdana', 'Geneva', 'Lucid', 'Arial', 'Helvetica', 'Avant Garde', sans-serif; text-anchor: end" x="542.965" y="131.729637" transform="rotate(-0 542.965 131.729637)">2</text>
     </g>
    </g>
    <g id="ytick_15">
     <g id="line2d_71">
      <path d="M 549.965 86.80353 
L 997.2 86.80353 
" clip-path="url(#pfee0bdc938)" style="fill: none; stroke: #e6e6e6; stroke-width: 0.8; stroke-linecap: square"/>
     </g>
     <g id="line2d_72">
      <g>
       <use xlink:href="#m2eb0464b75" x="549.965" y="86.80353" style="stroke: #000000; stroke-width: 0.8"/>
      </g>
     </g>
     <g id="text_37">
      <text style="font: 10px 'DejaVu Sans', 'Bitstream Vera Sans', 'Computer Modern Sans Serif', 'Lucida Grande', 'Verdana', 'Geneva', 'Lucid', 'Arial', 'Helvetica', 'Avant Garde', sans-serif; text-anchor: end" x="542.965" y="90.602749" transform="rotate(-0 542.965 90.602749)">4</text>
     </g>
    </g>
    <g id="ytick_16">
     <g id="line2d_73">
      <path d="M 549.965 45.676641 
L 997.2 45.676641 
" clip-path="url(#pfee0bdc938)" style="fill: none; stroke: #e6e6e6; stroke-width: 0.8; stroke-linecap: square"/>
     </g>
     <g id="line2d_74">
      <g>
       <use xlink:href="#m2eb0464b75" x="549.965" y="45.676641" style="stroke: #000000; stroke-width: 0.8"/>
      </g>
     </g>
     <g id="text_38">
      <text style="font: 10px 'DejaVu Sans', 'Bitstream Vera Sans', 'Computer Modern Sans Serif', 'Lucida Grande', 'Verdana', 'Geneva', 'Lucid', 'Arial', 'Helvetica', 'Avant Garde', sans-serif; text-anchor: end" x="542.965" y="49.47586" transform="rotate(-0 542.965 49.47586)">6</text>
     </g>
    </g>
    <g id="text_39">
     <text style="font: 10px 'DejaVu Sans', 'Bitstream Vera Sans', 'Computer Modern Sans Serif', 'Lucida Grande', 'Verdana', 'Geneva', 'Lucid', 'Arial', 'Helvetica', 'Avant Garde', sans-serif; text-anchor: middle" x="522.143125" y="172.46" transform="rotate(-90 522.143125 172.46)">Deflection [deg]</text>
    </g>
   </g>
   <g id="line2d_75">
    <path d="M 769.836002 202.41685 
L 771.190944 199.314532 
L 772.353049 196.076909 
L 773.309684 193.710633 
L 774.266511 191.944741 
L 776.278929 188.805379 
L 779.17335 184.80723 
L 780.166606 183.327489 
L 782.133196 180.318368 
L 783.940571 177.565367 
L 784.830155 176.281446 
L 785.970325 175.086877 
L 787.44394 173.492479 
L 789.284114 171.055186 
L 793.812838 165.158518 
L 796.455477 162.605399 
L 801.410291 157.434163 
L 806.725603 150.411717 
L 808.878514 147.482664 
L 810.064905 146.215167 
L 811.171601 145.368771 
L 813.597634 143.605565 
L 818.350363 139.464889 
L 824.864928 133.417634 
L 825.923881 132.767794 
L 827.341627 132.199484 
L 829.391045 131.318824 
L 830.846042 130.398153 
L 832.525594 129.097133 
L 835.072048 127.057153 
L 836.37539 126.329383 
L 839.138804 124.990116 
L 840.284446 124.06159 
L 841.659243 122.640905 
L 844.484065 119.6676 
L 845.745196 118.705053 
L 847.139123 117.909873 
L 848.959682 116.792419 
L 855.052207 112.727247 
L 857.43389 111.432335 
L 863.811164 107.303411 
L 865.650389 106.039444 
L 868.836799 103.490764 
L 873.02151 100.210321 
L 876.447773 97.617604 
L 880.671839 95.203186 
L 885.869974 91.727387 
L 888.063138 90.36871 
L 889.523763 89.122356 
L 891.4825 87.517216 
L 892.660396 86.835244 
L 895.649966 85.270037 
L 898.39118 83.785025 
L 903.748748 81.15229 
L 910.373437 76.291654 
L 914.610845 72.888118 
L 916.058918 71.97221 
L 919.619178 69.964712 
L 921.857746 68.900459 
L 923.090715 68.034175 
L 925.281131 66.206805 
L 927.286953 64.489052 
L 931.421656 61.223126 
L 932.728596 60.191437 
L 934.231852 58.940667 
L 936.64352 57.612216 
L 940.052811 55.93947 
L 942.527183 54.445706 
L 946.276464 53.027811 
L 948.40835 52.093379 
L 949.291449 51.554939 
L 950.249733 50.70233 
L 951.230071 49.887557 
L 953.074542 48.665333 
L 954.213907 47.521036 
L 955.156923 46.375699 
L 956.108041 45.058811 
L 957.141878 44.148066 
L 957.732997 43.116111 
L 958.147607 42.208395 
L 958.079692 41.933424 
L 957.789077 41.788765 
L 956.97955 41.684978 
L 953.989206 41.614961 
L 940.381415 41.651116 
L 906.910429 41.806848 
L 885.955893 42.0842 
L 883.829868 42.250421 
L 880.780295 42.692845 
L 873.99481 42.945636 
L 866.976334 43.683201 
L 862.868294 44.93969 
L 860.059203 45.820506 
L 858.545242 46.116488 
L 855.049804 46.64312 
L 851.933794 47.44664 
L 850.274992 47.885528 
L 847.186811 48.914525 
L 843.332675 49.480741 
L 842.2089 49.935786 
L 839.460466 51.258287 
L 837.755185 51.749045 
L 834.894014 52.535421 
L 833.380545 53.183101 
L 827.130929 56.035296 
L 824.715725 57.098229 
L 820.588575 59.21313 
L 815.830804 62.281627 
L 811.693092 64.394967 
L 807.666651 66.865536 
L 803.959827 69.299238 
L 801.616468 70.708777 
L 796.042875 74.793097 
L 792.343937 77.45426 
L 790.379127 78.920042 
L 789.075489 80.25784 
L 783.683778 86.300902 
L 780.460866 89.190823 
L 778.853136 90.716838 
L 775.688227 93.295879 
L 774.774938 94.576292 
L 770.948951 100.925312 
L 770.20035 102.826423 
L 769.069739 106.317109 
L 766.741146 113.899539 
L 765.724708 116.299923 
L 764.600209 118.362668 
L 761.672427 122.788211 
L 759.247842 126.238106 
L 757.844815 128.37559 
L 755.163853 132.126352 
L 753.411915 135.650279 
L 751.957503 139.235882 
L 750.140537 143.517325 
L 747.506446 149.05598 
L 746.340919 151.153083 
L 741.883522 158.428417 
L 740.149246 161.900723 
L 738.366502 165.206077 
L 734.428754 171.742279 
L 733.033809 173.27469 
L 731.048871 175.138772 
L 729.197888 176.539135 
L 726.562232 178.483291 
L 725.35383 179.876508 
L 723.71335 182.122159 
L 720.610931 186.521588 
L 719.070578 188.431276 
L 717.643374 189.857262 
L 715.483051 191.670996 
L 711.898894 194.762561 
L 710.324522 196.399336 
L 707.652971 199.22029 
L 704.990685 201.98385 
L 702.152113 204.921412 
L 700.59898 206.329494 
L 699.094992 207.362457 
L 695.865451 209.582 
L 693.452474 211.803474 
L 691.580557 213.454513 
L 686.39016 217.386503 
L 681.460858 220.83112 
L 678.20706 222.839576 
L 676.215095 224.331349 
L 674.168723 226.130657 
L 672.928077 227.53629 
L 670.68602 230.161639 
L 668.179229 232.579822 
L 666.599507 233.854966 
L 663.07202 236.286188 
L 660.345572 238.068586 
L 658.377753 239.611388 
L 655.757918 242.144469 
L 652.316644 245.64796 
L 650.533187 247.213719 
L 647.565171 249.557107 
L 642.620241 254.012243 
L 638.146476 258.508875 
L 634.284246 261.836657 
L 632.201208 263.660338 
L 630.130388 266.137229 
L 628.498386 267.885718 
L 624.944138 271.253289 
L 620.817155 274.520162 
L 618.739895 276.480828 
L 615.534479 278.772979 
L 612.861396 281.052168 
L 611.448428 282.540134 
L 610.030786 284.016228 
L 609.182829 284.838901 
L 606.184394 287.241057 
L 605.561273 288.168011 
L 604.18722 290.199445 
L 603.323533 291.118359 
L 602.091578 292.053598 
L 599.313866 294.229069 
L 598.45125 295.020784 
L 597.407137 295.538185 
L 594.684521 296.683014 
L 593.3233 297.340085 
L 592.635767 297.891375 
L 591.589514 298.849942 
L 590.575496 299.259772 
L 590.03546 299.626567 
L 589.526592 300.305511 
L 588.542559 301.601098 
L 587.652052 302.403768 
L 586.884605 303.267153 
L 586.009434 303.837274 
L 585.650114 304.158405 
L 585.780582 304.293365 
L 586.322666 304.457941 
L 587.835107 304.64237 
L 590.934866 304.778006 
L 598.313348 304.801239 
L 632.643197 304.624597 
L 641.414651 304.316999 
L 646.820948 303.963856 
L 649.163325 303.617688 
L 650.941606 303.154306 
L 654.181598 302.103804 
L 656.234616 301.661563 
L 657.737901 301.337428 
L 662.59751 300.601934 
L 664.362396 300.160123 
L 665.559362 299.598696 
L 668.002261 298.424067 
L 669.222664 298.175894 
L 677.77473 296.853546 
L 679.877459 296.179191 
L 684.899166 294.341636 
L 687.921951 293.464142 
L 689.809912 292.564349 
L 693.977837 290.466555 
L 695.462924 289.95157 
L 697.5999 289.199717 
L 699.00483 288.41109 
L 700.139078 287.544492 
L 704.453101 283.688018 
L 711.311796 279.738116 
L 714.030344 278.268402 
L 715.53338 277.146089 
L 717.19805 275.972069 
L 718.473749 275.361069 
L 723.112926 273.392709 
L 725.062338 272.271545 
L 730.358393 269.033388 
L 735.864889 266.187173 
L 737.237041 265.076824 
L 739.032477 263.357534 
L 744.48889 257.59063 
L 745.532953 256.195507 
L 747.36733 253.226452 
L 749.803544 248.970352 
L 751.921796 245.17124 
L 753.145494 243.556392 
L 755.065074 241.436496 
L 759.234462 236.761645 
L 760.692626 234.90637 
L 764.008376 230.500087 
L 765.160301 229.392523 
L 767.500248 227.551472 
L 767.500248 227.551472 
" clip-path="url(#pfee0bdc938)" style="fill: none; stroke: #d62728; stroke-width: 1.5; stroke-linecap: square"/>
   </g>
   <g id="line2d_76">
    <path d="M 769.954468 206.742217 
L 777.743809 177.575927 
L 778.917905 174.482199 
L 780.289778 171.501053 
L 781.743837 168.817132 
L 782.340235 168.129258 
L 783.446929 167.312803 
L 784.125359 166.627045 
L 784.697659 165.704439 
L 785.400112 164.101455 
L 787.128151 159.342759 
L 789.28346 153.736278 
L 790.690522 150.613474 
L 791.604103 149.055857 
L 792.399256 148.101154 
L 792.965604 147.75052 
L 795.633155 146.576703 
L 797.000058 145.509414 
L 799.550792 143.407562 
L 800.941749 142.666302 
L 802.438415 141.858299 
L 803.360324 141.040353 
L 804.917763 139.301926 
L 806.874832 136.764801 
L 808.39526 134.915298 
L 809.496683 133.914919 
L 810.40835 133.367097 
L 811.469791 133.024695 
L 812.884894 132.527818 
L 814.148817 131.810868 
L 815.918887 130.530209 
L 818.08254 129.002755 
L 819.372444 128.432341 
L 821.628926 127.435759 
L 824.654695 125.769835 
L 826.783923 124.219463 
L 830.587716 121.522207 
L 834.117004 118.825077 
L 835.65725 117.287193 
L 837.120943 115.488437 
L 838.315815 114.171752 
L 839.430278 113.311297 
L 840.722229 112.5816 
L 843.957068 110.880192 
L 845.794513 109.431946 
L 847.20681 108.424288 
L 848.553209 107.758456 
L 849.978275 107.005772 
L 851.3446 106.006688 
L 855.724387 102.680158 
L 857.860066 101.81143 
L 862.878782 99.829436 
L 864.264557 98.974989 
L 869.287525 95.375941 
L 871.289315 93.347944 
L 874.023136 90.757349 
L 877.316394 88.276954 
L 878.513131 87.50262 
L 879.889854 86.929991 
L 882.304143 85.921843 
L 883.787603 85.019784 
L 886.852707 83.183684 
L 889.503335 81.605239 
L 891.846097 80.279021 
L 893.719827 79.260876 
L 897.561164 76.975075 
L 899.665022 75.821292 
L 901.846803 74.685658 
L 904.700443 73.609585 
L 906.834743 72.493667 
L 908.562987 71.575037 
L 911.086197 70.425281 
L 915.257477 67.929395 
L 917.189879 67.012687 
L 919.079693 65.860266 
L 920.368988 65.197866 
L 921.886573 64.31578 
L 924.452016 62.784314 
L 926.951468 61.55176 
L 928.326629 60.300065 
L 929.476156 59.372203 
L 931.435367 57.906876 
L 932.330063 57.135586 
L 933.537664 56.563284 
L 935.218386 55.622947 
L 935.71537 55.045533 
L 936.344209 54.265088 
L 936.933304 53.990139 
L 938.562084 53.319396 
L 940.359117 52.384335 
L 942.135946 51.728031 
L 943.950832 50.659308 
L 945.010072 50.135742 
L 946.895625 49.072641 
L 948.845138 48.41455 
L 949.886477 47.876655 
L 949.881049 47.866369 
L 949.681414 47.758559 
L 948.932514 47.664238 
L 946.41169 47.637237 
L 910.316772 47.77563 
L 896.838445 48.019346 
L 888.762541 48.287846 
L 880.124813 48.853853 
L 876.145335 49.217966 
L 871.629581 49.970023 
L 868.219319 50.354224 
L 857.636335 52.226347 
L 856.294687 52.821588 
L 855.048019 53.309953 
L 853.557811 53.587571 
L 850.948902 54.084177 
L 850.078894 54.529965 
L 848.348241 55.552414 
L 847.167521 55.791923 
L 843.358078 56.474741 
L 839.907369 57.594988 
L 838.596242 58.029715 
L 837.448213 58.656631 
L 836.654176 59.327359 
L 835.087085 60.74353 
L 833.870498 61.502728 
L 830.007623 63.34635 
L 827.460067 63.973437 
L 824.430119 64.868518 
L 820.130124 66.385439 
L 818.455051 66.899945 
L 816.148519 67.876451 
L 814.416167 68.846854 
L 811.229913 70.743493 
L 808.592472 71.942563 
L 806.360842 73.034172 
L 804.706288 73.889212 
L 800.823808 76.174107 
L 798.356613 77.459286 
L 792.542071 80.944233 
L 788.906729 83.845008 
L 788.022909 84.864433 
L 786.398529 87.155527 
L 784.798609 89.317649 
L 783.87329 90.18421 
L 781.199568 92.3113 
L 778.575988 94.006587 
L 776.578635 95.125613 
L 775.561952 96.025481 
L 774.497936 97.262699 
L 773.602481 98.653855 
L 772.621356 100.590149 
L 771.543206 103.266759 
L 770.557261 106.363257 
L 769.655601 109.909361 
L 767.911582 117.376359 
L 766.993456 119.738922 
L 765.161504 123.679554 
L 763.61701 126.564469 
L 761.922127 129.111836 
L 760.06492 131.91615 
L 759.185383 133.668896 
L 756.651154 139.351557 
L 755.988825 141.880383 
L 754.083205 149.352456 
L 752.368711 154.910409 
L 750.274236 160.960164 
L 747.728158 167.556121 
L 746.862934 168.23103 
L 745.038284 169.648322 
L 742.920772 171.706489 
L 740.190224 174.206944 
L 738.899262 175.028986 
L 736.762466 176.110969 
L 735.045367 177.015713 
L 733.166861 178.347137 
L 730.708155 180.081848 
L 728.546205 181.261354 
L 726.17019 182.639394 
L 724.053604 184.11843 
L 721.79656 185.652392 
L 719.702171 186.816429 
L 718.218144 187.708174 
L 717.04798 188.715926 
L 715.03999 190.831804 
L 713.295519 192.540083 
L 711.643729 193.837826 
L 708.965844 195.686206 
L 706.901815 196.866203 
L 704.675713 198.13457 
L 702.998729 199.329097 
L 701.530805 200.655089 
L 700.287981 202.09147 
L 698.621215 204.024667 
L 696.673109 205.874878 
L 694.809051 207.391186 
L 692.522284 208.9051 
L 685.332988 213.494341 
L 683.106692 215.309412 
L 681.32717 217.140703 
L 678.073459 220.723191 
L 675.714254 223.218457 
L 673.85494 224.641851 
L 670.229175 227.293877 
L 666.847275 229.580488 
L 665.708007 230.507135 
L 659.498267 236.207612 
L 658.027375 237.178453 
L 650.330302 241.999953 
L 648.850091 243.424033 
L 647.031747 245.555894 
L 644.873064 248.078756 
L 643.186226 249.696714 
L 641.532886 250.994942 
L 636.329888 254.772171 
L 634.892795 256.101108 
L 633.400153 257.84009 
L 631.651473 259.774067 
L 629.644138 261.618408 
L 625.335028 265.05845 
L 623.601819 266.219121 
L 620.974818 267.702492 
L 618.717745 269.155448 
L 616.927875 270.514027 
L 615.597908 271.829036 
L 614.518136 273.227707 
L 612.797944 275.549979 
L 611.567983 276.716839 
L 609.387859 278.416442 
L 607.586258 279.351875 
L 606.369179 280.159408 
L 605.016711 281.291726 
L 600.656935 285.354758 
L 595.998971 288.92521 
L 594.423282 289.938403 
L 593.212187 290.995849 
L 592.157543 291.924269 
L 591.26605 292.357385 
L 589.585796 292.885161 
L 587.48617 293.58747 
L 586.583429 294.136044 
L 584.845235 295.284439 
L 583.482761 295.681988 
L 580.142673 296.634883 
L 576.584005 298.143212 
L 574.897965 298.726981 
L 573.219824 299.58476 
L 572.203093 300.048379 
L 570.382975 300.819732 
L 570.306062 301.043034 
L 570.494631 301.20757 
L 571.112728 301.399961 
L 572.619818 301.607417 
L 575.687534 301.774958 
L 580.869817 301.837801 
L 609.476648 301.734515 
L 619.036256 301.499281 
L 624.436806 301.215719 
L 628.318585 300.975531 
L 640.600463 300.298871 
L 647.505118 299.67866 
L 650.269547 299.410291 
L 661.024708 298.482581 
L 662.479097 298.082506 
L 666.126624 296.961048 
L 667.952496 296.59384 
L 670.083526 296.147535 
L 673.620865 295.061616 
L 678.309225 293.537373 
L 681.814522 292.688083 
L 684.009779 292.05252 
L 686.301893 291.460708 
L 689.434611 290.575587 
L 691.777015 289.699421 
L 694.408785 288.495297 
L 697.212804 287.288824 
L 699.778912 286.143128 
L 701.618477 285.055351 
L 704.205817 283.616261 
L 707.082216 282.241538 
L 709.81876 281.251223 
L 714.7806 279.380417 
L 716.999508 278.355402 
L 727.261722 273.021419 
L 731.272869 270.68969 
L 735.008865 269.04188 
L 736.913945 267.776727 
L 737.930933 266.86486 
L 739.054617 265.545107 
L 740.937508 262.959923 
L 742.17538 260.895313 
L 745.62981 254.816579 
L 746.558435 253.792191 
L 747.574278 253.02311 
L 750.250956 251.230022 
L 751.820488 249.743593 
L 753.078602 248.624064 
L 754.499897 247.700674 
L 758.91694 244.948412 
L 759.547155 244.066696 
L 760.35916 242.471478 
L 763.352328 236.431151 
L 764.392215 234.792645 
L 765.260544 233.79862 
L 767.352175 231.674556 
L 767.352175 231.674556 
" clip-path="url(#pfee0bdc938)" style="fill: none; stroke: #440154; stroke-width: 1.5; stroke-linecap: square"/>
   </g>
   <g id="line2d_77">
    <path d="M 769.875375 206.509384 
L 770.652317 204.294107 
L 773.040825 196.844374 
L 775.535854 189.710585 
L 778.121183 181.603032 
L 779.020657 179.952136 
L 780.730385 177.388039 
L 782.181591 175.403965 
L 783.061647 174.745488 
L 786.975324 172.204217 
L 787.674177 171.23171 
L 788.498817 169.691532 
L 789.74932 166.782999 
L 792.95953 158.678386 
L 794.911272 153.889617 
L 796.320711 151.019998 
L 797.19317 149.598802 
L 798.051123 148.631078 
L 799.1816 147.728985 
L 800.545635 146.912502 
L 802.239612 146.161361 
L 805.076761 144.944927 
L 806.565975 143.963124 
L 810.917272 140.794034 
L 813.836783 139.379627 
L 817.206367 137.764629 
L 818.29143 136.90308 
L 819.581596 135.553927 
L 821.276398 133.860113 
L 822.760295 132.688615 
L 824.186443 131.82705 
L 825.553634 130.920852 
L 826.881457 129.713254 
L 828.370922 128.025711 
L 830.569592 125.607063 
L 834.225684 121.698528 
L 837.998222 116.569095 
L 838.978499 115.763814 
L 840.387322 114.918435 
L 849.226222 110.255548 
L 852.313172 108.782109 
L 854.67859 107.360467 
L 857.560339 105.29866 
L 860.161326 103.528232 
L 862.677698 102.069723 
L 863.755093 100.961332 
L 866.5723 98.059972 
L 868.123213 96.726559 
L 869.377028 95.955273 
L 873.749875 93.537458 
L 875.383114 92.235106 
L 879.272643 88.986106 
L 881.814565 87.214945 
L 884.372989 85.697125 
L 885.777507 85.160358 
L 888.555372 84.179107 
L 890.172982 83.31232 
L 891.866506 82.139808 
L 896.15957 79.117992 
L 900.149281 76.659656 
L 902.102107 75.27885 
L 904.164106 74.081802 
L 908.624309 71.689816 
L 910.725214 70.370198 
L 914.15431 68.692392 
L 916.128058 67.700998 
L 917.370488 66.757274 
L 918.806182 65.379152 
L 920.612432 63.63791 
L 921.773505 63.037749 
L 923.905965 61.914285 
L 925.248613 60.88929 
L 927.194581 59.343555 
L 929.608938 58.449204 
L 933.046367 56.755744 
L 935.425943 56.057245 
L 936.171008 55.562985 
L 938.085852 53.849771 
L 938.75652 53.011612 
L 939.610995 52.071542 
L 940.470305 51.414649 
L 941.48148 51.00024 
L 942.947338 50.334844 
L 943.832723 49.697249 
L 946.183927 47.818211 
L 948.0803 46.888497 
L 949.380044 45.985185 
L 952.955032 44.15424 
L 955.291855 43.440413 
L 957.478568 42.440467 
L 959.884281 40.899347 
L 959.774589 40.824789 
L 959.139702 40.679713 
L 957.562585 40.560693 
L 952.889703 40.544354 
L 904.33059 40.741471 
L 892.236622 40.913327 
L 883.198478 41.360259 
L 881.056788 41.770653 
L 879.193599 42.074569 
L 870.354307 43.199739 
L 867.46196 43.952944 
L 864.771424 44.71138 
L 863.421282 45.043289 
L 862.933587 45.405081 
L 862.380062 46.149354 
L 861.54589 47.21602 
L 860.835917 47.768649 
L 860.097175 48.044016 
L 858.818002 48.236616 
L 853.428888 48.896621 
L 850.566855 49.455734 
L 849.337488 49.967033 
L 843.373973 52.800124 
L 840.88248 53.477243 
L 837.677997 55.045017 
L 836.04278 55.796597 
L 833.817063 56.723859 
L 831.709577 57.674139 
L 828.78124 58.683703 
L 826.53323 59.7513 
L 823.132344 60.893376 
L 819.609678 62.958131 
L 815.507753 64.341048 
L 812.677635 65.810735 
L 810.710131 67.169654 
L 808.590246 68.549176 
L 807.20615 69.167169 
L 804.898351 70.137562 
L 803.35506 71.231376 
L 801.115336 72.810088 
L 796.834176 75.30501 
L 795.061029 76.62321 
L 793.069896 78.115192 
L 790.70039 79.735194 
L 785.832185 84.221439 
L 783.939798 86.486766 
L 782.430804 88.656615 
L 780.393726 91.673175 
L 778.843287 93.748584 
L 777.830538 95.554054 
L 776.196155 98.364406 
L 774.277602 101.124862 
L 771.838744 104.58642 
L 770.615164 106.806706 
L 769.874589 108.630124 
L 768.90381 111.823768 
L 767.792126 114.961263 
L 763.508241 126.151166 
L 759.330181 136.32531 
L 757.235027 141.078078 
L 755.206909 145.231791 
L 753.951997 147.912162 
L 749.815839 157.723053 
L 744.519194 172.149269 
L 743.516932 174.256983 
L 742.667779 175.549924 
L 741.803297 176.462534 
L 740.78508 177.190825 
L 739.312079 177.955211 
L 737.716776 178.563929 
L 735.106198 179.500728 
L 733.812201 180.248397 
L 732.300224 181.407732 
L 730.383116 183.179791 
L 726.585423 186.801269 
L 722.107897 190.826963 
L 720.526136 192.689066 
L 719.355957 194.39866 
L 718.164957 196.604513 
L 715.750455 201.282496 
L 713.860923 204.2986 
L 712.744036 205.829513 
L 711.513632 207.039764 
L 709.930963 208.720379 
L 706.798755 212.262606 
L 704.982458 214.08068 
L 703.93535 214.834104 
L 697.115648 218.78602 
L 692.859341 221.277803 
L 690.57383 223.051031 
L 687.150003 225.752857 
L 683.72096 228.077357 
L 682.321388 229.546503 
L 679.723968 232.25949 
L 678.48304 233.237096 
L 677.094734 234.018442 
L 675.236102 235.08016 
L 672.498633 237.040212 
L 670.72893 238.495344 
L 668.800243 240.083985 
L 664.043485 243.652198 
L 661.109328 246.10552 
L 658.965822 247.553841 
L 657.01347 248.937218 
L 653.467425 251.528732 
L 649.513327 254.277711 
L 646.629451 256.242081 
L 645.42873 257.315931 
L 644.305933 258.676575 
L 642.324114 261.070362 
L 640.639908 262.701777 
L 633.703966 268.400436 
L 629.580924 271.053128 
L 624.430103 276.335109 
L 622.642773 277.973375 
L 621.415612 279.150213 
L 620.121449 280.024737 
L 618.462205 281.195635 
L 617.023546 282.510579 
L 612.96692 286.528572 
L 609.990814 288.716708 
L 607.283668 290.165865 
L 606.581731 290.813777 
L 606.341063 291.34803 
L 605.898953 292.458322 
L 603.913598 294.945181 
L 602.320254 295.921613 
L 600.639946 296.760656 
L 598.856681 297.470142 
L 597.515444 298.057502 
L 596.013707 298.767486 
L 594.615956 299.392488 
L 590.415135 301.534131 
L 589.013218 302.566665 
L 587.780862 303.314708 
L 587.856259 303.505851 
L 588.21845 303.713304 
L 589.207027 303.982571 
L 590.804134 304.175631 
L 593.387048 304.220949 
L 622.431293 304.09058 
L 631.660147 303.831824 
L 635.907283 303.508979 
L 638.374499 303.130313 
L 642.37331 302.387348 
L 644.548563 301.943143 
L 651.873955 300.565421 
L 655.32272 299.719039 
L 657.18501 299.102246 
L 662.071595 298.068 
L 665.068087 297.029873 
L 666.449063 296.348139 
L 669.697195 294.690291 
L 671.515281 294.224083 
L 674.982911 293.315785 
L 676.194874 292.676862 
L 677.912763 291.83371 
L 682.090353 290.121515 
L 687.606089 287.989916 
L 691.610707 285.766779 
L 693.249922 285.252672 
L 696.095694 284.371707 
L 699.482398 283.046859 
L 703.131692 281.265235 
L 705.689468 280.054879 
L 717.895722 274.734285 
L 723.239682 271.910141 
L 726.850644 269.741659 
L 729.45131 268.590862 
L 731.683881 267.564502 
L 734.473477 266.011769 
L 735.922546 265.005726 
L 737.833173 263.322436 
L 741.693358 259.692393 
L 742.724859 258.315235 
L 744.170332 255.974797 
L 747.355513 250.797178 
L 750.480929 246.187988 
L 751.8293 244.13689 
L 755.79426 239.159476 
L 757.418763 237.645141 
L 758.452215 236.489844 
L 759.618396 234.865559 
L 761.246767 232.142172 
L 763.326125 228.621601 
L 764.436936 227.246756 
L 765.82042 225.91945 
L 767.272077 224.630548 
L 767.272077 224.630548 
" clip-path="url(#pfee0bdc938)" style="fill: none; stroke: #3b528b; stroke-width: 1.5; stroke-linecap: square"/>
   </g>
   <g id="line2d_78">
    <path d="M 770.131011 196.852391 
L 772.599346 191.393107 
L 773.75618 189.270302 
L 775.116359 187.253824 
L 776.503393 185.599193 
L 777.343159 184.92308 
L 778.116972 184.585819 
L 782.25064 183.189967 
L 783.286718 182.518602 
L 784.301678 181.573187 
L 785.063411 180.562933 
L 785.678292 179.378038 
L 786.421556 177.376693 
L 790.583573 164.566999 
L 792.697793 157.297215 
L 794.000136 154.057467 
L 796.08111 149.569747 
L 796.826821 148.560328 
L 797.740624 147.72748 
L 798.831845 147.021553 
L 799.907683 146.578435 
L 800.993891 146.396742 
L 802.857619 146.082918 
L 804.212908 145.599648 
L 807.226071 144.220112 
L 810.073884 142.724589 
L 813.021033 141.162906 
L 815.373254 140.217137 
L 817.14414 139.103353 
L 820.443944 137.008497 
L 822.995698 135.501556 
L 824.640182 134.321795 
L 829.449866 130.584043 
L 832.088498 128.927247 
L 833.834435 128.181782 
L 837.715902 126.517938 
L 838.902359 125.885466 
L 840.988742 124.406269 
L 843.910057 122.486357 
L 845.063254 122.004787 
L 846.747196 121.351223 
L 848.449928 120.375585 
L 855.058422 116.396466 
L 859.310452 113.44824 
L 860.795254 112.80886 
L 862.503636 112.025834 
L 863.53968 111.222642 
L 866.026028 109.236022 
L 866.979242 108.753025 
L 867.94279 108.541876 
L 869.395882 108.194272 
L 870.708297 107.622137 
L 876.283588 104.656382 
L 877.848522 103.376343 
L 880.911566 100.73881 
L 882.516358 99.755744 
L 885.609977 97.993299 
L 887.62922 96.364019 
L 890.794038 93.810624 
L 892.660195 92.766418 
L 894.189598 92.067737 
L 897.249392 90.951764 
L 898.609953 90.086631 
L 899.877703 88.975485 
L 901.577634 87.522359 
L 902.746045 86.835304 
L 903.885834 86.427933 
L 906.788189 85.506417 
L 908.085749 84.804497 
L 909.107335 84.000127 
L 910.402279 82.576738 
L 914.47051 78.129134 
L 915.091932 77.868062 
L 918.352389 76.904815 
L 921.809585 75.342778 
L 923.324444 74.803362 
L 924.586997 73.982941 
L 925.972627 72.820381 
L 928.910502 70.183751 
L 934.715465 66.685144 
L 936.461058 65.589069 
L 938.276152 64.158141 
L 940.680599 62.220513 
L 942.539561 61.041039 
L 943.630136 60.631066 
L 946.285616 60.003103 
L 948.769888 59.251405 
L 949.718026 58.716549 
L 951.003406 57.670208 
L 952.700891 56.457786 
L 956.767219 53.68191 
L 958.262888 52.287341 
L 960.925331 49.822006 
L 961.535001 49.595611 
L 962.879789 49.410546 
L 964.247883 49.141746 
L 965.510428 48.635486 
L 966.864444 47.854736 
L 967.812632 47.059088 
L 968.701261 46.393166 
L 969.637135 45.994872 
L 970.842117 45.76117 
L 973.458266 45.30877 
L 974.237636 44.946856 
L 974.692072 44.504919 
L 975.055014 43.811708 
L 975.329838 42.768982 
L 975.858507 40.610922 
L 976.302105 40.420035 
L 976.87082 40.259737 
L 976.707263 40.199026 
L 975.692546 40.130716 
L 970.542047 40.117413 
L 897.585079 40.432696 
L 884.07834 40.698981 
L 875.091886 41.251212 
L 874.235416 41.615551 
L 872.044184 42.749561 
L 870.913496 42.957697 
L 869.23456 43.261721 
L 867.021469 43.980727 
L 863.94429 44.904966 
L 862.328658 45.169616 
L 860.312084 45.521326 
L 859.766749 45.835177 
L 859.058626 46.582881 
L 858.00095 47.578961 
L 856.865003 48.350209 
L 855.768573 48.807765 
L 852.050114 50.121173 
L 850.178826 50.44481 
L 848.322725 50.728068 
L 847.387143 51.134062 
L 844.849658 52.653004 
L 841.413558 54.477516 
L 839.886368 55.019277 
L 838.162834 55.627467 
L 836.357255 56.545215 
L 833.685408 57.904922 
L 829.482988 59.86782 
L 821.550609 64.44714 
L 816.455592 67.098118 
L 806.711019 72.891403 
L 802.088401 75.906351 
L 800.453712 77.173367 
L 798.96507 78.615224 
L 796.870166 81.019357 
L 795.275724 83.09546 
L 794.164015 84.92694 
L 792.111312 88.408829 
L 789.105129 92.802068 
L 787.724162 95.24979 
L 786.812543 96.400615 
L 784.564649 98.751811 
L 782.919174 100.170697 
L 779.895886 102.812174 
L 778.742775 104.007309 
L 777.810746 105.286856 
L 776.937778 106.883739 
L 775.926338 109.259798 
L 774.410031 112.782463 
L 773.132558 115.171185 
L 772.256475 116.344233 
L 771.564147 116.922479 
L 770.385574 117.832183 
L 769.703115 118.751988 
L 768.642748 120.622441 
L 767.37841 123.1381 
L 765.745693 126.695147 
L 761.925742 135.494755 
L 760.759696 137.892112 
L 758.166025 143.134573 
L 756.491401 146.988321 
L 753.591171 152.56365 
L 752.092209 155.168058 
L 750.456876 158.081789 
L 749.877599 159.680137 
L 748.502448 163.767324 
L 746.020379 170.586092 
L 743.446939 178.426488 
L 742.287236 180.854089 
L 740.92489 183.229612 
L 740.366411 183.808513 
L 739.571467 184.252701 
L 738.124933 184.781228 
L 736.333971 185.206863 
L 733.559472 185.814541 
L 732.401318 186.355869 
L 730.919298 187.309454 
L 729.512606 188.475319 
L 728.019572 190.073972 
L 726.425144 191.640037 
L 724.278662 193.435589 
L 722.20876 194.786506 
L 720.53646 196.013013 
L 716.0719 199.857131 
L 714.029137 201.485536 
L 712.51839 202.449584 
L 710.151161 203.760233 
L 708.402192 205.251742 
L 699.386964 213.19143 
L 697.562518 214.485767 
L 694.724729 216.488532 
L 693.403119 217.782931 
L 691.317976 219.763183 
L 689.922291 221.206106 
L 688.089127 223.195426 
L 684.42212 226.800677 
L 683.250932 227.559324 
L 680.932713 228.998912 
L 678.49537 230.94904 
L 675.353183 233.69138 
L 669.580158 237.855498 
L 667.477838 239.730076 
L 665.858688 241.011131 
L 663.833132 242.33463 
L 660.637857 244.318538 
L 659.082236 245.59063 
L 655.63221 248.541999 
L 653.982457 249.494142 
L 651.953029 250.697383 
L 650.551005 251.841248 
L 648.460393 253.909617 
L 646.00629 256.328116 
L 643.4099 258.482562 
L 639.740649 261.898129 
L 637.456075 263.837396 
L 633.853172 266.795955 
L 631.178233 268.554688 
L 630.060117 269.836214 
L 628.967548 271.419927 
L 627.64839 273.323966 
L 626.469193 274.400068 
L 625.218579 275.65238 
L 621.467574 280.064082 
L 619.941583 281.340349 
L 619.163177 281.930663 
L 617.730366 282.643196 
L 613.691177 284.631404 
L 612.288931 285.826328 
L 611.183464 286.390255 
L 609.355316 287.738657 
L 607.910205 288.566077 
L 606.231291 289.874112 
L 604.994251 290.771097 
L 604.015782 291.723678 
L 603.340709 292.445158 
L 602.437324 293.448818 
L 600.655851 294.680811 
L 596.908572 296.535591 
L 596.925558 296.563348 
L 597.180542 296.706076 
L 597.9306 296.840547 
L 599.673157 296.882791 
L 621.462169 296.820936 
L 634.123531 296.654424 
L 639.2558 296.387272 
L 650.747078 295.262243 
L 652.664687 294.874587 
L 657.293942 293.812685 
L 662.10673 292.754608 
L 665.456322 291.800898 
L 669.716091 290.254302 
L 673.022754 288.519636 
L 677.962685 287.038495 
L 682.642417 285.192151 
L 685.041449 284.028798 
L 691.904399 282.236743 
L 693.367582 281.776927 
L 703.925295 277.410744 
L 705.434155 276.781187 
L 706.809832 276.143497 
L 708.424498 275.064451 
L 709.726887 274.351389 
L 711.184688 273.829947 
L 712.559834 273.258655 
L 720.3547 269.486619 
L 724.155431 267.703636 
L 728.426739 265.228835 
L 730.652396 264.317722 
L 733.375404 263.163813 
L 734.464405 262.384763 
L 737.679018 259.952626 
L 740.771217 257.929428 
L 743.017506 256.272993 
L 745.35816 254.240922 
L 746.50242 252.915366 
L 747.73117 251.064721 
L 748.730284 249.130682 
L 749.612148 246.94395 
L 751.179147 243.069306 
L 752.09013 241.473223 
L 752.987036 240.323578 
L 754.51245 238.838268 
L 755.890692 237.311494 
L 758.373744 234.450845 
L 761.316304 231.477745 
L 764.778889 227.183549 
L 765.594764 225.740873 
L 766.845586 222.95985 
L 767.300343 221.811928 
L 767.300343 221.811928 
" clip-path="url(#pfee0bdc938)" style="fill: none; stroke: #21918c; stroke-width: 1.5; stroke-linecap: square"/>
   </g>
   <g id="line2d_79">
    <path d="M 769.76707 197.539124 
L 773.253041 191.693682 
L 774.745173 189.486564 
L 777.961276 185.573293 
L 783.408674 179.957837 
L 784.528768 178.29379 
L 785.970857 175.739822 
L 787.497226 172.529086 
L 789.422735 168.618627 
L 792.381762 162.936625 
L 793.341036 161.859082 
L 795.819527 159.54059 
L 797.051651 158.229686 
L 798.274348 156.614248 
L 803.47339 149.362672 
L 804.853073 148.014277 
L 806.248243 146.909128 
L 808.73582 145.326544 
L 810.315112 144.523602 
L 812.223494 143.835316 
L 813.948579 143.141023 
L 815.082913 142.412543 
L 817.501831 140.516006 
L 819.245493 138.880246 
L 820.572666 137.806077 
L 822.212646 136.786521 
L 823.432087 136.276188 
L 825.904967 135.42322 
L 826.846102 134.745964 
L 828.153627 133.481084 
L 831.360909 130.225186 
L 832.670014 129.450127 
L 836.878292 127.01148 
L 839.033949 125.110339 
L 840.638524 123.86755 
L 843.716407 121.775899 
L 847.069787 119.400702 
L 849.906801 117.574822 
L 851.417922 116.999856 
L 856.963721 114.974034 
L 858.358147 114.085743 
L 859.351512 113.196946 
L 860.542088 111.818526 
L 863.204056 108.707947 
L 864.471972 107.525307 
L 865.538395 106.844506 
L 866.830937 106.321147 
L 868.942098 105.450368 
L 870.575269 104.523155 
L 872.73969 103.267197 
L 874.511795 102.574758 
L 876.461746 101.804159 
L 877.57656 101.054853 
L 879.878997 99.149249 
L 882.840295 96.498268 
L 885.938835 93.711583 
L 887.024432 93.094936 
L 888.493981 92.520964 
L 890.209845 92.07901 
L 893.459626 91.294554 
L 894.285353 90.784814 
L 895.635896 89.633335 
L 898.4621 87.242895 
L 899.486614 86.651828 
L 900.580319 86.313215 
L 901.725866 85.8731 
L 902.664108 85.251732 
L 903.874317 84.152704 
L 906.26415 81.969619 
L 907.66329 80.949621 
L 908.504997 80.564326 
L 909.746329 80.289847 
L 911.344482 79.867249 
L 913.667299 78.983925 
L 916.676399 77.564156 
L 917.80322 76.811402 
L 921.717748 73.958376 
L 925.547463 71.819004 
L 926.716405 70.687367 
L 928.141017 68.961772 
L 929.479563 67.475372 
L 930.441461 66.746616 
L 931.337123 66.335392 
L 932.700268 66.011769 
L 936.58016 65.182082 
L 938.462858 64.533952 
L 939.876416 64.044921 
L 940.89877 63.384435 
L 942.4 62.185735 
L 943.620399 60.932822 
L 944.333934 59.898277 
L 945.524674 58.058264 
L 946.422514 57.195814 
L 947.209949 56.730653 
L 947.965451 56.533219 
L 951.280399 55.966205 
L 952.558772 55.408512 
L 955.139893 53.919324 
L 956.125116 53.036622 
L 957.3425 52.032992 
L 958.210912 51.645176 
L 959.308586 51.395548 
L 962.109997 50.88026 
L 962.634388 50.45121 
L 963.176215 49.698173 
L 964.66415 47.387144 
L 965.394236 46.755771 
L 966.501753 46.152247 
L 969.43089 44.496694 
L 970.293026 44.098954 
L 972.071968 43.596331 
L 972.014296 43.516468 
L 971.608006 43.314694 
L 970.531736 43.040722 
L 969.09443 42.912474 
L 964.362604 42.910374 
L 929.626902 43.043237 
L 902.458412 43.490218 
L 889.864721 43.943012 
L 883.941511 44.345349 
L 881.575575 44.689449 
L 876.146395 45.073128 
L 873.483809 45.363387 
L 870.521875 45.603494 
L 867.37723 46.186109 
L 865.320996 46.580944 
L 862.797041 46.70934 
L 860.802882 46.923117 
L 860.040231 47.253092 
L 858.803273 48.077185 
L 857.226664 49.380107 
L 855.2147 51.244809 
L 853.612424 52.36076 
L 852.79337 52.647484 
L 850.757781 52.981803 
L 847.813203 53.673166 
L 846.92045 54.032051 
L 845.831656 54.80493 
L 843.242123 56.617702 
L 840.708332 57.982074 
L 838.860607 59.215375 
L 837.779873 59.64977 
L 836.429051 59.940483 
L 834.828655 60.309554 
L 833.674832 60.89685 
L 829.359872 63.347464 
L 823.690747 65.644915 
L 821.564219 66.808053 
L 819.621804 67.55457 
L 816.907408 68.643316 
L 815.438142 69.441107 
L 814.018573 70.544377 
L 811.486628 72.448663 
L 809.493619 73.690356 
L 804.351684 76.599213 
L 798.081979 81.105796 
L 796.80638 82.125834 
L 795.786221 83.217929 
L 792.404283 87.207678 
L 790.841149 88.580653 
L 788.324163 90.519311 
L 786.40253 92.940257 
L 784.580726 95.460202 
L 782.894207 97.74803 
L 781.551839 99.070699 
L 780.100209 100.624859 
L 777.291783 104.008873 
L 771.94694 111.459795 
L 769.970536 114.952523 
L 769.211168 116.888216 
L 768.032328 120.020309 
L 763.493549 130.845008 
L 761.011761 135.34425 
L 760.14806 136.521719 
L 759.235631 137.351511 
L 756.115589 139.92538 
L 754.799636 141.465897 
L 753.91483 142.799211 
L 752.914882 144.774604 
L 751.112977 149.037087 
L 747.476277 158.278731 
L 746.710946 160.79946 
L 745.858984 163.615656 
L 743.855082 168.816776 
L 741.462133 175.622949 
L 740.028039 179.371696 
L 738.809631 181.887265 
L 737.802397 183.448795 
L 736.913545 184.451273 
L 736.168682 184.975476 
L 735.347531 185.25887 
L 732.691929 186.028352 
L 731.135793 186.846704 
L 728.238374 188.611551 
L 725.861454 190.432532 
L 722.27555 193.351254 
L 719.75695 194.888766 
L 718.405494 196.154785 
L 714.274464 200.211622 
L 712.903013 201.111342 
L 710.882977 202.158707 
L 709.225989 203.05414 
L 708.010583 204.011411 
L 703.208554 207.926731 
L 700.167544 209.981578 
L 695.134395 213.652523 
L 691.243631 216.212348 
L 682.420774 223.59544 
L 680.353853 225.588974 
L 676.956943 228.50976 
L 671.285017 232.865179 
L 662.534942 240.099762 
L 661.203011 240.828293 
L 658.611696 242.21332 
L 657.567995 243.045927 
L 655.483881 245.121003 
L 652.130887 248.359636 
L 644.999293 255.107288 
L 642.015144 257.118059 
L 639.578499 258.580776 
L 636.547773 261.136034 
L 633.823906 263.200079 
L 631.917277 264.440249 
L 630.244797 266.087909 
L 626.649264 269.464279 
L 624.232509 271.198431 
L 622.61551 272.427729 
L 619.613359 274.476915 
L 617.331602 276.192708 
L 614.63308 277.620234 
L 613.836467 278.26945 
L 613.137616 279.174893 
L 610.016436 283.557951 
L 609.137899 284.234021 
L 608.561865 284.7692 
L 608.244887 285.449586 
L 607.762764 286.232271 
L 605.926449 288.158576 
L 603.36147 290.12103 
L 602.169372 290.789133 
L 600.658188 291.502752 
L 599.409242 291.933377 
L 598.372681 292.37891 
L 596.36454 293.448852 
L 593.526686 294.169916 
L 591.39477 294.698661 
L 590.690311 295.091193 
L 589.313756 295.988357 
L 588.888105 296.341038 
L 588.868147 296.601811 
L 589.096897 296.867025 
L 589.625371 297.10701 
L 590.736017 297.327137 
L 593.058028 297.526137 
L 596.005164 297.556895 
L 621.096544 297.437363 
L 630.307581 297.221964 
L 635.189761 296.894771 
L 638.550707 296.359618 
L 640.011767 296.003434 
L 642.203491 295.515604 
L 643.657739 295.164958 
L 645.620482 294.586077 
L 648.042684 294.199571 
L 651.774092 293.678752 
L 659.661647 292.274904 
L 661.010876 291.817864 
L 662.40246 291.460747 
L 666.107595 290.588914 
L 673.071781 288.286012 
L 675.729737 287.120871 
L 677.424773 286.176231 
L 678.906577 285.649324 
L 680.41652 285.119552 
L 681.927884 284.165907 
L 683.403306 283.452164 
L 684.686932 282.715955 
L 686.356565 281.728378 
L 689.417141 280.165184 
L 697.660525 277.566242 
L 700.657825 276.316925 
L 706.109878 274.203907 
L 710.13116 272.486567 
L 712.636114 271.324335 
L 716.440223 269.483966 
L 719.691733 268.065068 
L 722.269474 266.559732 
L 727.559281 263.755771 
L 730.158867 262.719731 
L 733.683853 261.426415 
L 735.678845 260.4334 
L 738.017942 258.987007 
L 739.782205 257.617398 
L 743.206771 254.682254 
L 745.430142 252.312016 
L 747.108416 250.216677 
L 748.164822 248.53993 
L 749.253831 246.34431 
L 753.088599 238.642634 
L 753.907261 237.589863 
L 755.356028 236.182396 
L 761.369441 230.326514 
L 762.581483 228.424705 
L 763.805867 226.107589 
L 764.987568 223.363014 
L 767.816293 216.296154 
L 767.816293 216.296154 
" clip-path="url(#pfee0bdc938)" style="fill: none; stroke: #5ec962; stroke-width: 1.5; stroke-linecap: square"/>
   </g>
   <g id="line2d_80">
    <path d="M 769.932752 199.181875 
L 771.169927 195.105146 
L 772.418922 191.863901 
L 773.572724 189.485998 
L 774.508545 187.982669 
L 775.21735 187.221216 
L 775.986118 186.740327 
L 777.150985 186.303201 
L 780.229299 185.226061 
L 780.747224 184.727717 
L 781.277669 183.859794 
L 782.013433 182.188853 
L 784.117441 177.178585 
L 788.876008 166.893845 
L 789.598712 165.957732 
L 790.411103 165.267237 
L 791.394049 164.73344 
L 792.848138 164.216805 
L 795.140624 163.418196 
L 796.062309 162.804713 
L 796.852255 162.001057 
L 797.859178 160.64719 
L 799.828138 157.916835 
L 802.309075 154.492214 
L 805.992231 149.136721 
L 808.307276 146.04997 
L 809.32294 145.017248 
L 810.534275 144.102226 
L 811.751567 143.446993 
L 812.918208 143.098396 
L 814.900378 142.507722 
L 815.825265 141.992951 
L 816.635993 141.266402 
L 820.991661 136.991033 
L 822.24862 136.233895 
L 824.807656 135.048063 
L 826.781896 134.321779 
L 830.020208 133.198883 
L 831.264937 132.442178 
L 832.618561 131.358043 
L 834.065005 129.932653 
L 836.380371 127.589652 
L 838.23342 126.233941 
L 841.083984 124.365826 
L 847.483554 120.138779 
L 849.189719 119.280635 
L 852.398056 117.299305 
L 853.602831 116.901843 
L 855.057739 116.382049 
L 857.021325 115.367654 
L 858.225925 114.517171 
L 859.679548 113.180397 
L 861.695229 111.331466 
L 863.72389 109.846357 
L 866.587253 108.101522 
L 867.794071 107.542225 
L 871.529858 106.13641 
L 873.188715 104.986077 
L 877.596923 101.970302 
L 886.232252 96.622984 
L 893.693585 91.369744 
L 895.087249 90.930291 
L 899.681731 89.452126 
L 901.346384 88.795009 
L 902.489992 88.118389 
L 903.648513 87.162021 
L 905.527472 85.285565 
L 907.266118 83.700731 
L 912.043642 79.960169 
L 912.975834 79.517941 
L 914.30115 79.203486 
L 919.258579 78.122724 
L 920.757856 77.513099 
L 922.230974 76.611793 
L 928.166111 72.473009 
L 930.059698 70.493391 
L 931.06054 69.10568 
L 931.72063 67.812399 
L 932.291748 66.786597 
L 932.834858 66.341368 
L 933.632521 65.985203 
L 936.883642 64.726946 
L 940.464397 63.015052 
L 941.541913 62.874365 
L 942.516321 62.662711 
L 943.178537 62.281729 
L 944.159599 61.381392 
L 945.142468 60.573512 
L 946.222496 60.023696 
L 947.72992 59.480132 
L 951.110767 58.581016 
L 952.618881 58.238147 
L 953.013596 57.898155 
L 953.673307 56.883417 
L 955.216389 54.555604 
L 955.976127 53.654483 
L 956.785787 53.201088 
L 961.73873 50.948273 
L 962.89336 50.740234 
L 965.109 50.37769 
L 965.629153 49.977025 
L 966.546191 48.943176 
L 967.203337 47.922432 
L 967.77627 47.022737 
L 968.211592 46.451917 
L 968.063327 46.246893 
L 967.618949 46.0553 
L 966.646139 45.909616 
L 964.547004 45.870975 
L 927.717279 45.995412 
L 880.598896 46.31087 
L 873.892691 46.594801 
L 868.733721 46.755346 
L 865.14899 47.149868 
L 863.303881 47.359495 
L 861.081211 47.929473 
L 856.11143 49.29077 
L 855.075849 50.129822 
L 853.821506 51.140081 
L 852.296846 51.858472 
L 850.244694 52.754392 
L 849.670977 53.401205 
L 849.00908 54.466671 
L 848.233511 55.723021 
L 847.349448 56.720971 
L 846.238201 57.632962 
L 845.489347 57.945927 
L 843.061831 58.742398 
L 841.334372 59.593434 
L 840.334092 59.820365 
L 837.972432 60.262589 
L 836.532931 60.814112 
L 830.011277 63.624312 
L 828.561959 63.901746 
L 826.069307 64.362977 
L 825.265161 64.780688 
L 824.367893 65.525776 
L 821.394653 68.148494 
L 820.354303 68.718439 
L 818.22431 69.519564 
L 815.988895 70.450898 
L 815.005561 71.241462 
L 812.46687 73.625723 
L 811.201692 74.659794 
L 810.222744 75.179328 
L 808.758321 75.670253 
L 805.767771 76.64881 
L 804.496013 77.327816 
L 799.378179 80.547115 
L 796.609207 82.568809 
L 794.788431 84.228696 
L 791.559326 87.503522 
L 790.375266 89.341374 
L 789.16692 91.079236 
L 786.988305 93.693845 
L 786.084582 94.423267 
L 784.830784 95.110205 
L 783.512755 95.896401 
L 782.776146 96.598056 
L 781.162708 98.638696 
L 777.69439 103.089468 
L 776.428647 104.744353 
L 773.201782 109.529161 
L 770.81391 113.447377 
L 769.820881 115.591948 
L 768.714378 118.610567 
L 767.24634 122.541101 
L 766.401418 124.136647 
L 765.063749 126.163335 
L 763.974178 127.400704 
L 762.632411 128.564667 
L 761.25478 129.867231 
L 760.131692 131.271684 
L 759.082145 132.957775 
L 756.46255 138.013924 
L 755.000165 141.20107 
L 753.139859 145.267108 
L 751.211469 149.042055 
L 749.184614 152.87967 
L 748.080345 155.588323 
L 745.125368 163.651568 
L 743.7944 167.116716 
L 739.63646 176.819935 
L 738.557487 178.21674 
L 736.943683 179.957466 
L 736.212454 180.439488 
L 735.123303 180.830953 
L 732.577568 181.720858 
L 730.815476 182.640164 
L 728.024087 184.396448 
L 726.549117 185.57577 
L 724.728115 187.361549 
L 722.58757 189.385217 
L 720.365465 191.081537 
L 718.448812 192.297062 
L 716.801266 193.405915 
L 715.450517 194.658251 
L 710.874066 199.092943 
L 709.611382 199.930472 
L 703.927137 203.324424 
L 701.44039 205.00857 
L 696.65139 208.63423 
L 691.824836 211.916493 
L 682.564075 219.612164 
L 680.638889 221.324268 
L 678.918377 222.555681 
L 676.977839 223.594238 
L 674.138012 225.177129 
L 672.319962 226.600863 
L 669.72145 228.591326 
L 667.614444 230.13658 
L 666.017176 231.639809 
L 659.353363 238.257906 
L 656.095258 240.685686 
L 654.615346 241.708755 
L 652.549184 243.544012 
L 650.08162 245.52886 
L 646.9729 247.931665 
L 643.912086 250.513168 
L 641.851883 251.777312 
L 637.776466 254.251667 
L 634.788572 256.527542 
L 632.571927 258.772772 
L 629.101362 262.077758 
L 628.051027 262.834766 
L 623.930609 265.497251 
L 620.154382 268.805733 
L 617.376639 271.792357 
L 616.045905 273.146928 
L 614.688383 274.127571 
L 610.933636 276.64886 
L 604.77518 281.084041 
L 603.244576 282.028778 
L 601.979117 282.534239 
L 599.889106 283.307635 
L 597.481802 284.349317 
L 595.857651 284.956544 
L 594.233568 286.02849 
L 593.96729 286.568992 
L 593.5261 287.381476 
L 592.775856 288.186566 
L 590.75109 290.150448 
L 588.789415 291.278525 
L 587.320017 292.211616 
L 586.442527 292.650434 
L 583.664843 293.755112 
L 582.058993 294.784844 
L 581.177688 295.131408 
L 579.287894 295.78869 
L 579.219057 296.005756 
L 579.42414 296.219292 
L 579.956192 296.433615 
L 581.135104 296.624426 
L 583.449841 296.725677 
L 590.485743 296.744167 
L 622.735019 296.609597 
L 632.930413 296.409756 
L 637.949552 296.104651 
L 643.716398 295.516495 
L 645.877407 295.031086 
L 647.485967 294.739186 
L 655.132676 293.753367 
L 660.445329 292.884142 
L 664.171071 292.080516 
L 665.491003 291.77774 
L 667.612924 291.232993 
L 669.981644 290.665079 
L 671.753957 289.941245 
L 674.922567 288.442834 
L 675.696794 287.827211 
L 676.89623 286.822588 
L 679.351372 285.318508 
L 680.714097 284.743419 
L 692.671942 280.636459 
L 696.224377 278.962136 
L 700.101099 277.034421 
L 704.890866 274.509214 
L 707.10398 273.444357 
L 711.507512 271.667498 
L 713.300805 270.833029 
L 715.692836 269.284445 
L 717.811488 268.117678 
L 719.731878 267.329919 
L 722.15388 266.302872 
L 727.539941 263.44272 
L 730.038128 261.74778 
L 732.447304 260.078289 
L 734.441099 259.055852 
L 738.508017 256.940966 
L 739.715588 255.9273 
L 740.767311 254.784696 
L 741.890321 253.220303 
L 743.92391 249.758819 
L 747.446839 243.933013 
L 749.879079 240.163638 
L 751.82735 236.749769 
L 752.988068 235.332707 
L 755.263399 233.029463 
L 759.235691 229.151814 
L 763.400323 225.798521 
L 767.113021 222.76308 
L 767.113021 222.76308 
" clip-path="url(#pfee0bdc938)" style="fill: none; stroke: #fde725; stroke-width: 1.5; stroke-linecap: square"/>
   </g>
   <g id="patch_8">
    <path d="M 549.965 318.04 
L 549.965 26.88 
" style="fill: none; stroke: #000000; stroke-width: 0.8; stroke-linejoin: miter; stroke-linecap: square"/>
   </g>
   <g id="patch_9">
    <path d="M 997.2 318.04 
L 997.2 26.88 
" style="fill: none; stroke: #000000; stroke-width: 0.8; stroke-linejoin: miter; stroke-linecap: square"/>
   </g>
   <g id="patch_10">
    <path d="M 549.965 318.04 
L 997.2 318.04 
" style="fill: none; stroke: #000000; stroke-width: 0.8; stroke-linejoin: miter; stroke-linecap: square"/>
   </g>
   <g id="patch_11">
    <path d="M 549.965 26.88 
L 997.2 26.88 
" style="fill: none; stroke: #000000; stroke-width: 0.8; stroke-linejoin: miter; stroke-linecap: square"/>
   </g>
   <g id="text_40">
    <text style="font: 12px 'DejaVu Sans', 'Bitstream Vera Sans', 'Computer Modern Sans Serif', 'Lucida Grande', 'Verdana', 'Geneva', 'Lucid', 'Arial', 'Helvetica', 'Avant Garde', sans-serif; text-anchor: middle" x="773.5825" y="20.88" transform="rotate(-0 773.5825 20.88)">Stiffness tests</text>
   </g>
   <g id="legend_1">
    <g id="patch_12">
     <path d="M 555.915 108.538438 
L 683.282187 108.538438 
Q 684.982188 108.538438 684.982188 106.838438 
L 684.982188 32.83 
Q 684.982188 31.13 683.282187 31.13 
L 555.915 31.13 
Q 554.215 31.13 554.215 32.83 
L 554.215 106.838438 
Q 554.215 108.538438 555.915 108.538438 
z
" style="fill: #ffffff; opacity: 0.8; stroke: #cccccc; stroke-linejoin: miter"/>
    </g>
    <g id="line2d_81">
     <path d="M 557.615 38.013672 
L 566.115 38.013672 
L 574.615 38.013672 
" style="fill: none; stroke: #d62728; stroke-width: 1.5; stroke-linecap: square"/>
    </g>
    <g id="text_41">
     <text style="font: 8.5px 'DejaVu Sans', 'Bitstream Vera Sans', 'Computer Modern Sans Serif', 'Lucida Grande', 'Verdana', 'Geneva', 'Lucid', 'Arial', 'Helvetica', 'Avant Garde', sans-serif; text-anchor: start" x="581.415" y="40.988672" transform="rotate(-0 581.415 40.988672)">\ld{initial}</text>
    </g>
    <g id="line2d_82">
     <path d="M 557.615 50.490078 
L 566.115 50.490078 
L 574.615 50.490078 
" style="fill: none; stroke: #440154; stroke-width: 1.5; stroke-linecap: square"/>
    </g>
    <g id="text_42">
     <text style="font: 8.5px 'DejaVu Sans', 'Bitstream Vera Sans', 'Computer Modern Sans Serif', 'Lucida Grande', 'Verdana', 'Geneva', 'Lucid', 'Arial', 'Helvetica', 'Avant Garde', sans-serif; text-anchor: start" x="581.415" y="53.465078" transform="rotate(-0 581.415 53.465078)">\ld{after run-in}</text>
    </g>
    <g id="line2d_83">
     <path d="M 557.615 62.966484 
L 566.115 62.966484 
L 574.615 62.966484 
" style="fill: none; stroke: #3b528b; stroke-width: 1.5; stroke-linecap: square"/>
    </g>
    <g id="text_43">
     <text style="font: 8.5px 'DejaVu Sans', 'Bitstream Vera Sans', 'Computer Modern Sans Serif', 'Lucida Grande', 'Verdana', 'Geneva', 'Lucid', 'Arial', 'Helvetica', 'Avant Garde', sans-serif; text-anchor: start" x="581.415" y="65.941484" transform="rotate(-0 581.415 65.941484)">\ld{preload increase 1}</text>
    </g>
    <g id="line2d_84">
     <path d="M 557.615 75.442891 
L 566.115 75.442891 
L 574.615 75.442891 
" style="fill: none; stroke: #21918c; stroke-width: 1.5; stroke-linecap: square"/>
    </g>
    <g id="text_44">
     <text style="font: 8.5px 'DejaVu Sans', 'Bitstream Vera Sans', 'Computer Modern Sans Serif', 'Lucida Grande', 'Verdana', 'Geneva', 'Lucid', 'Arial', 'Helvetica', 'Avant Garde', sans-serif; text-anchor: start" x="581.415" y="78.417891" transform="rotate(-0 581.415 78.417891)">\ld{preload increase 2}</text>
    </g>
    <g id="line2d_85">
     <path d="M 557.615 87.919297 
L 566.115 87.919297 
L 574.615 87.919297 
" style="fill: none; stroke: #5ec962; stroke-width: 1.5; stroke-linecap: square"/>
    </g>
    <g id="text_45">
     <text style="font: 8.5px 'DejaVu Sans', 'Bitstream Vera Sans', 'Computer Modern Sans Serif', 'Lucida Grande', 'Verdana', 'Geneva', 'Lucid', 'Arial', 'Helvetica', 'Avant Garde', sans-serif; text-anchor: start" x="581.415" y="90.894297" transform="rotate(-0 581.415 90.894297)">\ld{preload increase 3}</text>
    </g>
    <g id="line2d_86">
     <path d="M 557.615 100.395703 
L 566.115 100.395703 
L 574.615 100.395703 
" style="fill: none; stroke: #fde725; stroke-width: 1.5; stroke-linecap: square"/>
    </g>
    <g id="text_46">
     <text style="font: 8.5px 'DejaVu Sans', 'Bitstream Vera Sans', 'Computer Modern Sans Serif', 'Lucida Grande', 'Verdana', 'Geneva', 'Lucid', 'Arial', 'Helvetica', 'Avant Garde', sans-serif; text-anchor: start" x="581.415" y="103.370703" transform="rotate(-0 581.415 103.370703)">\ld{preload increase 4}</text>
    </g>
   </g>
  </g>
 </g>
 <defs>
  <clipPath id="pdcc4ce8fb9">
   <rect x="56.09" y="26.88" width="447.235" height="291.16"/>
  </clipPath>
  <clipPath id="pfee0bdc938">
   <rect x="549.965" y="26.88" width="447.235" height="291.16"/>
  </clipPath>
 </defs>
</svg>
