<?xml version="1.0" encoding="UTF-8" standalone="no"?>
<!-- Created with Inkscape (http://www.inkscape.org/) -->

<svg
   width="223.47154mm"
   height="167.69653mm"
   viewBox="0 0 223.47155 167.69654"
   version="1.1"
   id="svg1"
   xml:space="preserve"
   inkscape:version="1.3.2 (091e20e, 2023-11-25, custom)"
   sodipodi:docname="cycloid_parameters.svg"
   xmlns:inkscape="http://www.inkscape.org/namespaces/inkscape"
   xmlns:sodipodi="http://sodipodi.sourceforge.net/DTD/sodipodi-0.dtd"
   xmlns="http://www.w3.org/2000/svg"
   xmlns:svg="http://www.w3.org/2000/svg"><sodipodi:namedview
     id="namedview1"
     pagecolor="#ffffff"
     bordercolor="#000000"
     borderopacity="0.25"
     inkscape:showpageshadow="2"
     inkscape:pageopacity="0.0"
     inkscape:pagecheckerboard="0"
     inkscape:deskcolor="#d1d1d1"
     inkscape:document-units="mm"
     inkscape:zoom="1"
     inkscape:cx="410"
     inkscape:cy="311.5"
     inkscape:window-width="1920"
     inkscape:window-height="1000"
     inkscape:window-x="-9"
     inkscape:window-y="-9"
     inkscape:window-maximized="1"
     inkscape:current-layer="layer1" /><defs
     id="defs1"><clipPath
       clipPathUnits="userSpaceOnUse"
       id="clipPath1"><circle
         style="fill:none;stroke:#000000;stroke-width:0.94231;stroke-linejoin:round;paint-order:stroke fill markers"
         id="circle1"
         cx="280.59329"
         cy="618.51056"
         r="39.25795" /></clipPath><marker
       style="overflow:visible"
       id="TriangleOutM-9"
       refX="0"
       refY="0"
       orient="auto"
       inkscape:stockid="TriangleOutM"
       inkscape:isstock="true"><path
         transform="scale(0.4)"
         style="fill:context-stroke;fill-rule:evenodd;stroke:context-stroke;stroke-width:1pt"
         d="M 5.77,0 -2.88,5 V -5 Z"
         id="path1551-3" /></marker><clipPath
       id="pbdbe92e955-2"><rect
         x="90"
         y="86.400002"
         width="558"
         height="554.40002"
         id="rect324-06" /></clipPath><clipPath
       id="pbdbe92e955"><rect
         x="90"
         y="86.400002"
         width="558"
         height="554.40002"
         id="rect324" /></clipPath><clipPath
       id="clipPath1-0"><rect
         x="90"
         y="86.400002"
         width="558"
         height="554.40002"
         id="rect1" /></clipPath><clipPath
       id="pbdbe92e955-9"><rect
         x="90"
         y="86.400002"
         width="558"
         height="554.40002"
         id="rect324-3" /></clipPath><clipPath
       id="clipPath1-4"><rect
         x="90"
         y="86.400002"
         width="558"
         height="554.40002"
         id="rect1-2" /></clipPath><clipPath
       id="clipPath2"><rect
         x="90"
         y="86.400002"
         width="558"
         height="554.40002"
         id="rect2" /></clipPath><marker
       style="overflow:visible"
       id="marker14"
       refX="0"
       refY="0"
       orient="auto-start-reverse"
       inkscape:stockid="Stylized triangle arrow"
       markerWidth="1"
       markerHeight="1"
       viewBox="0 0 1 1"
       inkscape:isstock="true"
       inkscape:collect="always"
       preserveAspectRatio="xMidYMid"><path
         style="fill:context-stroke;fill-rule:evenodd;stroke:context-stroke;stroke-width:0.5pt"
         d="m -0.77924107,0 c 1.5,0.5 3.49999997,1.5 4.49999997,2.5 0,0 0,-2 -1,-2.5 1,-0.5 1,-2.5 1,-2.5 -1,1 -2.99999997,2 -4.49999997,2.5 z"
         id="path14" /></marker><marker
       style="overflow:visible"
       id="ArrowTriangleStylized"
       refX="0"
       refY="0"
       orient="auto-start-reverse"
       inkscape:stockid="Stylized triangle arrow"
       markerWidth="1"
       markerHeight="1"
       viewBox="0 0 1 1"
       inkscape:isstock="true"
       inkscape:collect="always"
       preserveAspectRatio="xMidYMid"><path
         style="fill:context-stroke;fill-rule:evenodd;stroke:context-stroke;stroke-width:0.5pt"
         d="m 3,0 c -1.5,0.5 -3.5,1.5 -4.5,2.5 0,0 0,-2 1,-2.5 -1,-0.5 -1,-2.5 -1,-2.5 1,1 3,2 4.5,2.5 z"
         id="path4" /></marker><marker
       style="overflow:visible"
       id="marker14-1"
       refX="0"
       refY="0"
       orient="auto-start-reverse"
       inkscape:stockid="Stylized triangle arrow"
       markerWidth="1"
       markerHeight="1"
       viewBox="0 0 1 1"
       inkscape:isstock="true"
       inkscape:collect="always"
       preserveAspectRatio="xMidYMid"><path
         style="fill:context-stroke;fill-rule:evenodd;stroke:context-stroke;stroke-width:0.5pt"
         d="m -0.77924107,0 c 1.5,0.5 3.49999997,1.5 4.49999997,2.5 0,0 0,-2 -1,-2.5 1,-0.5 1,-2.5 1,-2.5 -1,1 -2.99999997,2 -4.49999997,2.5 z"
         id="path14-4" /></marker><clipPath
       id="pbdbe92e955-9-7"><rect
         x="90"
         y="86.400002"
         width="558"
         height="554.40002"
         id="rect324-3-6" /></clipPath><marker
       style="overflow:visible"
       id="ArrowTriangleStylized-9"
       refX="0"
       refY="0"
       orient="auto-start-reverse"
       inkscape:stockid="Stylized triangle arrow"
       markerWidth="1"
       markerHeight="1"
       viewBox="0 0 1 1"
       inkscape:isstock="true"
       inkscape:collect="always"
       preserveAspectRatio="xMidYMid"><path
         transform="scale(0.5)"
         style="fill:context-stroke;fill-rule:evenodd;stroke:context-stroke;stroke-width:1pt"
         d="m 6,0 c -3,1 -7,3 -9,5 0,0 0,-4 2,-5 -2,-1 -2,-5 -2,-5 2,2 6,4 9,5 z"
         id="path4-0" /></marker><marker
       style="overflow:visible"
       id="ArrowTriangleStylized-9-6"
       refX="0"
       refY="0"
       orient="auto-start-reverse"
       inkscape:stockid="Stylized triangle arrow"
       markerWidth="1"
       markerHeight="1"
       viewBox="0 0 1 1"
       inkscape:isstock="true"
       inkscape:collect="always"
       preserveAspectRatio="xMidYMid"><path
         transform="scale(0.5)"
         style="fill:context-stroke;fill-rule:evenodd;stroke:context-stroke;stroke-width:1pt"
         d="m 6,0 c -3,1 -7,3 -9,5 0,0 0,-4 2,-5 -2,-1 -2,-5 -2,-5 2,2 6,4 9,5 z"
         id="path4-0-1" /></marker></defs><g
     inkscape:label="Layer 1"
     inkscape:groupmode="layer"
     id="layer1"
     transform="translate(76.668968,-467.43732)"><rect
       style="font-variation-settings:normal;opacity:1;fill:#ffffff;fill-opacity:1;fill-rule:evenodd;stroke:none;stroke-width:0.484092;stroke-linecap:butt;stroke-linejoin:miter;stroke-miterlimit:4;stroke-dasharray:none;stroke-dashoffset:0;stroke-opacity:1;paint-order:normal"
       id="rect8"
       width="223.47154"
       height="167.69653"
       x="-76.668968"
       y="467.43732" /><path
       id="path8359-4"
       style="font-variation-settings:normal;fill:#6dd283;fill-opacity:1;fill-rule:evenodd;stroke:#00b126;stroke-width:0.714375;stroke-linecap:square;stroke-linejoin:round;stroke-miterlimit:4;stroke-dasharray:none;stroke-dashoffset:0;stroke-opacity:1;paint-order:markers fill stroke;stop-color:#000000"
       d="m 54.133817,509.11426 a 12.646741,12.566286 0 0 1 -12.64674,12.56628 12.646741,12.566286 0 0 1 -12.64674,-12.56628 12.646741,12.566286 0 0 1 12.64674,-12.56629 12.646741,12.566286 0 0 1 12.64674,12.56629 z m -24.58713,42.31143 a 12.646741,12.566286 0 0 1 -12.64674,12.56629 12.646741,12.566286 0 0 1 -12.6467405,-12.56629 12.646741,12.566286 0 0 1 12.6467405,-12.56628 12.646741,12.566286 0 0 1 12.64674,12.56628 z m 24.58713,42.31142 a 12.646741,12.566286 0 0 1 -12.64674,12.56628 12.646741,12.566286 0 0 1 -12.64674,-12.56628 12.646741,12.566286 0 0 1 12.64674,-12.56629 12.646741,12.566286 0 0 1 12.64674,12.56629 z m 49.174283,0 A 12.646741,12.566286 0 0 1 90.661359,606.30339 12.646741,12.566286 0 0 1 78.014617,593.73711 12.646741,12.566286 0 0 1 90.661359,581.17082 12.646741,12.566286 0 0 1 103.3081,593.73711 Z m 24.58713,-42.31142 a 12.646741,12.566286 0 0 1 -12.64674,12.56629 12.646741,12.566286 0 0 1 -12.64674,-12.56629 12.646741,12.566286 0 0 1 12.64674,-12.56628 12.646741,12.566286 0 0 1 12.64674,12.56628 z M 103.3081,509.11426 A 12.646741,12.566286 0 0 1 90.661359,521.68054 12.646741,12.566286 0 0 1 78.014617,509.11426 12.646741,12.566286 0 0 1 90.661359,496.54797 12.646741,12.566286 0 0 1 103.3081,509.11426 Z m 29.60912,42.31142 0.0394,0.91859 0.11298,0.88606 0.19498,0.91497 0.27018,0.89864 0.36715,0.94105 0.44799,0.93608 0.65878,1.17238 1.60858,2.76912 0.47293,1.01305 0.381,0.99029 0.32869,1.08541 0.2304,1.02736 0.16397,1.09386 0.086,1.15046 v 1.10756 l -0.0795,1.13272 -0.16397,1.14429 -0.22722,1.0542 -0.29887,1.04058 -0.36749,1.01597 -0.46997,1.06088 -0.53675,1.008 -0.56985,0.91001 -0.6629,0.90941 -0.699,0.82731 -0.80245,0.81954 -0.81281,0.71555 -0.88932,0.67455 -0.95292,0.61982 -1.09828,0.61312 -1.78944,0.88516 -1.28818,0.67477 -0.97524,0.59926 -0.83466,0.60742 -0.74446,0.64152 -0.67863,0.69373 -0.5806,0.70456 -0.53154,0.77026 -0.4606,0.8091 -0.37753,0.81621 -0.32477,0.88999 -0.25169,0.91843 -0.18099,0.93984 -0.13236,1.13344 -0.072,1.37451 -0.11568,2.62499 -0.1483,1.20164 -0.21243,1.07504 -0.281,1.02738 -0.37853,1.06748 -0.43243,0.98355 -0.52407,0.99156 -0.61716,0.98466 -0.62539,0.85682 -0.69428,0.82805 -0.75791,0.78883 -0.81457,0.74005 -0.8627,0.68291 -0.90107,0.61893 -0.92873,0.54982 -0.94516,0.47745 -1.06878,0.44909 -1.0595,0.35701 -1.03591,0.26902 -1.10887,0.20399 -1.05353,0.11609 -1.09018,0.0434 -1.20875,-0.036 -1.40458,-0.12777 -2.556381,-0.25389 -1.19741,-0.0225 -1.01024,0.0603 -0.98095,0.13885 -0.88264,0.19958 -0.91423,0.28858 -0.82018,0.337 -0.78861,0.40171 -0.8101,0.50228 -0.78691,0.58799 -0.72497,0.64342 -0.72727,0.75942 -0.716062,0.87175 -0.82957,1.15054 -1.43674,2.02554 -0.74511,0.90238 -0.77553,0.81451 -0.79206,0.71996 -0.89718,0.70244 -0.87249,0.58669 -0.95124,0.54735 -1.02391,0.49543 -1.08754,0.43179 -1.13972,0.35802 -1.09324,0.25934 -1.11468,0.18426 -1.12353,0.10669 -1.16238,0.0283 -1.14402,-0.0536 -1.11236,-0.13124 -1.06875,-0.20233 -1.1241,-0.29805 -1.04729,-0.36232 -0.96431,-0.41246 -0.96375,-0.49527 -0.97849,-0.59556 -0.99441,-0.70385 -1.26242,-1.00307 -1.48778,-1.16948 -0.9915,-0.67197 -0.83803,-0.48013 -0.90074,-0.42598 -0.9186,-0.34258 -0.88081,-0.24611 -0.92711,-0.17636 -0.93999,-0.0958 -0.9176,-0.0156 -0.9836,0.0669 -0.99192,0.15324 -0.94775,0.22441 -1.0483,0.33054 -1.29396,0.5019 -2.63086,1.0554 -1.13642,0.35224 -1.12909,0.26164 -1.10522,0.17056 -1.05143,0.0858 -1.10896,0.0118 -1.15529,-0.0721 -1.03776,-0.13818 -1.0515,-0.21186 -1.05359,-0.28709 -1.04367,-0.36188 -1.02188,-0.43421 -0.98869,-0.50215 -0.94501,-0.56392 -0.89206,-0.61793 -0.83141,-0.66288 -0.8684,-0.79978 -0.77587,-0.82975 -0.72152,-0.89802 -0.61909,-0.9007 -0.52049,-0.88573 -0.48228,-0.96848 -0.43522,-1.04449 -0.47905,-1.37115 -0.7858,-2.28627 -0.41982,-0.97595 -0.48327,-0.92575 -0.49603,-0.78915 -0.52372,-0.70402 -0.61709,-0.70209 -0.69993,-0.66866 -0.75921,-0.60541 -0.78616,-0.52133 -0.77968,-0.4293 -0.86545,-0.39043 -0.90001,-0.32488 -1.06584,-0.29729 -1.28495,-0.26737 -3.20269,-0.61227 -1.13631,-0.32531 -1.05711,-0.3877 -0.9591405,-0.43201 -0.98071,-0.52926 -0.98747,-0.63277 -0.90759,-0.68217 -0.81637,-0.70921 -0.78348,-0.78177 -0.73917,-0.84839 -0.6844,-0.90707 -0.62061,-0.95603 -0.54958,-0.99389 -0.47329,-1.01958 -0.40056,-1.05185 -0.32082,-1.06455 -0.24487,-1.09089 -0.15953,-1.06228 -0.0858,-1.13251 -0.002,-1.07086 0.0786,-1.10022 0.16032,-1.11272 0.25967,-1.22222 0.92247,-3.89972 0.12225,-1.05944 0.0334,-0.92776 -0.0395,-0.91498 -0.12654,-0.9781 -0.19246,-0.87903 -0.26842,-0.8687 -0.33398,-0.82819 -0.43871,-0.86687 -0.52906,-0.85163 -0.58716,-0.79054 -0.6854101,-0.78931 -0.85596,-0.85966 -2.93405,-2.82293 -0.69056,-0.82809 -0.6071,-0.83924 -0.58085,-0.93717 -0.48118,-0.91644 -0.43518,-0.99168 -0.37693,-1.06024 -0.30744,-1.11912 -0.22847,-1.16581 -0.12941,-1.04732 -0.0602,-1.06196 0.013,-1.12223 0.0969,-1.16405 0.1793,-1.14061 0.25635,-1.10387 0.32596,-1.05524 0.38636,-0.99662 0.47804,-1.01142 0.523,-0.92636 0.5774,-0.87261 0.64534,-0.84104 0.73052,-0.82767 0.89834,-0.89498 2.76664,-2.65184 0.6646001,-0.79653 0.55926,-0.78758 0.4821,-0.81095 0.38277,-0.78144 0.3317,-0.84527 0.26264,-0.88339 0.18398,-0.88967 0.10605,-0.8645 0.0384,-0.9439 -0.0399,-0.96661 -0.12435,-1.03142 -0.2189,-1.12501 -0.40689,-1.60238 -0.43288,-1.75362 -0.2121,-1.19271 -0.11956,-1.15869 -0.0304,-1.11063 0.0463,-1.03204 0.1255,-1.08038 0.21366,-1.11709 0.30819,-1.13934 0.36338,-1.03704 0.44328,-1.02813 0.52132,-1.00729 0.59492,-0.97395 0.66199,-0.92897 0.72064,-0.87363 0.76929,-0.80959 0.80677,-0.73878 0.83233,-0.66336 0.92296,-0.63502 0.92387,-0.54282 0.91129,-0.45412 0.9970205,-0.41321 1.06335,-0.35389 1.12092,-0.28909 1.42069,-0.27685 2.51278,-0.47147 1.14429,-0.31229 0.92993,-0.33308 0.91255,-0.41258 0.8404,-0.46975 0.72439,-0.48731 0.70031,-0.55847 0.65076,-0.6132 0.58196,-0.64482 0.57931,-0.759 0.53212,-0.83535 0.45623,-0.86159 0.43652,-0.99718 0.44043,-1.21495 1.01702,-2.93092 0.49291,-1.09605 0.48715,-0.90578 0.58702,-0.9277 0.67751,-0.91223 0.7125,-0.82494 0.8034,-0.80431 0.7877,-0.68552 0.8522,-0.64707 0.91015,-0.59896 0.95984,-0.54225 0.99986,-0.47835 1.02908,-0.40889 1.04675,-0.33572 1.0525,-0.26081 1.04639,-0.18612 1.15574,-0.12292 1.11886,-0.037 1.06949,0.0406 1.11923,0.12364 1.03998,0.19146 1.05398,0.27093 1.14712,0.38049 1.3675,0.54529 2.09721,0.8476 1.12252,0.36096 1.02172,0.24299 0.97705,0.14955 0.96679,0.0657 0.90118,-0.014 0.92366,-0.0914 0.9127,-0.16943 0.86971,-0.23769 0.91065,-0.33282 0.89711,-0.41661 0.91371,-0.51927 0.91974,-0.61958 1.1038,-0.85098 2.18098,-1.71335 0.97273,-0.64495 0.95544,-0.54082 0.95748,-0.45573 1.04978,-0.40943 1.03117,-0.31845 1.09705,-0.25487 1.15255,-0.18049 1.07401,-0.0915 1.09754,-0.0192 1.10926,0.0561 1.10869,0.13228 1.09581,0.20743 1.07092,0.27951 1.03482,0.34662 0.98866,0.40708 1.03399,0.51333 0.95731,0.56538 0.87469,0.604 0.864,0.69313 0.82814,0.7724 0.74775,0.80709 0.70367,0.86959 0.85955,1.19845 1.36061,1.91718 0.747952,0.89961 0.71811,0.73807 0.78257,0.67977 0.79378,0.5759 0.81813,0.49108 0.84018,0.41025 0.86807,0.3354 0.86304,0.25338 0.94296,0.19394 0.97095,0.11722 1.03521,0.0421 1.1616,-0.0397 1.435501,-0.13705 2.32765,-0.23242 1.21961,-0.0339 1.08389,0.0457 1.03609,0.11591 1.08938,0.20091 1.00433,0.25945 1.02695,0.34208 1.03659,0.42857 1.03197,0.51629 1.01259,0.60246 0.97864,0.68432 0.93091,0.75925 0.87082,0.82482 0.80024,0.87904 0.72146,0.92032 0.63706,0.94764 0.54981,0.96064 0.46256,0.95959 0.41962,1.06229 0.32053,1.02933 0.25369,1.09263 0.1767,1.1364 0.10296,1.18394 0.0652,1.85454 0.0821,1.57881 0.13381,1.10871 0.2028,1.01546 0.26073,0.91312 0.32121,0.85477 0.41833,0.87753 0.43404,0.74194 0.49278,0.70645 0.62559,0.75216 0.6486,0.65613 0.73049,0.62683 0.85182,0.61747 0.865,0.53364 1.1525,0.61335 2.91465,1.49316 0.94564,0.59629 0.87582,0.64148 0.79529,0.6732 0.78961,0.77156 0.68454,0.77035 0.65559,0.84834 0.61433,0.92196 0.56127,0.98856 0.49766,1.0458 0.42507,1.09173 0.34558,1.12476 0.26165,1.14387 0.17569,1.1485 0.0903,1.13868 0.008,1.11501 -0.0687,1.07867 -0.13797,1.03139 -0.22683,1.09318 -0.28889,1.01464 -0.37649,1.03286 -0.46228,1.03036 -0.59552,1.11636 -1.00448,1.67386 -0.72283,1.26708 -0.50246,1.04147 -0.33745,0.85788 -0.28183,0.91802 -0.20411,0.93966 -0.11792,0.9131 -0.0397,0.92223 v 0" /><ellipse
       style="fill:#737373;fill-opacity:1;stroke:none;stroke-width:0.714375;stroke-linecap:butt;stroke-linejoin:round;stroke-miterlimit:3.6;stroke-dasharray:none;paint-order:markers stroke fill"
       id="path2211-93-6-9"
       cx="37.616951"
       cy="509.11429"
       rx="8.7766304"
       ry="8.7211447" /><ellipse
       style="fill:#737373;fill-opacity:1;stroke:none;stroke-width:0.714375;stroke-linecap:butt;stroke-linejoin:round;stroke-miterlimit:3.6;stroke-dasharray:none;paint-order:markers stroke fill"
       id="path2211-93-6-2-2"
       cx="86.791229"
       cy="509.11429"
       rx="8.7766304"
       ry="8.7211447" /><ellipse
       style="fill:#737373;fill-opacity:1;stroke:none;stroke-width:0.714375;stroke-linecap:butt;stroke-linejoin:round;stroke-miterlimit:3.6;stroke-dasharray:none;paint-order:markers stroke fill"
       id="path2211-93-6-6-0"
       cx="13.029851"
       cy="551.42572"
       rx="8.7766304"
       ry="8.7211447" /><ellipse
       style="fill:#737373;fill-opacity:1;stroke:none;stroke-width:0.714375;stroke-linecap:butt;stroke-linejoin:round;stroke-miterlimit:3.6;stroke-dasharray:none;paint-order:markers stroke fill"
       id="path2211-93-6-1-2"
       cx="111.37839"
       cy="551.42572"
       rx="8.7766304"
       ry="8.7211447" /><ellipse
       style="fill:#737373;fill-opacity:1;stroke:none;stroke-width:0.714375;stroke-linecap:butt;stroke-linejoin:round;stroke-miterlimit:3.6;stroke-dasharray:none;paint-order:markers stroke fill"
       id="path2211-93-6-8-3"
       cx="37.616951"
       cy="593.73712"
       rx="8.7766304"
       ry="8.7211447" /><ellipse
       style="fill:#737373;fill-opacity:1;stroke:none;stroke-width:0.714375;stroke-linecap:butt;stroke-linejoin:round;stroke-miterlimit:3.6;stroke-dasharray:none;paint-order:markers stroke fill"
       id="path2211-93-6-7-7"
       cx="86.791229"
       cy="593.73712"
       rx="8.7766304"
       ry="8.7211447" /><path
       id="path2087"
       clip-path="url(#pbdbe92e955)"
       style="fill:#e7d808;fill-opacity:1;stroke:#cc9b00;stroke-width:1.94448;stroke-linecap:butt;stroke-linejoin:miter;stroke-dasharray:none;stroke-opacity:1"
       d="m 368.9994,140.22507 c -59.6243,0 -116.81452,23.53642 -158.97526,65.42515 -42.16075,41.88874 -65.84995,98.71023 -65.84995,157.94985 0,59.23962 23.6892,116.06111 65.84995,157.94985 42.16074,41.88872 99.35096,65.42515 158.97526,65.42515 59.62429,0 116.81592,-23.53643 158.97666,-65.42515 42.16075,-41.88874 65.84854,-98.71023 65.84854,-157.94985 0,-59.23962 -23.68779,-116.06111 -65.84854,-157.94985 -42.16074,-41.88873 -99.35237,-65.42515 -158.97666,-65.42515 z m -43.44986,16.9017 3.18032,0.11956 3.09452,0.33618 2.98903,0.53732 2.87087,0.71877 3.0481,0.99165 2.91166,1.18154 2.81741,1.36441 3.08468,1.74418 3.24643,2.09161 5.1369,3.3885 2.1521,1.01134 1.95376,0.70049 1.94814,0.512 2.1943,0.37135 2.22946,0.16175 2.14225,-0.0436 2.40388,-0.28273 2.176,-0.47824 2.11272,-0.67657 2.12678,-0.91711 2.07614,-1.15341 2.06629,-1.41785 3.72889,-2.51359 3.12688,-1.86656 3.09029,-1.58524 2.88353,-1.24203 3.01153,-1.05495 2.83711,-0.77925 2.95808,-0.60343 3.0692,-0.40651 3.16344,-0.19411 3.23096,0.0309 3.27034,0.26726 2.91026,0.43886 2.89056,0.63015 2.84555,0.81583 2.77663,0.99587 3.01434,1.31939 2.87227,1.5135 2.7063,1.6837 2.52344,1.82999 2.33074,1.95236 2.13381,2.05363 2.14928,2.37856 1.93689,2.47421 1.75825,2.58674 1.79904,3.04951 1.76387,3.4321 2.75975,5.51246 1.36581,1.95517 1.35033,1.58524 1.44036,1.41785 1.72731,1.41364 1.9622,1.30813 1.96924,1.04933 2.18445,0.90444 2.07614,0.63156 2.19148,0.44871 2.22524,0.23912 2.25478,0.0253 2.70348,-0.21943 4.48284,-0.31367 3.6234,-0.0534 3.45742,0.1716 3.08186,0.36009 3.09733,0.58093 3.12405,0.82004 2.79351,0.94664 2.78929,1.15904 2.76256,1.37847 2.70911,1.5979 2.62753,1.80748 2.5164,2.01003 2.37856,2.19289 2.21539,2.35605 2.03113,2.49531 1.82999,2.60502 1.61618,2.68942 1.39676,2.74427 1.17732,2.7696 0.96211,2.77522 0.83552,3.10577 0.59359,3.07904 0.37134,3.06076 0.17301,3.08468 -0.0239,3.56572 -0.24334,3.93708 -0.32774,4.78103 0.10409,1.9833 0.34462,2.33355 0.48949,1.98471 0.75535,2.16616 0.92694,2.00722 0.51482,0.93398 1.2139,1.87641 1.4727,1.84546 1.49522,1.54163 1.79201,1.52334 1.95658,1.34753 1.96783,1.08589 8.40724,4.1762 2.8976,1.79622 2.51359,1.79482 2.41232,1.9819 2.31807,2.19992 2.01285,2.19852 1.90453,2.39262 1.77091,2.5783 1.61478,2.75131 1.43473,2.90462 1.11825,2.72599 0.94242,2.81039 0.75534,2.86946 0.56405,2.90604 0.36853,2.91588 0.18145,3.22392 -0.0492,3.1747 -0.27148,3.10014 -0.47683,3.00028 -0.66533,2.88493 -0.92976,3.03544 -1.11824,2.89619 -1.2997,2.7907 -1.63869,2.99465 -1.93689,3.08326 -2.73583,3.90894 -1.15623,1.82155 -1.01275,1.99033 -0.81161,2.06067 -0.63859,2.25478 -0.39666,2.21961 -0.18286,2.38982 0.0675,2.42357 0.30524,2.31385 0.48387,2.0874 0.68642,2.06348 0.90022,2.03675 1.13653,2.01285 1.50366,2.15913 2.56704,3.77531 1.94111,3.24643 1.53741,3.0059 1.23218,2.87369 1.0437,3.00168 0.78348,2.90181 0.59499,3.02841 0.3854,3.14234 0.15473,2.96371 -0.0478,3.01856 -0.25882,3.05232 -0.47121,3.05513 -0.68501,3.03263 -0.8946,2.97918 -1.09293,2.89759 -1.2786,2.79351 -1.44879,2.66551 -1.5979,2.51922 -1.89188,2.56423 -2.01847,2.36168 -2.12396,2.15913 -2.39966,2.11693 -2.49531,1.90594 -2.61205,1.73574 -3.01716,1.74278 -3.39553,1.71464 -5.31976,2.61347 -1.95376,1.32501 -1.81452,1.51913 -1.63306,1.67526 -1.44879,1.81733 -1.31377,2.048 -1.08871,2.16335 -0.81723,2.14366 -0.62172,2.31386 -0.36712,2.24493 -0.14347,2.29979 0.0858,2.31104 0.4698,6.08636 0.0464,3.54181 -0.1702,3.38569 -0.37275,3.11421 -0.59921,3.12968 -0.77644,2.91588 -1.00431,2.92995 -1.24625,2.92573 -1.35737,2.65566 -1.56273,2.60361 -1.76387,2.52766 -1.95236,2.42357 -2.12678,2.29698 -2.28151,2.14647 -2.41513,1.97627 -2.52484,1.79201 -2.60784,1.59367 -2.6641,1.39113 -2.9412,1.28282 -2.94963,1.0437 -2.93839,0.81301 -2.91447,0.5964 -3.13531,0.42339 -3.12406,0.2138 -3.44476,0.0211 -4.04538,-0.20959 -5.98649,-0.37274 -2.36871,0.18848 -2.04379,0.36009 -1.95095,0.52185 -2.09302,0.768 -2.12678,1.02541 -1.83421,1.11403 -1.67526,1.2364 -1.68229,1.50084 -1.52616,1.65275 -1.36581,1.80186 -1.16185,1.88203 -1.04651,2.13381 -2.09302,4.3267 -1.7259,3.11702 -1.82295,2.8554 -1.8117,2.46295 -2.00159,2.36731 -2.21821,2.27307 -2.19148,1.95517 -2.37856,1.84686 -2.5586,1.72027 -2.72599,1.56696 -2.87368,1.39394 -2.99887,1.19982 -3.09593,0.99166 -3.16344,0.768 -3.1972,0.54013 -3.1972,0.30946 -3.16907,0.083 -3.1114,-0.13644 -3.027,-0.34181 -2.92572,-0.53451 -3.01013,-0.76519 -2.91025,-0.9607 -2.78647,-1.13232 -2.96652,-1.44176 -2.95386,-1.67526 -3.39834,-2.19289 -4.6882,-3.12546 -2.15069,-1.04932 -2.01003,-0.74972 -2.04098,-0.55702 -2.3237,-0.40228 -2.24634,-0.16457 -2.27728,0.052 -2.19148,0.25881 -2.1099,0.45152 -2.26322,0.71737 -2.06067,0.88475 -1.98612,1.0873 -1.92704,1.30392 -3.98771,2.70067 -3.17188,1.89328 -2.90603,1.49944 -2.98199,1.29547 -2.87228,1.01697 -3.0059,0.83693 -2.8765,0.59218 -2.98339,0.40791 -3.07342,0.20818 -3.13953,-0.006 -3.17892,-0.22927 -3.19016,-0.45574 -3.16626,-0.68501 -3.1114,-0.90726 -3.027,-1.12106 -2.91166,-1.31939 -2.84836,-1.54304 -2.69083,-1.71886 -2.50374,-1.86375 -2.30823,-1.9819 -2.1099,-2.07895 -2.10287,-2.38278 -1.89609,-2.47843 -1.72871,-2.59658 -1.76388,-3.04669 -1.747,-3.44899 -2.30401,-4.67834 -1.20123,-1.81733 -1.4488,-1.78919 -1.6851,-1.69918 -1.7245,-1.42348 -1.96501,-1.32079 -1.8961,-1.02541 -2.13522,-0.90163 -2.13944,-0.66954 -2.18022,-0.45996 -2.30823,-0.25741 -2.20836,-0.0338 -2.13804,0.15895 -4.80916,0.3629 -3.86111,0.0689 -3.33646,-0.15332 -3.30129,-0.37837 -2.9848,-0.5542 -3.01012,-0.77644 -3.02841,-1.01557 -2.68942,-1.11543 -2.6655,-1.31658 -2.61768,-1.52053 -2.54454,-1.71746 -2.44608,-1.90735 -2.32089,-2.08036 -2.14788,-2.20695 -1.98189,-2.33496 -1.80608,-2.44326 -1.61477,-2.52766 -1.42067,-2.58814 -1.22093,-2.62331 -1.13794,-2.96652 -0.896,-2.95948 -0.66954,-2.93839 -0.45996,-2.91447 -0.28835,-3.23518 -0.076,-3.30692 0.12238,-3.52071 0.39244,-4.63756 0.0957,-2.37153 -0.15473,-2.41794 -0.33196,-2.0466 -0.53732,-2.08459 -0.69064,-1.93688 -0.92132,-1.9819 -1.12669,-1.92282 -1.27438,-1.7695 -1.56976,-1.77795 -1.73996,-1.61055 -1.72309,-1.30955 -1.93548,-1.19842 -2.05082,-1.00994 -4.46455,-2.12115 -3.26893,-1.78357 -2.76397,-1.73715 -2.61909,-1.89891 -2.30682,-1.92704 -2.21961,-2.12677 -2.11694,-2.34059 -1.81873,-2.31385 -1.69355,-2.48406 -1.53741,-2.62612 -1.40519,-2.83289 -1.21249,-2.95808 -1.00572,-3.05513 -0.78488,-3.12265 -0.55701,-3.15922 -0.32774,-3.16204 -0.10128,-3.13531 0.11816,-3.08186 0.32492,-3.00027 0.51622,-2.90182 0.76238,-3.03825 0.95227,-2.90182 1.12528,-2.77662 1.41222,-2.90744 1.63447,-2.88494 2.09724,-3.24784 3.76406,-5.68688 0.96774,-2.10286 0.71174,-2.0452 0.52326,-2.13803 0.30523,-2.04097 0.12097,-2.1521 -0.0788,-2.16335 -0.26866,-2.07333 -0.49653,-2.19148 -0.69908,-2.11553 -0.9368,-2.1113 -1.07323,-1.89891 -1.39535,-2.01284 -2.52485,-3.68811 -1.88625,-3.10858 -1.60352,-3.06498 -1.26453,-2.88353 -1.07464,-3.01012 -0.80177,-2.86665 -0.60202,-2.91166 -0.41776,-3.09733 -0.18989,-2.92573 0.006,-2.9848 0.21239,-3.02138 0.42198,-3.03263 0.63297,-3.01293 0.83974,-2.96933 1.03666,-2.89619 1.22375,-2.79773 1.39534,-2.67816 1.54726,-2.53751 1.83983,-2.59095 1.97206,-2.39544 2.08036,-2.1943 2.35324,-2.15631 2.45029,-1.94252 2.55439,-1.76247 2.92713,-1.75403 3.24081,-1.69495 6.98376,-3.5179 1.77654,-1.28704 1.73293,-1.53038 1.46005,-1.56133 1.41785,-1.83983 1.12246,-1.78638 0.95087,-1.87078 0.83974,-2.12818 0.63296,-2.23649 0.37557,-2.05645 0.1927,-2.1746 -0.0169,-2.24494 -0.40088,-4.66147 -0.1702,-3.83861 0.0605,-3.55729 0.27288,-3.2408 0.46699,-3.02841 0.69204,-3.05091 0.84959,-2.82023 1.06761,-2.82586 1.29407,-2.81179 1.52194,-2.77241 1.747,-2.70349 1.77653,-2.37152 1.94392,-2.26603 2.09584,-2.13944 2.22945,-1.99597 2.34621,-1.83561 2.6852,-1.81873 2.76819,-1.5979 2.81882,-1.37143 2.84274,-1.14497 2.84133,-0.92555 3.08186,-0.76941 3.05373,-0.53872 3.04247,-0.32774 3.33786,-0.14207 3.50243,0.0633 4.23105,0.2982 3.5165,0.24334 2.23368,-0.0942 2.16616,-0.29539 2.22806,-0.52466 2.0466,-0.68923 2.1099,-0.94383 1.8539,-1.05073 1.90172,-1.33064 1.73012,-1.48256 1.59086,-1.66119 1.38269,-1.75544 1.22093,-1.90735 1.00571,-1.9622 2.07755,-4.35483 1.86515,-3.41241 1.85249,-2.92432 1.84405,-2.51641 2.03957,-2.41654 2.02832,-2.09161 2.22102,-2.003 2.41513,-1.89187 2.60362,-1.76107 2.77803,-1.60211 2.93276,-1.42208 3.06217,-1.22092 2.80757,-0.90163 2.86243,-0.72018 3.25909,-0.58515 3.26612,-0.34461 z"
       transform="matrix(0.36738559,0,0,0.36738559,-73.361163,417.84428)" /><path
       d="m 379.97039,449.72039 c 22.9877,0 45.03698,-9.07419 61.29174,-25.22408 C 457.51689,408.34642 466.65,386.43939 466.65,363.6 c 0,-22.83939 -9.13311,-44.74642 -25.38787,-60.89631 -16.25476,-16.14989 -38.30404,-25.22408 -61.29174,-25.22408 -22.9877,0 -45.03698,9.07419 -61.29174,25.22408 -16.25476,16.14989 -25.38787,38.05692 -25.38787,60.89631 0,22.83939 9.13311,44.74642 25.38787,60.89631 16.25476,16.14989 38.30404,25.22408 61.29174,25.22408 z"
       clip-path="url(#pbdbe92e955)"
       style="fill:#a3b3da;fill-opacity:1;stroke:#6082df;stroke-width:2.86416;stroke-linecap:butt;stroke-linejoin:miter;stroke-dasharray:none;stroke-opacity:1"
       id="path2089"
       transform="matrix(0.24941858,0,0,0.24941858,-28.697453,460.73708)" /><circle
       style="display:inline;fill:#000000;fill-opacity:1;stroke:none;stroke-width:0.635;stroke-linecap:butt;stroke-linejoin:round;stroke-miterlimit:3.6;stroke-dasharray:1.905, 1.905"
       id="path1491-5"
       cx="62.202793"
       cy="551.42535"
       r="1.4007622" /><circle
       style="display:inline;fill:#1f6d00;fill-opacity:1;stroke:none;stroke-width:0.635;stroke-linecap:butt;stroke-linejoin:round;stroke-miterlimit:3.6;stroke-dasharray:1.905, 1.905"
       id="path1491-7-3"
       cx="66.35791"
       cy="551.42572"
       r="1.4007622" /><path
       d="m 369,586.97476 c 59.62435,0 116.81467,-23.53618 158.97545,-65.42495 42.16079,-41.88878 65.84979,-98.71013 65.84979,-157.94981 0,-59.23968 -23.689,-116.06103 -65.84979,-157.94981 C 485.81467,163.76142 428.62435,140.22524 369,140.22524 c -59.62435,0 -116.81467,23.53618 -158.97545,65.42495 -42.16079,41.88878 -65.84979,98.71013 -65.84979,157.94981 0,59.23968 23.689,116.06103 65.84979,157.94981 42.16078,41.88877 99.3511,65.42495 158.97545,65.42495 z"
       clip-path="url(#pbdbe92e955-2)"
       style="display:inline;fill:none;fill-opacity:0.5453;stroke:#dd453f;stroke-width:2.025;stroke-linecap:butt;stroke-linejoin:miter;stroke-dasharray:2.0250001,2.0250001;stroke-dashoffset:0.40500003;stroke-opacity:1"
       id="path14-1"
       transform="matrix(0.35277777,0,0,0.35277777,-67.970883,423.15567)" /><path
       d="m 144.17476,387.82136 c 6.46529,0 12.66665,-2.55212 17.2383,-7.09427 4.57165,-4.54216 7.14034,-10.70351 7.14034,-17.12709 0,-6.42358 -2.56869,-12.58493 -7.14034,-17.12709 -4.57165,-4.54215 -10.77301,-7.09427 -17.2383,-7.09427 -6.46529,0 -12.66665,2.55212 -17.23831,7.09427 -4.57165,4.54216 -7.14033,10.70351 -7.14033,17.12709 0,6.42358 2.56868,12.58493 7.14033,17.12709 4.57166,4.54215 10.77302,7.09427 17.23831,7.09427 z"
       clip-path="url(#pbdbe92e955-9)"
       style="display:inline;fill:#e74c46;fill-opacity:0.667254;stroke:#c52517;stroke-width:2.55118116;stroke-linecap:butt;stroke-linejoin:miter;stroke-dasharray:2.55118108,2.55118108;stroke-dashoffset:0;stroke-opacity:1"
       id="path2107"
       transform="matrix(0.35277777,0,0,0.35277777,-67.990776,423.17446)" /><path
       d="m 174.29563,499.50874 c 6.46529,0 12.66665,-2.55212 17.2383,-7.09427 4.57165,-4.54216 7.14034,-10.70351 7.14034,-17.12709 0,-6.42358 -2.56869,-12.58493 -7.14034,-17.12709 -4.57165,-4.54216 -10.77301,-7.09427 -17.2383,-7.09427 -6.46529,0 -12.66665,2.55211 -17.2383,7.09427 -4.57166,4.54216 -7.14034,10.70351 -7.14034,17.12709 0,6.42358 2.56868,12.58493 7.14034,17.12709 4.57165,4.54215 10.77301,7.09427 17.2383,7.09427 z"
       clip-path="url(#pbdbe92e955-9)"
       style="display:inline;fill:#e74c46;fill-opacity:0.667254;stroke:#c52517;stroke-width:2.55118116;stroke-linecap:butt;stroke-linejoin:miter;stroke-dasharray:2.55118108,2.55118108;stroke-dashoffset:0;stroke-opacity:1"
       id="path2109"
       transform="matrix(0.35277777,0,0,0.35277777,-67.990776,423.17446)" /><path
       d="m 256.58738,581.26957 c 6.46529,0 12.66665,-2.55211 17.2383,-7.09427 4.57165,-4.54215 7.14034,-10.70351 7.14034,-17.12709 0,-6.42358 -2.56869,-12.58493 -7.14034,-17.12708 -4.57165,-4.54216 -10.77301,-7.09427 -17.2383,-7.09427 -6.46529,0 -12.66665,2.55211 -17.2383,7.09427 -4.57166,4.54215 -7.14034,10.7035 -7.14034,17.12708 0,6.42358 2.56868,12.58494 7.14034,17.12709 4.57165,4.54216 10.77301,7.09427 17.2383,7.09427 z"
       clip-path="url(#pbdbe92e955-9)"
       style="display:inline;fill:#e74c46;fill-opacity:0.667254;stroke:#c52517;stroke-width:2.55118116;stroke-linecap:butt;stroke-linejoin:miter;stroke-dasharray:2.55118108,2.55118108;stroke-dashoffset:0;stroke-opacity:1"
       id="path2111"
       transform="matrix(0.35277777,0,0,0.35277777,-67.990776,423.17446)" /><text
       xml:space="preserve"
       style="font-size:5.29167px;line-height:0.8;font-family:sans-serif;-inkscape-font-specification:sans-serif;text-align:center;text-anchor:middle;fill:none;fill-opacity:1;stroke:#ffffff;stroke-width:1.262;stroke-dasharray:none;stroke-opacity:1"
       x="-39.651558"
       y="370.75406"
       id="text25"><tspan
         sodipodi:role="line"
         id="tspan25"
         style="font-size:5.29167px;stroke-width:1.262"
         x="-39.651558"
         y="370.75406" /></text><path
       style="font-variation-settings:normal;display:inline;opacity:1;vector-effect:none;fill:none;fill-opacity:1;stroke:#000000;stroke-width:0.476;stroke-linecap:butt;stroke-linejoin:miter;stroke-miterlimit:4;stroke-dasharray:none;stroke-dashoffset:0;stroke-opacity:1;-inkscape-stroke:none;paint-order:normal;stop-color:#000000;stop-opacity:1"
       d="M -18.938486,590.76537 H -5.8567137"
       id="path2579-2-9-1-9"
       sodipodi:nodetypes="cc" /><path
       style="font-variation-settings:normal;display:inline;opacity:1;vector-effect:none;fill:none;fill-opacity:1;stroke:#000000;stroke-width:0.476;stroke-linecap:butt;stroke-linejoin:miter;stroke-miterlimit:4;stroke-dasharray:none;stroke-dashoffset:0;stroke-opacity:1;-inkscape-stroke:none;paint-order:normal;stop-color:#000000;stop-opacity:1"
       d="M -18.724512,599.43819 H -5.6427399"
       id="path2579-2-9-1-9-3"
       sodipodi:nodetypes="cc" /><path
       style="font-variation-settings:normal;display:inline;vector-effect:none;fill:none;fill-opacity:1;stroke:#000000;stroke-width:0.476;stroke-linecap:butt;stroke-linejoin:miter;stroke-miterlimit:4;stroke-dasharray:none;stroke-dashoffset:0;stroke-opacity:1;-inkscape-stroke:none;paint-order:normal;stop-color:#000000"
       d="m -18.403493,614.28006 0.07016,-14.80758"
       id="path2579-2-9-1-9-3-0"
       sodipodi:nodetypes="cc" /><path
       style="display:inline;fill:none;stroke:#000000;stroke-width:0.476;stroke-linecap:butt;stroke-linejoin:miter;stroke-miterlimit:4;stroke-dasharray:none;stroke-dashoffset:0;stroke-opacity:1;paint-order:normal"
       d="m 62.202793,551.42564 0.01029,8.37807"
       id="path2557-8"
       sodipodi:nodetypes="cc" /><path
       style="font-variation-settings:normal;display:inline;opacity:1;vector-effect:none;fill:none;fill-opacity:1;stroke:#000000;stroke-width:0.476;stroke-linecap:butt;stroke-linejoin:miter;stroke-miterlimit:4;stroke-dasharray:none;stroke-dashoffset:0;stroke-opacity:1;-inkscape-stroke:none;paint-order:normal;stop-color:#000000;stop-opacity:1"
       d="m 66.35791,551.42572 0.0808,8.37798"
       id="path2557-3-0"
       sodipodi:nodetypes="cc" /><path
       style="font-variation-settings:normal;display:inline;opacity:1;vector-effect:none;fill:none;fill-opacity:1;stroke:#000000;stroke-width:0.476;stroke-linecap:butt;stroke-linejoin:miter;stroke-miterlimit:4;stroke-dasharray:none;stroke-dashoffset:0;stroke-opacity:1;-inkscape-stroke:none;paint-order:normal;stop-color:#000000;stop-opacity:1"
       d="m 68.1025,558.69805 13.10973,-0.002"
       id="path2579-2-6"
       sodipodi:nodetypes="cc" /><circle
       style="display:inline;fill:none;fill-opacity:0.518783;stroke:#6f6f6f;stroke-width:0.4805134;stroke-linecap:butt;stroke-linejoin:round;stroke-miterlimit:4;stroke-dasharray:1.92205358, 0.96102679;stroke-opacity:1;marker-end:url(#TriangleOutM-9);paint-order:normal;stroke-dashoffset:0"
       id="path1260-5"
       sodipodi:type="arc"
       sodipodi:cx="62.674351"
       sodipodi:cy="-551.48193"
       sodipodi:rx="8.0550194"
       sodipodi:ry="8.0550194"
       sodipodi:start="0"
       sodipodi:end="3.403392"
       sodipodi:arc-type="arc"
       d="m 70.72937,-551.48193 a 8.0550194,8.0550194 0 0 1 -4.650821,7.30032 8.0550194,8.0550194 0 0 1 -8.581865,-1.12982 8.0550194,8.0550194 0 0 1 -2.602885,-8.2553"
       sodipodi:open="true"
       transform="scale(1,-1)" /><rect
       style="font-variation-settings:normal;display:inline;fill:#e74c46;fill-opacity:0.667254;fill-rule:evenodd;stroke:#c52517;stroke-width:0.89999959;stroke-linecap:butt;stroke-linejoin:miter;stroke-miterlimit:4;stroke-dasharray:0.89999959,0.89999959;stroke-dashoffset:0;stroke-opacity:1;paint-order:normal;opacity:1;vector-effect:none;-inkscape-stroke:none;stop-color:#000000;stop-opacity:1"
       id="rect3"
       width="9.5006094"
       height="9.5006094"
       x="-75.279907"
       y="469.02481" /><rect
       style="font-variation-settings:normal;display:inline;fill:#e7d808;fill-opacity:1;fill-rule:evenodd;stroke:#cc9b00;stroke-width:0.767292;stroke-linecap:butt;stroke-linejoin:miter;stroke-miterlimit:4;stroke-dasharray:none;stroke-dashoffset:0;stroke-opacity:1;paint-order:normal;stop-color:#000000"
       id="rect4"
       width="9.5006094"
       height="9.5006094"
       x="-75.279907"
       y="482.24017" /><rect
       style="font-variation-settings:normal;display:inline;fill:#6dd283;fill-opacity:1;fill-rule:evenodd;stroke:#00b126;stroke-width:0.767292;stroke-linecap:square;stroke-linejoin:round;stroke-miterlimit:4;stroke-dasharray:none;stroke-dashoffset:0;stroke-opacity:1;paint-order:normal;stop-color:#000000"
       id="rect5"
       width="9.5006094"
       height="9.5006094"
       x="-75.279907"
       y="495.45554" /><rect
       style="font-variation-settings:normal;display:inline;fill:#a3b3da;fill-opacity:1;fill-rule:evenodd;stroke:#6082df;stroke-width:0.767292;stroke-linecap:butt;stroke-linejoin:miter;stroke-miterlimit:4;stroke-dasharray:none;stroke-dashoffset:0;stroke-opacity:1;paint-order:normal;stop-color:#000000"
       id="rect6"
       width="9.5006094"
       height="9.5006094"
       x="-75.279907"
       y="508.6709" /><rect
       style="font-variation-settings:normal;display:inline;fill:#737373;fill-opacity:1;fill-rule:evenodd;stroke:none;stroke-width:0.767292;stroke-linecap:butt;stroke-linejoin:round;stroke-miterlimit:3.6;stroke-dasharray:none;stroke-dashoffset:0;stroke-opacity:1;paint-order:normal;stop-color:#000000"
       id="rect7"
       width="9.5006094"
       height="9.5006094"
       x="-75.279907"
       y="521.88629" /><text
       xml:space="preserve"
       style="font-style:normal;font-weight:normal;font-size:5.29167px;line-height:1.15em;font-family:sans-serif;letter-spacing:0px;word-spacing:0px;display:inline;fill:#000000;fill-opacity:1;stroke:none;stroke-width:0.264583;stroke-linecap:butt;stroke-linejoin:round;paint-order:normal"
       x="-31.944427"
       y="611.14807"
       id="text2910-4-8-0"><tspan
         sodipodi:role="line"
         id="tspan2908-7-4-3"
         x="-31.944427"
         y="611.14807"
         style="font-size:5.29167px;stroke-width:0.264583;paint-order:normal">$R_{r}$</tspan></text><text
       xml:space="preserve"
       style="font-style:normal;font-weight:normal;font-size:5.29167px;line-height:1.15em;font-family:sans-serif;letter-spacing:0px;word-spacing:0px;display:inline;fill:#000000;fill-opacity:1;stroke:none;stroke-width:0.264583;stroke-linecap:butt;stroke-linejoin:round;paint-order:normal"
       x="-65.460915"
       y="564.16504"
       id="text2910-4-8-1-6-0"><tspan
         sodipodi:role="line"
         id="tspan2908-7-4-0-3-6"
         x="-65.460915"
         y="564.16504"
         style="font-size:5.29167px;stroke-width:0.264583;paint-order:normal">$N=12$</tspan></text><text
       xml:space="preserve"
       style="font-style:normal;font-weight:normal;font-size:5.29167px;line-height:1.15em;font-family:sans-serif;letter-spacing:0px;word-spacing:0px;display:inline;fill:#000000;fill-opacity:1;stroke:none;stroke-width:0.264583;stroke-linecap:butt;stroke-linejoin:round;paint-order:normal"
       x="8.0293512"
       y="530.03784"
       id="text2910-4-6"><tspan
         sodipodi:role="line"
         id="tspan2908-7-75"
         x="8.0293512"
         y="530.03784"
         style="font-size:5.29167px;stroke-width:0.264583;paint-order:normal">$R$</tspan></text><text
       xml:space="preserve"
       style="font-style:normal;font-weight:normal;font-size:5.29167px;line-height:1.15em;font-family:sans-serif;letter-spacing:0px;word-spacing:0px;display:inline;fill:#000000;fill-opacity:1;stroke:none;stroke-width:0.264583;stroke-linecap:butt;stroke-linejoin:round;paint-order:normal"
       x="-61.9552"
       y="587.52179"
       id="text2910-4-8-1-6-0-6"><tspan
         sodipodi:role="line"
         id="tspan2908-7-4-0-3-6-3"
         x="-61.9552"
         y="587.52179"
         style="font-size:5.29167px;stroke-width:0.264583;paint-order:normal">Pitch circle</tspan><tspan
         sodipodi:role="line"
         x="-61.9552"
         y="593.60724"
         style="font-size:5.29167px;stroke-width:0.264583;paint-order:normal"
         id="tspan1" /></text><text
       xml:space="preserve"
       style="font-style:normal;font-weight:normal;font-size:5.29167px;line-height:1.15em;font-family:sans-serif;letter-spacing:0px;word-spacing:0px;display:inline;fill:#000000;fill-opacity:1;stroke:none;stroke-width:0.264583;stroke-linecap:butt;stroke-linejoin:round;paint-order:normal"
       x="71.504807"
       y="564.93414"
       id="text2910-0"><tspan
         sodipodi:role="line"
         id="tspan2908-3"
         x="71.504807"
         y="564.93414"
         style="font-size:5.29167px;stroke-width:0.264583;paint-order:normal">$E$</tspan></text><text
       xml:space="preserve"
       style="font-style:normal;font-weight:normal;font-size:5.29167px;line-height:1.15em;font-family:sans-serif;letter-spacing:0px;word-spacing:0px;display:inline;fill:#000000;fill-opacity:1;stroke:none;stroke-width:0.264583;stroke-linecap:butt;stroke-linejoin:round;paint-order:normal"
       x="-62.940437"
       y="475.73303"
       id="text2910-4-8-1-6-0-6-8"><tspan
         sodipodi:role="line"
         id="tspan2908-7-4-0-3-6-3-8"
         x="-62.940437"
         y="475.73303"
         style="font-size:5.29167px;stroke-width:0.264583;paint-order:normal">Traditional pinwheel rollers</tspan><tspan
         sodipodi:role="line"
         x="-62.940437"
         y="481.81845"
         style="font-size:5.29167px;stroke-width:0.264583;paint-order:normal"
         id="tspan1-0" /></text><text
       xml:space="preserve"
       style="font-style:normal;font-weight:normal;font-size:5.29167px;line-height:1.15em;font-family:sans-serif;letter-spacing:0px;word-spacing:0px;display:inline;fill:#000000;fill-opacity:1;stroke:none;stroke-width:0.264583;stroke-linecap:butt;stroke-linejoin:round;paint-order:normal"
       x="-63.319397"
       y="489.13266"
       id="text2910-4-8-1-6-0-6-8-0"><tspan
         sodipodi:role="line"
         x="-63.319397"
         y="489.13266"
         style="font-size:5.29167px;stroke-width:0.264583;paint-order:normal"
         id="tspan1-0-8">Non-pinwheel</tspan></text><text
       xml:space="preserve"
       style="font-style:normal;font-weight:normal;font-size:5.29167px;line-height:1.15em;font-family:sans-serif;letter-spacing:0px;word-spacing:0px;display:inline;fill:#000000;fill-opacity:1;stroke:none;stroke-width:0.264583;stroke-linecap:butt;stroke-linejoin:round;paint-order:normal"
       x="-63.15834"
       y="502.53229"
       id="text2910-4-8-1-6-0-6-8-02"><tspan
         sodipodi:role="line"
         x="-63.15834"
         y="502.53229"
         style="font-size:5.29167px;stroke-width:0.264583;paint-order:normal"
         id="tspan2">Cycloidal disk</tspan></text><text
       xml:space="preserve"
       style="font-style:normal;font-weight:normal;font-size:5.29167px;line-height:1.15em;font-family:sans-serif;letter-spacing:0px;word-spacing:0px;display:inline;fill:#000000;fill-opacity:1;stroke:none;stroke-width:0.264583;stroke-linecap:butt;stroke-linejoin:round;paint-order:normal"
       x="-63.319397"
       y="515.95087"
       id="text2910-4-8-1-6-0-6-8-8"><tspan
         sodipodi:role="line"
         x="-63.319397"
         y="515.95087"
         style="font-size:5.29167px;stroke-width:0.264583;paint-order:normal"
         id="tspan1-0-1">Eccentric shaft</tspan></text><text
       xml:space="preserve"
       style="font-style:normal;font-weight:normal;font-size:5.29167px;line-height:1.15em;font-family:sans-serif;letter-spacing:0px;word-spacing:0px;display:inline;fill:#000000;fill-opacity:1;stroke:none;stroke-width:0.264583;stroke-linecap:butt;stroke-linejoin:round;paint-order:normal"
       x="-63.15834"
       y="528.56036"
       id="text7"><tspan
         sodipodi:role="line"
         x="-63.15834"
         y="528.56036"
         style="font-size:5.29167px;stroke-width:0.264583;paint-order:normal"
         id="tspan8">Output pins</tspan></text><path
       style="fill:none;stroke:#000000;stroke-width:0.61;stroke-dasharray:none;stroke-opacity:0.636364;marker-start:url(#marker14);marker-end:url(#marker14)"
       d="m 62.031182,558.69577 4.407527,-1e-5"
       id="path5"
       inkscape:transform-center-x="-0.09324809"
       inkscape:transform-center-y="0.27974439"
       sodipodi:nodetypes="cc" /><path
       style="fill:none;stroke:#000000;stroke-width:0.53799239;stroke-linejoin:round;stroke-dasharray:none;stroke-opacity:0.636364;marker-start:url(#ArrowTriangleStylized);marker-end:url(#ArrowTriangleStylized);paint-order:stroke fill markers"
       d="M -3.6733177,512.63531 59.62447,549.98073"
       id="path6"
       sodipodi:nodetypes="cc" /><path
       style="fill:none;stroke:#000000;stroke-width:0.61;stroke-dasharray:none;stroke-opacity:0.636364;marker-start:url(#marker14-1);marker-end:url(#marker14-1)"
       d="m -18.473657,589.63939 0.140327,9.83309"
       id="path5-2"
       inkscape:transform-center-x="0.27974443"
       inkscape:transform-center-y="0.093249382"
       sodipodi:nodetypes="cc" /><path
       style="font-variation-settings:normal;fill:#000000;fill-opacity:1;stroke:#ff9200;stroke-width:1.279;stroke-linecap:butt;stroke-linejoin:miter;stroke-miterlimit:4;stroke-dasharray:3.837, 1.279;stroke-dashoffset:0;stroke-opacity:1;marker-end:url(#ArrowTriangleStylized-9);stop-color:#000000"
       d="m -39.700729,560.09293 11.876465,-4.65396"
       id="path14-1-1"
       sodipodi:nodetypes="cc" /><path
       style="font-variation-settings:normal;fill:#000000;fill-opacity:1;stroke:#ff9200;stroke-width:1.279;stroke-linecap:butt;stroke-linejoin:miter;stroke-miterlimit:4;stroke-dasharray:3.837, 1.279;stroke-dashoffset:0;stroke-opacity:1;marker-end:url(#ArrowTriangleStylized-9-6);stop-color:#000000"
       d="m -37.650663,581.41347 17.498861,-11.7422"
       id="path14-1-1-0"
       sodipodi:nodetypes="cc" /></g></svg>
